999
Dxf file generated by netDxf https://github.com/haplokuon/netDxf, Copyright(C) 2009-2018 Daniel Carvajal, Licensed under LGPL
0
SECTION
2
HEADER
9
$ACADVER
1
AC1015
9
$DWGCODEPAGE
3
ANSI_1252
9
$HANDSEED
5
4FE
9
$ANGBASE
50
0.0
9
$ANGDIR
70
0
9
$ATTMODE
70
1
9
$AUNITS
70
0
9
$AUPREC
70
0
9
$CECOLOR
62
256
9
$CELTSCALE
40
1.0
9
$CELTYPE
6
ByLayer
9
$CELWEIGHT
370
-1
9
$CLAYER
8
0
9
$CMLJUST
70
0
9
$CMLSCALE
40
20.0
9
$CMLSTYLE
2
Standard
9
$DIMSTYLE
2
Standard
9
$TEXTSIZE
40
2.5
9
$TEXTSTYLE
7
Standard
9
$LUNITS
70
2
9
$LUPREC
70
4
9
$EXTNAMES
290
1
9
$INSBASE
10
0.0
20
0.0
30
0.0
9
$INSUNITS
70
0
9
$LTSCALE
40
1.0
9
$LWDISPLAY
290
0
9
$PDMODE
70
0
9
$PDSIZE
40
0.0
9
$PLINEGEN
70
0
9
$PSLTSCALE
70
1
9
$TDCREATE
40
2458975.44430012
9
$TDUCREATE
40
2458975.21513345
9
$TDUPDATE
40
2458975.44430012
9
$TDUUPDATE
40
2458975.21513345
9
$TDINDWG
40
0.0
9
$UCSORG
10
0.0
20
0.0
30
0.0
9
$UCSXDIR
10
1.0
20
0.0
30
0.0
9
$UCSYDIR
10
0.0
20
1.0
30
0.0
9
$DIMADEC
70
0
9
$DIMALT
70
0
9
$DIMALTD
70
2
9
$DIMALTF
40
25.4
9
$DIMALTRND
40
0.0
9
$DIMALTTD
70
2
9
$DIMALTTZ
70
0
9
$DIMALTU
70
2
9
$DIMALTZ
70
0
9
$DIMAPOST
1
[]
9
$DIMATFIT
70
3
9
$DIMAUNIT
70
0
9
$DIMASZ
40
0.18
9
$DIMAZIN
70
0
9
$DIMSAH
70
0
9
$DIMBLK
1

9
$DIMLDRBLK
1

9
$DIMCEN
40
0.09
9
$DIMCLRD
70
0
9
$DIMCLRE
70
0
9
$DIMCLRT
70
0
9
$DIMDEC
70
4
9
$DIMDLE
40
0.0
9
$DIMDLI
40
0.38
9
$DIMDSEP
70
46
9
$DIMEXE
40
0.18
9
$DIMEXO
40
0.0625
9
$DIMFXLON
70
0
9
$DIMFXL
40
1.0
9
$DIMGAP
40
0.09
9
$DIMJUST
70
0
9
$DIMLFAC
40
1.0
9
$DIMLUNIT
70
2
9
$DIMLWD
70
-2
9
$DIMLWE
70
-2
9
$DIMPOST
1
<>
9
$DIMRND
40
0.0
9
$DIMSCALE
40
1.0
9
$DIMSD1
70
0
9
$DIMSD2
70
0
9
$DIMSE1
70
0
9
$DIMSE2
70
0
9
$DIMSOXD
70
1
9
$DIMTAD
70
0
9
$DIMTDEC
70
4
9
$DIMTFAC
40
1.0
9
$DIMTIH
70
0
9
$DIMTIX
70
0
9
$DIMTM
40
0.0
9
$DIMTMOVE
70
0
9
$DIMTOFL
70
0
9
$DIMTOH
70
0
9
$DIMTOL
70
0
9
$DIMLIM
70
0
9
$DIMTOLJ
70
1
9
$DIMTP
40
0.0
9
$DIMTXT
40
0.18
9
$DIMTXTDIRECTION
70
0
9
$DIMTZIN
70
0
9
$DIMZIN
70
0
9
$DIMFRAC
70
0
9
$DIMLTYPE
6
ByBlock
9
$DIMLTEX1
6
ByBlock
9
$DIMLTEX2
6
ByBlock
0
ENDSEC
0
SECTION
2
CLASSES
0
CLASS
1
RASTERVARIABLES
2
AcDbRasterVariables
3
ISM
90
0
280
0
281
0
0
ENDSEC
0
SECTION
2
TABLES
0
TABLE
2
APPID
5
4
330
0
100
AcDbSymbolTable
70
4
0
APPID
5
18
330
4
100
AcDbSymbolTableRecord
100
AcDbRegAppTableRecord
2
ACAD
70
0
0
APPID
5
4F3
330
4
100
AcDbSymbolTableRecord
100
AcDbRegAppTableRecord
2
AcCmTransparency
70
0
0
APPID
5
4F4
330
4
100
AcDbSymbolTableRecord
100
AcDbRegAppTableRecord
2
GradientColor1ACI
70
0
0
APPID
5
4F5
330
4
100
AcDbSymbolTableRecord
100
AcDbRegAppTableRecord
2
GradientColor2ACI
70
0
0
ENDTAB
0
TABLE
2
VPORT
5
1
330
0
100
AcDbSymbolTable
70
1
0
VPORT
5
2
330
1
100
AcDbSymbolTableRecord
100
AcDbViewportTableRecord
2
*Active
70
0
10
0.0
20
0.0
11
1.0
21
1.0
12
0.0
22
0.0
13
0.0
23
0.0
14
0.5
24
0.5
15
10.0
25
10.0
16
0.0
26
0.0
36
1.0
17
0.0
27
0.0
37
0.0
40
10.0
41
1.0
75
0
76
1
0
ENDTAB
0
TABLE
2
LTYPE
5
6
330
0
100
AcDbSymbolTable
70
4
0
LTYPE
5
14
330
6
100
AcDbSymbolTableRecord
100
AcDbLinetypeTableRecord
2
Continuous
70
0
3
Solid line
72
65
73
0
40
0.0
0
LTYPE
5
15
330
6
100
AcDbSymbolTableRecord
100
AcDbLinetypeTableRecord
2
ByLayer
70
0
3

72
65
73
0
40
0.0
0
LTYPE
5
16
330
6
100
AcDbSymbolTableRecord
100
AcDbLinetypeTableRecord
2
ByBlock
70
0
3

72
65
73
0
40
0.0
0
LTYPE
5
47
330
6
100
AcDbSymbolTableRecord
100
AcDbLinetypeTableRecord
2
Dashed
70
0
3

72
65
73
0
40
0.0
0
ENDTAB
0
TABLE
2
LAYER
5
5
330
0
100
AcDbSymbolTable
70
11
0
LAYER
5
13
330
5
100
AcDbSymbolTableRecord
100
AcDbLayerTableRecord
2
0
70
0
62
7
6
Continuous
290
1
370
-3
390
0
0
LAYER
5
21
330
5
100
AcDbSymbolTableRecord
100
AcDbLayerTableRecord
2
Package
70
0
62
7
6
Continuous
290
1
370
-3
390
0
0
LAYER
5
2A
330
5
100
AcDbSymbolTableRecord
100
AcDbLayerTableRecord
2
Section
70
0
62
7
6
Continuous
290
1
370
-3
390
0
0
LAYER
5
46
330
5
100
AcDbSymbolTableRecord
100
AcDbLayerTableRecord
2
Markers-One
70
0
62
7
6
Continuous
290
1
370
-3
390
0
0
LAYER
5
4C
330
5
100
AcDbSymbolTableRecord
100
AcDbLayerTableRecord
2
Chainage Text
70
0
62
7
6
Continuous
290
1
370
-3
390
0
0
LAYER
5
1CA
330
5
100
AcDbSymbolTableRecord
100
AcDbLayerTableRecord
2
Activity Names
70
0
62
7
6
Continuous
290
1
370
-3
390
0
0
LAYER
5
1CD
330
5
100
AcDbSymbolTableRecord
100
AcDbLayerTableRecord
2
Activity Lines
70
0
62
7
6
Continuous
290
1
370
-3
390
0
0
LAYER
5
1FE
330
5
100
AcDbSymbolTableRecord
100
AcDbLayerTableRecord
2
Vertical Chainage Lines
70
0
62
7
6
Continuous
290
1
370
-3
390
0
0
LAYER
5
4B2
330
5
100
AcDbSymbolTableRecord
100
AcDbLayerTableRecord
2
Entity
70
0
62
7
6
Continuous
290
1
370
-3
390
0
0
LAYER
5
4DD
330
5
100
AcDbSymbolTableRecord
100
AcDbLayerTableRecord
2
Block
70
0
62
7
6
Continuous
290
1
370
-3
390
0
0
LAYER
5
4E6
330
5
100
AcDbSymbolTableRecord
100
AcDbLayerTableRecord
2
Outer Box
70
0
62
7
6
Continuous
290
1
370
-3
390
0
0
ENDTAB
0
TABLE
2
STYLE
5
7
330
0
100
AcDbSymbolTable
70
2
0
STYLE
5
17
330
7
100
AcDbSymbolTableRecord
100
AcDbTextStyleTableRecord
2
Standard
3
simplex.shx
70
0
71
0
40
0.0
41
1.0
42
0.0
50
0.0
0
STYLE
5
29
330
7
100
AcDbSymbolTableRecord
100
AcDbTextStyleTableRecord
2
True type font
3
Arial.ttf
70
0
71
0
40
0.0
41
1.0
42
0.0
50
0.0
0
ENDTAB
0
TABLE
2
DIMSTYLE
5
9
330
0
100
AcDbSymbolTable
70
1
100
AcDbDimStyleTable
0
DIMSTYLE
105
19
330
9
100
AcDbSymbolTableRecord
100
AcDbDimStyleTableRecord
2
Standard
3
<>
4
[]
40
1.0
41
0.18
42
0.0625
43
0.38
44
0.18
45
0.0
46
0.0
47
0.0
49
1.0
70
0
71
0
72
0
73
0
74
0
75
0
76
0
77
0
78
0
79
0
140
0.18
141
0.09
143
25.4
144
1.0
146
1.0
147
0.09
148
0.0
170
0
171
2
172
0
174
0
175
1
176
0
177
0
178
0
179
0
271
4
272
4
273
2
274
2
275
0
276
0
277
2
278
46
279
0
280
0
281
0
282
0
283
1
284
0
285
0
286
0
289
3
290
0
294
0
340
17
173
0
345
16
346
16
347
16
371
-2
372
-2
0
ENDTAB
0
TABLE
2
VIEW
5
3
330
0
100
AcDbSymbolTable
70
0
0
ENDTAB
0
TABLE
2
UCS
5
B
330
0
100
AcDbSymbolTable
70
0
0
ENDTAB
0
TABLE
2
BLOCK_RECORD
5
C
330
0
100
AcDbSymbolTable
70
2
0
BLOCK_RECORD
5
1B
330
C
100
AcDbSymbolTableRecord
100
AcDbBlockTableRecord
2
*Model_Space
340
1F
0
BLOCK_RECORD
5
4ED
330
C
100
AcDbSymbolTableRecord
100
AcDbBlockTableRecord
2
*Paper_Space
340
4F2
0
ENDTAB
0
ENDSEC
0
SECTION
2
BLOCKS
0
BLOCK
5
1D
330
1B
100
AcDbEntity
67
0
8
0
100
AcDbBlockBegin
2
*Model_Space
70
0
10
0.0
20
0.0
30
0.0
3
*Model_Space
0
ENDBLK
5
1C
330
1B
100
AcDbEntity
8
0
100
AcDbBlockEnd
0
BLOCK
5
4EF
330
4ED
100
AcDbEntity
67
1
8
0
100
AcDbBlockBegin
2
*Paper_Space
70
0
10
0.0
20
0.0
30
0.0
3
*Paper_Space
0
ENDBLK
5
4EE
330
4ED
100
AcDbEntity
8
0
100
AcDbBlockEnd
0
ENDSEC
0
SECTION
2
ENTITIES
0
POLYLINE
5
27
330
1B
100
AcDbEntity
67
0
8
Package
62
9
6
ByLayer
370
25
48
1.0
60
0
100
AcDb3dPolyline
10
0.0
20
0.0
30
0.0
70
9
75
0
210
0.0
220
0.0
230
1.0
0
VERTEX
5
22
100
AcDbEntity
8
Package
62
9
100
AcDbVertex
100
AcDb3dPolylineVertex
10
156560.0
20
5000.0
30
0.0
70
32
0
VERTEX
5
23
100
AcDbEntity
8
Package
62
9
100
AcDbVertex
100
AcDb3dPolylineVertex
10
164096.0
20
5000.0
30
0.0
70
32
0
VERTEX
5
24
100
AcDbEntity
8
Package
62
9
100
AcDbVertex
100
AcDb3dPolylineVertex
10
164096.0
20
4950.0
30
0.0
70
32
0
VERTEX
5
25
100
AcDbEntity
8
Package
62
9
100
AcDbVertex
100
AcDb3dPolylineVertex
10
156560.0
20
4950.0
30
0.0
70
32
0
SEQEND
5
26
100
AcDbEntity
8
Package
0
TEXT
5
28
330
1B
100
AcDbEntity
67
0
8
Package
62
8
6
ByLayer
370
15
48
1.0
60
0
100
AcDbText
1
PKG03 - Kidiyanagar to Chhansara
10
156570.0
20
4965.0
30
0.0
40
20.0
41
1.0
50
0.0
51
0.0
7
True type font
11
156570.0
21
4965.0
31
0.0
210
0.0
220
0.0
230
1.0
72
0
100
AcDbText
73
0
0
POLYLINE
5
30
330
1B
100
AcDbEntity
67
0
8
Section
62
9
6
ByLayer
370
25
48
1.0
60
0
100
AcDb3dPolyline
10
0.0
20
0.0
30
0.0
70
9
75
0
210
0.0
220
0.0
230
1.0
0
VERTEX
5
2B
100
AcDbEntity
8
Section
62
9
100
AcDbVertex
100
AcDb3dPolylineVertex
10
156560.0
20
4950.0
30
0.0
70
32
0
VERTEX
5
2C
100
AcDbEntity
8
Section
62
9
100
AcDbVertex
100
AcDb3dPolylineVertex
10
156560.0
20
4950.0
30
0.0
70
32
0
VERTEX
5
2D
100
AcDbEntity
8
Section
62
9
100
AcDbVertex
100
AcDb3dPolylineVertex
10
156560.0
20
4900.0
30
0.0
70
32
0
VERTEX
5
2E
100
AcDbEntity
8
Section
62
9
100
AcDbVertex
100
AcDb3dPolylineVertex
10
156560.0
20
4900.0
30
0.0
70
32
0
SEQEND
5
2F
100
AcDbEntity
8
Section
0
TEXT
5
31
330
1B
100
AcDbEntity
67
0
8
Section
62
8
6
ByLayer
370
15
48
1.0
60
0
100
AcDbText
1
P3S8 - Section-08 - Chansara - Santalpur (146+960 to 156+560)
10
156570.0
20
4915.0
30
0.0
40
20.0
41
1.0
50
0.0
51
0.0
7
True type font
11
156570.0
21
4915.0
31
0.0
210
0.0
220
0.0
230
1.0
72
0
100
AcDbText
73
0
0
POLYLINE
5
37
330
1B
100
AcDbEntity
67
0
8
Section
62
9
6
ByLayer
370
25
48
1.0
60
0
100
AcDb3dPolyline
10
0.0
20
0.0
30
0.0
70
9
75
0
210
0.0
220
0.0
230
1.0
0
VERTEX
5
32
100
AcDbEntity
8
Section
62
9
100
AcDbVertex
100
AcDb3dPolylineVertex
10
156560.0
20
4950.0
30
0.0
70
32
0
VERTEX
5
33
100
AcDbEntity
8
Section
62
9
100
AcDbVertex
100
AcDb3dPolylineVertex
10
164096.0
20
4950.0
30
0.0
70
32
0
VERTEX
5
34
100
AcDbEntity
8
Section
62
9
100
AcDbVertex
100
AcDb3dPolylineVertex
10
164096.0
20
4900.0
30
0.0
70
32
0
VERTEX
5
35
100
AcDbEntity
8
Section
62
9
100
AcDbVertex
100
AcDb3dPolylineVertex
10
156560.0
20
4900.0
30
0.0
70
32
0
SEQEND
5
36
100
AcDbEntity
8
Section
0
TEXT
5
38
330
1B
100
AcDbEntity
67
0
8
Section
62
8
6
ByLayer
370
15
48
1.0
60
0
100
AcDbText
1
P3S7 - Section-07 - Santalpur - Garmadi (156+560 to 164+096)
10
156570.0
20
4915.0
30
0.0
40
20.0
41
1.0
50
0.0
51
0.0
7
True type font
11
156570.0
21
4915.0
31
0.0
210
0.0
220
0.0
230
1.0
72
0
100
AcDbText
73
0
0
POLYLINE
5
3E
330
1B
100
AcDbEntity
67
0
8
Section
62
9
6
ByLayer
370
25
48
1.0
60
0
100
AcDb3dPolyline
10
0.0
20
0.0
30
0.0
70
9
75
0
210
0.0
220
0.0
230
1.0
0
VERTEX
5
39
100
AcDbEntity
8
Section
62
9
100
AcDbVertex
100
AcDb3dPolylineVertex
10
164096.0
20
4950.0
30
0.0
70
32
0
VERTEX
5
3A
100
AcDbEntity
8
Section
62
9
100
AcDbVertex
100
AcDb3dPolylineVertex
10
164096.0
20
4950.0
30
0.0
70
32
0
VERTEX
5
3B
100
AcDbEntity
8
Section
62
9
100
AcDbVertex
100
AcDb3dPolylineVertex
10
164096.0
20
4900.0
30
0.0
70
32
0
VERTEX
5
3C
100
AcDbEntity
8
Section
62
9
100
AcDbVertex
100
AcDb3dPolylineVertex
10
164096.0
20
4900.0
30
0.0
70
32
0
SEQEND
5
3D
100
AcDbEntity
8
Section
0
TEXT
5
3F
330
1B
100
AcDbEntity
67
0
8
Section
62
8
6
ByLayer
370
15
48
1.0
60
0
100
AcDbText
1
P3S6 - Section-06 - Garmadi - Piprala (164+096 to 172+600)
10
164106.0
20
4915.0
30
0.0
40
20.0
41
1.0
50
0.0
51
0.0
7
True type font
11
164106.0
21
4915.0
31
0.0
210
0.0
220
0.0
230
1.0
72
0
100
AcDbText
73
0
0
POLYLINE
5
45
330
1B
100
AcDbEntity
67
0
8
Package
62
9
6
ByLayer
370
25
48
1.0
60
0
100
AcDb3dPolyline
10
0.0
20
0.0
30
0.0
70
9
75
0
210
0.0
220
0.0
230
1.0
0
VERTEX
5
40
100
AcDbEntity
8
Package
62
9
100
AcDbVertex
100
AcDb3dPolylineVertex
10
156560.0
20
4850.0
30
0.0
70
32
0
VERTEX
5
41
100
AcDbEntity
8
Package
62
9
100
AcDbVertex
100
AcDb3dPolylineVertex
10
164096.0
20
4850.0
30
0.0
70
32
0
VERTEX
5
42
100
AcDbEntity
8
Package
62
9
100
AcDbVertex
100
AcDb3dPolylineVertex
10
164096.0
20
4730.0
30
0.0
70
32
0
VERTEX
5
43
100
AcDbEntity
8
Package
62
9
100
AcDbVertex
100
AcDb3dPolylineVertex
10
156560.0
20
4730.0
30
0.0
70
32
0
SEQEND
5
44
100
AcDbEntity
8
Package
0
POLYLINE
5
4B
330
1B
100
AcDbEntity
67
0
8
Markers-One
62
41
420
14737632
6
Dashed
370
0
48
1.0
60
0
100
AcDb3dPolyline
10
0.0
20
0.0
30
0.0
70
8
75
0
210
0.0
220
0.0
230
1.0
0
VERTEX
5
48
100
AcDbEntity
8
Markers-One
62
41
420
14737632
100
AcDbVertex
100
AcDb3dPolylineVertex
10
156560.0
20
4730.0
30
0.0
70
32
0
VERTEX
5
49
100
AcDbEntity
8
Markers-One
62
41
420
14737632
100
AcDbVertex
100
AcDb3dPolylineVertex
10
156560.0
20
4735.0
30
0.0
70
32
0
SEQEND
5
4A
100
AcDbEntity
8
Markers-One
0
TEXT
5
4D
330
1B
100
AcDbEntity
67
0
8
Chainage Text
62
9
6
ByLayer
370
15
48
1.0
60
0
100
AcDbText
1
156+560
10
156560.0
20
4740.0
30
0.0
40
14.0
41
1.0
50
90.0
51
0.0
7
True type font
11
156560.0
21
4740.0
31
0.0
210
0.0
220
0.0
230
1.0
72
0
100
AcDbText
73
0
0
POLYLINE
5
51
330
1B
100
AcDbEntity
67
0
8
Markers-One
62
41
420
14737632
6
Dashed
370
0
48
1.0
60
0
100
AcDb3dPolyline
10
0.0
20
0.0
30
0.0
70
8
75
0
210
0.0
220
0.0
230
1.0
0
VERTEX
5
4E
100
AcDbEntity
8
Markers-One
62
41
420
14737632
100
AcDbVertex
100
AcDb3dPolylineVertex
10
156600.0
20
4730.0
30
0.0
70
32
0
VERTEX
5
4F
100
AcDbEntity
8
Markers-One
62
41
420
14737632
100
AcDbVertex
100
AcDb3dPolylineVertex
10
156600.0
20
4735.0
30
0.0
70
32
0
SEQEND
5
50
100
AcDbEntity
8
Markers-One
0
TEXT
5
52
330
1B
100
AcDbEntity
67
0
8
Chainage Text
62
9
6
ByLayer
370
15
48
1.0
60
0
100
AcDbText
1
156+600
10
156600.0
20
4740.0
30
0.0
40
14.0
41
1.0
50
90.0
51
0.0
7
True type font
11
156600.0
21
4740.0
31
0.0
210
0.0
220
0.0
230
1.0
72
0
100
AcDbText
73
0
0
POLYLINE
5
56
330
1B
100
AcDbEntity
67
0
8
Markers-One
62
41
420
14737632
6
Dashed
370
0
48
1.0
60
0
100
AcDb3dPolyline
10
0.0
20
0.0
30
0.0
70
8
75
0
210
0.0
220
0.0
230
1.0
0
VERTEX
5
53
100
AcDbEntity
8
Markers-One
62
41
420
14737632
100
AcDbVertex
100
AcDb3dPolylineVertex
10
156700.0
20
4730.0
30
0.0
70
32
0
VERTEX
5
54
100
AcDbEntity
8
Markers-One
62
41
420
14737632
100
AcDbVertex
100
AcDb3dPolylineVertex
10
156700.0
20
4735.0
30
0.0
70
32
0
SEQEND
5
55
100
AcDbEntity
8
Markers-One
0
TEXT
5
57
330
1B
100
AcDbEntity
67
0
8
Chainage Text
62
9
6
ByLayer
370
15
48
1.0
60
0
100
AcDbText
1
156+700
10
156700.0
20
4740.0
30
0.0
40
14.0
41
1.0
50
90.0
51
0.0
7
True type font
11
156700.0
21
4740.0
31
0.0
210
0.0
220
0.0
230
1.0
72
0
100
AcDbText
73
0
0
POLYLINE
5
5B
330
1B
100
AcDbEntity
67
0
8
Markers-One
62
41
420
14737632
6
Dashed
370
0
48
1.0
60
0
100
AcDb3dPolyline
10
0.0
20
0.0
30
0.0
70
8
75
0
210
0.0
220
0.0
230
1.0
0
VERTEX
5
58
100
AcDbEntity
8
Markers-One
62
41
420
14737632
100
AcDbVertex
100
AcDb3dPolylineVertex
10
156800.0
20
4730.0
30
0.0
70
32
0
VERTEX
5
59
100
AcDbEntity
8
Markers-One
62
41
420
14737632
100
AcDbVertex
100
AcDb3dPolylineVertex
10
156800.0
20
4735.0
30
0.0
70
32
0
SEQEND
5
5A
100
AcDbEntity
8
Markers-One
0
TEXT
5
5C
330
1B
100
AcDbEntity
67
0
8
Chainage Text
62
9
6
ByLayer
370
15
48
1.0
60
0
100
AcDbText
1
156+800
10
156800.0
20
4740.0
30
0.0
40
14.0
41
1.0
50
90.0
51
0.0
7
True type font
11
156800.0
21
4740.0
31
0.0
210
0.0
220
0.0
230
1.0
72
0
100
AcDbText
73
0
0
POLYLINE
5
60
330
1B
100
AcDbEntity
67
0
8
Markers-One
62
41
420
14737632
6
Dashed
370
0
48
1.0
60
0
100
AcDb3dPolyline
10
0.0
20
0.0
30
0.0
70
8
75
0
210
0.0
220
0.0
230
1.0
0
VERTEX
5
5D
100
AcDbEntity
8
Markers-One
62
41
420
14737632
100
AcDbVertex
100
AcDb3dPolylineVertex
10
156900.0
20
4730.0
30
0.0
70
32
0
VERTEX
5
5E
100
AcDbEntity
8
Markers-One
62
41
420
14737632
100
AcDbVertex
100
AcDb3dPolylineVertex
10
156900.0
20
4735.0
30
0.0
70
32
0
SEQEND
5
5F
100
AcDbEntity
8
Markers-One
0
TEXT
5
61
330
1B
100
AcDbEntity
67
0
8
Chainage Text
62
9
6
ByLayer
370
15
48
1.0
60
0
100
AcDbText
1
156+900
10
156900.0
20
4740.0
30
0.0
40
14.0
41
1.0
50
90.0
51
0.0
7
True type font
11
156900.0
21
4740.0
31
0.0
210
0.0
220
0.0
230
1.0
72
0
100
AcDbText
73
0
0
POLYLINE
5
65
330
1B
100
AcDbEntity
67
0
8
Markers-One
62
41
420
14737632
6
Dashed
370
0
48
1.0
60
0
100
AcDb3dPolyline
10
0.0
20
0.0
30
0.0
70
8
75
0
210
0.0
220
0.0
230
1.0
0
VERTEX
5
62
100
AcDbEntity
8
Markers-One
62
41
420
14737632
100
AcDbVertex
100
AcDb3dPolylineVertex
10
157000.0
20
4730.0
30
0.0
70
32
0
VERTEX
5
63
100
AcDbEntity
8
Markers-One
62
41
420
14737632
100
AcDbVertex
100
AcDb3dPolylineVertex
10
157000.0
20
4735.0
30
0.0
70
32
0
SEQEND
5
64
100
AcDbEntity
8
Markers-One
0
TEXT
5
66
330
1B
100
AcDbEntity
67
0
8
Chainage Text
62
9
6
ByLayer
370
15
48
1.0
60
0
100
AcDbText
1
157+000
10
157000.0
20
4740.0
30
0.0
40
14.0
41
1.0
50
90.0
51
0.0
7
True type font
11
157000.0
21
4740.0
31
0.0
210
0.0
220
0.0
230
1.0
72
0
100
AcDbText
73
0
0
POLYLINE
5
6A
330
1B
100
AcDbEntity
67
0
8
Markers-One
62
41
420
14737632
6
Dashed
370
0
48
1.0
60
0
100
AcDb3dPolyline
10
0.0
20
0.0
30
0.0
70
8
75
0
210
0.0
220
0.0
230
1.0
0
VERTEX
5
67
100
AcDbEntity
8
Markers-One
62
41
420
14737632
100
AcDbVertex
100
AcDb3dPolylineVertex
10
157100.0
20
4730.0
30
0.0
70
32
0
VERTEX
5
68
100
AcDbEntity
8
Markers-One
62
41
420
14737632
100
AcDbVertex
100
AcDb3dPolylineVertex
10
157100.0
20
4735.0
30
0.0
70
32
0
SEQEND
5
69
100
AcDbEntity
8
Markers-One
0
TEXT
5
6B
330
1B
100
AcDbEntity
67
0
8
Chainage Text
62
9
6
ByLayer
370
15
48
1.0
60
0
100
AcDbText
1
157+100
10
157100.0
20
4740.0
30
0.0
40
14.0
41
1.0
50
90.0
51
0.0
7
True type font
11
157100.0
21
4740.0
31
0.0
210
0.0
220
0.0
230
1.0
72
0
100
AcDbText
73
0
0
POLYLINE
5
6F
330
1B
100
AcDbEntity
67
0
8
Markers-One
62
41
420
14737632
6
Dashed
370
0
48
1.0
60
0
100
AcDb3dPolyline
10
0.0
20
0.0
30
0.0
70
8
75
0
210
0.0
220
0.0
230
1.0
0
VERTEX
5
6C
100
AcDbEntity
8
Markers-One
62
41
420
14737632
100
AcDbVertex
100
AcDb3dPolylineVertex
10
157200.0
20
4730.0
30
0.0
70
32
0
VERTEX
5
6D
100
AcDbEntity
8
Markers-One
62
41
420
14737632
100
AcDbVertex
100
AcDb3dPolylineVertex
10
157200.0
20
4735.0
30
0.0
70
32
0
SEQEND
5
6E
100
AcDbEntity
8
Markers-One
0
TEXT
5
70
330
1B
100
AcDbEntity
67
0
8
Chainage Text
62
9
6
ByLayer
370
15
48
1.0
60
0
100
AcDbText
1
157+200
10
157200.0
20
4740.0
30
0.0
40
14.0
41
1.0
50
90.0
51
0.0
7
True type font
11
157200.0
21
4740.0
31
0.0
210
0.0
220
0.0
230
1.0
72
0
100
AcDbText
73
0
0
POLYLINE
5
74
330
1B
100
AcDbEntity
67
0
8
Markers-One
62
41
420
14737632
6
Dashed
370
0
48
1.0
60
0
100
AcDb3dPolyline
10
0.0
20
0.0
30
0.0
70
8
75
0
210
0.0
220
0.0
230
1.0
0
VERTEX
5
71
100
AcDbEntity
8
Markers-One
62
41
420
14737632
100
AcDbVertex
100
AcDb3dPolylineVertex
10
157300.0
20
4730.0
30
0.0
70
32
0
VERTEX
5
72
100
AcDbEntity
8
Markers-One
62
41
420
14737632
100
AcDbVertex
100
AcDb3dPolylineVertex
10
157300.0
20
4735.0
30
0.0
70
32
0
SEQEND
5
73
100
AcDbEntity
8
Markers-One
0
TEXT
5
75
330
1B
100
AcDbEntity
67
0
8
Chainage Text
62
9
6
ByLayer
370
15
48
1.0
60
0
100
AcDbText
1
157+300
10
157300.0
20
4740.0
30
0.0
40
14.0
41
1.0
50
90.0
51
0.0
7
True type font
11
157300.0
21
4740.0
31
0.0
210
0.0
220
0.0
230
1.0
72
0
100
AcDbText
73
0
0
POLYLINE
5
79
330
1B
100
AcDbEntity
67
0
8
Markers-One
62
41
420
14737632
6
Dashed
370
0
48
1.0
60
0
100
AcDb3dPolyline
10
0.0
20
0.0
30
0.0
70
8
75
0
210
0.0
220
0.0
230
1.0
0
VERTEX
5
76
100
AcDbEntity
8
Markers-One
62
41
420
14737632
100
AcDbVertex
100
AcDb3dPolylineVertex
10
157400.0
20
4730.0
30
0.0
70
32
0
VERTEX
5
77
100
AcDbEntity
8
Markers-One
62
41
420
14737632
100
AcDbVertex
100
AcDb3dPolylineVertex
10
157400.0
20
4735.0
30
0.0
70
32
0
SEQEND
5
78
100
AcDbEntity
8
Markers-One
0
TEXT
5
7A
330
1B
100
AcDbEntity
67
0
8
Chainage Text
62
9
6
ByLayer
370
15
48
1.0
60
0
100
AcDbText
1
157+400
10
157400.0
20
4740.0
30
0.0
40
14.0
41
1.0
50
90.0
51
0.0
7
True type font
11
157400.0
21
4740.0
31
0.0
210
0.0
220
0.0
230
1.0
72
0
100
AcDbText
73
0
0
POLYLINE
5
7E
330
1B
100
AcDbEntity
67
0
8
Markers-One
62
41
420
14737632
6
Dashed
370
0
48
1.0
60
0
100
AcDb3dPolyline
10
0.0
20
0.0
30
0.0
70
8
75
0
210
0.0
220
0.0
230
1.0
0
VERTEX
5
7B
100
AcDbEntity
8
Markers-One
62
41
420
14737632
100
AcDbVertex
100
AcDb3dPolylineVertex
10
157500.0
20
4730.0
30
0.0
70
32
0
VERTEX
5
7C
100
AcDbEntity
8
Markers-One
62
41
420
14737632
100
AcDbVertex
100
AcDb3dPolylineVertex
10
157500.0
20
4735.0
30
0.0
70
32
0
SEQEND
5
7D
100
AcDbEntity
8
Markers-One
0
TEXT
5
7F
330
1B
100
AcDbEntity
67
0
8
Chainage Text
62
9
6
ByLayer
370
15
48
1.0
60
0
100
AcDbText
1
157+500
10
157500.0
20
4740.0
30
0.0
40
14.0
41
1.0
50
90.0
51
0.0
7
True type font
11
157500.0
21
4740.0
31
0.0
210
0.0
220
0.0
230
1.0
72
0
100
AcDbText
73
0
0
POLYLINE
5
83
330
1B
100
AcDbEntity
67
0
8
Markers-One
62
41
420
14737632
6
Dashed
370
0
48
1.0
60
0
100
AcDb3dPolyline
10
0.0
20
0.0
30
0.0
70
8
75
0
210
0.0
220
0.0
230
1.0
0
VERTEX
5
80
100
AcDbEntity
8
Markers-One
62
41
420
14737632
100
AcDbVertex
100
AcDb3dPolylineVertex
10
157600.0
20
4730.0
30
0.0
70
32
0
VERTEX
5
81
100
AcDbEntity
8
Markers-One
62
41
420
14737632
100
AcDbVertex
100
AcDb3dPolylineVertex
10
157600.0
20
4735.0
30
0.0
70
32
0
SEQEND
5
82
100
AcDbEntity
8
Markers-One
0
TEXT
5
84
330
1B
100
AcDbEntity
67
0
8
Chainage Text
62
9
6
ByLayer
370
15
48
1.0
60
0
100
AcDbText
1
157+600
10
157600.0
20
4740.0
30
0.0
40
14.0
41
1.0
50
90.0
51
0.0
7
True type font
11
157600.0
21
4740.0
31
0.0
210
0.0
220
0.0
230
1.0
72
0
100
AcDbText
73
0
0
POLYLINE
5
88
330
1B
100
AcDbEntity
67
0
8
Markers-One
62
41
420
14737632
6
Dashed
370
0
48
1.0
60
0
100
AcDb3dPolyline
10
0.0
20
0.0
30
0.0
70
8
75
0
210
0.0
220
0.0
230
1.0
0
VERTEX
5
85
100
AcDbEntity
8
Markers-One
62
41
420
14737632
100
AcDbVertex
100
AcDb3dPolylineVertex
10
157700.0
20
4730.0
30
0.0
70
32
0
VERTEX
5
86
100
AcDbEntity
8
Markers-One
62
41
420
14737632
100
AcDbVertex
100
AcDb3dPolylineVertex
10
157700.0
20
4735.0
30
0.0
70
32
0
SEQEND
5
87
100
AcDbEntity
8
Markers-One
0
TEXT
5
89
330
1B
100
AcDbEntity
67
0
8
Chainage Text
62
9
6
ByLayer
370
15
48
1.0
60
0
100
AcDbText
1
157+700
10
157700.0
20
4740.0
30
0.0
40
14.0
41
1.0
50
90.0
51
0.0
7
True type font
11
157700.0
21
4740.0
31
0.0
210
0.0
220
0.0
230
1.0
72
0
100
AcDbText
73
0
0
POLYLINE
5
8D
330
1B
100
AcDbEntity
67
0
8
Markers-One
62
41
420
14737632
6
Dashed
370
0
48
1.0
60
0
100
AcDb3dPolyline
10
0.0
20
0.0
30
0.0
70
8
75
0
210
0.0
220
0.0
230
1.0
0
VERTEX
5
8A
100
AcDbEntity
8
Markers-One
62
41
420
14737632
100
AcDbVertex
100
AcDb3dPolylineVertex
10
157800.0
20
4730.0
30
0.0
70
32
0
VERTEX
5
8B
100
AcDbEntity
8
Markers-One
62
41
420
14737632
100
AcDbVertex
100
AcDb3dPolylineVertex
10
157800.0
20
4735.0
30
0.0
70
32
0
SEQEND
5
8C
100
AcDbEntity
8
Markers-One
0
TEXT
5
8E
330
1B
100
AcDbEntity
67
0
8
Chainage Text
62
9
6
ByLayer
370
15
48
1.0
60
0
100
AcDbText
1
157+800
10
157800.0
20
4740.0
30
0.0
40
14.0
41
1.0
50
90.0
51
0.0
7
True type font
11
157800.0
21
4740.0
31
0.0
210
0.0
220
0.0
230
1.0
72
0
100
AcDbText
73
0
0
POLYLINE
5
92
330
1B
100
AcDbEntity
67
0
8
Markers-One
62
41
420
14737632
6
Dashed
370
0
48
1.0
60
0
100
AcDb3dPolyline
10
0.0
20
0.0
30
0.0
70
8
75
0
210
0.0
220
0.0
230
1.0
0
VERTEX
5
8F
100
AcDbEntity
8
Markers-One
62
41
420
14737632
100
AcDbVertex
100
AcDb3dPolylineVertex
10
157900.0
20
4730.0
30
0.0
70
32
0
VERTEX
5
90
100
AcDbEntity
8
Markers-One
62
41
420
14737632
100
AcDbVertex
100
AcDb3dPolylineVertex
10
157900.0
20
4735.0
30
0.0
70
32
0
SEQEND
5
91
100
AcDbEntity
8
Markers-One
0
TEXT
5
93
330
1B
100
AcDbEntity
67
0
8
Chainage Text
62
9
6
ByLayer
370
15
48
1.0
60
0
100
AcDbText
1
157+900
10
157900.0
20
4740.0
30
0.0
40
14.0
41
1.0
50
90.0
51
0.0
7
True type font
11
157900.0
21
4740.0
31
0.0
210
0.0
220
0.0
230
1.0
72
0
100
AcDbText
73
0
0
POLYLINE
5
97
330
1B
100
AcDbEntity
67
0
8
Markers-One
62
41
420
14737632
6
Dashed
370
0
48
1.0
60
0
100
AcDb3dPolyline
10
0.0
20
0.0
30
0.0
70
8
75
0
210
0.0
220
0.0
230
1.0
0
VERTEX
5
94
100
AcDbEntity
8
Markers-One
62
41
420
14737632
100
AcDbVertex
100
AcDb3dPolylineVertex
10
158000.0
20
4730.0
30
0.0
70
32
0
VERTEX
5
95
100
AcDbEntity
8
Markers-One
62
41
420
14737632
100
AcDbVertex
100
AcDb3dPolylineVertex
10
158000.0
20
4735.0
30
0.0
70
32
0
SEQEND
5
96
100
AcDbEntity
8
Markers-One
0
TEXT
5
98
330
1B
100
AcDbEntity
67
0
8
Chainage Text
62
9
6
ByLayer
370
15
48
1.0
60
0
100
AcDbText
1
158+000
10
158000.0
20
4740.0
30
0.0
40
14.0
41
1.0
50
90.0
51
0.0
7
True type font
11
158000.0
21
4740.0
31
0.0
210
0.0
220
0.0
230
1.0
72
0
100
AcDbText
73
0
0
POLYLINE
5
9C
330
1B
100
AcDbEntity
67
0
8
Markers-One
62
41
420
14737632
6
Dashed
370
0
48
1.0
60
0
100
AcDb3dPolyline
10
0.0
20
0.0
30
0.0
70
8
75
0
210
0.0
220
0.0
230
1.0
0
VERTEX
5
99
100
AcDbEntity
8
Markers-One
62
41
420
14737632
100
AcDbVertex
100
AcDb3dPolylineVertex
10
158100.0
20
4730.0
30
0.0
70
32
0
VERTEX
5
9A
100
AcDbEntity
8
Markers-One
62
41
420
14737632
100
AcDbVertex
100
AcDb3dPolylineVertex
10
158100.0
20
4735.0
30
0.0
70
32
0
SEQEND
5
9B
100
AcDbEntity
8
Markers-One
0
TEXT
5
9D
330
1B
100
AcDbEntity
67
0
8
Chainage Text
62
9
6
ByLayer
370
15
48
1.0
60
0
100
AcDbText
1
158+100
10
158100.0
20
4740.0
30
0.0
40
14.0
41
1.0
50
90.0
51
0.0
7
True type font
11
158100.0
21
4740.0
31
0.0
210
0.0
220
0.0
230
1.0
72
0
100
AcDbText
73
0
0
POLYLINE
5
A1
330
1B
100
AcDbEntity
67
0
8
Markers-One
62
41
420
14737632
6
Dashed
370
0
48
1.0
60
0
100
AcDb3dPolyline
10
0.0
20
0.0
30
0.0
70
8
75
0
210
0.0
220
0.0
230
1.0
0
VERTEX
5
9E
100
AcDbEntity
8
Markers-One
62
41
420
14737632
100
AcDbVertex
100
AcDb3dPolylineVertex
10
158200.0
20
4730.0
30
0.0
70
32
0
VERTEX
5
9F
100
AcDbEntity
8
Markers-One
62
41
420
14737632
100
AcDbVertex
100
AcDb3dPolylineVertex
10
158200.0
20
4735.0
30
0.0
70
32
0
SEQEND
5
A0
100
AcDbEntity
8
Markers-One
0
TEXT
5
A2
330
1B
100
AcDbEntity
67
0
8
Chainage Text
62
9
6
ByLayer
370
15
48
1.0
60
0
100
AcDbText
1
158+200
10
158200.0
20
4740.0
30
0.0
40
14.0
41
1.0
50
90.0
51
0.0
7
True type font
11
158200.0
21
4740.0
31
0.0
210
0.0
220
0.0
230
1.0
72
0
100
AcDbText
73
0
0
POLYLINE
5
A6
330
1B
100
AcDbEntity
67
0
8
Markers-One
62
41
420
14737632
6
Dashed
370
0
48
1.0
60
0
100
AcDb3dPolyline
10
0.0
20
0.0
30
0.0
70
8
75
0
210
0.0
220
0.0
230
1.0
0
VERTEX
5
A3
100
AcDbEntity
8
Markers-One
62
41
420
14737632
100
AcDbVertex
100
AcDb3dPolylineVertex
10
158300.0
20
4730.0
30
0.0
70
32
0
VERTEX
5
A4
100
AcDbEntity
8
Markers-One
62
41
420
14737632
100
AcDbVertex
100
AcDb3dPolylineVertex
10
158300.0
20
4735.0
30
0.0
70
32
0
SEQEND
5
A5
100
AcDbEntity
8
Markers-One
0
TEXT
5
A7
330
1B
100
AcDbEntity
67
0
8
Chainage Text
62
9
6
ByLayer
370
15
48
1.0
60
0
100
AcDbText
1
158+300
10
158300.0
20
4740.0
30
0.0
40
14.0
41
1.0
50
90.0
51
0.0
7
True type font
11
158300.0
21
4740.0
31
0.0
210
0.0
220
0.0
230
1.0
72
0
100
AcDbText
73
0
0
POLYLINE
5
AB
330
1B
100
AcDbEntity
67
0
8
Markers-One
62
41
420
14737632
6
Dashed
370
0
48
1.0
60
0
100
AcDb3dPolyline
10
0.0
20
0.0
30
0.0
70
8
75
0
210
0.0
220
0.0
230
1.0
0
VERTEX
5
A8
100
AcDbEntity
8
Markers-One
62
41
420
14737632
100
AcDbVertex
100
AcDb3dPolylineVertex
10
158400.0
20
4730.0
30
0.0
70
32
0
VERTEX
5
A9
100
AcDbEntity
8
Markers-One
62
41
420
14737632
100
AcDbVertex
100
AcDb3dPolylineVertex
10
158400.0
20
4735.0
30
0.0
70
32
0
SEQEND
5
AA
100
AcDbEntity
8
Markers-One
0
TEXT
5
AC
330
1B
100
AcDbEntity
67
0
8
Chainage Text
62
9
6
ByLayer
370
15
48
1.0
60
0
100
AcDbText
1
158+400
10
158400.0
20
4740.0
30
0.0
40
14.0
41
1.0
50
90.0
51
0.0
7
True type font
11
158400.0
21
4740.0
31
0.0
210
0.0
220
0.0
230
1.0
72
0
100
AcDbText
73
0
0
POLYLINE
5
B0
330
1B
100
AcDbEntity
67
0
8
Markers-One
62
41
420
14737632
6
Dashed
370
0
48
1.0
60
0
100
AcDb3dPolyline
10
0.0
20
0.0
30
0.0
70
8
75
0
210
0.0
220
0.0
230
1.0
0
VERTEX
5
AD
100
AcDbEntity
8
Markers-One
62
41
420
14737632
100
AcDbVertex
100
AcDb3dPolylineVertex
10
158500.0
20
4730.0
30
0.0
70
32
0
VERTEX
5
AE
100
AcDbEntity
8
Markers-One
62
41
420
14737632
100
AcDbVertex
100
AcDb3dPolylineVertex
10
158500.0
20
4735.0
30
0.0
70
32
0
SEQEND
5
AF
100
AcDbEntity
8
Markers-One
0
TEXT
5
B1
330
1B
100
AcDbEntity
67
0
8
Chainage Text
62
9
6
ByLayer
370
15
48
1.0
60
0
100
AcDbText
1
158+500
10
158500.0
20
4740.0
30
0.0
40
14.0
41
1.0
50
90.0
51
0.0
7
True type font
11
158500.0
21
4740.0
31
0.0
210
0.0
220
0.0
230
1.0
72
0
100
AcDbText
73
0
0
POLYLINE
5
B5
330
1B
100
AcDbEntity
67
0
8
Markers-One
62
41
420
14737632
6
Dashed
370
0
48
1.0
60
0
100
AcDb3dPolyline
10
0.0
20
0.0
30
0.0
70
8
75
0
210
0.0
220
0.0
230
1.0
0
VERTEX
5
B2
100
AcDbEntity
8
Markers-One
62
41
420
14737632
100
AcDbVertex
100
AcDb3dPolylineVertex
10
158600.0
20
4730.0
30
0.0
70
32
0
VERTEX
5
B3
100
AcDbEntity
8
Markers-One
62
41
420
14737632
100
AcDbVertex
100
AcDb3dPolylineVertex
10
158600.0
20
4735.0
30
0.0
70
32
0
SEQEND
5
B4
100
AcDbEntity
8
Markers-One
0
TEXT
5
B6
330
1B
100
AcDbEntity
67
0
8
Chainage Text
62
9
6
ByLayer
370
15
48
1.0
60
0
100
AcDbText
1
158+600
10
158600.0
20
4740.0
30
0.0
40
14.0
41
1.0
50
90.0
51
0.0
7
True type font
11
158600.0
21
4740.0
31
0.0
210
0.0
220
0.0
230
1.0
72
0
100
AcDbText
73
0
0
POLYLINE
5
BA
330
1B
100
AcDbEntity
67
0
8
Markers-One
62
41
420
14737632
6
Dashed
370
0
48
1.0
60
0
100
AcDb3dPolyline
10
0.0
20
0.0
30
0.0
70
8
75
0
210
0.0
220
0.0
230
1.0
0
VERTEX
5
B7
100
AcDbEntity
8
Markers-One
62
41
420
14737632
100
AcDbVertex
100
AcDb3dPolylineVertex
10
158700.0
20
4730.0
30
0.0
70
32
0
VERTEX
5
B8
100
AcDbEntity
8
Markers-One
62
41
420
14737632
100
AcDbVertex
100
AcDb3dPolylineVertex
10
158700.0
20
4735.0
30
0.0
70
32
0
SEQEND
5
B9
100
AcDbEntity
8
Markers-One
0
TEXT
5
BB
330
1B
100
AcDbEntity
67
0
8
Chainage Text
62
9
6
ByLayer
370
15
48
1.0
60
0
100
AcDbText
1
158+700
10
158700.0
20
4740.0
30
0.0
40
14.0
41
1.0
50
90.0
51
0.0
7
True type font
11
158700.0
21
4740.0
31
0.0
210
0.0
220
0.0
230
1.0
72
0
100
AcDbText
73
0
0
POLYLINE
5
BF
330
1B
100
AcDbEntity
67
0
8
Markers-One
62
41
420
14737632
6
Dashed
370
0
48
1.0
60
0
100
AcDb3dPolyline
10
0.0
20
0.0
30
0.0
70
8
75
0
210
0.0
220
0.0
230
1.0
0
VERTEX
5
BC
100
AcDbEntity
8
Markers-One
62
41
420
14737632
100
AcDbVertex
100
AcDb3dPolylineVertex
10
158800.0
20
4730.0
30
0.0
70
32
0
VERTEX
5
BD
100
AcDbEntity
8
Markers-One
62
41
420
14737632
100
AcDbVertex
100
AcDb3dPolylineVertex
10
158800.0
20
4735.0
30
0.0
70
32
0
SEQEND
5
BE
100
AcDbEntity
8
Markers-One
0
TEXT
5
C0
330
1B
100
AcDbEntity
67
0
8
Chainage Text
62
9
6
ByLayer
370
15
48
1.0
60
0
100
AcDbText
1
158+800
10
158800.0
20
4740.0
30
0.0
40
14.0
41
1.0
50
90.0
51
0.0
7
True type font
11
158800.0
21
4740.0
31
0.0
210
0.0
220
0.0
230
1.0
72
0
100
AcDbText
73
0
0
POLYLINE
5
C4
330
1B
100
AcDbEntity
67
0
8
Markers-One
62
41
420
14737632
6
Dashed
370
0
48
1.0
60
0
100
AcDb3dPolyline
10
0.0
20
0.0
30
0.0
70
8
75
0
210
0.0
220
0.0
230
1.0
0
VERTEX
5
C1
100
AcDbEntity
8
Markers-One
62
41
420
14737632
100
AcDbVertex
100
AcDb3dPolylineVertex
10
158900.0
20
4730.0
30
0.0
70
32
0
VERTEX
5
C2
100
AcDbEntity
8
Markers-One
62
41
420
14737632
100
AcDbVertex
100
AcDb3dPolylineVertex
10
158900.0
20
4735.0
30
0.0
70
32
0
SEQEND
5
C3
100
AcDbEntity
8
Markers-One
0
TEXT
5
C5
330
1B
100
AcDbEntity
67
0
8
Chainage Text
62
9
6
ByLayer
370
15
48
1.0
60
0
100
AcDbText
1
158+900
10
158900.0
20
4740.0
30
0.0
40
14.0
41
1.0
50
90.0
51
0.0
7
True type font
11
158900.0
21
4740.0
31
0.0
210
0.0
220
0.0
230
1.0
72
0
100
AcDbText
73
0
0
POLYLINE
5
C9
330
1B
100
AcDbEntity
67
0
8
Markers-One
62
41
420
14737632
6
Dashed
370
0
48
1.0
60
0
100
AcDb3dPolyline
10
0.0
20
0.0
30
0.0
70
8
75
0
210
0.0
220
0.0
230
1.0
0
VERTEX
5
C6
100
AcDbEntity
8
Markers-One
62
41
420
14737632
100
AcDbVertex
100
AcDb3dPolylineVertex
10
159000.0
20
4730.0
30
0.0
70
32
0
VERTEX
5
C7
100
AcDbEntity
8
Markers-One
62
41
420
14737632
100
AcDbVertex
100
AcDb3dPolylineVertex
10
159000.0
20
4735.0
30
0.0
70
32
0
SEQEND
5
C8
100
AcDbEntity
8
Markers-One
0
TEXT
5
CA
330
1B
100
AcDbEntity
67
0
8
Chainage Text
62
9
6
ByLayer
370
15
48
1.0
60
0
100
AcDbText
1
159+000
10
159000.0
20
4740.0
30
0.0
40
14.0
41
1.0
50
90.0
51
0.0
7
True type font
11
159000.0
21
4740.0
31
0.0
210
0.0
220
0.0
230
1.0
72
0
100
AcDbText
73
0
0
POLYLINE
5
CE
330
1B
100
AcDbEntity
67
0
8
Markers-One
62
41
420
14737632
6
Dashed
370
0
48
1.0
60
0
100
AcDb3dPolyline
10
0.0
20
0.0
30
0.0
70
8
75
0
210
0.0
220
0.0
230
1.0
0
VERTEX
5
CB
100
AcDbEntity
8
Markers-One
62
41
420
14737632
100
AcDbVertex
100
AcDb3dPolylineVertex
10
159100.0
20
4730.0
30
0.0
70
32
0
VERTEX
5
CC
100
AcDbEntity
8
Markers-One
62
41
420
14737632
100
AcDbVertex
100
AcDb3dPolylineVertex
10
159100.0
20
4735.0
30
0.0
70
32
0
SEQEND
5
CD
100
AcDbEntity
8
Markers-One
0
TEXT
5
CF
330
1B
100
AcDbEntity
67
0
8
Chainage Text
62
9
6
ByLayer
370
15
48
1.0
60
0
100
AcDbText
1
159+100
10
159100.0
20
4740.0
30
0.0
40
14.0
41
1.0
50
90.0
51
0.0
7
True type font
11
159100.0
21
4740.0
31
0.0
210
0.0
220
0.0
230
1.0
72
0
100
AcDbText
73
0
0
POLYLINE
5
D3
330
1B
100
AcDbEntity
67
0
8
Markers-One
62
41
420
14737632
6
Dashed
370
0
48
1.0
60
0
100
AcDb3dPolyline
10
0.0
20
0.0
30
0.0
70
8
75
0
210
0.0
220
0.0
230
1.0
0
VERTEX
5
D0
100
AcDbEntity
8
Markers-One
62
41
420
14737632
100
AcDbVertex
100
AcDb3dPolylineVertex
10
159200.0
20
4730.0
30
0.0
70
32
0
VERTEX
5
D1
100
AcDbEntity
8
Markers-One
62
41
420
14737632
100
AcDbVertex
100
AcDb3dPolylineVertex
10
159200.0
20
4735.0
30
0.0
70
32
0
SEQEND
5
D2
100
AcDbEntity
8
Markers-One
0
TEXT
5
D4
330
1B
100
AcDbEntity
67
0
8
Chainage Text
62
9
6
ByLayer
370
15
48
1.0
60
0
100
AcDbText
1
159+200
10
159200.0
20
4740.0
30
0.0
40
14.0
41
1.0
50
90.0
51
0.0
7
True type font
11
159200.0
21
4740.0
31
0.0
210
0.0
220
0.0
230
1.0
72
0
100
AcDbText
73
0
0
POLYLINE
5
D8
330
1B
100
AcDbEntity
67
0
8
Markers-One
62
41
420
14737632
6
Dashed
370
0
48
1.0
60
0
100
AcDb3dPolyline
10
0.0
20
0.0
30
0.0
70
8
75
0
210
0.0
220
0.0
230
1.0
0
VERTEX
5
D5
100
AcDbEntity
8
Markers-One
62
41
420
14737632
100
AcDbVertex
100
AcDb3dPolylineVertex
10
159300.0
20
4730.0
30
0.0
70
32
0
VERTEX
5
D6
100
AcDbEntity
8
Markers-One
62
41
420
14737632
100
AcDbVertex
100
AcDb3dPolylineVertex
10
159300.0
20
4735.0
30
0.0
70
32
0
SEQEND
5
D7
100
AcDbEntity
8
Markers-One
0
TEXT
5
D9
330
1B
100
AcDbEntity
67
0
8
Chainage Text
62
9
6
ByLayer
370
15
48
1.0
60
0
100
AcDbText
1
159+300
10
159300.0
20
4740.0
30
0.0
40
14.0
41
1.0
50
90.0
51
0.0
7
True type font
11
159300.0
21
4740.0
31
0.0
210
0.0
220
0.0
230
1.0
72
0
100
AcDbText
73
0
0
POLYLINE
5
DD
330
1B
100
AcDbEntity
67
0
8
Markers-One
62
41
420
14737632
6
Dashed
370
0
48
1.0
60
0
100
AcDb3dPolyline
10
0.0
20
0.0
30
0.0
70
8
75
0
210
0.0
220
0.0
230
1.0
0
VERTEX
5
DA
100
AcDbEntity
8
Markers-One
62
41
420
14737632
100
AcDbVertex
100
AcDb3dPolylineVertex
10
159400.0
20
4730.0
30
0.0
70
32
0
VERTEX
5
DB
100
AcDbEntity
8
Markers-One
62
41
420
14737632
100
AcDbVertex
100
AcDb3dPolylineVertex
10
159400.0
20
4735.0
30
0.0
70
32
0
SEQEND
5
DC
100
AcDbEntity
8
Markers-One
0
TEXT
5
DE
330
1B
100
AcDbEntity
67
0
8
Chainage Text
62
9
6
ByLayer
370
15
48
1.0
60
0
100
AcDbText
1
159+400
10
159400.0
20
4740.0
30
0.0
40
14.0
41
1.0
50
90.0
51
0.0
7
True type font
11
159400.0
21
4740.0
31
0.0
210
0.0
220
0.0
230
1.0
72
0
100
AcDbText
73
0
0
POLYLINE
5
E2
330
1B
100
AcDbEntity
67
0
8
Markers-One
62
41
420
14737632
6
Dashed
370
0
48
1.0
60
0
100
AcDb3dPolyline
10
0.0
20
0.0
30
0.0
70
8
75
0
210
0.0
220
0.0
230
1.0
0
VERTEX
5
DF
100
AcDbEntity
8
Markers-One
62
41
420
14737632
100
AcDbVertex
100
AcDb3dPolylineVertex
10
159500.0
20
4730.0
30
0.0
70
32
0
VERTEX
5
E0
100
AcDbEntity
8
Markers-One
62
41
420
14737632
100
AcDbVertex
100
AcDb3dPolylineVertex
10
159500.0
20
4735.0
30
0.0
70
32
0
SEQEND
5
E1
100
AcDbEntity
8
Markers-One
0
TEXT
5
E3
330
1B
100
AcDbEntity
67
0
8
Chainage Text
62
9
6
ByLayer
370
15
48
1.0
60
0
100
AcDbText
1
159+500
10
159500.0
20
4740.0
30
0.0
40
14.0
41
1.0
50
90.0
51
0.0
7
True type font
11
159500.0
21
4740.0
31
0.0
210
0.0
220
0.0
230
1.0
72
0
100
AcDbText
73
0
0
POLYLINE
5
E7
330
1B
100
AcDbEntity
67
0
8
Markers-One
62
41
420
14737632
6
Dashed
370
0
48
1.0
60
0
100
AcDb3dPolyline
10
0.0
20
0.0
30
0.0
70
8
75
0
210
0.0
220
0.0
230
1.0
0
VERTEX
5
E4
100
AcDbEntity
8
Markers-One
62
41
420
14737632
100
AcDbVertex
100
AcDb3dPolylineVertex
10
159600.0
20
4730.0
30
0.0
70
32
0
VERTEX
5
E5
100
AcDbEntity
8
Markers-One
62
41
420
14737632
100
AcDbVertex
100
AcDb3dPolylineVertex
10
159600.0
20
4735.0
30
0.0
70
32
0
SEQEND
5
E6
100
AcDbEntity
8
Markers-One
0
TEXT
5
E8
330
1B
100
AcDbEntity
67
0
8
Chainage Text
62
9
6
ByLayer
370
15
48
1.0
60
0
100
AcDbText
1
159+600
10
159600.0
20
4740.0
30
0.0
40
14.0
41
1.0
50
90.0
51
0.0
7
True type font
11
159600.0
21
4740.0
31
0.0
210
0.0
220
0.0
230
1.0
72
0
100
AcDbText
73
0
0
POLYLINE
5
EC
330
1B
100
AcDbEntity
67
0
8
Markers-One
62
41
420
14737632
6
Dashed
370
0
48
1.0
60
0
100
AcDb3dPolyline
10
0.0
20
0.0
30
0.0
70
8
75
0
210
0.0
220
0.0
230
1.0
0
VERTEX
5
E9
100
AcDbEntity
8
Markers-One
62
41
420
14737632
100
AcDbVertex
100
AcDb3dPolylineVertex
10
159700.0
20
4730.0
30
0.0
70
32
0
VERTEX
5
EA
100
AcDbEntity
8
Markers-One
62
41
420
14737632
100
AcDbVertex
100
AcDb3dPolylineVertex
10
159700.0
20
4735.0
30
0.0
70
32
0
SEQEND
5
EB
100
AcDbEntity
8
Markers-One
0
TEXT
5
ED
330
1B
100
AcDbEntity
67
0
8
Chainage Text
62
9
6
ByLayer
370
15
48
1.0
60
0
100
AcDbText
1
159+700
10
159700.0
20
4740.0
30
0.0
40
14.0
41
1.0
50
90.0
51
0.0
7
True type font
11
159700.0
21
4740.0
31
0.0
210
0.0
220
0.0
230
1.0
72
0
100
AcDbText
73
0
0
POLYLINE
5
F1
330
1B
100
AcDbEntity
67
0
8
Markers-One
62
41
420
14737632
6
Dashed
370
0
48
1.0
60
0
100
AcDb3dPolyline
10
0.0
20
0.0
30
0.0
70
8
75
0
210
0.0
220
0.0
230
1.0
0
VERTEX
5
EE
100
AcDbEntity
8
Markers-One
62
41
420
14737632
100
AcDbVertex
100
AcDb3dPolylineVertex
10
159800.0
20
4730.0
30
0.0
70
32
0
VERTEX
5
EF
100
AcDbEntity
8
Markers-One
62
41
420
14737632
100
AcDbVertex
100
AcDb3dPolylineVertex
10
159800.0
20
4735.0
30
0.0
70
32
0
SEQEND
5
F0
100
AcDbEntity
8
Markers-One
0
TEXT
5
F2
330
1B
100
AcDbEntity
67
0
8
Chainage Text
62
9
6
ByLayer
370
15
48
1.0
60
0
100
AcDbText
1
159+800
10
159800.0
20
4740.0
30
0.0
40
14.0
41
1.0
50
90.0
51
0.0
7
True type font
11
159800.0
21
4740.0
31
0.0
210
0.0
220
0.0
230
1.0
72
0
100
AcDbText
73
0
0
POLYLINE
5
F6
330
1B
100
AcDbEntity
67
0
8
Markers-One
62
41
420
14737632
6
Dashed
370
0
48
1.0
60
0
100
AcDb3dPolyline
10
0.0
20
0.0
30
0.0
70
8
75
0
210
0.0
220
0.0
230
1.0
0
VERTEX
5
F3
100
AcDbEntity
8
Markers-One
62
41
420
14737632
100
AcDbVertex
100
AcDb3dPolylineVertex
10
159900.0
20
4730.0
30
0.0
70
32
0
VERTEX
5
F4
100
AcDbEntity
8
Markers-One
62
41
420
14737632
100
AcDbVertex
100
AcDb3dPolylineVertex
10
159900.0
20
4735.0
30
0.0
70
32
0
SEQEND
5
F5
100
AcDbEntity
8
Markers-One
0
TEXT
5
F7
330
1B
100
AcDbEntity
67
0
8
Chainage Text
62
9
6
ByLayer
370
15
48
1.0
60
0
100
AcDbText
1
159+900
10
159900.0
20
4740.0
30
0.0
40
14.0
41
1.0
50
90.0
51
0.0
7
True type font
11
159900.0
21
4740.0
31
0.0
210
0.0
220
0.0
230
1.0
72
0
100
AcDbText
73
0
0
POLYLINE
5
FB
330
1B
100
AcDbEntity
67
0
8
Markers-One
62
41
420
14737632
6
Dashed
370
0
48
1.0
60
0
100
AcDb3dPolyline
10
0.0
20
0.0
30
0.0
70
8
75
0
210
0.0
220
0.0
230
1.0
0
VERTEX
5
F8
100
AcDbEntity
8
Markers-One
62
41
420
14737632
100
AcDbVertex
100
AcDb3dPolylineVertex
10
160000.0
20
4730.0
30
0.0
70
32
0
VERTEX
5
F9
100
AcDbEntity
8
Markers-One
62
41
420
14737632
100
AcDbVertex
100
AcDb3dPolylineVertex
10
160000.0
20
4735.0
30
0.0
70
32
0
SEQEND
5
FA
100
AcDbEntity
8
Markers-One
0
TEXT
5
FC
330
1B
100
AcDbEntity
67
0
8
Chainage Text
62
9
6
ByLayer
370
15
48
1.0
60
0
100
AcDbText
1
160+000
10
160000.0
20
4740.0
30
0.0
40
14.0
41
1.0
50
90.0
51
0.0
7
True type font
11
160000.0
21
4740.0
31
0.0
210
0.0
220
0.0
230
1.0
72
0
100
AcDbText
73
0
0
POLYLINE
5
100
330
1B
100
AcDbEntity
67
0
8
Markers-One
62
41
420
14737632
6
Dashed
370
0
48
1.0
60
0
100
AcDb3dPolyline
10
0.0
20
0.0
30
0.0
70
8
75
0
210
0.0
220
0.0
230
1.0
0
VERTEX
5
FD
100
AcDbEntity
8
Markers-One
62
41
420
14737632
100
AcDbVertex
100
AcDb3dPolylineVertex
10
160100.0
20
4730.0
30
0.0
70
32
0
VERTEX
5
FE
100
AcDbEntity
8
Markers-One
62
41
420
14737632
100
AcDbVertex
100
AcDb3dPolylineVertex
10
160100.0
20
4735.0
30
0.0
70
32
0
SEQEND
5
FF
100
AcDbEntity
8
Markers-One
0
TEXT
5
101
330
1B
100
AcDbEntity
67
0
8
Chainage Text
62
9
6
ByLayer
370
15
48
1.0
60
0
100
AcDbText
1
160+100
10
160100.0
20
4740.0
30
0.0
40
14.0
41
1.0
50
90.0
51
0.0
7
True type font
11
160100.0
21
4740.0
31
0.0
210
0.0
220
0.0
230
1.0
72
0
100
AcDbText
73
0
0
POLYLINE
5
105
330
1B
100
AcDbEntity
67
0
8
Markers-One
62
41
420
14737632
6
Dashed
370
0
48
1.0
60
0
100
AcDb3dPolyline
10
0.0
20
0.0
30
0.0
70
8
75
0
210
0.0
220
0.0
230
1.0
0
VERTEX
5
102
100
AcDbEntity
8
Markers-One
62
41
420
14737632
100
AcDbVertex
100
AcDb3dPolylineVertex
10
160200.0
20
4730.0
30
0.0
70
32
0
VERTEX
5
103
100
AcDbEntity
8
Markers-One
62
41
420
14737632
100
AcDbVertex
100
AcDb3dPolylineVertex
10
160200.0
20
4735.0
30
0.0
70
32
0
SEQEND
5
104
100
AcDbEntity
8
Markers-One
0
TEXT
5
106
330
1B
100
AcDbEntity
67
0
8
Chainage Text
62
9
6
ByLayer
370
15
48
1.0
60
0
100
AcDbText
1
160+200
10
160200.0
20
4740.0
30
0.0
40
14.0
41
1.0
50
90.0
51
0.0
7
True type font
11
160200.0
21
4740.0
31
0.0
210
0.0
220
0.0
230
1.0
72
0
100
AcDbText
73
0
0
POLYLINE
5
10A
330
1B
100
AcDbEntity
67
0
8
Markers-One
62
41
420
14737632
6
Dashed
370
0
48
1.0
60
0
100
AcDb3dPolyline
10
0.0
20
0.0
30
0.0
70
8
75
0
210
0.0
220
0.0
230
1.0
0
VERTEX
5
107
100
AcDbEntity
8
Markers-One
62
41
420
14737632
100
AcDbVertex
100
AcDb3dPolylineVertex
10
160300.0
20
4730.0
30
0.0
70
32
0
VERTEX
5
108
100
AcDbEntity
8
Markers-One
62
41
420
14737632
100
AcDbVertex
100
AcDb3dPolylineVertex
10
160300.0
20
4735.0
30
0.0
70
32
0
SEQEND
5
109
100
AcDbEntity
8
Markers-One
0
TEXT
5
10B
330
1B
100
AcDbEntity
67
0
8
Chainage Text
62
9
6
ByLayer
370
15
48
1.0
60
0
100
AcDbText
1
160+300
10
160300.0
20
4740.0
30
0.0
40
14.0
41
1.0
50
90.0
51
0.0
7
True type font
11
160300.0
21
4740.0
31
0.0
210
0.0
220
0.0
230
1.0
72
0
100
AcDbText
73
0
0
POLYLINE
5
10F
330
1B
100
AcDbEntity
67
0
8
Markers-One
62
41
420
14737632
6
Dashed
370
0
48
1.0
60
0
100
AcDb3dPolyline
10
0.0
20
0.0
30
0.0
70
8
75
0
210
0.0
220
0.0
230
1.0
0
VERTEX
5
10C
100
AcDbEntity
8
Markers-One
62
41
420
14737632
100
AcDbVertex
100
AcDb3dPolylineVertex
10
160400.0
20
4730.0
30
0.0
70
32
0
VERTEX
5
10D
100
AcDbEntity
8
Markers-One
62
41
420
14737632
100
AcDbVertex
100
AcDb3dPolylineVertex
10
160400.0
20
4735.0
30
0.0
70
32
0
SEQEND
5
10E
100
AcDbEntity
8
Markers-One
0
TEXT
5
110
330
1B
100
AcDbEntity
67
0
8
Chainage Text
62
9
6
ByLayer
370
15
48
1.0
60
0
100
AcDbText
1
160+400
10
160400.0
20
4740.0
30
0.0
40
14.0
41
1.0
50
90.0
51
0.0
7
True type font
11
160400.0
21
4740.0
31
0.0
210
0.0
220
0.0
230
1.0
72
0
100
AcDbText
73
0
0
POLYLINE
5
114
330
1B
100
AcDbEntity
67
0
8
Markers-One
62
41
420
14737632
6
Dashed
370
0
48
1.0
60
0
100
AcDb3dPolyline
10
0.0
20
0.0
30
0.0
70
8
75
0
210
0.0
220
0.0
230
1.0
0
VERTEX
5
111
100
AcDbEntity
8
Markers-One
62
41
420
14737632
100
AcDbVertex
100
AcDb3dPolylineVertex
10
160500.0
20
4730.0
30
0.0
70
32
0
VERTEX
5
112
100
AcDbEntity
8
Markers-One
62
41
420
14737632
100
AcDbVertex
100
AcDb3dPolylineVertex
10
160500.0
20
4735.0
30
0.0
70
32
0
SEQEND
5
113
100
AcDbEntity
8
Markers-One
0
TEXT
5
115
330
1B
100
AcDbEntity
67
0
8
Chainage Text
62
9
6
ByLayer
370
15
48
1.0
60
0
100
AcDbText
1
160+500
10
160500.0
20
4740.0
30
0.0
40
14.0
41
1.0
50
90.0
51
0.0
7
True type font
11
160500.0
21
4740.0
31
0.0
210
0.0
220
0.0
230
1.0
72
0
100
AcDbText
73
0
0
POLYLINE
5
119
330
1B
100
AcDbEntity
67
0
8
Markers-One
62
41
420
14737632
6
Dashed
370
0
48
1.0
60
0
100
AcDb3dPolyline
10
0.0
20
0.0
30
0.0
70
8
75
0
210
0.0
220
0.0
230
1.0
0
VERTEX
5
116
100
AcDbEntity
8
Markers-One
62
41
420
14737632
100
AcDbVertex
100
AcDb3dPolylineVertex
10
160600.0
20
4730.0
30
0.0
70
32
0
VERTEX
5
117
100
AcDbEntity
8
Markers-One
62
41
420
14737632
100
AcDbVertex
100
AcDb3dPolylineVertex
10
160600.0
20
4735.0
30
0.0
70
32
0
SEQEND
5
118
100
AcDbEntity
8
Markers-One
0
TEXT
5
11A
330
1B
100
AcDbEntity
67
0
8
Chainage Text
62
9
6
ByLayer
370
15
48
1.0
60
0
100
AcDbText
1
160+600
10
160600.0
20
4740.0
30
0.0
40
14.0
41
1.0
50
90.0
51
0.0
7
True type font
11
160600.0
21
4740.0
31
0.0
210
0.0
220
0.0
230
1.0
72
0
100
AcDbText
73
0
0
POLYLINE
5
11E
330
1B
100
AcDbEntity
67
0
8
Markers-One
62
41
420
14737632
6
Dashed
370
0
48
1.0
60
0
100
AcDb3dPolyline
10
0.0
20
0.0
30
0.0
70
8
75
0
210
0.0
220
0.0
230
1.0
0
VERTEX
5
11B
100
AcDbEntity
8
Markers-One
62
41
420
14737632
100
AcDbVertex
100
AcDb3dPolylineVertex
10
160700.0
20
4730.0
30
0.0
70
32
0
VERTEX
5
11C
100
AcDbEntity
8
Markers-One
62
41
420
14737632
100
AcDbVertex
100
AcDb3dPolylineVertex
10
160700.0
20
4735.0
30
0.0
70
32
0
SEQEND
5
11D
100
AcDbEntity
8
Markers-One
0
TEXT
5
11F
330
1B
100
AcDbEntity
67
0
8
Chainage Text
62
9
6
ByLayer
370
15
48
1.0
60
0
100
AcDbText
1
160+700
10
160700.0
20
4740.0
30
0.0
40
14.0
41
1.0
50
90.0
51
0.0
7
True type font
11
160700.0
21
4740.0
31
0.0
210
0.0
220
0.0
230
1.0
72
0
100
AcDbText
73
0
0
POLYLINE
5
123
330
1B
100
AcDbEntity
67
0
8
Markers-One
62
41
420
14737632
6
Dashed
370
0
48
1.0
60
0
100
AcDb3dPolyline
10
0.0
20
0.0
30
0.0
70
8
75
0
210
0.0
220
0.0
230
1.0
0
VERTEX
5
120
100
AcDbEntity
8
Markers-One
62
41
420
14737632
100
AcDbVertex
100
AcDb3dPolylineVertex
10
160800.0
20
4730.0
30
0.0
70
32
0
VERTEX
5
121
100
AcDbEntity
8
Markers-One
62
41
420
14737632
100
AcDbVertex
100
AcDb3dPolylineVertex
10
160800.0
20
4735.0
30
0.0
70
32
0
SEQEND
5
122
100
AcDbEntity
8
Markers-One
0
TEXT
5
124
330
1B
100
AcDbEntity
67
0
8
Chainage Text
62
9
6
ByLayer
370
15
48
1.0
60
0
100
AcDbText
1
160+800
10
160800.0
20
4740.0
30
0.0
40
14.0
41
1.0
50
90.0
51
0.0
7
True type font
11
160800.0
21
4740.0
31
0.0
210
0.0
220
0.0
230
1.0
72
0
100
AcDbText
73
0
0
POLYLINE
5
128
330
1B
100
AcDbEntity
67
0
8
Markers-One
62
41
420
14737632
6
Dashed
370
0
48
1.0
60
0
100
AcDb3dPolyline
10
0.0
20
0.0
30
0.0
70
8
75
0
210
0.0
220
0.0
230
1.0
0
VERTEX
5
125
100
AcDbEntity
8
Markers-One
62
41
420
14737632
100
AcDbVertex
100
AcDb3dPolylineVertex
10
160900.0
20
4730.0
30
0.0
70
32
0
VERTEX
5
126
100
AcDbEntity
8
Markers-One
62
41
420
14737632
100
AcDbVertex
100
AcDb3dPolylineVertex
10
160900.0
20
4735.0
30
0.0
70
32
0
SEQEND
5
127
100
AcDbEntity
8
Markers-One
0
TEXT
5
129
330
1B
100
AcDbEntity
67
0
8
Chainage Text
62
9
6
ByLayer
370
15
48
1.0
60
0
100
AcDbText
1
160+900
10
160900.0
20
4740.0
30
0.0
40
14.0
41
1.0
50
90.0
51
0.0
7
True type font
11
160900.0
21
4740.0
31
0.0
210
0.0
220
0.0
230
1.0
72
0
100
AcDbText
73
0
0
POLYLINE
5
12D
330
1B
100
AcDbEntity
67
0
8
Markers-One
62
41
420
14737632
6
Dashed
370
0
48
1.0
60
0
100
AcDb3dPolyline
10
0.0
20
0.0
30
0.0
70
8
75
0
210
0.0
220
0.0
230
1.0
0
VERTEX
5
12A
100
AcDbEntity
8
Markers-One
62
41
420
14737632
100
AcDbVertex
100
AcDb3dPolylineVertex
10
161000.0
20
4730.0
30
0.0
70
32
0
VERTEX
5
12B
100
AcDbEntity
8
Markers-One
62
41
420
14737632
100
AcDbVertex
100
AcDb3dPolylineVertex
10
161000.0
20
4735.0
30
0.0
70
32
0
SEQEND
5
12C
100
AcDbEntity
8
Markers-One
0
TEXT
5
12E
330
1B
100
AcDbEntity
67
0
8
Chainage Text
62
9
6
ByLayer
370
15
48
1.0
60
0
100
AcDbText
1
161+000
10
161000.0
20
4740.0
30
0.0
40
14.0
41
1.0
50
90.0
51
0.0
7
True type font
11
161000.0
21
4740.0
31
0.0
210
0.0
220
0.0
230
1.0
72
0
100
AcDbText
73
0
0
POLYLINE
5
132
330
1B
100
AcDbEntity
67
0
8
Markers-One
62
41
420
14737632
6
Dashed
370
0
48
1.0
60
0
100
AcDb3dPolyline
10
0.0
20
0.0
30
0.0
70
8
75
0
210
0.0
220
0.0
230
1.0
0
VERTEX
5
12F
100
AcDbEntity
8
Markers-One
62
41
420
14737632
100
AcDbVertex
100
AcDb3dPolylineVertex
10
161100.0
20
4730.0
30
0.0
70
32
0
VERTEX
5
130
100
AcDbEntity
8
Markers-One
62
41
420
14737632
100
AcDbVertex
100
AcDb3dPolylineVertex
10
161100.0
20
4735.0
30
0.0
70
32
0
SEQEND
5
131
100
AcDbEntity
8
Markers-One
0
TEXT
5
133
330
1B
100
AcDbEntity
67
0
8
Chainage Text
62
9
6
ByLayer
370
15
48
1.0
60
0
100
AcDbText
1
161+100
10
161100.0
20
4740.0
30
0.0
40
14.0
41
1.0
50
90.0
51
0.0
7
True type font
11
161100.0
21
4740.0
31
0.0
210
0.0
220
0.0
230
1.0
72
0
100
AcDbText
73
0
0
POLYLINE
5
137
330
1B
100
AcDbEntity
67
0
8
Markers-One
62
41
420
14737632
6
Dashed
370
0
48
1.0
60
0
100
AcDb3dPolyline
10
0.0
20
0.0
30
0.0
70
8
75
0
210
0.0
220
0.0
230
1.0
0
VERTEX
5
134
100
AcDbEntity
8
Markers-One
62
41
420
14737632
100
AcDbVertex
100
AcDb3dPolylineVertex
10
161200.0
20
4730.0
30
0.0
70
32
0
VERTEX
5
135
100
AcDbEntity
8
Markers-One
62
41
420
14737632
100
AcDbVertex
100
AcDb3dPolylineVertex
10
161200.0
20
4735.0
30
0.0
70
32
0
SEQEND
5
136
100
AcDbEntity
8
Markers-One
0
TEXT
5
138
330
1B
100
AcDbEntity
67
0
8
Chainage Text
62
9
6
ByLayer
370
15
48
1.0
60
0
100
AcDbText
1
161+200
10
161200.0
20
4740.0
30
0.0
40
14.0
41
1.0
50
90.0
51
0.0
7
True type font
11
161200.0
21
4740.0
31
0.0
210
0.0
220
0.0
230
1.0
72
0
100
AcDbText
73
0
0
POLYLINE
5
13C
330
1B
100
AcDbEntity
67
0
8
Markers-One
62
41
420
14737632
6
Dashed
370
0
48
1.0
60
0
100
AcDb3dPolyline
10
0.0
20
0.0
30
0.0
70
8
75
0
210
0.0
220
0.0
230
1.0
0
VERTEX
5
139
100
AcDbEntity
8
Markers-One
62
41
420
14737632
100
AcDbVertex
100
AcDb3dPolylineVertex
10
161300.0
20
4730.0
30
0.0
70
32
0
VERTEX
5
13A
100
AcDbEntity
8
Markers-One
62
41
420
14737632
100
AcDbVertex
100
AcDb3dPolylineVertex
10
161300.0
20
4735.0
30
0.0
70
32
0
SEQEND
5
13B
100
AcDbEntity
8
Markers-One
0
TEXT
5
13D
330
1B
100
AcDbEntity
67
0
8
Chainage Text
62
9
6
ByLayer
370
15
48
1.0
60
0
100
AcDbText
1
161+300
10
161300.0
20
4740.0
30
0.0
40
14.0
41
1.0
50
90.0
51
0.0
7
True type font
11
161300.0
21
4740.0
31
0.0
210
0.0
220
0.0
230
1.0
72
0
100
AcDbText
73
0
0
POLYLINE
5
141
330
1B
100
AcDbEntity
67
0
8
Markers-One
62
41
420
14737632
6
Dashed
370
0
48
1.0
60
0
100
AcDb3dPolyline
10
0.0
20
0.0
30
0.0
70
8
75
0
210
0.0
220
0.0
230
1.0
0
VERTEX
5
13E
100
AcDbEntity
8
Markers-One
62
41
420
14737632
100
AcDbVertex
100
AcDb3dPolylineVertex
10
161400.0
20
4730.0
30
0.0
70
32
0
VERTEX
5
13F
100
AcDbEntity
8
Markers-One
62
41
420
14737632
100
AcDbVertex
100
AcDb3dPolylineVertex
10
161400.0
20
4735.0
30
0.0
70
32
0
SEQEND
5
140
100
AcDbEntity
8
Markers-One
0
TEXT
5
142
330
1B
100
AcDbEntity
67
0
8
Chainage Text
62
9
6
ByLayer
370
15
48
1.0
60
0
100
AcDbText
1
161+400
10
161400.0
20
4740.0
30
0.0
40
14.0
41
1.0
50
90.0
51
0.0
7
True type font
11
161400.0
21
4740.0
31
0.0
210
0.0
220
0.0
230
1.0
72
0
100
AcDbText
73
0
0
POLYLINE
5
146
330
1B
100
AcDbEntity
67
0
8
Markers-One
62
41
420
14737632
6
Dashed
370
0
48
1.0
60
0
100
AcDb3dPolyline
10
0.0
20
0.0
30
0.0
70
8
75
0
210
0.0
220
0.0
230
1.0
0
VERTEX
5
143
100
AcDbEntity
8
Markers-One
62
41
420
14737632
100
AcDbVertex
100
AcDb3dPolylineVertex
10
161500.0
20
4730.0
30
0.0
70
32
0
VERTEX
5
144
100
AcDbEntity
8
Markers-One
62
41
420
14737632
100
AcDbVertex
100
AcDb3dPolylineVertex
10
161500.0
20
4735.0
30
0.0
70
32
0
SEQEND
5
145
100
AcDbEntity
8
Markers-One
0
TEXT
5
147
330
1B
100
AcDbEntity
67
0
8
Chainage Text
62
9
6
ByLayer
370
15
48
1.0
60
0
100
AcDbText
1
161+500
10
161500.0
20
4740.0
30
0.0
40
14.0
41
1.0
50
90.0
51
0.0
7
True type font
11
161500.0
21
4740.0
31
0.0
210
0.0
220
0.0
230
1.0
72
0
100
AcDbText
73
0
0
POLYLINE
5
14B
330
1B
100
AcDbEntity
67
0
8
Markers-One
62
41
420
14737632
6
Dashed
370
0
48
1.0
60
0
100
AcDb3dPolyline
10
0.0
20
0.0
30
0.0
70
8
75
0
210
0.0
220
0.0
230
1.0
0
VERTEX
5
148
100
AcDbEntity
8
Markers-One
62
41
420
14737632
100
AcDbVertex
100
AcDb3dPolylineVertex
10
161600.0
20
4730.0
30
0.0
70
32
0
VERTEX
5
149
100
AcDbEntity
8
Markers-One
62
41
420
14737632
100
AcDbVertex
100
AcDb3dPolylineVertex
10
161600.0
20
4735.0
30
0.0
70
32
0
SEQEND
5
14A
100
AcDbEntity
8
Markers-One
0
TEXT
5
14C
330
1B
100
AcDbEntity
67
0
8
Chainage Text
62
9
6
ByLayer
370
15
48
1.0
60
0
100
AcDbText
1
161+600
10
161600.0
20
4740.0
30
0.0
40
14.0
41
1.0
50
90.0
51
0.0
7
True type font
11
161600.0
21
4740.0
31
0.0
210
0.0
220
0.0
230
1.0
72
0
100
AcDbText
73
0
0
POLYLINE
5
150
330
1B
100
AcDbEntity
67
0
8
Markers-One
62
41
420
14737632
6
Dashed
370
0
48
1.0
60
0
100
AcDb3dPolyline
10
0.0
20
0.0
30
0.0
70
8
75
0
210
0.0
220
0.0
230
1.0
0
VERTEX
5
14D
100
AcDbEntity
8
Markers-One
62
41
420
14737632
100
AcDbVertex
100
AcDb3dPolylineVertex
10
161700.0
20
4730.0
30
0.0
70
32
0
VERTEX
5
14E
100
AcDbEntity
8
Markers-One
62
41
420
14737632
100
AcDbVertex
100
AcDb3dPolylineVertex
10
161700.0
20
4735.0
30
0.0
70
32
0
SEQEND
5
14F
100
AcDbEntity
8
Markers-One
0
TEXT
5
151
330
1B
100
AcDbEntity
67
0
8
Chainage Text
62
9
6
ByLayer
370
15
48
1.0
60
0
100
AcDbText
1
161+700
10
161700.0
20
4740.0
30
0.0
40
14.0
41
1.0
50
90.0
51
0.0
7
True type font
11
161700.0
21
4740.0
31
0.0
210
0.0
220
0.0
230
1.0
72
0
100
AcDbText
73
0
0
POLYLINE
5
155
330
1B
100
AcDbEntity
67
0
8
Markers-One
62
41
420
14737632
6
Dashed
370
0
48
1.0
60
0
100
AcDb3dPolyline
10
0.0
20
0.0
30
0.0
70
8
75
0
210
0.0
220
0.0
230
1.0
0
VERTEX
5
152
100
AcDbEntity
8
Markers-One
62
41
420
14737632
100
AcDbVertex
100
AcDb3dPolylineVertex
10
161800.0
20
4730.0
30
0.0
70
32
0
VERTEX
5
153
100
AcDbEntity
8
Markers-One
62
41
420
14737632
100
AcDbVertex
100
AcDb3dPolylineVertex
10
161800.0
20
4735.0
30
0.0
70
32
0
SEQEND
5
154
100
AcDbEntity
8
Markers-One
0
TEXT
5
156
330
1B
100
AcDbEntity
67
0
8
Chainage Text
62
9
6
ByLayer
370
15
48
1.0
60
0
100
AcDbText
1
161+800
10
161800.0
20
4740.0
30
0.0
40
14.0
41
1.0
50
90.0
51
0.0
7
True type font
11
161800.0
21
4740.0
31
0.0
210
0.0
220
0.0
230
1.0
72
0
100
AcDbText
73
0
0
POLYLINE
5
15A
330
1B
100
AcDbEntity
67
0
8
Markers-One
62
41
420
14737632
6
Dashed
370
0
48
1.0
60
0
100
AcDb3dPolyline
10
0.0
20
0.0
30
0.0
70
8
75
0
210
0.0
220
0.0
230
1.0
0
VERTEX
5
157
100
AcDbEntity
8
Markers-One
62
41
420
14737632
100
AcDbVertex
100
AcDb3dPolylineVertex
10
161900.0
20
4730.0
30
0.0
70
32
0
VERTEX
5
158
100
AcDbEntity
8
Markers-One
62
41
420
14737632
100
AcDbVertex
100
AcDb3dPolylineVertex
10
161900.0
20
4735.0
30
0.0
70
32
0
SEQEND
5
159
100
AcDbEntity
8
Markers-One
0
TEXT
5
15B
330
1B
100
AcDbEntity
67
0
8
Chainage Text
62
9
6
ByLayer
370
15
48
1.0
60
0
100
AcDbText
1
161+900
10
161900.0
20
4740.0
30
0.0
40
14.0
41
1.0
50
90.0
51
0.0
7
True type font
11
161900.0
21
4740.0
31
0.0
210
0.0
220
0.0
230
1.0
72
0
100
AcDbText
73
0
0
POLYLINE
5
15F
330
1B
100
AcDbEntity
67
0
8
Markers-One
62
41
420
14737632
6
Dashed
370
0
48
1.0
60
0
100
AcDb3dPolyline
10
0.0
20
0.0
30
0.0
70
8
75
0
210
0.0
220
0.0
230
1.0
0
VERTEX
5
15C
100
AcDbEntity
8
Markers-One
62
41
420
14737632
100
AcDbVertex
100
AcDb3dPolylineVertex
10
162000.0
20
4730.0
30
0.0
70
32
0
VERTEX
5
15D
100
AcDbEntity
8
Markers-One
62
41
420
14737632
100
AcDbVertex
100
AcDb3dPolylineVertex
10
162000.0
20
4735.0
30
0.0
70
32
0
SEQEND
5
15E
100
AcDbEntity
8
Markers-One
0
TEXT
5
160
330
1B
100
AcDbEntity
67
0
8
Chainage Text
62
9
6
ByLayer
370
15
48
1.0
60
0
100
AcDbText
1
162+000
10
162000.0
20
4740.0
30
0.0
40
14.0
41
1.0
50
90.0
51
0.0
7
True type font
11
162000.0
21
4740.0
31
0.0
210
0.0
220
0.0
230
1.0
72
0
100
AcDbText
73
0
0
POLYLINE
5
164
330
1B
100
AcDbEntity
67
0
8
Markers-One
62
41
420
14737632
6
Dashed
370
0
48
1.0
60
0
100
AcDb3dPolyline
10
0.0
20
0.0
30
0.0
70
8
75
0
210
0.0
220
0.0
230
1.0
0
VERTEX
5
161
100
AcDbEntity
8
Markers-One
62
41
420
14737632
100
AcDbVertex
100
AcDb3dPolylineVertex
10
162100.0
20
4730.0
30
0.0
70
32
0
VERTEX
5
162
100
AcDbEntity
8
Markers-One
62
41
420
14737632
100
AcDbVertex
100
AcDb3dPolylineVertex
10
162100.0
20
4735.0
30
0.0
70
32
0
SEQEND
5
163
100
AcDbEntity
8
Markers-One
0
TEXT
5
165
330
1B
100
AcDbEntity
67
0
8
Chainage Text
62
9
6
ByLayer
370
15
48
1.0
60
0
100
AcDbText
1
162+100
10
162100.0
20
4740.0
30
0.0
40
14.0
41
1.0
50
90.0
51
0.0
7
True type font
11
162100.0
21
4740.0
31
0.0
210
0.0
220
0.0
230
1.0
72
0
100
AcDbText
73
0
0
POLYLINE
5
169
330
1B
100
AcDbEntity
67
0
8
Markers-One
62
41
420
14737632
6
Dashed
370
0
48
1.0
60
0
100
AcDb3dPolyline
10
0.0
20
0.0
30
0.0
70
8
75
0
210
0.0
220
0.0
230
1.0
0
VERTEX
5
166
100
AcDbEntity
8
Markers-One
62
41
420
14737632
100
AcDbVertex
100
AcDb3dPolylineVertex
10
162200.0
20
4730.0
30
0.0
70
32
0
VERTEX
5
167
100
AcDbEntity
8
Markers-One
62
41
420
14737632
100
AcDbVertex
100
AcDb3dPolylineVertex
10
162200.0
20
4735.0
30
0.0
70
32
0
SEQEND
5
168
100
AcDbEntity
8
Markers-One
0
TEXT
5
16A
330
1B
100
AcDbEntity
67
0
8
Chainage Text
62
9
6
ByLayer
370
15
48
1.0
60
0
100
AcDbText
1
162+200
10
162200.0
20
4740.0
30
0.0
40
14.0
41
1.0
50
90.0
51
0.0
7
True type font
11
162200.0
21
4740.0
31
0.0
210
0.0
220
0.0
230
1.0
72
0
100
AcDbText
73
0
0
POLYLINE
5
16E
330
1B
100
AcDbEntity
67
0
8
Markers-One
62
41
420
14737632
6
Dashed
370
0
48
1.0
60
0
100
AcDb3dPolyline
10
0.0
20
0.0
30
0.0
70
8
75
0
210
0.0
220
0.0
230
1.0
0
VERTEX
5
16B
100
AcDbEntity
8
Markers-One
62
41
420
14737632
100
AcDbVertex
100
AcDb3dPolylineVertex
10
162300.0
20
4730.0
30
0.0
70
32
0
VERTEX
5
16C
100
AcDbEntity
8
Markers-One
62
41
420
14737632
100
AcDbVertex
100
AcDb3dPolylineVertex
10
162300.0
20
4735.0
30
0.0
70
32
0
SEQEND
5
16D
100
AcDbEntity
8
Markers-One
0
TEXT
5
16F
330
1B
100
AcDbEntity
67
0
8
Chainage Text
62
9
6
ByLayer
370
15
48
1.0
60
0
100
AcDbText
1
162+300
10
162300.0
20
4740.0
30
0.0
40
14.0
41
1.0
50
90.0
51
0.0
7
True type font
11
162300.0
21
4740.0
31
0.0
210
0.0
220
0.0
230
1.0
72
0
100
AcDbText
73
0
0
POLYLINE
5
173
330
1B
100
AcDbEntity
67
0
8
Markers-One
62
41
420
14737632
6
Dashed
370
0
48
1.0
60
0
100
AcDb3dPolyline
10
0.0
20
0.0
30
0.0
70
8
75
0
210
0.0
220
0.0
230
1.0
0
VERTEX
5
170
100
AcDbEntity
8
Markers-One
62
41
420
14737632
100
AcDbVertex
100
AcDb3dPolylineVertex
10
162400.0
20
4730.0
30
0.0
70
32
0
VERTEX
5
171
100
AcDbEntity
8
Markers-One
62
41
420
14737632
100
AcDbVertex
100
AcDb3dPolylineVertex
10
162400.0
20
4735.0
30
0.0
70
32
0
SEQEND
5
172
100
AcDbEntity
8
Markers-One
0
TEXT
5
174
330
1B
100
AcDbEntity
67
0
8
Chainage Text
62
9
6
ByLayer
370
15
48
1.0
60
0
100
AcDbText
1
162+400
10
162400.0
20
4740.0
30
0.0
40
14.0
41
1.0
50
90.0
51
0.0
7
True type font
11
162400.0
21
4740.0
31
0.0
210
0.0
220
0.0
230
1.0
72
0
100
AcDbText
73
0
0
POLYLINE
5
178
330
1B
100
AcDbEntity
67
0
8
Markers-One
62
41
420
14737632
6
Dashed
370
0
48
1.0
60
0
100
AcDb3dPolyline
10
0.0
20
0.0
30
0.0
70
8
75
0
210
0.0
220
0.0
230
1.0
0
VERTEX
5
175
100
AcDbEntity
8
Markers-One
62
41
420
14737632
100
AcDbVertex
100
AcDb3dPolylineVertex
10
162500.0
20
4730.0
30
0.0
70
32
0
VERTEX
5
176
100
AcDbEntity
8
Markers-One
62
41
420
14737632
100
AcDbVertex
100
AcDb3dPolylineVertex
10
162500.0
20
4735.0
30
0.0
70
32
0
SEQEND
5
177
100
AcDbEntity
8
Markers-One
0
TEXT
5
179
330
1B
100
AcDbEntity
67
0
8
Chainage Text
62
9
6
ByLayer
370
15
48
1.0
60
0
100
AcDbText
1
162+500
10
162500.0
20
4740.0
30
0.0
40
14.0
41
1.0
50
90.0
51
0.0
7
True type font
11
162500.0
21
4740.0
31
0.0
210
0.0
220
0.0
230
1.0
72
0
100
AcDbText
73
0
0
POLYLINE
5
17D
330
1B
100
AcDbEntity
67
0
8
Markers-One
62
41
420
14737632
6
Dashed
370
0
48
1.0
60
0
100
AcDb3dPolyline
10
0.0
20
0.0
30
0.0
70
8
75
0
210
0.0
220
0.0
230
1.0
0
VERTEX
5
17A
100
AcDbEntity
8
Markers-One
62
41
420
14737632
100
AcDbVertex
100
AcDb3dPolylineVertex
10
162600.0
20
4730.0
30
0.0
70
32
0
VERTEX
5
17B
100
AcDbEntity
8
Markers-One
62
41
420
14737632
100
AcDbVertex
100
AcDb3dPolylineVertex
10
162600.0
20
4735.0
30
0.0
70
32
0
SEQEND
5
17C
100
AcDbEntity
8
Markers-One
0
TEXT
5
17E
330
1B
100
AcDbEntity
67
0
8
Chainage Text
62
9
6
ByLayer
370
15
48
1.0
60
0
100
AcDbText
1
162+600
10
162600.0
20
4740.0
30
0.0
40
14.0
41
1.0
50
90.0
51
0.0
7
True type font
11
162600.0
21
4740.0
31
0.0
210
0.0
220
0.0
230
1.0
72
0
100
AcDbText
73
0
0
POLYLINE
5
182
330
1B
100
AcDbEntity
67
0
8
Markers-One
62
41
420
14737632
6
Dashed
370
0
48
1.0
60
0
100
AcDb3dPolyline
10
0.0
20
0.0
30
0.0
70
8
75
0
210
0.0
220
0.0
230
1.0
0
VERTEX
5
17F
100
AcDbEntity
8
Markers-One
62
41
420
14737632
100
AcDbVertex
100
AcDb3dPolylineVertex
10
162700.0
20
4730.0
30
0.0
70
32
0
VERTEX
5
180
100
AcDbEntity
8
Markers-One
62
41
420
14737632
100
AcDbVertex
100
AcDb3dPolylineVertex
10
162700.0
20
4735.0
30
0.0
70
32
0
SEQEND
5
181
100
AcDbEntity
8
Markers-One
0
TEXT
5
183
330
1B
100
AcDbEntity
67
0
8
Chainage Text
62
9
6
ByLayer
370
15
48
1.0
60
0
100
AcDbText
1
162+700
10
162700.0
20
4740.0
30
0.0
40
14.0
41
1.0
50
90.0
51
0.0
7
True type font
11
162700.0
21
4740.0
31
0.0
210
0.0
220
0.0
230
1.0
72
0
100
AcDbText
73
0
0
POLYLINE
5
187
330
1B
100
AcDbEntity
67
0
8
Markers-One
62
41
420
14737632
6
Dashed
370
0
48
1.0
60
0
100
AcDb3dPolyline
10
0.0
20
0.0
30
0.0
70
8
75
0
210
0.0
220
0.0
230
1.0
0
VERTEX
5
184
100
AcDbEntity
8
Markers-One
62
41
420
14737632
100
AcDbVertex
100
AcDb3dPolylineVertex
10
162800.0
20
4730.0
30
0.0
70
32
0
VERTEX
5
185
100
AcDbEntity
8
Markers-One
62
41
420
14737632
100
AcDbVertex
100
AcDb3dPolylineVertex
10
162800.0
20
4735.0
30
0.0
70
32
0
SEQEND
5
186
100
AcDbEntity
8
Markers-One
0
TEXT
5
188
330
1B
100
AcDbEntity
67
0
8
Chainage Text
62
9
6
ByLayer
370
15
48
1.0
60
0
100
AcDbText
1
162+800
10
162800.0
20
4740.0
30
0.0
40
14.0
41
1.0
50
90.0
51
0.0
7
True type font
11
162800.0
21
4740.0
31
0.0
210
0.0
220
0.0
230
1.0
72
0
100
AcDbText
73
0
0
POLYLINE
5
18C
330
1B
100
AcDbEntity
67
0
8
Markers-One
62
41
420
14737632
6
Dashed
370
0
48
1.0
60
0
100
AcDb3dPolyline
10
0.0
20
0.0
30
0.0
70
8
75
0
210
0.0
220
0.0
230
1.0
0
VERTEX
5
189
100
AcDbEntity
8
Markers-One
62
41
420
14737632
100
AcDbVertex
100
AcDb3dPolylineVertex
10
162900.0
20
4730.0
30
0.0
70
32
0
VERTEX
5
18A
100
AcDbEntity
8
Markers-One
62
41
420
14737632
100
AcDbVertex
100
AcDb3dPolylineVertex
10
162900.0
20
4735.0
30
0.0
70
32
0
SEQEND
5
18B
100
AcDbEntity
8
Markers-One
0
TEXT
5
18D
330
1B
100
AcDbEntity
67
0
8
Chainage Text
62
9
6
ByLayer
370
15
48
1.0
60
0
100
AcDbText
1
162+900
10
162900.0
20
4740.0
30
0.0
40
14.0
41
1.0
50
90.0
51
0.0
7
True type font
11
162900.0
21
4740.0
31
0.0
210
0.0
220
0.0
230
1.0
72
0
100
AcDbText
73
0
0
POLYLINE
5
191
330
1B
100
AcDbEntity
67
0
8
Markers-One
62
41
420
14737632
6
Dashed
370
0
48
1.0
60
0
100
AcDb3dPolyline
10
0.0
20
0.0
30
0.0
70
8
75
0
210
0.0
220
0.0
230
1.0
0
VERTEX
5
18E
100
AcDbEntity
8
Markers-One
62
41
420
14737632
100
AcDbVertex
100
AcDb3dPolylineVertex
10
163000.0
20
4730.0
30
0.0
70
32
0
VERTEX
5
18F
100
AcDbEntity
8
Markers-One
62
41
420
14737632
100
AcDbVertex
100
AcDb3dPolylineVertex
10
163000.0
20
4735.0
30
0.0
70
32
0
SEQEND
5
190
100
AcDbEntity
8
Markers-One
0
TEXT
5
192
330
1B
100
AcDbEntity
67
0
8
Chainage Text
62
9
6
ByLayer
370
15
48
1.0
60
0
100
AcDbText
1
163+000
10
163000.0
20
4740.0
30
0.0
40
14.0
41
1.0
50
90.0
51
0.0
7
True type font
11
163000.0
21
4740.0
31
0.0
210
0.0
220
0.0
230
1.0
72
0
100
AcDbText
73
0
0
POLYLINE
5
196
330
1B
100
AcDbEntity
67
0
8
Markers-One
62
41
420
14737632
6
Dashed
370
0
48
1.0
60
0
100
AcDb3dPolyline
10
0.0
20
0.0
30
0.0
70
8
75
0
210
0.0
220
0.0
230
1.0
0
VERTEX
5
193
100
AcDbEntity
8
Markers-One
62
41
420
14737632
100
AcDbVertex
100
AcDb3dPolylineVertex
10
163100.0
20
4730.0
30
0.0
70
32
0
VERTEX
5
194
100
AcDbEntity
8
Markers-One
62
41
420
14737632
100
AcDbVertex
100
AcDb3dPolylineVertex
10
163100.0
20
4735.0
30
0.0
70
32
0
SEQEND
5
195
100
AcDbEntity
8
Markers-One
0
TEXT
5
197
330
1B
100
AcDbEntity
67
0
8
Chainage Text
62
9
6
ByLayer
370
15
48
1.0
60
0
100
AcDbText
1
163+100
10
163100.0
20
4740.0
30
0.0
40
14.0
41
1.0
50
90.0
51
0.0
7
True type font
11
163100.0
21
4740.0
31
0.0
210
0.0
220
0.0
230
1.0
72
0
100
AcDbText
73
0
0
POLYLINE
5
19B
330
1B
100
AcDbEntity
67
0
8
Markers-One
62
41
420
14737632
6
Dashed
370
0
48
1.0
60
0
100
AcDb3dPolyline
10
0.0
20
0.0
30
0.0
70
8
75
0
210
0.0
220
0.0
230
1.0
0
VERTEX
5
198
100
AcDbEntity
8
Markers-One
62
41
420
14737632
100
AcDbVertex
100
AcDb3dPolylineVertex
10
163200.0
20
4730.0
30
0.0
70
32
0
VERTEX
5
199
100
AcDbEntity
8
Markers-One
62
41
420
14737632
100
AcDbVertex
100
AcDb3dPolylineVertex
10
163200.0
20
4735.0
30
0.0
70
32
0
SEQEND
5
19A
100
AcDbEntity
8
Markers-One
0
TEXT
5
19C
330
1B
100
AcDbEntity
67
0
8
Chainage Text
62
9
6
ByLayer
370
15
48
1.0
60
0
100
AcDbText
1
163+200
10
163200.0
20
4740.0
30
0.0
40
14.0
41
1.0
50
90.0
51
0.0
7
True type font
11
163200.0
21
4740.0
31
0.0
210
0.0
220
0.0
230
1.0
72
0
100
AcDbText
73
0
0
POLYLINE
5
1A0
330
1B
100
AcDbEntity
67
0
8
Markers-One
62
41
420
14737632
6
Dashed
370
0
48
1.0
60
0
100
AcDb3dPolyline
10
0.0
20
0.0
30
0.0
70
8
75
0
210
0.0
220
0.0
230
1.0
0
VERTEX
5
19D
100
AcDbEntity
8
Markers-One
62
41
420
14737632
100
AcDbVertex
100
AcDb3dPolylineVertex
10
163300.0
20
4730.0
30
0.0
70
32
0
VERTEX
5
19E
100
AcDbEntity
8
Markers-One
62
41
420
14737632
100
AcDbVertex
100
AcDb3dPolylineVertex
10
163300.0
20
4735.0
30
0.0
70
32
0
SEQEND
5
19F
100
AcDbEntity
8
Markers-One
0
TEXT
5
1A1
330
1B
100
AcDbEntity
67
0
8
Chainage Text
62
9
6
ByLayer
370
15
48
1.0
60
0
100
AcDbText
1
163+300
10
163300.0
20
4740.0
30
0.0
40
14.0
41
1.0
50
90.0
51
0.0
7
True type font
11
163300.0
21
4740.0
31
0.0
210
0.0
220
0.0
230
1.0
72
0
100
AcDbText
73
0
0
POLYLINE
5
1A5
330
1B
100
AcDbEntity
67
0
8
Markers-One
62
41
420
14737632
6
Dashed
370
0
48
1.0
60
0
100
AcDb3dPolyline
10
0.0
20
0.0
30
0.0
70
8
75
0
210
0.0
220
0.0
230
1.0
0
VERTEX
5
1A2
100
AcDbEntity
8
Markers-One
62
41
420
14737632
100
AcDbVertex
100
AcDb3dPolylineVertex
10
163400.0
20
4730.0
30
0.0
70
32
0
VERTEX
5
1A3
100
AcDbEntity
8
Markers-One
62
41
420
14737632
100
AcDbVertex
100
AcDb3dPolylineVertex
10
163400.0
20
4735.0
30
0.0
70
32
0
SEQEND
5
1A4
100
AcDbEntity
8
Markers-One
0
TEXT
5
1A6
330
1B
100
AcDbEntity
67
0
8
Chainage Text
62
9
6
ByLayer
370
15
48
1.0
60
0
100
AcDbText
1
163+400
10
163400.0
20
4740.0
30
0.0
40
14.0
41
1.0
50
90.0
51
0.0
7
True type font
11
163400.0
21
4740.0
31
0.0
210
0.0
220
0.0
230
1.0
72
0
100
AcDbText
73
0
0
POLYLINE
5
1AA
330
1B
100
AcDbEntity
67
0
8
Markers-One
62
41
420
14737632
6
Dashed
370
0
48
1.0
60
0
100
AcDb3dPolyline
10
0.0
20
0.0
30
0.0
70
8
75
0
210
0.0
220
0.0
230
1.0
0
VERTEX
5
1A7
100
AcDbEntity
8
Markers-One
62
41
420
14737632
100
AcDbVertex
100
AcDb3dPolylineVertex
10
163500.0
20
4730.0
30
0.0
70
32
0
VERTEX
5
1A8
100
AcDbEntity
8
Markers-One
62
41
420
14737632
100
AcDbVertex
100
AcDb3dPolylineVertex
10
163500.0
20
4735.0
30
0.0
70
32
0
SEQEND
5
1A9
100
AcDbEntity
8
Markers-One
0
TEXT
5
1AB
330
1B
100
AcDbEntity
67
0
8
Chainage Text
62
9
6
ByLayer
370
15
48
1.0
60
0
100
AcDbText
1
163+500
10
163500.0
20
4740.0
30
0.0
40
14.0
41
1.0
50
90.0
51
0.0
7
True type font
11
163500.0
21
4740.0
31
0.0
210
0.0
220
0.0
230
1.0
72
0
100
AcDbText
73
0
0
POLYLINE
5
1AF
330
1B
100
AcDbEntity
67
0
8
Markers-One
62
41
420
14737632
6
Dashed
370
0
48
1.0
60
0
100
AcDb3dPolyline
10
0.0
20
0.0
30
0.0
70
8
75
0
210
0.0
220
0.0
230
1.0
0
VERTEX
5
1AC
100
AcDbEntity
8
Markers-One
62
41
420
14737632
100
AcDbVertex
100
AcDb3dPolylineVertex
10
163600.0
20
4730.0
30
0.0
70
32
0
VERTEX
5
1AD
100
AcDbEntity
8
Markers-One
62
41
420
14737632
100
AcDbVertex
100
AcDb3dPolylineVertex
10
163600.0
20
4735.0
30
0.0
70
32
0
SEQEND
5
1AE
100
AcDbEntity
8
Markers-One
0
TEXT
5
1B0
330
1B
100
AcDbEntity
67
0
8
Chainage Text
62
9
6
ByLayer
370
15
48
1.0
60
0
100
AcDbText
1
163+600
10
163600.0
20
4740.0
30
0.0
40
14.0
41
1.0
50
90.0
51
0.0
7
True type font
11
163600.0
21
4740.0
31
0.0
210
0.0
220
0.0
230
1.0
72
0
100
AcDbText
73
0
0
POLYLINE
5
1B4
330
1B
100
AcDbEntity
67
0
8
Markers-One
62
41
420
14737632
6
Dashed
370
0
48
1.0
60
0
100
AcDb3dPolyline
10
0.0
20
0.0
30
0.0
70
8
75
0
210
0.0
220
0.0
230
1.0
0
VERTEX
5
1B1
100
AcDbEntity
8
Markers-One
62
41
420
14737632
100
AcDbVertex
100
AcDb3dPolylineVertex
10
163700.0
20
4730.0
30
0.0
70
32
0
VERTEX
5
1B2
100
AcDbEntity
8
Markers-One
62
41
420
14737632
100
AcDbVertex
100
AcDb3dPolylineVertex
10
163700.0
20
4735.0
30
0.0
70
32
0
SEQEND
5
1B3
100
AcDbEntity
8
Markers-One
0
TEXT
5
1B5
330
1B
100
AcDbEntity
67
0
8
Chainage Text
62
9
6
ByLayer
370
15
48
1.0
60
0
100
AcDbText
1
163+700
10
163700.0
20
4740.0
30
0.0
40
14.0
41
1.0
50
90.0
51
0.0
7
True type font
11
163700.0
21
4740.0
31
0.0
210
0.0
220
0.0
230
1.0
72
0
100
AcDbText
73
0
0
POLYLINE
5
1B9
330
1B
100
AcDbEntity
67
0
8
Markers-One
62
41
420
14737632
6
Dashed
370
0
48
1.0
60
0
100
AcDb3dPolyline
10
0.0
20
0.0
30
0.0
70
8
75
0
210
0.0
220
0.0
230
1.0
0
VERTEX
5
1B6
100
AcDbEntity
8
Markers-One
62
41
420
14737632
100
AcDbVertex
100
AcDb3dPolylineVertex
10
163800.0
20
4730.0
30
0.0
70
32
0
VERTEX
5
1B7
100
AcDbEntity
8
Markers-One
62
41
420
14737632
100
AcDbVertex
100
AcDb3dPolylineVertex
10
163800.0
20
4735.0
30
0.0
70
32
0
SEQEND
5
1B8
100
AcDbEntity
8
Markers-One
0
TEXT
5
1BA
330
1B
100
AcDbEntity
67
0
8
Chainage Text
62
9
6
ByLayer
370
15
48
1.0
60
0
100
AcDbText
1
163+800
10
163800.0
20
4740.0
30
0.0
40
14.0
41
1.0
50
90.0
51
0.0
7
True type font
11
163800.0
21
4740.0
31
0.0
210
0.0
220
0.0
230
1.0
72
0
100
AcDbText
73
0
0
POLYLINE
5
1BE
330
1B
100
AcDbEntity
67
0
8
Markers-One
62
41
420
14737632
6
Dashed
370
0
48
1.0
60
0
100
AcDb3dPolyline
10
0.0
20
0.0
30
0.0
70
8
75
0
210
0.0
220
0.0
230
1.0
0
VERTEX
5
1BB
100
AcDbEntity
8
Markers-One
62
41
420
14737632
100
AcDbVertex
100
AcDb3dPolylineVertex
10
163900.0
20
4730.0
30
0.0
70
32
0
VERTEX
5
1BC
100
AcDbEntity
8
Markers-One
62
41
420
14737632
100
AcDbVertex
100
AcDb3dPolylineVertex
10
163900.0
20
4735.0
30
0.0
70
32
0
SEQEND
5
1BD
100
AcDbEntity
8
Markers-One
0
TEXT
5
1BF
330
1B
100
AcDbEntity
67
0
8
Chainage Text
62
9
6
ByLayer
370
15
48
1.0
60
0
100
AcDbText
1
163+900
10
163900.0
20
4740.0
30
0.0
40
14.0
41
1.0
50
90.0
51
0.0
7
True type font
11
163900.0
21
4740.0
31
0.0
210
0.0
220
0.0
230
1.0
72
0
100
AcDbText
73
0
0
POLYLINE
5
1C3
330
1B
100
AcDbEntity
67
0
8
Markers-One
62
41
420
14737632
6
Dashed
370
0
48
1.0
60
0
100
AcDb3dPolyline
10
0.0
20
0.0
30
0.0
70
8
75
0
210
0.0
220
0.0
230
1.0
0
VERTEX
5
1C0
100
AcDbEntity
8
Markers-One
62
41
420
14737632
100
AcDbVertex
100
AcDb3dPolylineVertex
10
164000.0
20
4730.0
30
0.0
70
32
0
VERTEX
5
1C1
100
AcDbEntity
8
Markers-One
62
41
420
14737632
100
AcDbVertex
100
AcDb3dPolylineVertex
10
164000.0
20
4735.0
30
0.0
70
32
0
SEQEND
5
1C2
100
AcDbEntity
8
Markers-One
0
TEXT
5
1C4
330
1B
100
AcDbEntity
67
0
8
Chainage Text
62
9
6
ByLayer
370
15
48
1.0
60
0
100
AcDbText
1
164+000
10
164000.0
20
4740.0
30
0.0
40
14.0
41
1.0
50
90.0
51
0.0
7
True type font
11
164000.0
21
4740.0
31
0.0
210
0.0
220
0.0
230
1.0
72
0
100
AcDbText
73
0
0
POLYLINE
5
1C8
330
1B
100
AcDbEntity
67
0
8
Markers-One
62
41
420
14737632
6
Dashed
370
0
48
1.0
60
0
100
AcDb3dPolyline
10
0.0
20
0.0
30
0.0
70
8
75
0
210
0.0
220
0.0
230
1.0
0
VERTEX
5
1C5
100
AcDbEntity
8
Markers-One
62
41
420
14737632
100
AcDbVertex
100
AcDb3dPolylineVertex
10
164096.0
20
4730.0
30
0.0
70
32
0
VERTEX
5
1C6
100
AcDbEntity
8
Markers-One
62
41
420
14737632
100
AcDbVertex
100
AcDb3dPolylineVertex
10
164096.0
20
4735.0
30
0.0
70
32
0
SEQEND
5
1C7
100
AcDbEntity
8
Markers-One
0
TEXT
5
1C9
330
1B
100
AcDbEntity
67
0
8
Chainage Text
62
9
6
ByLayer
370
15
48
1.0
60
0
100
AcDbText
1
164+096
10
164096.0
20
4740.0
30
0.0
40
14.0
41
1.0
50
90.0
51
0.0
7
True type font
11
164096.0
21
4740.0
31
0.0
210
0.0
220
0.0
230
1.0
72
0
100
AcDbText
73
0
0
TEXT
5
1CB
330
1B
100
AcDbEntity
67
0
8
Activity Names
62
230
420
16711808
6
ByLayer
370
15
48
1.0
60
0
100
AcDbText
1
Plotting of levels (km)
10
156310.0
20
4504.0
30
0.0
40
16.0
41
1.0
50
0.0
51
0.0
7
True type font
11
156310.0
21
4504.0
31
0.0
210
0.0
220
0.0
230
1.0
72
0
100
AcDbText
73
0
0
TEXT
5
1CC
330
1B
100
AcDbEntity
67
0
8
Activity Names
62
230
420
16711808
6
ByLayer
370
15
48
1.0
60
0
100
AcDbText
1
Plotting of levels (km)
10
164106.0
20
4504.0
30
0.0
40
16.0
41
1.0
50
0.0
51
0.0
7
True type font
11
164106.0
21
4504.0
31
0.0
210
0.0
220
0.0
230
1.0
72
0
100
AcDbText
73
0
0
POLYLINE
5
1D1
330
1B
100
AcDbEntity
67
0
8
Activity Lines
62
230
420
16711808
6
Dashed
370
15
48
1.0
60
0
100
AcDb3dPolyline
10
0.0
20
0.0
30
0.0
70
8
75
0
210
0.0
220
0.0
230
1.0
0
VERTEX
5
1CE
100
AcDbEntity
8
Activity Lines
62
230
420
16711808
100
AcDbVertex
100
AcDb3dPolylineVertex
10
156560.0
20
4530.0
30
0.0
70
32
0
VERTEX
5
1CF
100
AcDbEntity
8
Activity Lines
62
230
420
16711808
100
AcDbVertex
100
AcDb3dPolylineVertex
10
164096.0
20
4530.0
30
0.0
70
32
0
SEQEND
5
1D0
100
AcDbEntity
8
Activity Lines
0
TEXT
5
1D2
330
1B
100
AcDbEntity
67
0
8
Activity Names
62
34
420
32768
6
ByLayer
370
15
48
1.0
60
0
100
AcDbText
1
Safety Fencing (km)
10
156310.0
20
4454.0
30
0.0
40
16.0
41
1.0
50
0.0
51
0.0
7
True type font
11
156310.0
21
4454.0
31
0.0
210
0.0
220
0.0
230
1.0
72
0
100
AcDbText
73
0
0
TEXT
5
1D3
330
1B
100
AcDbEntity
67
0
8
Activity Names
62
34
420
32768
6
ByLayer
370
15
48
1.0
60
0
100
AcDbText
1
Safety Fencing (km)
10
164106.0
20
4454.0
30
0.0
40
16.0
41
1.0
50
0.0
51
0.0
7
True type font
11
164106.0
21
4454.0
31
0.0
210
0.0
220
0.0
230
1.0
72
0
100
AcDbText
73
0
0
POLYLINE
5
1D7
330
1B
100
AcDbEntity
67
0
8
Activity Lines
62
34
420
32768
6
Dashed
370
15
48
1.0
60
0
100
AcDb3dPolyline
10
0.0
20
0.0
30
0.0
70
8
75
0
210
0.0
220
0.0
230
1.0
0
VERTEX
5
1D4
100
AcDbEntity
8
Activity Lines
62
34
420
32768
100
AcDbVertex
100
AcDb3dPolylineVertex
10
156560.0
20
4480.0
30
0.0
70
32
0
VERTEX
5
1D5
100
AcDbEntity
8
Activity Lines
62
34
420
32768
100
AcDbVertex
100
AcDb3dPolylineVertex
10
164096.0
20
4480.0
30
0.0
70
32
0
SEQEND
5
1D6
100
AcDbEntity
8
Activity Lines
0
TEXT
5
1D8
330
1B
100
AcDbEntity
67
0
8
Activity Names
62
62
420
8421568
6
ByLayer
370
15
48
1.0
60
0
100
AcDbText
1
Control Panel /VDU-Wiring
10
156310.0
20
4404.0
30
0.0
40
16.0
41
1.0
50
0.0
51
0.0
7
True type font
11
156310.0
21
4404.0
31
0.0
210
0.0
220
0.0
230
1.0
72
0
100
AcDbText
73
0
0
TEXT
5
1D9
330
1B
100
AcDbEntity
67
0
8
Activity Names
62
62
420
8421568
6
ByLayer
370
15
48
1.0
60
0
100
AcDbText
1
Control Panel /VDU-Wiring
10
164106.0
20
4404.0
30
0.0
40
16.0
41
1.0
50
0.0
51
0.0
7
True type font
11
164106.0
21
4404.0
31
0.0
210
0.0
220
0.0
230
1.0
72
0
100
AcDbText
73
0
0
POLYLINE
5
1DD
330
1B
100
AcDbEntity
67
0
8
Activity Lines
62
62
420
8421568
6
Dashed
370
15
48
1.0
60
0
100
AcDb3dPolyline
10
0.0
20
0.0
30
0.0
70
8
75
0
210
0.0
220
0.0
230
1.0
0
VERTEX
5
1DA
100
AcDbEntity
8
Activity Lines
62
62
420
8421568
100
AcDbVertex
100
AcDb3dPolylineVertex
10
156560.0
20
4430.0
30
0.0
70
32
0
VERTEX
5
1DB
100
AcDbEntity
8
Activity Lines
62
62
420
8421568
100
AcDbVertex
100
AcDb3dPolylineVertex
10
164096.0
20
4430.0
30
0.0
70
32
0
SEQEND
5
1DC
100
AcDbEntity
8
Activity Lines
0
TEXT
5
1DE
330
1B
100
AcDbEntity
67
0
8
Activity Names
62
2
420
16775936
6
ByLayer
370
15
48
1.0
60
0
100
AcDbText
1
Cutting (cum)
10
156310.0
20
4354.0
30
0.0
40
16.0
41
1.0
50
0.0
51
0.0
7
True type font
11
156310.0
21
4354.0
31
0.0
210
0.0
220
0.0
230
1.0
72
0
100
AcDbText
73
0
0
TEXT
5
1DF
330
1B
100
AcDbEntity
67
0
8
Activity Names
62
2
420
16775936
6
ByLayer
370
15
48
1.0
60
0
100
AcDbText
1
Cutting (cum)
10
164106.0
20
4354.0
30
0.0
40
16.0
41
1.0
50
0.0
51
0.0
7
True type font
11
164106.0
21
4354.0
31
0.0
210
0.0
220
0.0
230
1.0
72
0
100
AcDbText
73
0
0
POLYLINE
5
1E3
330
1B
100
AcDbEntity
67
0
8
Activity Lines
62
2
420
16775936
6
Dashed
370
15
48
1.0
60
0
100
AcDb3dPolyline
10
0.0
20
0.0
30
0.0
70
8
75
0
210
0.0
220
0.0
230
1.0
0
VERTEX
5
1E0
100
AcDbEntity
8
Activity Lines
62
2
420
16775936
100
AcDbVertex
100
AcDb3dPolylineVertex
10
156560.0
20
4380.0
30
0.0
70
32
0
VERTEX
5
1E1
100
AcDbEntity
8
Activity Lines
62
2
420
16775936
100
AcDbVertex
100
AcDb3dPolylineVertex
10
164096.0
20
4380.0
30
0.0
70
32
0
SEQEND
5
1E2
100
AcDbEntity
8
Activity Lines
0
TEXT
5
1E4
330
1B
100
AcDbEntity
67
0
8
Activity Names
62
54
420
3703971
6
ByLayer
370
15
48
1.0
60
0
100
AcDbText
1
Earthwork (cum)
10
156310.0
20
4304.0
30
0.0
40
16.0
41
1.0
50
0.0
51
0.0
7
True type font
11
156310.0
21
4304.0
31
0.0
210
0.0
220
0.0
230
1.0
72
0
100
AcDbText
73
0
0
TEXT
5
1E5
330
1B
100
AcDbEntity
67
0
8
Activity Names
62
54
420
3703971
6
ByLayer
370
15
48
1.0
60
0
100
AcDbText
1
Earthwork (cum)
10
164106.0
20
4304.0
30
0.0
40
16.0
41
1.0
50
0.0
51
0.0
7
True type font
11
164106.0
21
4304.0
31
0.0
210
0.0
220
0.0
230
1.0
72
0
100
AcDbText
73
0
0
POLYLINE
5
1E9
330
1B
100
AcDbEntity
67
0
8
Activity Lines
62
54
420
3703971
6
Dashed
370
15
48
1.0
60
0
100
AcDb3dPolyline
10
0.0
20
0.0
30
0.0
70
8
75
0
210
0.0
220
0.0
230
1.0
0
VERTEX
5
1E6
100
AcDbEntity
8
Activity Lines
62
54
420
3703971
100
AcDbVertex
100
AcDb3dPolylineVertex
10
156560.0
20
4330.0
30
0.0
70
32
0
VERTEX
5
1E7
100
AcDbEntity
8
Activity Lines
62
54
420
3703971
100
AcDbVertex
100
AcDb3dPolylineVertex
10
164096.0
20
4330.0
30
0.0
70
32
0
SEQEND
5
1E8
100
AcDbEntity
8
Activity Lines
0
TEXT
5
1EA
330
1B
100
AcDbEntity
67
0
8
Activity Names
62
145
420
16721408
6
ByLayer
370
15
48
1.0
60
0
100
AcDbText
1
Ballasting and Manual packing (km)
10
156310.0
20
4254.0
30
0.0
40
16.0
41
1.0
50
0.0
51
0.0
7
True type font
11
156310.0
21
4254.0
31
0.0
210
0.0
220
0.0
230
1.0
72
0
100
AcDbText
73
0
0
TEXT
5
1EB
330
1B
100
AcDbEntity
67
0
8
Activity Names
62
145
420
16721408
6
ByLayer
370
15
48
1.0
60
0
100
AcDbText
1
Ballasting and Manual packing (km)
10
164106.0
20
4254.0
30
0.0
40
16.0
41
1.0
50
0.0
51
0.0
7
True type font
11
164106.0
21
4254.0
31
0.0
210
0.0
220
0.0
230
1.0
72
0
100
AcDbText
73
0
0
POLYLINE
5
1EF
330
1B
100
AcDbEntity
67
0
8
Activity Lines
62
145
420
16721408
6
Dashed
370
15
48
1.0
60
0
100
AcDb3dPolyline
10
0.0
20
0.0
30
0.0
70
8
75
0
210
0.0
220
0.0
230
1.0
0
VERTEX
5
1EC
100
AcDbEntity
8
Activity Lines
62
145
420
16721408
100
AcDbVertex
100
AcDb3dPolylineVertex
10
156560.0
20
4280.0
30
0.0
70
32
0
VERTEX
5
1ED
100
AcDbEntity
8
Activity Lines
62
145
420
16721408
100
AcDbVertex
100
AcDb3dPolylineVertex
10
164096.0
20
4280.0
30
0.0
70
32
0
SEQEND
5
1EE
100
AcDbEntity
8
Activity Lines
0
TEXT
5
1F0
330
1B
100
AcDbEntity
67
0
8
Activity Names
62
171
420
16728319
6
ByLayer
370
15
48
1.0
60
0
100
AcDbText
1
Blanketing (cum)
10
156310.0
20
4204.0
30
0.0
40
16.0
41
1.0
50
0.0
51
0.0
7
True type font
11
156310.0
21
4204.0
31
0.0
210
0.0
220
0.0
230
1.0
72
0
100
AcDbText
73
0
0
TEXT
5
1F1
330
1B
100
AcDbEntity
67
0
8
Activity Names
62
171
420
16728319
6
ByLayer
370
15
48
1.0
60
0
100
AcDbText
1
Blanketing (cum)
10
164106.0
20
4204.0
30
0.0
40
16.0
41
1.0
50
0.0
51
0.0
7
True type font
11
164106.0
21
4204.0
31
0.0
210
0.0
220
0.0
230
1.0
72
0
100
AcDbText
73
0
0
POLYLINE
5
1F5
330
1B
100
AcDbEntity
67
0
8
Activity Lines
62
171
420
16728319
6
Dashed
370
15
48
1.0
60
0
100
AcDb3dPolyline
10
0.0
20
0.0
30
0.0
70
8
75
0
210
0.0
220
0.0
230
1.0
0
VERTEX
5
1F2
100
AcDbEntity
8
Activity Lines
62
171
420
16728319
100
AcDbVertex
100
AcDb3dPolylineVertex
10
156560.0
20
4230.0
30
0.0
70
32
0
VERTEX
5
1F3
100
AcDbEntity
8
Activity Lines
62
171
420
16728319
100
AcDbVertex
100
AcDb3dPolylineVertex
10
164096.0
20
4230.0
30
0.0
70
32
0
SEQEND
5
1F4
100
AcDbEntity
8
Activity Lines
0
TEXT
5
1F6
330
1B
100
AcDbEntity
67
0
8
Activity Names
62
250
420
0
6
ByLayer
370
15
48
1.0
60
0
100
AcDbText
1
Track Linking (km)
10
156310.0
20
4154.0
30
0.0
40
16.0
41
1.0
50
0.0
51
0.0
7
True type font
11
156310.0
21
4154.0
31
0.0
210
0.0
220
0.0
230
1.0
72
0
100
AcDbText
73
0
0
TEXT
5
1F7
330
1B
100
AcDbEntity
67
0
8
Activity Names
62
250
420
0
6
ByLayer
370
15
48
1.0
60
0
100
AcDbText
1
Track Linking (km)
10
164106.0
20
4154.0
30
0.0
40
16.0
41
1.0
50
0.0
51
0.0
7
True type font
11
164106.0
21
4154.0
31
0.0
210
0.0
220
0.0
230
1.0
72
0
100
AcDbText
73
0
0
POLYLINE
5
1FB
330
1B
100
AcDbEntity
67
0
8
Activity Lines
62
250
420
0
6
Dashed
370
15
48
1.0
60
0
100
AcDb3dPolyline
10
0.0
20
0.0
30
0.0
70
8
75
0
210
0.0
220
0.0
230
1.0
0
VERTEX
5
1F8
100
AcDbEntity
8
Activity Lines
62
250
420
0
100
AcDbVertex
100
AcDb3dPolylineVertex
10
156560.0
20
4180.0
30
0.0
70
32
0
VERTEX
5
1F9
100
AcDbEntity
8
Activity Lines
62
250
420
0
100
AcDbVertex
100
AcDb3dPolylineVertex
10
164096.0
20
4180.0
30
0.0
70
32
0
SEQEND
5
1FA
100
AcDbEntity
8
Activity Lines
0
HATCH
5
1FD
330
1B
100
AcDbEntity
67
0
8
0
62
230
420
16711808
6
ByLayer
370
-1
48
1.0
60
0
100
AcDbHatch
10
0.0
20
0.0
30
0.0
210
0.0
220
0.0
230
1.0
2
SOLID
70
1
71
1
91
1
92
7
72
1
73
1
93
4
10
156560.0
20
4530.0
42
0.0
10
158960.0
20
4530.0
42
0.0
10
158960.0
20
4480.0
42
0.0
10
156560.0
20
4480.0
42
0.0
97
1
330
1FC
75
0
76
1
47
0.0
98
1
10
0.0
20
0.0
1001
ACAD
1010
0.0
1020
0.0
1030
0.0
0
LWPOLYLINE
5
1FC
102
{ACAD_REACTORS
330
1FD
102
}
330
1B
100
AcDbEntity
67
0
8
0
62
256
6
ByLayer
370
-1
48
1.0
60
0
100
AcDbPolyline
90
4
70
1
38
0.0
39
0.0
10
156560.0
20
4530.0
40
0.0
41
0.0
42
0.0
10
158960.0
20
4530.0
40
0.0
41
0.0
42
0.0
10
158960.0
20
4480.0
40
0.0
41
0.0
42
0.0
10
156560.0
20
4480.0
40
0.0
41
0.0
42
0.0
210
0.0
220
0.0
230
1.0
0
POLYLINE
5
202
330
1B
100
AcDbEntity
67
0
8
Vertical Chainage Lines
62
41
420
14737632
6
Dashed
370
0
48
1.0
60
0
100
AcDb3dPolyline
10
0.0
20
0.0
30
0.0
70
8
75
0
210
0.0
220
0.0
230
1.0
0
VERTEX
5
1FF
100
AcDbEntity
8
Vertical Chainage Lines
62
41
420
14737632
100
AcDbVertex
100
AcDb3dPolylineVertex
10
156600.0
20
4730.0
30
0.0
70
32
0
VERTEX
5
200
100
AcDbEntity
8
Vertical Chainage Lines
62
41
420
14737632
100
AcDbVertex
100
AcDb3dPolylineVertex
10
156600.0
20
4130.0
30
0.0
70
32
0
SEQEND
5
201
100
AcDbEntity
8
Vertical Chainage Lines
0
POLYLINE
5
206
330
1B
100
AcDbEntity
67
0
8
Vertical Chainage Lines
62
41
420
14737632
6
Dashed
370
0
48
1.0
60
0
100
AcDb3dPolyline
10
0.0
20
0.0
30
0.0
70
8
75
0
210
0.0
220
0.0
230
1.0
0
VERTEX
5
203
100
AcDbEntity
8
Vertical Chainage Lines
62
41
420
14737632
100
AcDbVertex
100
AcDb3dPolylineVertex
10
156700.0
20
4730.0
30
0.0
70
32
0
VERTEX
5
204
100
AcDbEntity
8
Vertical Chainage Lines
62
41
420
14737632
100
AcDbVertex
100
AcDb3dPolylineVertex
10
156700.0
20
4130.0
30
0.0
70
32
0
SEQEND
5
205
100
AcDbEntity
8
Vertical Chainage Lines
0
POLYLINE
5
20A
330
1B
100
AcDbEntity
67
0
8
Vertical Chainage Lines
62
41
420
14737632
6
Dashed
370
0
48
1.0
60
0
100
AcDb3dPolyline
10
0.0
20
0.0
30
0.0
70
8
75
0
210
0.0
220
0.0
230
1.0
0
VERTEX
5
207
100
AcDbEntity
8
Vertical Chainage Lines
62
41
420
14737632
100
AcDbVertex
100
AcDb3dPolylineVertex
10
156800.0
20
4730.0
30
0.0
70
32
0
VERTEX
5
208
100
AcDbEntity
8
Vertical Chainage Lines
62
41
420
14737632
100
AcDbVertex
100
AcDb3dPolylineVertex
10
156800.0
20
4130.0
30
0.0
70
32
0
SEQEND
5
209
100
AcDbEntity
8
Vertical Chainage Lines
0
POLYLINE
5
20E
330
1B
100
AcDbEntity
67
0
8
Vertical Chainage Lines
62
41
420
14737632
6
Dashed
370
0
48
1.0
60
0
100
AcDb3dPolyline
10
0.0
20
0.0
30
0.0
70
8
75
0
210
0.0
220
0.0
230
1.0
0
VERTEX
5
20B
100
AcDbEntity
8
Vertical Chainage Lines
62
41
420
14737632
100
AcDbVertex
100
AcDb3dPolylineVertex
10
156900.0
20
4730.0
30
0.0
70
32
0
VERTEX
5
20C
100
AcDbEntity
8
Vertical Chainage Lines
62
41
420
14737632
100
AcDbVertex
100
AcDb3dPolylineVertex
10
156900.0
20
4130.0
30
0.0
70
32
0
SEQEND
5
20D
100
AcDbEntity
8
Vertical Chainage Lines
0
POLYLINE
5
212
330
1B
100
AcDbEntity
67
0
8
Vertical Chainage Lines
62
41
420
14737632
6
Dashed
370
0
48
1.0
60
0
100
AcDb3dPolyline
10
0.0
20
0.0
30
0.0
70
8
75
0
210
0.0
220
0.0
230
1.0
0
VERTEX
5
20F
100
AcDbEntity
8
Vertical Chainage Lines
62
41
420
14737632
100
AcDbVertex
100
AcDb3dPolylineVertex
10
157000.0
20
4730.0
30
0.0
70
32
0
VERTEX
5
210
100
AcDbEntity
8
Vertical Chainage Lines
62
41
420
14737632
100
AcDbVertex
100
AcDb3dPolylineVertex
10
157000.0
20
4130.0
30
0.0
70
32
0
SEQEND
5
211
100
AcDbEntity
8
Vertical Chainage Lines
0
POLYLINE
5
216
330
1B
100
AcDbEntity
67
0
8
Vertical Chainage Lines
62
41
420
14737632
6
Dashed
370
0
48
1.0
60
0
100
AcDb3dPolyline
10
0.0
20
0.0
30
0.0
70
8
75
0
210
0.0
220
0.0
230
1.0
0
VERTEX
5
213
100
AcDbEntity
8
Vertical Chainage Lines
62
41
420
14737632
100
AcDbVertex
100
AcDb3dPolylineVertex
10
157100.0
20
4730.0
30
0.0
70
32
0
VERTEX
5
214
100
AcDbEntity
8
Vertical Chainage Lines
62
41
420
14737632
100
AcDbVertex
100
AcDb3dPolylineVertex
10
157100.0
20
4130.0
30
0.0
70
32
0
SEQEND
5
215
100
AcDbEntity
8
Vertical Chainage Lines
0
POLYLINE
5
21A
330
1B
100
AcDbEntity
67
0
8
Vertical Chainage Lines
62
41
420
14737632
6
Dashed
370
0
48
1.0
60
0
100
AcDb3dPolyline
10
0.0
20
0.0
30
0.0
70
8
75
0
210
0.0
220
0.0
230
1.0
0
VERTEX
5
217
100
AcDbEntity
8
Vertical Chainage Lines
62
41
420
14737632
100
AcDbVertex
100
AcDb3dPolylineVertex
10
157200.0
20
4730.0
30
0.0
70
32
0
VERTEX
5
218
100
AcDbEntity
8
Vertical Chainage Lines
62
41
420
14737632
100
AcDbVertex
100
AcDb3dPolylineVertex
10
157200.0
20
4130.0
30
0.0
70
32
0
SEQEND
5
219
100
AcDbEntity
8
Vertical Chainage Lines
0
POLYLINE
5
21E
330
1B
100
AcDbEntity
67
0
8
Vertical Chainage Lines
62
41
420
14737632
6
Dashed
370
0
48
1.0
60
0
100
AcDb3dPolyline
10
0.0
20
0.0
30
0.0
70
8
75
0
210
0.0
220
0.0
230
1.0
0
VERTEX
5
21B
100
AcDbEntity
8
Vertical Chainage Lines
62
41
420
14737632
100
AcDbVertex
100
AcDb3dPolylineVertex
10
157300.0
20
4730.0
30
0.0
70
32
0
VERTEX
5
21C
100
AcDbEntity
8
Vertical Chainage Lines
62
41
420
14737632
100
AcDbVertex
100
AcDb3dPolylineVertex
10
157300.0
20
4130.0
30
0.0
70
32
0
SEQEND
5
21D
100
AcDbEntity
8
Vertical Chainage Lines
0
POLYLINE
5
222
330
1B
100
AcDbEntity
67
0
8
Vertical Chainage Lines
62
41
420
14737632
6
Dashed
370
0
48
1.0
60
0
100
AcDb3dPolyline
10
0.0
20
0.0
30
0.0
70
8
75
0
210
0.0
220
0.0
230
1.0
0
VERTEX
5
21F
100
AcDbEntity
8
Vertical Chainage Lines
62
41
420
14737632
100
AcDbVertex
100
AcDb3dPolylineVertex
10
157400.0
20
4730.0
30
0.0
70
32
0
VERTEX
5
220
100
AcDbEntity
8
Vertical Chainage Lines
62
41
420
14737632
100
AcDbVertex
100
AcDb3dPolylineVertex
10
157400.0
20
4130.0
30
0.0
70
32
0
SEQEND
5
221
100
AcDbEntity
8
Vertical Chainage Lines
0
POLYLINE
5
226
330
1B
100
AcDbEntity
67
0
8
Vertical Chainage Lines
62
41
420
14737632
6
Dashed
370
0
48
1.0
60
0
100
AcDb3dPolyline
10
0.0
20
0.0
30
0.0
70
8
75
0
210
0.0
220
0.0
230
1.0
0
VERTEX
5
223
100
AcDbEntity
8
Vertical Chainage Lines
62
41
420
14737632
100
AcDbVertex
100
AcDb3dPolylineVertex
10
157500.0
20
4730.0
30
0.0
70
32
0
VERTEX
5
224
100
AcDbEntity
8
Vertical Chainage Lines
62
41
420
14737632
100
AcDbVertex
100
AcDb3dPolylineVertex
10
157500.0
20
4130.0
30
0.0
70
32
0
SEQEND
5
225
100
AcDbEntity
8
Vertical Chainage Lines
0
POLYLINE
5
22A
330
1B
100
AcDbEntity
67
0
8
Vertical Chainage Lines
62
41
420
14737632
6
Dashed
370
0
48
1.0
60
0
100
AcDb3dPolyline
10
0.0
20
0.0
30
0.0
70
8
75
0
210
0.0
220
0.0
230
1.0
0
VERTEX
5
227
100
AcDbEntity
8
Vertical Chainage Lines
62
41
420
14737632
100
AcDbVertex
100
AcDb3dPolylineVertex
10
157600.0
20
4730.0
30
0.0
70
32
0
VERTEX
5
228
100
AcDbEntity
8
Vertical Chainage Lines
62
41
420
14737632
100
AcDbVertex
100
AcDb3dPolylineVertex
10
157600.0
20
4130.0
30
0.0
70
32
0
SEQEND
5
229
100
AcDbEntity
8
Vertical Chainage Lines
0
POLYLINE
5
22E
330
1B
100
AcDbEntity
67
0
8
Vertical Chainage Lines
62
41
420
14737632
6
Dashed
370
0
48
1.0
60
0
100
AcDb3dPolyline
10
0.0
20
0.0
30
0.0
70
8
75
0
210
0.0
220
0.0
230
1.0
0
VERTEX
5
22B
100
AcDbEntity
8
Vertical Chainage Lines
62
41
420
14737632
100
AcDbVertex
100
AcDb3dPolylineVertex
10
157700.0
20
4730.0
30
0.0
70
32
0
VERTEX
5
22C
100
AcDbEntity
8
Vertical Chainage Lines
62
41
420
14737632
100
AcDbVertex
100
AcDb3dPolylineVertex
10
157700.0
20
4130.0
30
0.0
70
32
0
SEQEND
5
22D
100
AcDbEntity
8
Vertical Chainage Lines
0
POLYLINE
5
232
330
1B
100
AcDbEntity
67
0
8
Vertical Chainage Lines
62
41
420
14737632
6
Dashed
370
0
48
1.0
60
0
100
AcDb3dPolyline
10
0.0
20
0.0
30
0.0
70
8
75
0
210
0.0
220
0.0
230
1.0
0
VERTEX
5
22F
100
AcDbEntity
8
Vertical Chainage Lines
62
41
420
14737632
100
AcDbVertex
100
AcDb3dPolylineVertex
10
157800.0
20
4730.0
30
0.0
70
32
0
VERTEX
5
230
100
AcDbEntity
8
Vertical Chainage Lines
62
41
420
14737632
100
AcDbVertex
100
AcDb3dPolylineVertex
10
157800.0
20
4130.0
30
0.0
70
32
0
SEQEND
5
231
100
AcDbEntity
8
Vertical Chainage Lines
0
POLYLINE
5
236
330
1B
100
AcDbEntity
67
0
8
Vertical Chainage Lines
62
41
420
14737632
6
Dashed
370
0
48
1.0
60
0
100
AcDb3dPolyline
10
0.0
20
0.0
30
0.0
70
8
75
0
210
0.0
220
0.0
230
1.0
0
VERTEX
5
233
100
AcDbEntity
8
Vertical Chainage Lines
62
41
420
14737632
100
AcDbVertex
100
AcDb3dPolylineVertex
10
157900.0
20
4730.0
30
0.0
70
32
0
VERTEX
5
234
100
AcDbEntity
8
Vertical Chainage Lines
62
41
420
14737632
100
AcDbVertex
100
AcDb3dPolylineVertex
10
157900.0
20
4130.0
30
0.0
70
32
0
SEQEND
5
235
100
AcDbEntity
8
Vertical Chainage Lines
0
POLYLINE
5
23A
330
1B
100
AcDbEntity
67
0
8
Vertical Chainage Lines
62
41
420
14737632
6
Dashed
370
0
48
1.0
60
0
100
AcDb3dPolyline
10
0.0
20
0.0
30
0.0
70
8
75
0
210
0.0
220
0.0
230
1.0
0
VERTEX
5
237
100
AcDbEntity
8
Vertical Chainage Lines
62
41
420
14737632
100
AcDbVertex
100
AcDb3dPolylineVertex
10
158000.0
20
4730.0
30
0.0
70
32
0
VERTEX
5
238
100
AcDbEntity
8
Vertical Chainage Lines
62
41
420
14737632
100
AcDbVertex
100
AcDb3dPolylineVertex
10
158000.0
20
4130.0
30
0.0
70
32
0
SEQEND
5
239
100
AcDbEntity
8
Vertical Chainage Lines
0
POLYLINE
5
23E
330
1B
100
AcDbEntity
67
0
8
Vertical Chainage Lines
62
41
420
14737632
6
Dashed
370
0
48
1.0
60
0
100
AcDb3dPolyline
10
0.0
20
0.0
30
0.0
70
8
75
0
210
0.0
220
0.0
230
1.0
0
VERTEX
5
23B
100
AcDbEntity
8
Vertical Chainage Lines
62
41
420
14737632
100
AcDbVertex
100
AcDb3dPolylineVertex
10
158100.0
20
4730.0
30
0.0
70
32
0
VERTEX
5
23C
100
AcDbEntity
8
Vertical Chainage Lines
62
41
420
14737632
100
AcDbVertex
100
AcDb3dPolylineVertex
10
158100.0
20
4130.0
30
0.0
70
32
0
SEQEND
5
23D
100
AcDbEntity
8
Vertical Chainage Lines
0
POLYLINE
5
242
330
1B
100
AcDbEntity
67
0
8
Vertical Chainage Lines
62
41
420
14737632
6
Dashed
370
0
48
1.0
60
0
100
AcDb3dPolyline
10
0.0
20
0.0
30
0.0
70
8
75
0
210
0.0
220
0.0
230
1.0
0
VERTEX
5
23F
100
AcDbEntity
8
Vertical Chainage Lines
62
41
420
14737632
100
AcDbVertex
100
AcDb3dPolylineVertex
10
158200.0
20
4730.0
30
0.0
70
32
0
VERTEX
5
240
100
AcDbEntity
8
Vertical Chainage Lines
62
41
420
14737632
100
AcDbVertex
100
AcDb3dPolylineVertex
10
158200.0
20
4130.0
30
0.0
70
32
0
SEQEND
5
241
100
AcDbEntity
8
Vertical Chainage Lines
0
POLYLINE
5
246
330
1B
100
AcDbEntity
67
0
8
Vertical Chainage Lines
62
41
420
14737632
6
Dashed
370
0
48
1.0
60
0
100
AcDb3dPolyline
10
0.0
20
0.0
30
0.0
70
8
75
0
210
0.0
220
0.0
230
1.0
0
VERTEX
5
243
100
AcDbEntity
8
Vertical Chainage Lines
62
41
420
14737632
100
AcDbVertex
100
AcDb3dPolylineVertex
10
158300.0
20
4730.0
30
0.0
70
32
0
VERTEX
5
244
100
AcDbEntity
8
Vertical Chainage Lines
62
41
420
14737632
100
AcDbVertex
100
AcDb3dPolylineVertex
10
158300.0
20
4130.0
30
0.0
70
32
0
SEQEND
5
245
100
AcDbEntity
8
Vertical Chainage Lines
0
POLYLINE
5
24A
330
1B
100
AcDbEntity
67
0
8
Vertical Chainage Lines
62
41
420
14737632
6
Dashed
370
0
48
1.0
60
0
100
AcDb3dPolyline
10
0.0
20
0.0
30
0.0
70
8
75
0
210
0.0
220
0.0
230
1.0
0
VERTEX
5
247
100
AcDbEntity
8
Vertical Chainage Lines
62
41
420
14737632
100
AcDbVertex
100
AcDb3dPolylineVertex
10
158400.0
20
4730.0
30
0.0
70
32
0
VERTEX
5
248
100
AcDbEntity
8
Vertical Chainage Lines
62
41
420
14737632
100
AcDbVertex
100
AcDb3dPolylineVertex
10
158400.0
20
4130.0
30
0.0
70
32
0
SEQEND
5
249
100
AcDbEntity
8
Vertical Chainage Lines
0
POLYLINE
5
24E
330
1B
100
AcDbEntity
67
0
8
Vertical Chainage Lines
62
41
420
14737632
6
Dashed
370
0
48
1.0
60
0
100
AcDb3dPolyline
10
0.0
20
0.0
30
0.0
70
8
75
0
210
0.0
220
0.0
230
1.0
0
VERTEX
5
24B
100
AcDbEntity
8
Vertical Chainage Lines
62
41
420
14737632
100
AcDbVertex
100
AcDb3dPolylineVertex
10
158500.0
20
4730.0
30
0.0
70
32
0
VERTEX
5
24C
100
AcDbEntity
8
Vertical Chainage Lines
62
41
420
14737632
100
AcDbVertex
100
AcDb3dPolylineVertex
10
158500.0
20
4130.0
30
0.0
70
32
0
SEQEND
5
24D
100
AcDbEntity
8
Vertical Chainage Lines
0
POLYLINE
5
252
330
1B
100
AcDbEntity
67
0
8
Vertical Chainage Lines
62
41
420
14737632
6
Dashed
370
0
48
1.0
60
0
100
AcDb3dPolyline
10
0.0
20
0.0
30
0.0
70
8
75
0
210
0.0
220
0.0
230
1.0
0
VERTEX
5
24F
100
AcDbEntity
8
Vertical Chainage Lines
62
41
420
14737632
100
AcDbVertex
100
AcDb3dPolylineVertex
10
158600.0
20
4730.0
30
0.0
70
32
0
VERTEX
5
250
100
AcDbEntity
8
Vertical Chainage Lines
62
41
420
14737632
100
AcDbVertex
100
AcDb3dPolylineVertex
10
158600.0
20
4130.0
30
0.0
70
32
0
SEQEND
5
251
100
AcDbEntity
8
Vertical Chainage Lines
0
POLYLINE
5
256
330
1B
100
AcDbEntity
67
0
8
Vertical Chainage Lines
62
41
420
14737632
6
Dashed
370
0
48
1.0
60
0
100
AcDb3dPolyline
10
0.0
20
0.0
30
0.0
70
8
75
0
210
0.0
220
0.0
230
1.0
0
VERTEX
5
253
100
AcDbEntity
8
Vertical Chainage Lines
62
41
420
14737632
100
AcDbVertex
100
AcDb3dPolylineVertex
10
158700.0
20
4730.0
30
0.0
70
32
0
VERTEX
5
254
100
AcDbEntity
8
Vertical Chainage Lines
62
41
420
14737632
100
AcDbVertex
100
AcDb3dPolylineVertex
10
158700.0
20
4130.0
30
0.0
70
32
0
SEQEND
5
255
100
AcDbEntity
8
Vertical Chainage Lines
0
POLYLINE
5
25A
330
1B
100
AcDbEntity
67
0
8
Vertical Chainage Lines
62
41
420
14737632
6
Dashed
370
0
48
1.0
60
0
100
AcDb3dPolyline
10
0.0
20
0.0
30
0.0
70
8
75
0
210
0.0
220
0.0
230
1.0
0
VERTEX
5
257
100
AcDbEntity
8
Vertical Chainage Lines
62
41
420
14737632
100
AcDbVertex
100
AcDb3dPolylineVertex
10
158800.0
20
4730.0
30
0.0
70
32
0
VERTEX
5
258
100
AcDbEntity
8
Vertical Chainage Lines
62
41
420
14737632
100
AcDbVertex
100
AcDb3dPolylineVertex
10
158800.0
20
4130.0
30
0.0
70
32
0
SEQEND
5
259
100
AcDbEntity
8
Vertical Chainage Lines
0
POLYLINE
5
25E
330
1B
100
AcDbEntity
67
0
8
Vertical Chainage Lines
62
41
420
14737632
6
Dashed
370
0
48
1.0
60
0
100
AcDb3dPolyline
10
0.0
20
0.0
30
0.0
70
8
75
0
210
0.0
220
0.0
230
1.0
0
VERTEX
5
25B
100
AcDbEntity
8
Vertical Chainage Lines
62
41
420
14737632
100
AcDbVertex
100
AcDb3dPolylineVertex
10
158900.0
20
4730.0
30
0.0
70
32
0
VERTEX
5
25C
100
AcDbEntity
8
Vertical Chainage Lines
62
41
420
14737632
100
AcDbVertex
100
AcDb3dPolylineVertex
10
158900.0
20
4130.0
30
0.0
70
32
0
SEQEND
5
25D
100
AcDbEntity
8
Vertical Chainage Lines
0
POLYLINE
5
262
330
1B
100
AcDbEntity
67
0
8
Vertical Chainage Lines
62
41
420
14737632
6
Dashed
370
0
48
1.0
60
0
100
AcDb3dPolyline
10
0.0
20
0.0
30
0.0
70
8
75
0
210
0.0
220
0.0
230
1.0
0
VERTEX
5
25F
100
AcDbEntity
8
Vertical Chainage Lines
62
41
420
14737632
100
AcDbVertex
100
AcDb3dPolylineVertex
10
159000.0
20
4730.0
30
0.0
70
32
0
VERTEX
5
260
100
AcDbEntity
8
Vertical Chainage Lines
62
41
420
14737632
100
AcDbVertex
100
AcDb3dPolylineVertex
10
159000.0
20
4130.0
30
0.0
70
32
0
SEQEND
5
261
100
AcDbEntity
8
Vertical Chainage Lines
0
POLYLINE
5
266
330
1B
100
AcDbEntity
67
0
8
Vertical Chainage Lines
62
41
420
14737632
6
Dashed
370
0
48
1.0
60
0
100
AcDb3dPolyline
10
0.0
20
0.0
30
0.0
70
8
75
0
210
0.0
220
0.0
230
1.0
0
VERTEX
5
263
100
AcDbEntity
8
Vertical Chainage Lines
62
41
420
14737632
100
AcDbVertex
100
AcDb3dPolylineVertex
10
159100.0
20
4730.0
30
0.0
70
32
0
VERTEX
5
264
100
AcDbEntity
8
Vertical Chainage Lines
62
41
420
14737632
100
AcDbVertex
100
AcDb3dPolylineVertex
10
159100.0
20
4130.0
30
0.0
70
32
0
SEQEND
5
265
100
AcDbEntity
8
Vertical Chainage Lines
0
POLYLINE
5
26A
330
1B
100
AcDbEntity
67
0
8
Vertical Chainage Lines
62
41
420
14737632
6
Dashed
370
0
48
1.0
60
0
100
AcDb3dPolyline
10
0.0
20
0.0
30
0.0
70
8
75
0
210
0.0
220
0.0
230
1.0
0
VERTEX
5
267
100
AcDbEntity
8
Vertical Chainage Lines
62
41
420
14737632
100
AcDbVertex
100
AcDb3dPolylineVertex
10
159200.0
20
4730.0
30
0.0
70
32
0
VERTEX
5
268
100
AcDbEntity
8
Vertical Chainage Lines
62
41
420
14737632
100
AcDbVertex
100
AcDb3dPolylineVertex
10
159200.0
20
4130.0
30
0.0
70
32
0
SEQEND
5
269
100
AcDbEntity
8
Vertical Chainage Lines
0
POLYLINE
5
26E
330
1B
100
AcDbEntity
67
0
8
Vertical Chainage Lines
62
41
420
14737632
6
Dashed
370
0
48
1.0
60
0
100
AcDb3dPolyline
10
0.0
20
0.0
30
0.0
70
8
75
0
210
0.0
220
0.0
230
1.0
0
VERTEX
5
26B
100
AcDbEntity
8
Vertical Chainage Lines
62
41
420
14737632
100
AcDbVertex
100
AcDb3dPolylineVertex
10
159300.0
20
4730.0
30
0.0
70
32
0
VERTEX
5
26C
100
AcDbEntity
8
Vertical Chainage Lines
62
41
420
14737632
100
AcDbVertex
100
AcDb3dPolylineVertex
10
159300.0
20
4130.0
30
0.0
70
32
0
SEQEND
5
26D
100
AcDbEntity
8
Vertical Chainage Lines
0
POLYLINE
5
272
330
1B
100
AcDbEntity
67
0
8
Vertical Chainage Lines
62
41
420
14737632
6
Dashed
370
0
48
1.0
60
0
100
AcDb3dPolyline
10
0.0
20
0.0
30
0.0
70
8
75
0
210
0.0
220
0.0
230
1.0
0
VERTEX
5
26F
100
AcDbEntity
8
Vertical Chainage Lines
62
41
420
14737632
100
AcDbVertex
100
AcDb3dPolylineVertex
10
159400.0
20
4730.0
30
0.0
70
32
0
VERTEX
5
270
100
AcDbEntity
8
Vertical Chainage Lines
62
41
420
14737632
100
AcDbVertex
100
AcDb3dPolylineVertex
10
159400.0
20
4130.0
30
0.0
70
32
0
SEQEND
5
271
100
AcDbEntity
8
Vertical Chainage Lines
0
POLYLINE
5
276
330
1B
100
AcDbEntity
67
0
8
Vertical Chainage Lines
62
41
420
14737632
6
Dashed
370
0
48
1.0
60
0
100
AcDb3dPolyline
10
0.0
20
0.0
30
0.0
70
8
75
0
210
0.0
220
0.0
230
1.0
0
VERTEX
5
273
100
AcDbEntity
8
Vertical Chainage Lines
62
41
420
14737632
100
AcDbVertex
100
AcDb3dPolylineVertex
10
159500.0
20
4730.0
30
0.0
70
32
0
VERTEX
5
274
100
AcDbEntity
8
Vertical Chainage Lines
62
41
420
14737632
100
AcDbVertex
100
AcDb3dPolylineVertex
10
159500.0
20
4130.0
30
0.0
70
32
0
SEQEND
5
275
100
AcDbEntity
8
Vertical Chainage Lines
0
POLYLINE
5
27A
330
1B
100
AcDbEntity
67
0
8
Vertical Chainage Lines
62
41
420
14737632
6
Dashed
370
0
48
1.0
60
0
100
AcDb3dPolyline
10
0.0
20
0.0
30
0.0
70
8
75
0
210
0.0
220
0.0
230
1.0
0
VERTEX
5
277
100
AcDbEntity
8
Vertical Chainage Lines
62
41
420
14737632
100
AcDbVertex
100
AcDb3dPolylineVertex
10
159600.0
20
4730.0
30
0.0
70
32
0
VERTEX
5
278
100
AcDbEntity
8
Vertical Chainage Lines
62
41
420
14737632
100
AcDbVertex
100
AcDb3dPolylineVertex
10
159600.0
20
4130.0
30
0.0
70
32
0
SEQEND
5
279
100
AcDbEntity
8
Vertical Chainage Lines
0
POLYLINE
5
27E
330
1B
100
AcDbEntity
67
0
8
Vertical Chainage Lines
62
41
420
14737632
6
Dashed
370
0
48
1.0
60
0
100
AcDb3dPolyline
10
0.0
20
0.0
30
0.0
70
8
75
0
210
0.0
220
0.0
230
1.0
0
VERTEX
5
27B
100
AcDbEntity
8
Vertical Chainage Lines
62
41
420
14737632
100
AcDbVertex
100
AcDb3dPolylineVertex
10
159700.0
20
4730.0
30
0.0
70
32
0
VERTEX
5
27C
100
AcDbEntity
8
Vertical Chainage Lines
62
41
420
14737632
100
AcDbVertex
100
AcDb3dPolylineVertex
10
159700.0
20
4130.0
30
0.0
70
32
0
SEQEND
5
27D
100
AcDbEntity
8
Vertical Chainage Lines
0
POLYLINE
5
282
330
1B
100
AcDbEntity
67
0
8
Vertical Chainage Lines
62
41
420
14737632
6
Dashed
370
0
48
1.0
60
0
100
AcDb3dPolyline
10
0.0
20
0.0
30
0.0
70
8
75
0
210
0.0
220
0.0
230
1.0
0
VERTEX
5
27F
100
AcDbEntity
8
Vertical Chainage Lines
62
41
420
14737632
100
AcDbVertex
100
AcDb3dPolylineVertex
10
159800.0
20
4730.0
30
0.0
70
32
0
VERTEX
5
280
100
AcDbEntity
8
Vertical Chainage Lines
62
41
420
14737632
100
AcDbVertex
100
AcDb3dPolylineVertex
10
159800.0
20
4130.0
30
0.0
70
32
0
SEQEND
5
281
100
AcDbEntity
8
Vertical Chainage Lines
0
POLYLINE
5
286
330
1B
100
AcDbEntity
67
0
8
Vertical Chainage Lines
62
41
420
14737632
6
Dashed
370
0
48
1.0
60
0
100
AcDb3dPolyline
10
0.0
20
0.0
30
0.0
70
8
75
0
210
0.0
220
0.0
230
1.0
0
VERTEX
5
283
100
AcDbEntity
8
Vertical Chainage Lines
62
41
420
14737632
100
AcDbVertex
100
AcDb3dPolylineVertex
10
159900.0
20
4730.0
30
0.0
70
32
0
VERTEX
5
284
100
AcDbEntity
8
Vertical Chainage Lines
62
41
420
14737632
100
AcDbVertex
100
AcDb3dPolylineVertex
10
159900.0
20
4130.0
30
0.0
70
32
0
SEQEND
5
285
100
AcDbEntity
8
Vertical Chainage Lines
0
POLYLINE
5
28A
330
1B
100
AcDbEntity
67
0
8
Vertical Chainage Lines
62
41
420
14737632
6
Dashed
370
0
48
1.0
60
0
100
AcDb3dPolyline
10
0.0
20
0.0
30
0.0
70
8
75
0
210
0.0
220
0.0
230
1.0
0
VERTEX
5
287
100
AcDbEntity
8
Vertical Chainage Lines
62
41
420
14737632
100
AcDbVertex
100
AcDb3dPolylineVertex
10
160000.0
20
4730.0
30
0.0
70
32
0
VERTEX
5
288
100
AcDbEntity
8
Vertical Chainage Lines
62
41
420
14737632
100
AcDbVertex
100
AcDb3dPolylineVertex
10
160000.0
20
4130.0
30
0.0
70
32
0
SEQEND
5
289
100
AcDbEntity
8
Vertical Chainage Lines
0
POLYLINE
5
28E
330
1B
100
AcDbEntity
67
0
8
Vertical Chainage Lines
62
41
420
14737632
6
Dashed
370
0
48
1.0
60
0
100
AcDb3dPolyline
10
0.0
20
0.0
30
0.0
70
8
75
0
210
0.0
220
0.0
230
1.0
0
VERTEX
5
28B
100
AcDbEntity
8
Vertical Chainage Lines
62
41
420
14737632
100
AcDbVertex
100
AcDb3dPolylineVertex
10
160100.0
20
4730.0
30
0.0
70
32
0
VERTEX
5
28C
100
AcDbEntity
8
Vertical Chainage Lines
62
41
420
14737632
100
AcDbVertex
100
AcDb3dPolylineVertex
10
160100.0
20
4130.0
30
0.0
70
32
0
SEQEND
5
28D
100
AcDbEntity
8
Vertical Chainage Lines
0
POLYLINE
5
292
330
1B
100
AcDbEntity
67
0
8
Vertical Chainage Lines
62
41
420
14737632
6
Dashed
370
0
48
1.0
60
0
100
AcDb3dPolyline
10
0.0
20
0.0
30
0.0
70
8
75
0
210
0.0
220
0.0
230
1.0
0
VERTEX
5
28F
100
AcDbEntity
8
Vertical Chainage Lines
62
41
420
14737632
100
AcDbVertex
100
AcDb3dPolylineVertex
10
160200.0
20
4730.0
30
0.0
70
32
0
VERTEX
5
290
100
AcDbEntity
8
Vertical Chainage Lines
62
41
420
14737632
100
AcDbVertex
100
AcDb3dPolylineVertex
10
160200.0
20
4130.0
30
0.0
70
32
0
SEQEND
5
291
100
AcDbEntity
8
Vertical Chainage Lines
0
POLYLINE
5
296
330
1B
100
AcDbEntity
67
0
8
Vertical Chainage Lines
62
41
420
14737632
6
Dashed
370
0
48
1.0
60
0
100
AcDb3dPolyline
10
0.0
20
0.0
30
0.0
70
8
75
0
210
0.0
220
0.0
230
1.0
0
VERTEX
5
293
100
AcDbEntity
8
Vertical Chainage Lines
62
41
420
14737632
100
AcDbVertex
100
AcDb3dPolylineVertex
10
160300.0
20
4730.0
30
0.0
70
32
0
VERTEX
5
294
100
AcDbEntity
8
Vertical Chainage Lines
62
41
420
14737632
100
AcDbVertex
100
AcDb3dPolylineVertex
10
160300.0
20
4130.0
30
0.0
70
32
0
SEQEND
5
295
100
AcDbEntity
8
Vertical Chainage Lines
0
POLYLINE
5
29A
330
1B
100
AcDbEntity
67
0
8
Vertical Chainage Lines
62
41
420
14737632
6
Dashed
370
0
48
1.0
60
0
100
AcDb3dPolyline
10
0.0
20
0.0
30
0.0
70
8
75
0
210
0.0
220
0.0
230
1.0
0
VERTEX
5
297
100
AcDbEntity
8
Vertical Chainage Lines
62
41
420
14737632
100
AcDbVertex
100
AcDb3dPolylineVertex
10
160400.0
20
4730.0
30
0.0
70
32
0
VERTEX
5
298
100
AcDbEntity
8
Vertical Chainage Lines
62
41
420
14737632
100
AcDbVertex
100
AcDb3dPolylineVertex
10
160400.0
20
4130.0
30
0.0
70
32
0
SEQEND
5
299
100
AcDbEntity
8
Vertical Chainage Lines
0
POLYLINE
5
29E
330
1B
100
AcDbEntity
67
0
8
Vertical Chainage Lines
62
41
420
14737632
6
Dashed
370
0
48
1.0
60
0
100
AcDb3dPolyline
10
0.0
20
0.0
30
0.0
70
8
75
0
210
0.0
220
0.0
230
1.0
0
VERTEX
5
29B
100
AcDbEntity
8
Vertical Chainage Lines
62
41
420
14737632
100
AcDbVertex
100
AcDb3dPolylineVertex
10
160500.0
20
4730.0
30
0.0
70
32
0
VERTEX
5
29C
100
AcDbEntity
8
Vertical Chainage Lines
62
41
420
14737632
100
AcDbVertex
100
AcDb3dPolylineVertex
10
160500.0
20
4130.0
30
0.0
70
32
0
SEQEND
5
29D
100
AcDbEntity
8
Vertical Chainage Lines
0
POLYLINE
5
2A2
330
1B
100
AcDbEntity
67
0
8
Vertical Chainage Lines
62
41
420
14737632
6
Dashed
370
0
48
1.0
60
0
100
AcDb3dPolyline
10
0.0
20
0.0
30
0.0
70
8
75
0
210
0.0
220
0.0
230
1.0
0
VERTEX
5
29F
100
AcDbEntity
8
Vertical Chainage Lines
62
41
420
14737632
100
AcDbVertex
100
AcDb3dPolylineVertex
10
160600.0
20
4730.0
30
0.0
70
32
0
VERTEX
5
2A0
100
AcDbEntity
8
Vertical Chainage Lines
62
41
420
14737632
100
AcDbVertex
100
AcDb3dPolylineVertex
10
160600.0
20
4130.0
30
0.0
70
32
0
SEQEND
5
2A1
100
AcDbEntity
8
Vertical Chainage Lines
0
POLYLINE
5
2A6
330
1B
100
AcDbEntity
67
0
8
Vertical Chainage Lines
62
41
420
14737632
6
Dashed
370
0
48
1.0
60
0
100
AcDb3dPolyline
10
0.0
20
0.0
30
0.0
70
8
75
0
210
0.0
220
0.0
230
1.0
0
VERTEX
5
2A3
100
AcDbEntity
8
Vertical Chainage Lines
62
41
420
14737632
100
AcDbVertex
100
AcDb3dPolylineVertex
10
160700.0
20
4730.0
30
0.0
70
32
0
VERTEX
5
2A4
100
AcDbEntity
8
Vertical Chainage Lines
62
41
420
14737632
100
AcDbVertex
100
AcDb3dPolylineVertex
10
160700.0
20
4130.0
30
0.0
70
32
0
SEQEND
5
2A5
100
AcDbEntity
8
Vertical Chainage Lines
0
POLYLINE
5
2AA
330
1B
100
AcDbEntity
67
0
8
Vertical Chainage Lines
62
41
420
14737632
6
Dashed
370
0
48
1.0
60
0
100
AcDb3dPolyline
10
0.0
20
0.0
30
0.0
70
8
75
0
210
0.0
220
0.0
230
1.0
0
VERTEX
5
2A7
100
AcDbEntity
8
Vertical Chainage Lines
62
41
420
14737632
100
AcDbVertex
100
AcDb3dPolylineVertex
10
160800.0
20
4730.0
30
0.0
70
32
0
VERTEX
5
2A8
100
AcDbEntity
8
Vertical Chainage Lines
62
41
420
14737632
100
AcDbVertex
100
AcDb3dPolylineVertex
10
160800.0
20
4130.0
30
0.0
70
32
0
SEQEND
5
2A9
100
AcDbEntity
8
Vertical Chainage Lines
0
POLYLINE
5
2AE
330
1B
100
AcDbEntity
67
0
8
Vertical Chainage Lines
62
41
420
14737632
6
Dashed
370
0
48
1.0
60
0
100
AcDb3dPolyline
10
0.0
20
0.0
30
0.0
70
8
75
0
210
0.0
220
0.0
230
1.0
0
VERTEX
5
2AB
100
AcDbEntity
8
Vertical Chainage Lines
62
41
420
14737632
100
AcDbVertex
100
AcDb3dPolylineVertex
10
160900.0
20
4730.0
30
0.0
70
32
0
VERTEX
5
2AC
100
AcDbEntity
8
Vertical Chainage Lines
62
41
420
14737632
100
AcDbVertex
100
AcDb3dPolylineVertex
10
160900.0
20
4130.0
30
0.0
70
32
0
SEQEND
5
2AD
100
AcDbEntity
8
Vertical Chainage Lines
0
POLYLINE
5
2B2
330
1B
100
AcDbEntity
67
0
8
Vertical Chainage Lines
62
41
420
14737632
6
Dashed
370
0
48
1.0
60
0
100
AcDb3dPolyline
10
0.0
20
0.0
30
0.0
70
8
75
0
210
0.0
220
0.0
230
1.0
0
VERTEX
5
2AF
100
AcDbEntity
8
Vertical Chainage Lines
62
41
420
14737632
100
AcDbVertex
100
AcDb3dPolylineVertex
10
161000.0
20
4730.0
30
0.0
70
32
0
VERTEX
5
2B0
100
AcDbEntity
8
Vertical Chainage Lines
62
41
420
14737632
100
AcDbVertex
100
AcDb3dPolylineVertex
10
161000.0
20
4130.0
30
0.0
70
32
0
SEQEND
5
2B1
100
AcDbEntity
8
Vertical Chainage Lines
0
POLYLINE
5
2B6
330
1B
100
AcDbEntity
67
0
8
Vertical Chainage Lines
62
41
420
14737632
6
Dashed
370
0
48
1.0
60
0
100
AcDb3dPolyline
10
0.0
20
0.0
30
0.0
70
8
75
0
210
0.0
220
0.0
230
1.0
0
VERTEX
5
2B3
100
AcDbEntity
8
Vertical Chainage Lines
62
41
420
14737632
100
AcDbVertex
100
AcDb3dPolylineVertex
10
161100.0
20
4730.0
30
0.0
70
32
0
VERTEX
5
2B4
100
AcDbEntity
8
Vertical Chainage Lines
62
41
420
14737632
100
AcDbVertex
100
AcDb3dPolylineVertex
10
161100.0
20
4130.0
30
0.0
70
32
0
SEQEND
5
2B5
100
AcDbEntity
8
Vertical Chainage Lines
0
POLYLINE
5
2BA
330
1B
100
AcDbEntity
67
0
8
Vertical Chainage Lines
62
41
420
14737632
6
Dashed
370
0
48
1.0
60
0
100
AcDb3dPolyline
10
0.0
20
0.0
30
0.0
70
8
75
0
210
0.0
220
0.0
230
1.0
0
VERTEX
5
2B7
100
AcDbEntity
8
Vertical Chainage Lines
62
41
420
14737632
100
AcDbVertex
100
AcDb3dPolylineVertex
10
161200.0
20
4730.0
30
0.0
70
32
0
VERTEX
5
2B8
100
AcDbEntity
8
Vertical Chainage Lines
62
41
420
14737632
100
AcDbVertex
100
AcDb3dPolylineVertex
10
161200.0
20
4130.0
30
0.0
70
32
0
SEQEND
5
2B9
100
AcDbEntity
8
Vertical Chainage Lines
0
POLYLINE
5
2BE
330
1B
100
AcDbEntity
67
0
8
Vertical Chainage Lines
62
41
420
14737632
6
Dashed
370
0
48
1.0
60
0
100
AcDb3dPolyline
10
0.0
20
0.0
30
0.0
70
8
75
0
210
0.0
220
0.0
230
1.0
0
VERTEX
5
2BB
100
AcDbEntity
8
Vertical Chainage Lines
62
41
420
14737632
100
AcDbVertex
100
AcDb3dPolylineVertex
10
161300.0
20
4730.0
30
0.0
70
32
0
VERTEX
5
2BC
100
AcDbEntity
8
Vertical Chainage Lines
62
41
420
14737632
100
AcDbVertex
100
AcDb3dPolylineVertex
10
161300.0
20
4130.0
30
0.0
70
32
0
SEQEND
5
2BD
100
AcDbEntity
8
Vertical Chainage Lines
0
POLYLINE
5
2C2
330
1B
100
AcDbEntity
67
0
8
Vertical Chainage Lines
62
41
420
14737632
6
Dashed
370
0
48
1.0
60
0
100
AcDb3dPolyline
10
0.0
20
0.0
30
0.0
70
8
75
0
210
0.0
220
0.0
230
1.0
0
VERTEX
5
2BF
100
AcDbEntity
8
Vertical Chainage Lines
62
41
420
14737632
100
AcDbVertex
100
AcDb3dPolylineVertex
10
161400.0
20
4730.0
30
0.0
70
32
0
VERTEX
5
2C0
100
AcDbEntity
8
Vertical Chainage Lines
62
41
420
14737632
100
AcDbVertex
100
AcDb3dPolylineVertex
10
161400.0
20
4130.0
30
0.0
70
32
0
SEQEND
5
2C1
100
AcDbEntity
8
Vertical Chainage Lines
0
POLYLINE
5
2C6
330
1B
100
AcDbEntity
67
0
8
Vertical Chainage Lines
62
41
420
14737632
6
Dashed
370
0
48
1.0
60
0
100
AcDb3dPolyline
10
0.0
20
0.0
30
0.0
70
8
75
0
210
0.0
220
0.0
230
1.0
0
VERTEX
5
2C3
100
AcDbEntity
8
Vertical Chainage Lines
62
41
420
14737632
100
AcDbVertex
100
AcDb3dPolylineVertex
10
161500.0
20
4730.0
30
0.0
70
32
0
VERTEX
5
2C4
100
AcDbEntity
8
Vertical Chainage Lines
62
41
420
14737632
100
AcDbVertex
100
AcDb3dPolylineVertex
10
161500.0
20
4130.0
30
0.0
70
32
0
SEQEND
5
2C5
100
AcDbEntity
8
Vertical Chainage Lines
0
POLYLINE
5
2CA
330
1B
100
AcDbEntity
67
0
8
Vertical Chainage Lines
62
41
420
14737632
6
Dashed
370
0
48
1.0
60
0
100
AcDb3dPolyline
10
0.0
20
0.0
30
0.0
70
8
75
0
210
0.0
220
0.0
230
1.0
0
VERTEX
5
2C7
100
AcDbEntity
8
Vertical Chainage Lines
62
41
420
14737632
100
AcDbVertex
100
AcDb3dPolylineVertex
10
161600.0
20
4730.0
30
0.0
70
32
0
VERTEX
5
2C8
100
AcDbEntity
8
Vertical Chainage Lines
62
41
420
14737632
100
AcDbVertex
100
AcDb3dPolylineVertex
10
161600.0
20
4130.0
30
0.0
70
32
0
SEQEND
5
2C9
100
AcDbEntity
8
Vertical Chainage Lines
0
POLYLINE
5
2CE
330
1B
100
AcDbEntity
67
0
8
Vertical Chainage Lines
62
41
420
14737632
6
Dashed
370
0
48
1.0
60
0
100
AcDb3dPolyline
10
0.0
20
0.0
30
0.0
70
8
75
0
210
0.0
220
0.0
230
1.0
0
VERTEX
5
2CB
100
AcDbEntity
8
Vertical Chainage Lines
62
41
420
14737632
100
AcDbVertex
100
AcDb3dPolylineVertex
10
161700.0
20
4730.0
30
0.0
70
32
0
VERTEX
5
2CC
100
AcDbEntity
8
Vertical Chainage Lines
62
41
420
14737632
100
AcDbVertex
100
AcDb3dPolylineVertex
10
161700.0
20
4130.0
30
0.0
70
32
0
SEQEND
5
2CD
100
AcDbEntity
8
Vertical Chainage Lines
0
POLYLINE
5
2D2
330
1B
100
AcDbEntity
67
0
8
Vertical Chainage Lines
62
41
420
14737632
6
Dashed
370
0
48
1.0
60
0
100
AcDb3dPolyline
10
0.0
20
0.0
30
0.0
70
8
75
0
210
0.0
220
0.0
230
1.0
0
VERTEX
5
2CF
100
AcDbEntity
8
Vertical Chainage Lines
62
41
420
14737632
100
AcDbVertex
100
AcDb3dPolylineVertex
10
161800.0
20
4730.0
30
0.0
70
32
0
VERTEX
5
2D0
100
AcDbEntity
8
Vertical Chainage Lines
62
41
420
14737632
100
AcDbVertex
100
AcDb3dPolylineVertex
10
161800.0
20
4130.0
30
0.0
70
32
0
SEQEND
5
2D1
100
AcDbEntity
8
Vertical Chainage Lines
0
POLYLINE
5
2D6
330
1B
100
AcDbEntity
67
0
8
Vertical Chainage Lines
62
41
420
14737632
6
Dashed
370
0
48
1.0
60
0
100
AcDb3dPolyline
10
0.0
20
0.0
30
0.0
70
8
75
0
210
0.0
220
0.0
230
1.0
0
VERTEX
5
2D3
100
AcDbEntity
8
Vertical Chainage Lines
62
41
420
14737632
100
AcDbVertex
100
AcDb3dPolylineVertex
10
161900.0
20
4730.0
30
0.0
70
32
0
VERTEX
5
2D4
100
AcDbEntity
8
Vertical Chainage Lines
62
41
420
14737632
100
AcDbVertex
100
AcDb3dPolylineVertex
10
161900.0
20
4130.0
30
0.0
70
32
0
SEQEND
5
2D5
100
AcDbEntity
8
Vertical Chainage Lines
0
POLYLINE
5
2DA
330
1B
100
AcDbEntity
67
0
8
Vertical Chainage Lines
62
41
420
14737632
6
Dashed
370
0
48
1.0
60
0
100
AcDb3dPolyline
10
0.0
20
0.0
30
0.0
70
8
75
0
210
0.0
220
0.0
230
1.0
0
VERTEX
5
2D7
100
AcDbEntity
8
Vertical Chainage Lines
62
41
420
14737632
100
AcDbVertex
100
AcDb3dPolylineVertex
10
162000.0
20
4730.0
30
0.0
70
32
0
VERTEX
5
2D8
100
AcDbEntity
8
Vertical Chainage Lines
62
41
420
14737632
100
AcDbVertex
100
AcDb3dPolylineVertex
10
162000.0
20
4130.0
30
0.0
70
32
0
SEQEND
5
2D9
100
AcDbEntity
8
Vertical Chainage Lines
0
POLYLINE
5
2DE
330
1B
100
AcDbEntity
67
0
8
Vertical Chainage Lines
62
41
420
14737632
6
Dashed
370
0
48
1.0
60
0
100
AcDb3dPolyline
10
0.0
20
0.0
30
0.0
70
8
75
0
210
0.0
220
0.0
230
1.0
0
VERTEX
5
2DB
100
AcDbEntity
8
Vertical Chainage Lines
62
41
420
14737632
100
AcDbVertex
100
AcDb3dPolylineVertex
10
162100.0
20
4730.0
30
0.0
70
32
0
VERTEX
5
2DC
100
AcDbEntity
8
Vertical Chainage Lines
62
41
420
14737632
100
AcDbVertex
100
AcDb3dPolylineVertex
10
162100.0
20
4130.0
30
0.0
70
32
0
SEQEND
5
2DD
100
AcDbEntity
8
Vertical Chainage Lines
0
POLYLINE
5
2E2
330
1B
100
AcDbEntity
67
0
8
Vertical Chainage Lines
62
41
420
14737632
6
Dashed
370
0
48
1.0
60
0
100
AcDb3dPolyline
10
0.0
20
0.0
30
0.0
70
8
75
0
210
0.0
220
0.0
230
1.0
0
VERTEX
5
2DF
100
AcDbEntity
8
Vertical Chainage Lines
62
41
420
14737632
100
AcDbVertex
100
AcDb3dPolylineVertex
10
162200.0
20
4730.0
30
0.0
70
32
0
VERTEX
5
2E0
100
AcDbEntity
8
Vertical Chainage Lines
62
41
420
14737632
100
AcDbVertex
100
AcDb3dPolylineVertex
10
162200.0
20
4130.0
30
0.0
70
32
0
SEQEND
5
2E1
100
AcDbEntity
8
Vertical Chainage Lines
0
POLYLINE
5
2E6
330
1B
100
AcDbEntity
67
0
8
Vertical Chainage Lines
62
41
420
14737632
6
Dashed
370
0
48
1.0
60
0
100
AcDb3dPolyline
10
0.0
20
0.0
30
0.0
70
8
75
0
210
0.0
220
0.0
230
1.0
0
VERTEX
5
2E3
100
AcDbEntity
8
Vertical Chainage Lines
62
41
420
14737632
100
AcDbVertex
100
AcDb3dPolylineVertex
10
162300.0
20
4730.0
30
0.0
70
32
0
VERTEX
5
2E4
100
AcDbEntity
8
Vertical Chainage Lines
62
41
420
14737632
100
AcDbVertex
100
AcDb3dPolylineVertex
10
162300.0
20
4130.0
30
0.0
70
32
0
SEQEND
5
2E5
100
AcDbEntity
8
Vertical Chainage Lines
0
POLYLINE
5
2EA
330
1B
100
AcDbEntity
67
0
8
Vertical Chainage Lines
62
41
420
14737632
6
Dashed
370
0
48
1.0
60
0
100
AcDb3dPolyline
10
0.0
20
0.0
30
0.0
70
8
75
0
210
0.0
220
0.0
230
1.0
0
VERTEX
5
2E7
100
AcDbEntity
8
Vertical Chainage Lines
62
41
420
14737632
100
AcDbVertex
100
AcDb3dPolylineVertex
10
162400.0
20
4730.0
30
0.0
70
32
0
VERTEX
5
2E8
100
AcDbEntity
8
Vertical Chainage Lines
62
41
420
14737632
100
AcDbVertex
100
AcDb3dPolylineVertex
10
162400.0
20
4130.0
30
0.0
70
32
0
SEQEND
5
2E9
100
AcDbEntity
8
Vertical Chainage Lines
0
POLYLINE
5
2EE
330
1B
100
AcDbEntity
67
0
8
Vertical Chainage Lines
62
41
420
14737632
6
Dashed
370
0
48
1.0
60
0
100
AcDb3dPolyline
10
0.0
20
0.0
30
0.0
70
8
75
0
210
0.0
220
0.0
230
1.0
0
VERTEX
5
2EB
100
AcDbEntity
8
Vertical Chainage Lines
62
41
420
14737632
100
AcDbVertex
100
AcDb3dPolylineVertex
10
162500.0
20
4730.0
30
0.0
70
32
0
VERTEX
5
2EC
100
AcDbEntity
8
Vertical Chainage Lines
62
41
420
14737632
100
AcDbVertex
100
AcDb3dPolylineVertex
10
162500.0
20
4130.0
30
0.0
70
32
0
SEQEND
5
2ED
100
AcDbEntity
8
Vertical Chainage Lines
0
POLYLINE
5
2F2
330
1B
100
AcDbEntity
67
0
8
Vertical Chainage Lines
62
41
420
14737632
6
Dashed
370
0
48
1.0
60
0
100
AcDb3dPolyline
10
0.0
20
0.0
30
0.0
70
8
75
0
210
0.0
220
0.0
230
1.0
0
VERTEX
5
2EF
100
AcDbEntity
8
Vertical Chainage Lines
62
41
420
14737632
100
AcDbVertex
100
AcDb3dPolylineVertex
10
162600.0
20
4730.0
30
0.0
70
32
0
VERTEX
5
2F0
100
AcDbEntity
8
Vertical Chainage Lines
62
41
420
14737632
100
AcDbVertex
100
AcDb3dPolylineVertex
10
162600.0
20
4130.0
30
0.0
70
32
0
SEQEND
5
2F1
100
AcDbEntity
8
Vertical Chainage Lines
0
POLYLINE
5
2F6
330
1B
100
AcDbEntity
67
0
8
Vertical Chainage Lines
62
41
420
14737632
6
Dashed
370
0
48
1.0
60
0
100
AcDb3dPolyline
10
0.0
20
0.0
30
0.0
70
8
75
0
210
0.0
220
0.0
230
1.0
0
VERTEX
5
2F3
100
AcDbEntity
8
Vertical Chainage Lines
62
41
420
14737632
100
AcDbVertex
100
AcDb3dPolylineVertex
10
162700.0
20
4730.0
30
0.0
70
32
0
VERTEX
5
2F4
100
AcDbEntity
8
Vertical Chainage Lines
62
41
420
14737632
100
AcDbVertex
100
AcDb3dPolylineVertex
10
162700.0
20
4130.0
30
0.0
70
32
0
SEQEND
5
2F5
100
AcDbEntity
8
Vertical Chainage Lines
0
POLYLINE
5
2FA
330
1B
100
AcDbEntity
67
0
8
Vertical Chainage Lines
62
41
420
14737632
6
Dashed
370
0
48
1.0
60
0
100
AcDb3dPolyline
10
0.0
20
0.0
30
0.0
70
8
75
0
210
0.0
220
0.0
230
1.0
0
VERTEX
5
2F7
100
AcDbEntity
8
Vertical Chainage Lines
62
41
420
14737632
100
AcDbVertex
100
AcDb3dPolylineVertex
10
162800.0
20
4730.0
30
0.0
70
32
0
VERTEX
5
2F8
100
AcDbEntity
8
Vertical Chainage Lines
62
41
420
14737632
100
AcDbVertex
100
AcDb3dPolylineVertex
10
162800.0
20
4130.0
30
0.0
70
32
0
SEQEND
5
2F9
100
AcDbEntity
8
Vertical Chainage Lines
0
POLYLINE
5
2FE
330
1B
100
AcDbEntity
67
0
8
Vertical Chainage Lines
62
41
420
14737632
6
Dashed
370
0
48
1.0
60
0
100
AcDb3dPolyline
10
0.0
20
0.0
30
0.0
70
8
75
0
210
0.0
220
0.0
230
1.0
0
VERTEX
5
2FB
100
AcDbEntity
8
Vertical Chainage Lines
62
41
420
14737632
100
AcDbVertex
100
AcDb3dPolylineVertex
10
162900.0
20
4730.0
30
0.0
70
32
0
VERTEX
5
2FC
100
AcDbEntity
8
Vertical Chainage Lines
62
41
420
14737632
100
AcDbVertex
100
AcDb3dPolylineVertex
10
162900.0
20
4130.0
30
0.0
70
32
0
SEQEND
5
2FD
100
AcDbEntity
8
Vertical Chainage Lines
0
POLYLINE
5
302
330
1B
100
AcDbEntity
67
0
8
Vertical Chainage Lines
62
41
420
14737632
6
Dashed
370
0
48
1.0
60
0
100
AcDb3dPolyline
10
0.0
20
0.0
30
0.0
70
8
75
0
210
0.0
220
0.0
230
1.0
0
VERTEX
5
2FF
100
AcDbEntity
8
Vertical Chainage Lines
62
41
420
14737632
100
AcDbVertex
100
AcDb3dPolylineVertex
10
163000.0
20
4730.0
30
0.0
70
32
0
VERTEX
5
300
100
AcDbEntity
8
Vertical Chainage Lines
62
41
420
14737632
100
AcDbVertex
100
AcDb3dPolylineVertex
10
163000.0
20
4130.0
30
0.0
70
32
0
SEQEND
5
301
100
AcDbEntity
8
Vertical Chainage Lines
0
POLYLINE
5
306
330
1B
100
AcDbEntity
67
0
8
Vertical Chainage Lines
62
41
420
14737632
6
Dashed
370
0
48
1.0
60
0
100
AcDb3dPolyline
10
0.0
20
0.0
30
0.0
70
8
75
0
210
0.0
220
0.0
230
1.0
0
VERTEX
5
303
100
AcDbEntity
8
Vertical Chainage Lines
62
41
420
14737632
100
AcDbVertex
100
AcDb3dPolylineVertex
10
163100.0
20
4730.0
30
0.0
70
32
0
VERTEX
5
304
100
AcDbEntity
8
Vertical Chainage Lines
62
41
420
14737632
100
AcDbVertex
100
AcDb3dPolylineVertex
10
163100.0
20
4130.0
30
0.0
70
32
0
SEQEND
5
305
100
AcDbEntity
8
Vertical Chainage Lines
0
POLYLINE
5
30A
330
1B
100
AcDbEntity
67
0
8
Vertical Chainage Lines
62
41
420
14737632
6
Dashed
370
0
48
1.0
60
0
100
AcDb3dPolyline
10
0.0
20
0.0
30
0.0
70
8
75
0
210
0.0
220
0.0
230
1.0
0
VERTEX
5
307
100
AcDbEntity
8
Vertical Chainage Lines
62
41
420
14737632
100
AcDbVertex
100
AcDb3dPolylineVertex
10
163200.0
20
4730.0
30
0.0
70
32
0
VERTEX
5
308
100
AcDbEntity
8
Vertical Chainage Lines
62
41
420
14737632
100
AcDbVertex
100
AcDb3dPolylineVertex
10
163200.0
20
4130.0
30
0.0
70
32
0
SEQEND
5
309
100
AcDbEntity
8
Vertical Chainage Lines
0
POLYLINE
5
30E
330
1B
100
AcDbEntity
67
0
8
Vertical Chainage Lines
62
41
420
14737632
6
Dashed
370
0
48
1.0
60
0
100
AcDb3dPolyline
10
0.0
20
0.0
30
0.0
70
8
75
0
210
0.0
220
0.0
230
1.0
0
VERTEX
5
30B
100
AcDbEntity
8
Vertical Chainage Lines
62
41
420
14737632
100
AcDbVertex
100
AcDb3dPolylineVertex
10
163300.0
20
4730.0
30
0.0
70
32
0
VERTEX
5
30C
100
AcDbEntity
8
Vertical Chainage Lines
62
41
420
14737632
100
AcDbVertex
100
AcDb3dPolylineVertex
10
163300.0
20
4130.0
30
0.0
70
32
0
SEQEND
5
30D
100
AcDbEntity
8
Vertical Chainage Lines
0
POLYLINE
5
312
330
1B
100
AcDbEntity
67
0
8
Vertical Chainage Lines
62
41
420
14737632
6
Dashed
370
0
48
1.0
60
0
100
AcDb3dPolyline
10
0.0
20
0.0
30
0.0
70
8
75
0
210
0.0
220
0.0
230
1.0
0
VERTEX
5
30F
100
AcDbEntity
8
Vertical Chainage Lines
62
41
420
14737632
100
AcDbVertex
100
AcDb3dPolylineVertex
10
163400.0
20
4730.0
30
0.0
70
32
0
VERTEX
5
310
100
AcDbEntity
8
Vertical Chainage Lines
62
41
420
14737632
100
AcDbVertex
100
AcDb3dPolylineVertex
10
163400.0
20
4130.0
30
0.0
70
32
0
SEQEND
5
311
100
AcDbEntity
8
Vertical Chainage Lines
0
POLYLINE
5
316
330
1B
100
AcDbEntity
67
0
8
Vertical Chainage Lines
62
41
420
14737632
6
Dashed
370
0
48
1.0
60
0
100
AcDb3dPolyline
10
0.0
20
0.0
30
0.0
70
8
75
0
210
0.0
220
0.0
230
1.0
0
VERTEX
5
313
100
AcDbEntity
8
Vertical Chainage Lines
62
41
420
14737632
100
AcDbVertex
100
AcDb3dPolylineVertex
10
163500.0
20
4730.0
30
0.0
70
32
0
VERTEX
5
314
100
AcDbEntity
8
Vertical Chainage Lines
62
41
420
14737632
100
AcDbVertex
100
AcDb3dPolylineVertex
10
163500.0
20
4130.0
30
0.0
70
32
0
SEQEND
5
315
100
AcDbEntity
8
Vertical Chainage Lines
0
POLYLINE
5
31A
330
1B
100
AcDbEntity
67
0
8
Vertical Chainage Lines
62
41
420
14737632
6
Dashed
370
0
48
1.0
60
0
100
AcDb3dPolyline
10
0.0
20
0.0
30
0.0
70
8
75
0
210
0.0
220
0.0
230
1.0
0
VERTEX
5
317
100
AcDbEntity
8
Vertical Chainage Lines
62
41
420
14737632
100
AcDbVertex
100
AcDb3dPolylineVertex
10
163600.0
20
4730.0
30
0.0
70
32
0
VERTEX
5
318
100
AcDbEntity
8
Vertical Chainage Lines
62
41
420
14737632
100
AcDbVertex
100
AcDb3dPolylineVertex
10
163600.0
20
4130.0
30
0.0
70
32
0
SEQEND
5
319
100
AcDbEntity
8
Vertical Chainage Lines
0
POLYLINE
5
31E
330
1B
100
AcDbEntity
67
0
8
Vertical Chainage Lines
62
41
420
14737632
6
Dashed
370
0
48
1.0
60
0
100
AcDb3dPolyline
10
0.0
20
0.0
30
0.0
70
8
75
0
210
0.0
220
0.0
230
1.0
0
VERTEX
5
31B
100
AcDbEntity
8
Vertical Chainage Lines
62
41
420
14737632
100
AcDbVertex
100
AcDb3dPolylineVertex
10
163700.0
20
4730.0
30
0.0
70
32
0
VERTEX
5
31C
100
AcDbEntity
8
Vertical Chainage Lines
62
41
420
14737632
100
AcDbVertex
100
AcDb3dPolylineVertex
10
163700.0
20
4130.0
30
0.0
70
32
0
SEQEND
5
31D
100
AcDbEntity
8
Vertical Chainage Lines
0
POLYLINE
5
322
330
1B
100
AcDbEntity
67
0
8
Vertical Chainage Lines
62
41
420
14737632
6
Dashed
370
0
48
1.0
60
0
100
AcDb3dPolyline
10
0.0
20
0.0
30
0.0
70
8
75
0
210
0.0
220
0.0
230
1.0
0
VERTEX
5
31F
100
AcDbEntity
8
Vertical Chainage Lines
62
41
420
14737632
100
AcDbVertex
100
AcDb3dPolylineVertex
10
163800.0
20
4730.0
30
0.0
70
32
0
VERTEX
5
320
100
AcDbEntity
8
Vertical Chainage Lines
62
41
420
14737632
100
AcDbVertex
100
AcDb3dPolylineVertex
10
163800.0
20
4130.0
30
0.0
70
32
0
SEQEND
5
321
100
AcDbEntity
8
Vertical Chainage Lines
0
POLYLINE
5
326
330
1B
100
AcDbEntity
67
0
8
Vertical Chainage Lines
62
41
420
14737632
6
Dashed
370
0
48
1.0
60
0
100
AcDb3dPolyline
10
0.0
20
0.0
30
0.0
70
8
75
0
210
0.0
220
0.0
230
1.0
0
VERTEX
5
323
100
AcDbEntity
8
Vertical Chainage Lines
62
41
420
14737632
100
AcDbVertex
100
AcDb3dPolylineVertex
10
163900.0
20
4730.0
30
0.0
70
32
0
VERTEX
5
324
100
AcDbEntity
8
Vertical Chainage Lines
62
41
420
14737632
100
AcDbVertex
100
AcDb3dPolylineVertex
10
163900.0
20
4130.0
30
0.0
70
32
0
SEQEND
5
325
100
AcDbEntity
8
Vertical Chainage Lines
0
POLYLINE
5
32A
330
1B
100
AcDbEntity
67
0
8
Vertical Chainage Lines
62
41
420
14737632
6
Dashed
370
0
48
1.0
60
0
100
AcDb3dPolyline
10
0.0
20
0.0
30
0.0
70
8
75
0
210
0.0
220
0.0
230
1.0
0
VERTEX
5
327
100
AcDbEntity
8
Vertical Chainage Lines
62
41
420
14737632
100
AcDbVertex
100
AcDb3dPolylineVertex
10
164000.0
20
4730.0
30
0.0
70
32
0
VERTEX
5
328
100
AcDbEntity
8
Vertical Chainage Lines
62
41
420
14737632
100
AcDbVertex
100
AcDb3dPolylineVertex
10
164000.0
20
4130.0
30
0.0
70
32
0
SEQEND
5
329
100
AcDbEntity
8
Vertical Chainage Lines
0
POLYLINE
5
330
330
1B
100
AcDbEntity
67
0
8
Package
62
9
6
ByLayer
370
25
48
1.0
60
0
100
AcDb3dPolyline
10
0.0
20
0.0
30
0.0
70
9
75
0
210
0.0
220
0.0
230
1.0
0
VERTEX
5
32B
100
AcDbEntity
8
Package
62
9
100
AcDbVertex
100
AcDb3dPolylineVertex
10
156560.0
20
4130.0
30
0.0
70
32
0
VERTEX
5
32C
100
AcDbEntity
8
Package
62
9
100
AcDbVertex
100
AcDb3dPolylineVertex
10
164096.0
20
4130.0
30
0.0
70
32
0
VERTEX
5
32D
100
AcDbEntity
8
Package
62
9
100
AcDbVertex
100
AcDb3dPolylineVertex
10
164096.0
20
4010.0
30
0.0
70
32
0
VERTEX
5
32E
100
AcDbEntity
8
Package
62
9
100
AcDbVertex
100
AcDb3dPolylineVertex
10
156560.0
20
4010.0
30
0.0
70
32
0
SEQEND
5
32F
100
AcDbEntity
8
Package
0
POLYLINE
5
334
330
1B
100
AcDbEntity
67
0
8
Markers-One
62
41
420
14737632
6
Dashed
370
0
48
1.0
60
0
100
AcDb3dPolyline
10
0.0
20
0.0
30
0.0
70
8
75
0
210
0.0
220
0.0
230
1.0
0
VERTEX
5
331
100
AcDbEntity
8
Markers-One
62
41
420
14737632
100
AcDbVertex
100
AcDb3dPolylineVertex
10
156560.0
20
4010.0
30
0.0
70
32
0
VERTEX
5
332
100
AcDbEntity
8
Markers-One
62
41
420
14737632
100
AcDbVertex
100
AcDb3dPolylineVertex
10
156560.0
20
4015.0
30
0.0
70
32
0
SEQEND
5
333
100
AcDbEntity
8
Markers-One
0
TEXT
5
335
330
1B
100
AcDbEntity
67
0
8
Chainage Text
62
9
6
ByLayer
370
15
48
1.0
60
0
100
AcDbText
1
156+560
10
156560.0
20
4020.0
30
0.0
40
14.0
41
1.0
50
90.0
51
0.0
7
True type font
11
156560.0
21
4020.0
31
0.0
210
0.0
220
0.0
230
1.0
72
0
100
AcDbText
73
0
0
POLYLINE
5
339
330
1B
100
AcDbEntity
67
0
8
Markers-One
62
41
420
14737632
6
Dashed
370
0
48
1.0
60
0
100
AcDb3dPolyline
10
0.0
20
0.0
30
0.0
70
8
75
0
210
0.0
220
0.0
230
1.0
0
VERTEX
5
336
100
AcDbEntity
8
Markers-One
62
41
420
14737632
100
AcDbVertex
100
AcDb3dPolylineVertex
10
156600.0
20
4010.0
30
0.0
70
32
0
VERTEX
5
337
100
AcDbEntity
8
Markers-One
62
41
420
14737632
100
AcDbVertex
100
AcDb3dPolylineVertex
10
156600.0
20
4015.0
30
0.0
70
32
0
SEQEND
5
338
100
AcDbEntity
8
Markers-One
0
TEXT
5
33A
330
1B
100
AcDbEntity
67
0
8
Chainage Text
62
9
6
ByLayer
370
15
48
1.0
60
0
100
AcDbText
1
156+600
10
156600.0
20
4020.0
30
0.0
40
14.0
41
1.0
50
90.0
51
0.0
7
True type font
11
156600.0
21
4020.0
31
0.0
210
0.0
220
0.0
230
1.0
72
0
100
AcDbText
73
0
0
POLYLINE
5
33E
330
1B
100
AcDbEntity
67
0
8
Markers-One
62
41
420
14737632
6
Dashed
370
0
48
1.0
60
0
100
AcDb3dPolyline
10
0.0
20
0.0
30
0.0
70
8
75
0
210
0.0
220
0.0
230
1.0
0
VERTEX
5
33B
100
AcDbEntity
8
Markers-One
62
41
420
14737632
100
AcDbVertex
100
AcDb3dPolylineVertex
10
156700.0
20
4010.0
30
0.0
70
32
0
VERTEX
5
33C
100
AcDbEntity
8
Markers-One
62
41
420
14737632
100
AcDbVertex
100
AcDb3dPolylineVertex
10
156700.0
20
4015.0
30
0.0
70
32
0
SEQEND
5
33D
100
AcDbEntity
8
Markers-One
0
TEXT
5
33F
330
1B
100
AcDbEntity
67
0
8
Chainage Text
62
9
6
ByLayer
370
15
48
1.0
60
0
100
AcDbText
1
156+700
10
156700.0
20
4020.0
30
0.0
40
14.0
41
1.0
50
90.0
51
0.0
7
True type font
11
156700.0
21
4020.0
31
0.0
210
0.0
220
0.0
230
1.0
72
0
100
AcDbText
73
0
0
POLYLINE
5
343
330
1B
100
AcDbEntity
67
0
8
Markers-One
62
41
420
14737632
6
Dashed
370
0
48
1.0
60
0
100
AcDb3dPolyline
10
0.0
20
0.0
30
0.0
70
8
75
0
210
0.0
220
0.0
230
1.0
0
VERTEX
5
340
100
AcDbEntity
8
Markers-One
62
41
420
14737632
100
AcDbVertex
100
AcDb3dPolylineVertex
10
156800.0
20
4010.0
30
0.0
70
32
0
VERTEX
5
341
100
AcDbEntity
8
Markers-One
62
41
420
14737632
100
AcDbVertex
100
AcDb3dPolylineVertex
10
156800.0
20
4015.0
30
0.0
70
32
0
SEQEND
5
342
100
AcDbEntity
8
Markers-One
0
TEXT
5
344
330
1B
100
AcDbEntity
67
0
8
Chainage Text
62
9
6
ByLayer
370
15
48
1.0
60
0
100
AcDbText
1
156+800
10
156800.0
20
4020.0
30
0.0
40
14.0
41
1.0
50
90.0
51
0.0
7
True type font
11
156800.0
21
4020.0
31
0.0
210
0.0
220
0.0
230
1.0
72
0
100
AcDbText
73
0
0
POLYLINE
5
348
330
1B
100
AcDbEntity
67
0
8
Markers-One
62
41
420
14737632
6
Dashed
370
0
48
1.0
60
0
100
AcDb3dPolyline
10
0.0
20
0.0
30
0.0
70
8
75
0
210
0.0
220
0.0
230
1.0
0
VERTEX
5
345
100
AcDbEntity
8
Markers-One
62
41
420
14737632
100
AcDbVertex
100
AcDb3dPolylineVertex
10
156900.0
20
4010.0
30
0.0
70
32
0
VERTEX
5
346
100
AcDbEntity
8
Markers-One
62
41
420
14737632
100
AcDbVertex
100
AcDb3dPolylineVertex
10
156900.0
20
4015.0
30
0.0
70
32
0
SEQEND
5
347
100
AcDbEntity
8
Markers-One
0
TEXT
5
349
330
1B
100
AcDbEntity
67
0
8
Chainage Text
62
9
6
ByLayer
370
15
48
1.0
60
0
100
AcDbText
1
156+900
10
156900.0
20
4020.0
30
0.0
40
14.0
41
1.0
50
90.0
51
0.0
7
True type font
11
156900.0
21
4020.0
31
0.0
210
0.0
220
0.0
230
1.0
72
0
100
AcDbText
73
0
0
POLYLINE
5
34D
330
1B
100
AcDbEntity
67
0
8
Markers-One
62
41
420
14737632
6
Dashed
370
0
48
1.0
60
0
100
AcDb3dPolyline
10
0.0
20
0.0
30
0.0
70
8
75
0
210
0.0
220
0.0
230
1.0
0
VERTEX
5
34A
100
AcDbEntity
8
Markers-One
62
41
420
14737632
100
AcDbVertex
100
AcDb3dPolylineVertex
10
157000.0
20
4010.0
30
0.0
70
32
0
VERTEX
5
34B
100
AcDbEntity
8
Markers-One
62
41
420
14737632
100
AcDbVertex
100
AcDb3dPolylineVertex
10
157000.0
20
4015.0
30
0.0
70
32
0
SEQEND
5
34C
100
AcDbEntity
8
Markers-One
0
TEXT
5
34E
330
1B
100
AcDbEntity
67
0
8
Chainage Text
62
9
6
ByLayer
370
15
48
1.0
60
0
100
AcDbText
1
157+000
10
157000.0
20
4020.0
30
0.0
40
14.0
41
1.0
50
90.0
51
0.0
7
True type font
11
157000.0
21
4020.0
31
0.0
210
0.0
220
0.0
230
1.0
72
0
100
AcDbText
73
0
0
POLYLINE
5
352
330
1B
100
AcDbEntity
67
0
8
Markers-One
62
41
420
14737632
6
Dashed
370
0
48
1.0
60
0
100
AcDb3dPolyline
10
0.0
20
0.0
30
0.0
70
8
75
0
210
0.0
220
0.0
230
1.0
0
VERTEX
5
34F
100
AcDbEntity
8
Markers-One
62
41
420
14737632
100
AcDbVertex
100
AcDb3dPolylineVertex
10
157100.0
20
4010.0
30
0.0
70
32
0
VERTEX
5
350
100
AcDbEntity
8
Markers-One
62
41
420
14737632
100
AcDbVertex
100
AcDb3dPolylineVertex
10
157100.0
20
4015.0
30
0.0
70
32
0
SEQEND
5
351
100
AcDbEntity
8
Markers-One
0
TEXT
5
353
330
1B
100
AcDbEntity
67
0
8
Chainage Text
62
9
6
ByLayer
370
15
48
1.0
60
0
100
AcDbText
1
157+100
10
157100.0
20
4020.0
30
0.0
40
14.0
41
1.0
50
90.0
51
0.0
7
True type font
11
157100.0
21
4020.0
31
0.0
210
0.0
220
0.0
230
1.0
72
0
100
AcDbText
73
0
0
POLYLINE
5
357
330
1B
100
AcDbEntity
67
0
8
Markers-One
62
41
420
14737632
6
Dashed
370
0
48
1.0
60
0
100
AcDb3dPolyline
10
0.0
20
0.0
30
0.0
70
8
75
0
210
0.0
220
0.0
230
1.0
0
VERTEX
5
354
100
AcDbEntity
8
Markers-One
62
41
420
14737632
100
AcDbVertex
100
AcDb3dPolylineVertex
10
157200.0
20
4010.0
30
0.0
70
32
0
VERTEX
5
355
100
AcDbEntity
8
Markers-One
62
41
420
14737632
100
AcDbVertex
100
AcDb3dPolylineVertex
10
157200.0
20
4015.0
30
0.0
70
32
0
SEQEND
5
356
100
AcDbEntity
8
Markers-One
0
TEXT
5
358
330
1B
100
AcDbEntity
67
0
8
Chainage Text
62
9
6
ByLayer
370
15
48
1.0
60
0
100
AcDbText
1
157+200
10
157200.0
20
4020.0
30
0.0
40
14.0
41
1.0
50
90.0
51
0.0
7
True type font
11
157200.0
21
4020.0
31
0.0
210
0.0
220
0.0
230
1.0
72
0
100
AcDbText
73
0
0
POLYLINE
5
35C
330
1B
100
AcDbEntity
67
0
8
Markers-One
62
41
420
14737632
6
Dashed
370
0
48
1.0
60
0
100
AcDb3dPolyline
10
0.0
20
0.0
30
0.0
70
8
75
0
210
0.0
220
0.0
230
1.0
0
VERTEX
5
359
100
AcDbEntity
8
Markers-One
62
41
420
14737632
100
AcDbVertex
100
AcDb3dPolylineVertex
10
157300.0
20
4010.0
30
0.0
70
32
0
VERTEX
5
35A
100
AcDbEntity
8
Markers-One
62
41
420
14737632
100
AcDbVertex
100
AcDb3dPolylineVertex
10
157300.0
20
4015.0
30
0.0
70
32
0
SEQEND
5
35B
100
AcDbEntity
8
Markers-One
0
TEXT
5
35D
330
1B
100
AcDbEntity
67
0
8
Chainage Text
62
9
6
ByLayer
370
15
48
1.0
60
0
100
AcDbText
1
157+300
10
157300.0
20
4020.0
30
0.0
40
14.0
41
1.0
50
90.0
51
0.0
7
True type font
11
157300.0
21
4020.0
31
0.0
210
0.0
220
0.0
230
1.0
72
0
100
AcDbText
73
0
0
POLYLINE
5
361
330
1B
100
AcDbEntity
67
0
8
Markers-One
62
41
420
14737632
6
Dashed
370
0
48
1.0
60
0
100
AcDb3dPolyline
10
0.0
20
0.0
30
0.0
70
8
75
0
210
0.0
220
0.0
230
1.0
0
VERTEX
5
35E
100
AcDbEntity
8
Markers-One
62
41
420
14737632
100
AcDbVertex
100
AcDb3dPolylineVertex
10
157400.0
20
4010.0
30
0.0
70
32
0
VERTEX
5
35F
100
AcDbEntity
8
Markers-One
62
41
420
14737632
100
AcDbVertex
100
AcDb3dPolylineVertex
10
157400.0
20
4015.0
30
0.0
70
32
0
SEQEND
5
360
100
AcDbEntity
8
Markers-One
0
TEXT
5
362
330
1B
100
AcDbEntity
67
0
8
Chainage Text
62
9
6
ByLayer
370
15
48
1.0
60
0
100
AcDbText
1
157+400
10
157400.0
20
4020.0
30
0.0
40
14.0
41
1.0
50
90.0
51
0.0
7
True type font
11
157400.0
21
4020.0
31
0.0
210
0.0
220
0.0
230
1.0
72
0
100
AcDbText
73
0
0
POLYLINE
5
366
330
1B
100
AcDbEntity
67
0
8
Markers-One
62
41
420
14737632
6
Dashed
370
0
48
1.0
60
0
100
AcDb3dPolyline
10
0.0
20
0.0
30
0.0
70
8
75
0
210
0.0
220
0.0
230
1.0
0
VERTEX
5
363
100
AcDbEntity
8
Markers-One
62
41
420
14737632
100
AcDbVertex
100
AcDb3dPolylineVertex
10
157500.0
20
4010.0
30
0.0
70
32
0
VERTEX
5
364
100
AcDbEntity
8
Markers-One
62
41
420
14737632
100
AcDbVertex
100
AcDb3dPolylineVertex
10
157500.0
20
4015.0
30
0.0
70
32
0
SEQEND
5
365
100
AcDbEntity
8
Markers-One
0
TEXT
5
367
330
1B
100
AcDbEntity
67
0
8
Chainage Text
62
9
6
ByLayer
370
15
48
1.0
60
0
100
AcDbText
1
157+500
10
157500.0
20
4020.0
30
0.0
40
14.0
41
1.0
50
90.0
51
0.0
7
True type font
11
157500.0
21
4020.0
31
0.0
210
0.0
220
0.0
230
1.0
72
0
100
AcDbText
73
0
0
POLYLINE
5
36B
330
1B
100
AcDbEntity
67
0
8
Markers-One
62
41
420
14737632
6
Dashed
370
0
48
1.0
60
0
100
AcDb3dPolyline
10
0.0
20
0.0
30
0.0
70
8
75
0
210
0.0
220
0.0
230
1.0
0
VERTEX
5
368
100
AcDbEntity
8
Markers-One
62
41
420
14737632
100
AcDbVertex
100
AcDb3dPolylineVertex
10
157600.0
20
4010.0
30
0.0
70
32
0
VERTEX
5
369
100
AcDbEntity
8
Markers-One
62
41
420
14737632
100
AcDbVertex
100
AcDb3dPolylineVertex
10
157600.0
20
4015.0
30
0.0
70
32
0
SEQEND
5
36A
100
AcDbEntity
8
Markers-One
0
TEXT
5
36C
330
1B
100
AcDbEntity
67
0
8
Chainage Text
62
9
6
ByLayer
370
15
48
1.0
60
0
100
AcDbText
1
157+600
10
157600.0
20
4020.0
30
0.0
40
14.0
41
1.0
50
90.0
51
0.0
7
True type font
11
157600.0
21
4020.0
31
0.0
210
0.0
220
0.0
230
1.0
72
0
100
AcDbText
73
0
0
POLYLINE
5
370
330
1B
100
AcDbEntity
67
0
8
Markers-One
62
41
420
14737632
6
Dashed
370
0
48
1.0
60
0
100
AcDb3dPolyline
10
0.0
20
0.0
30
0.0
70
8
75
0
210
0.0
220
0.0
230
1.0
0
VERTEX
5
36D
100
AcDbEntity
8
Markers-One
62
41
420
14737632
100
AcDbVertex
100
AcDb3dPolylineVertex
10
157700.0
20
4010.0
30
0.0
70
32
0
VERTEX
5
36E
100
AcDbEntity
8
Markers-One
62
41
420
14737632
100
AcDbVertex
100
AcDb3dPolylineVertex
10
157700.0
20
4015.0
30
0.0
70
32
0
SEQEND
5
36F
100
AcDbEntity
8
Markers-One
0
TEXT
5
371
330
1B
100
AcDbEntity
67
0
8
Chainage Text
62
9
6
ByLayer
370
15
48
1.0
60
0
100
AcDbText
1
157+700
10
157700.0
20
4020.0
30
0.0
40
14.0
41
1.0
50
90.0
51
0.0
7
True type font
11
157700.0
21
4020.0
31
0.0
210
0.0
220
0.0
230
1.0
72
0
100
AcDbText
73
0
0
POLYLINE
5
375
330
1B
100
AcDbEntity
67
0
8
Markers-One
62
41
420
14737632
6
Dashed
370
0
48
1.0
60
0
100
AcDb3dPolyline
10
0.0
20
0.0
30
0.0
70
8
75
0
210
0.0
220
0.0
230
1.0
0
VERTEX
5
372
100
AcDbEntity
8
Markers-One
62
41
420
14737632
100
AcDbVertex
100
AcDb3dPolylineVertex
10
157800.0
20
4010.0
30
0.0
70
32
0
VERTEX
5
373
100
AcDbEntity
8
Markers-One
62
41
420
14737632
100
AcDbVertex
100
AcDb3dPolylineVertex
10
157800.0
20
4015.0
30
0.0
70
32
0
SEQEND
5
374
100
AcDbEntity
8
Markers-One
0
TEXT
5
376
330
1B
100
AcDbEntity
67
0
8
Chainage Text
62
9
6
ByLayer
370
15
48
1.0
60
0
100
AcDbText
1
157+800
10
157800.0
20
4020.0
30
0.0
40
14.0
41
1.0
50
90.0
51
0.0
7
True type font
11
157800.0
21
4020.0
31
0.0
210
0.0
220
0.0
230
1.0
72
0
100
AcDbText
73
0
0
POLYLINE
5
37A
330
1B
100
AcDbEntity
67
0
8
Markers-One
62
41
420
14737632
6
Dashed
370
0
48
1.0
60
0
100
AcDb3dPolyline
10
0.0
20
0.0
30
0.0
70
8
75
0
210
0.0
220
0.0
230
1.0
0
VERTEX
5
377
100
AcDbEntity
8
Markers-One
62
41
420
14737632
100
AcDbVertex
100
AcDb3dPolylineVertex
10
157900.0
20
4010.0
30
0.0
70
32
0
VERTEX
5
378
100
AcDbEntity
8
Markers-One
62
41
420
14737632
100
AcDbVertex
100
AcDb3dPolylineVertex
10
157900.0
20
4015.0
30
0.0
70
32
0
SEQEND
5
379
100
AcDbEntity
8
Markers-One
0
TEXT
5
37B
330
1B
100
AcDbEntity
67
0
8
Chainage Text
62
9
6
ByLayer
370
15
48
1.0
60
0
100
AcDbText
1
157+900
10
157900.0
20
4020.0
30
0.0
40
14.0
41
1.0
50
90.0
51
0.0
7
True type font
11
157900.0
21
4020.0
31
0.0
210
0.0
220
0.0
230
1.0
72
0
100
AcDbText
73
0
0
POLYLINE
5
37F
330
1B
100
AcDbEntity
67
0
8
Markers-One
62
41
420
14737632
6
Dashed
370
0
48
1.0
60
0
100
AcDb3dPolyline
10
0.0
20
0.0
30
0.0
70
8
75
0
210
0.0
220
0.0
230
1.0
0
VERTEX
5
37C
100
AcDbEntity
8
Markers-One
62
41
420
14737632
100
AcDbVertex
100
AcDb3dPolylineVertex
10
158000.0
20
4010.0
30
0.0
70
32
0
VERTEX
5
37D
100
AcDbEntity
8
Markers-One
62
41
420
14737632
100
AcDbVertex
100
AcDb3dPolylineVertex
10
158000.0
20
4015.0
30
0.0
70
32
0
SEQEND
5
37E
100
AcDbEntity
8
Markers-One
0
TEXT
5
380
330
1B
100
AcDbEntity
67
0
8
Chainage Text
62
9
6
ByLayer
370
15
48
1.0
60
0
100
AcDbText
1
158+000
10
158000.0
20
4020.0
30
0.0
40
14.0
41
1.0
50
90.0
51
0.0
7
True type font
11
158000.0
21
4020.0
31
0.0
210
0.0
220
0.0
230
1.0
72
0
100
AcDbText
73
0
0
POLYLINE
5
384
330
1B
100
AcDbEntity
67
0
8
Markers-One
62
41
420
14737632
6
Dashed
370
0
48
1.0
60
0
100
AcDb3dPolyline
10
0.0
20
0.0
30
0.0
70
8
75
0
210
0.0
220
0.0
230
1.0
0
VERTEX
5
381
100
AcDbEntity
8
Markers-One
62
41
420
14737632
100
AcDbVertex
100
AcDb3dPolylineVertex
10
158100.0
20
4010.0
30
0.0
70
32
0
VERTEX
5
382
100
AcDbEntity
8
Markers-One
62
41
420
14737632
100
AcDbVertex
100
AcDb3dPolylineVertex
10
158100.0
20
4015.0
30
0.0
70
32
0
SEQEND
5
383
100
AcDbEntity
8
Markers-One
0
TEXT
5
385
330
1B
100
AcDbEntity
67
0
8
Chainage Text
62
9
6
ByLayer
370
15
48
1.0
60
0
100
AcDbText
1
158+100
10
158100.0
20
4020.0
30
0.0
40
14.0
41
1.0
50
90.0
51
0.0
7
True type font
11
158100.0
21
4020.0
31
0.0
210
0.0
220
0.0
230
1.0
72
0
100
AcDbText
73
0
0
POLYLINE
5
389
330
1B
100
AcDbEntity
67
0
8
Markers-One
62
41
420
14737632
6
Dashed
370
0
48
1.0
60
0
100
AcDb3dPolyline
10
0.0
20
0.0
30
0.0
70
8
75
0
210
0.0
220
0.0
230
1.0
0
VERTEX
5
386
100
AcDbEntity
8
Markers-One
62
41
420
14737632
100
AcDbVertex
100
AcDb3dPolylineVertex
10
158200.0
20
4010.0
30
0.0
70
32
0
VERTEX
5
387
100
AcDbEntity
8
Markers-One
62
41
420
14737632
100
AcDbVertex
100
AcDb3dPolylineVertex
10
158200.0
20
4015.0
30
0.0
70
32
0
SEQEND
5
388
100
AcDbEntity
8
Markers-One
0
TEXT
5
38A
330
1B
100
AcDbEntity
67
0
8
Chainage Text
62
9
6
ByLayer
370
15
48
1.0
60
0
100
AcDbText
1
158+200
10
158200.0
20
4020.0
30
0.0
40
14.0
41
1.0
50
90.0
51
0.0
7
True type font
11
158200.0
21
4020.0
31
0.0
210
0.0
220
0.0
230
1.0
72
0
100
AcDbText
73
0
0
POLYLINE
5
38E
330
1B
100
AcDbEntity
67
0
8
Markers-One
62
41
420
14737632
6
Dashed
370
0
48
1.0
60
0
100
AcDb3dPolyline
10
0.0
20
0.0
30
0.0
70
8
75
0
210
0.0
220
0.0
230
1.0
0
VERTEX
5
38B
100
AcDbEntity
8
Markers-One
62
41
420
14737632
100
AcDbVertex
100
AcDb3dPolylineVertex
10
158300.0
20
4010.0
30
0.0
70
32
0
VERTEX
5
38C
100
AcDbEntity
8
Markers-One
62
41
420
14737632
100
AcDbVertex
100
AcDb3dPolylineVertex
10
158300.0
20
4015.0
30
0.0
70
32
0
SEQEND
5
38D
100
AcDbEntity
8
Markers-One
0
TEXT
5
38F
330
1B
100
AcDbEntity
67
0
8
Chainage Text
62
9
6
ByLayer
370
15
48
1.0
60
0
100
AcDbText
1
158+300
10
158300.0
20
4020.0
30
0.0
40
14.0
41
1.0
50
90.0
51
0.0
7
True type font
11
158300.0
21
4020.0
31
0.0
210
0.0
220
0.0
230
1.0
72
0
100
AcDbText
73
0
0
POLYLINE
5
393
330
1B
100
AcDbEntity
67
0
8
Markers-One
62
41
420
14737632
6
Dashed
370
0
48
1.0
60
0
100
AcDb3dPolyline
10
0.0
20
0.0
30
0.0
70
8
75
0
210
0.0
220
0.0
230
1.0
0
VERTEX
5
390
100
AcDbEntity
8
Markers-One
62
41
420
14737632
100
AcDbVertex
100
AcDb3dPolylineVertex
10
158400.0
20
4010.0
30
0.0
70
32
0
VERTEX
5
391
100
AcDbEntity
8
Markers-One
62
41
420
14737632
100
AcDbVertex
100
AcDb3dPolylineVertex
10
158400.0
20
4015.0
30
0.0
70
32
0
SEQEND
5
392
100
AcDbEntity
8
Markers-One
0
TEXT
5
394
330
1B
100
AcDbEntity
67
0
8
Chainage Text
62
9
6
ByLayer
370
15
48
1.0
60
0
100
AcDbText
1
158+400
10
158400.0
20
4020.0
30
0.0
40
14.0
41
1.0
50
90.0
51
0.0
7
True type font
11
158400.0
21
4020.0
31
0.0
210
0.0
220
0.0
230
1.0
72
0
100
AcDbText
73
0
0
POLYLINE
5
398
330
1B
100
AcDbEntity
67
0
8
Markers-One
62
41
420
14737632
6
Dashed
370
0
48
1.0
60
0
100
AcDb3dPolyline
10
0.0
20
0.0
30
0.0
70
8
75
0
210
0.0
220
0.0
230
1.0
0
VERTEX
5
395
100
AcDbEntity
8
Markers-One
62
41
420
14737632
100
AcDbVertex
100
AcDb3dPolylineVertex
10
158500.0
20
4010.0
30
0.0
70
32
0
VERTEX
5
396
100
AcDbEntity
8
Markers-One
62
41
420
14737632
100
AcDbVertex
100
AcDb3dPolylineVertex
10
158500.0
20
4015.0
30
0.0
70
32
0
SEQEND
5
397
100
AcDbEntity
8
Markers-One
0
TEXT
5
399
330
1B
100
AcDbEntity
67
0
8
Chainage Text
62
9
6
ByLayer
370
15
48
1.0
60
0
100
AcDbText
1
158+500
10
158500.0
20
4020.0
30
0.0
40
14.0
41
1.0
50
90.0
51
0.0
7
True type font
11
158500.0
21
4020.0
31
0.0
210
0.0
220
0.0
230
1.0
72
0
100
AcDbText
73
0
0
POLYLINE
5
39D
330
1B
100
AcDbEntity
67
0
8
Markers-One
62
41
420
14737632
6
Dashed
370
0
48
1.0
60
0
100
AcDb3dPolyline
10
0.0
20
0.0
30
0.0
70
8
75
0
210
0.0
220
0.0
230
1.0
0
VERTEX
5
39A
100
AcDbEntity
8
Markers-One
62
41
420
14737632
100
AcDbVertex
100
AcDb3dPolylineVertex
10
158600.0
20
4010.0
30
0.0
70
32
0
VERTEX
5
39B
100
AcDbEntity
8
Markers-One
62
41
420
14737632
100
AcDbVertex
100
AcDb3dPolylineVertex
10
158600.0
20
4015.0
30
0.0
70
32
0
SEQEND
5
39C
100
AcDbEntity
8
Markers-One
0
TEXT
5
39E
330
1B
100
AcDbEntity
67
0
8
Chainage Text
62
9
6
ByLayer
370
15
48
1.0
60
0
100
AcDbText
1
158+600
10
158600.0
20
4020.0
30
0.0
40
14.0
41
1.0
50
90.0
51
0.0
7
True type font
11
158600.0
21
4020.0
31
0.0
210
0.0
220
0.0
230
1.0
72
0
100
AcDbText
73
0
0
POLYLINE
5
3A2
330
1B
100
AcDbEntity
67
0
8
Markers-One
62
41
420
14737632
6
Dashed
370
0
48
1.0
60
0
100
AcDb3dPolyline
10
0.0
20
0.0
30
0.0
70
8
75
0
210
0.0
220
0.0
230
1.0
0
VERTEX
5
39F
100
AcDbEntity
8
Markers-One
62
41
420
14737632
100
AcDbVertex
100
AcDb3dPolylineVertex
10
158700.0
20
4010.0
30
0.0
70
32
0
VERTEX
5
3A0
100
AcDbEntity
8
Markers-One
62
41
420
14737632
100
AcDbVertex
100
AcDb3dPolylineVertex
10
158700.0
20
4015.0
30
0.0
70
32
0
SEQEND
5
3A1
100
AcDbEntity
8
Markers-One
0
TEXT
5
3A3
330
1B
100
AcDbEntity
67
0
8
Chainage Text
62
9
6
ByLayer
370
15
48
1.0
60
0
100
AcDbText
1
158+700
10
158700.0
20
4020.0
30
0.0
40
14.0
41
1.0
50
90.0
51
0.0
7
True type font
11
158700.0
21
4020.0
31
0.0
210
0.0
220
0.0
230
1.0
72
0
100
AcDbText
73
0
0
POLYLINE
5
3A7
330
1B
100
AcDbEntity
67
0
8
Markers-One
62
41
420
14737632
6
Dashed
370
0
48
1.0
60
0
100
AcDb3dPolyline
10
0.0
20
0.0
30
0.0
70
8
75
0
210
0.0
220
0.0
230
1.0
0
VERTEX
5
3A4
100
AcDbEntity
8
Markers-One
62
41
420
14737632
100
AcDbVertex
100
AcDb3dPolylineVertex
10
158800.0
20
4010.0
30
0.0
70
32
0
VERTEX
5
3A5
100
AcDbEntity
8
Markers-One
62
41
420
14737632
100
AcDbVertex
100
AcDb3dPolylineVertex
10
158800.0
20
4015.0
30
0.0
70
32
0
SEQEND
5
3A6
100
AcDbEntity
8
Markers-One
0
TEXT
5
3A8
330
1B
100
AcDbEntity
67
0
8
Chainage Text
62
9
6
ByLayer
370
15
48
1.0
60
0
100
AcDbText
1
158+800
10
158800.0
20
4020.0
30
0.0
40
14.0
41
1.0
50
90.0
51
0.0
7
True type font
11
158800.0
21
4020.0
31
0.0
210
0.0
220
0.0
230
1.0
72
0
100
AcDbText
73
0
0
POLYLINE
5
3AC
330
1B
100
AcDbEntity
67
0
8
Markers-One
62
41
420
14737632
6
Dashed
370
0
48
1.0
60
0
100
AcDb3dPolyline
10
0.0
20
0.0
30
0.0
70
8
75
0
210
0.0
220
0.0
230
1.0
0
VERTEX
5
3A9
100
AcDbEntity
8
Markers-One
62
41
420
14737632
100
AcDbVertex
100
AcDb3dPolylineVertex
10
158900.0
20
4010.0
30
0.0
70
32
0
VERTEX
5
3AA
100
AcDbEntity
8
Markers-One
62
41
420
14737632
100
AcDbVertex
100
AcDb3dPolylineVertex
10
158900.0
20
4015.0
30
0.0
70
32
0
SEQEND
5
3AB
100
AcDbEntity
8
Markers-One
0
TEXT
5
3AD
330
1B
100
AcDbEntity
67
0
8
Chainage Text
62
9
6
ByLayer
370
15
48
1.0
60
0
100
AcDbText
1
158+900
10
158900.0
20
4020.0
30
0.0
40
14.0
41
1.0
50
90.0
51
0.0
7
True type font
11
158900.0
21
4020.0
31
0.0
210
0.0
220
0.0
230
1.0
72
0
100
AcDbText
73
0
0
POLYLINE
5
3B1
330
1B
100
AcDbEntity
67
0
8
Markers-One
62
41
420
14737632
6
Dashed
370
0
48
1.0
60
0
100
AcDb3dPolyline
10
0.0
20
0.0
30
0.0
70
8
75
0
210
0.0
220
0.0
230
1.0
0
VERTEX
5
3AE
100
AcDbEntity
8
Markers-One
62
41
420
14737632
100
AcDbVertex
100
AcDb3dPolylineVertex
10
159000.0
20
4010.0
30
0.0
70
32
0
VERTEX
5
3AF
100
AcDbEntity
8
Markers-One
62
41
420
14737632
100
AcDbVertex
100
AcDb3dPolylineVertex
10
159000.0
20
4015.0
30
0.0
70
32
0
SEQEND
5
3B0
100
AcDbEntity
8
Markers-One
0
TEXT
5
3B2
330
1B
100
AcDbEntity
67
0
8
Chainage Text
62
9
6
ByLayer
370
15
48
1.0
60
0
100
AcDbText
1
159+000
10
159000.0
20
4020.0
30
0.0
40
14.0
41
1.0
50
90.0
51
0.0
7
True type font
11
159000.0
21
4020.0
31
0.0
210
0.0
220
0.0
230
1.0
72
0
100
AcDbText
73
0
0
POLYLINE
5
3B6
330
1B
100
AcDbEntity
67
0
8
Markers-One
62
41
420
14737632
6
Dashed
370
0
48
1.0
60
0
100
AcDb3dPolyline
10
0.0
20
0.0
30
0.0
70
8
75
0
210
0.0
220
0.0
230
1.0
0
VERTEX
5
3B3
100
AcDbEntity
8
Markers-One
62
41
420
14737632
100
AcDbVertex
100
AcDb3dPolylineVertex
10
159100.0
20
4010.0
30
0.0
70
32
0
VERTEX
5
3B4
100
AcDbEntity
8
Markers-One
62
41
420
14737632
100
AcDbVertex
100
AcDb3dPolylineVertex
10
159100.0
20
4015.0
30
0.0
70
32
0
SEQEND
5
3B5
100
AcDbEntity
8
Markers-One
0
TEXT
5
3B7
330
1B
100
AcDbEntity
67
0
8
Chainage Text
62
9
6
ByLayer
370
15
48
1.0
60
0
100
AcDbText
1
159+100
10
159100.0
20
4020.0
30
0.0
40
14.0
41
1.0
50
90.0
51
0.0
7
True type font
11
159100.0
21
4020.0
31
0.0
210
0.0
220
0.0
230
1.0
72
0
100
AcDbText
73
0
0
POLYLINE
5
3BB
330
1B
100
AcDbEntity
67
0
8
Markers-One
62
41
420
14737632
6
Dashed
370
0
48
1.0
60
0
100
AcDb3dPolyline
10
0.0
20
0.0
30
0.0
70
8
75
0
210
0.0
220
0.0
230
1.0
0
VERTEX
5
3B8
100
AcDbEntity
8
Markers-One
62
41
420
14737632
100
AcDbVertex
100
AcDb3dPolylineVertex
10
159200.0
20
4010.0
30
0.0
70
32
0
VERTEX
5
3B9
100
AcDbEntity
8
Markers-One
62
41
420
14737632
100
AcDbVertex
100
AcDb3dPolylineVertex
10
159200.0
20
4015.0
30
0.0
70
32
0
SEQEND
5
3BA
100
AcDbEntity
8
Markers-One
0
TEXT
5
3BC
330
1B
100
AcDbEntity
67
0
8
Chainage Text
62
9
6
ByLayer
370
15
48
1.0
60
0
100
AcDbText
1
159+200
10
159200.0
20
4020.0
30
0.0
40
14.0
41
1.0
50
90.0
51
0.0
7
True type font
11
159200.0
21
4020.0
31
0.0
210
0.0
220
0.0
230
1.0
72
0
100
AcDbText
73
0
0
POLYLINE
5
3C0
330
1B
100
AcDbEntity
67
0
8
Markers-One
62
41
420
14737632
6
Dashed
370
0
48
1.0
60
0
100
AcDb3dPolyline
10
0.0
20
0.0
30
0.0
70
8
75
0
210
0.0
220
0.0
230
1.0
0
VERTEX
5
3BD
100
AcDbEntity
8
Markers-One
62
41
420
14737632
100
AcDbVertex
100
AcDb3dPolylineVertex
10
159300.0
20
4010.0
30
0.0
70
32
0
VERTEX
5
3BE
100
AcDbEntity
8
Markers-One
62
41
420
14737632
100
AcDbVertex
100
AcDb3dPolylineVertex
10
159300.0
20
4015.0
30
0.0
70
32
0
SEQEND
5
3BF
100
AcDbEntity
8
Markers-One
0
TEXT
5
3C1
330
1B
100
AcDbEntity
67
0
8
Chainage Text
62
9
6
ByLayer
370
15
48
1.0
60
0
100
AcDbText
1
159+300
10
159300.0
20
4020.0
30
0.0
40
14.0
41
1.0
50
90.0
51
0.0
7
True type font
11
159300.0
21
4020.0
31
0.0
210
0.0
220
0.0
230
1.0
72
0
100
AcDbText
73
0
0
POLYLINE
5
3C5
330
1B
100
AcDbEntity
67
0
8
Markers-One
62
41
420
14737632
6
Dashed
370
0
48
1.0
60
0
100
AcDb3dPolyline
10
0.0
20
0.0
30
0.0
70
8
75
0
210
0.0
220
0.0
230
1.0
0
VERTEX
5
3C2
100
AcDbEntity
8
Markers-One
62
41
420
14737632
100
AcDbVertex
100
AcDb3dPolylineVertex
10
159400.0
20
4010.0
30
0.0
70
32
0
VERTEX
5
3C3
100
AcDbEntity
8
Markers-One
62
41
420
14737632
100
AcDbVertex
100
AcDb3dPolylineVertex
10
159400.0
20
4015.0
30
0.0
70
32
0
SEQEND
5
3C4
100
AcDbEntity
8
Markers-One
0
TEXT
5
3C6
330
1B
100
AcDbEntity
67
0
8
Chainage Text
62
9
6
ByLayer
370
15
48
1.0
60
0
100
AcDbText
1
159+400
10
159400.0
20
4020.0
30
0.0
40
14.0
41
1.0
50
90.0
51
0.0
7
True type font
11
159400.0
21
4020.0
31
0.0
210
0.0
220
0.0
230
1.0
72
0
100
AcDbText
73
0
0
POLYLINE
5
3CA
330
1B
100
AcDbEntity
67
0
8
Markers-One
62
41
420
14737632
6
Dashed
370
0
48
1.0
60
0
100
AcDb3dPolyline
10
0.0
20
0.0
30
0.0
70
8
75
0
210
0.0
220
0.0
230
1.0
0
VERTEX
5
3C7
100
AcDbEntity
8
Markers-One
62
41
420
14737632
100
AcDbVertex
100
AcDb3dPolylineVertex
10
159500.0
20
4010.0
30
0.0
70
32
0
VERTEX
5
3C8
100
AcDbEntity
8
Markers-One
62
41
420
14737632
100
AcDbVertex
100
AcDb3dPolylineVertex
10
159500.0
20
4015.0
30
0.0
70
32
0
SEQEND
5
3C9
100
AcDbEntity
8
Markers-One
0
TEXT
5
3CB
330
1B
100
AcDbEntity
67
0
8
Chainage Text
62
9
6
ByLayer
370
15
48
1.0
60
0
100
AcDbText
1
159+500
10
159500.0
20
4020.0
30
0.0
40
14.0
41
1.0
50
90.0
51
0.0
7
True type font
11
159500.0
21
4020.0
31
0.0
210
0.0
220
0.0
230
1.0
72
0
100
AcDbText
73
0
0
POLYLINE
5
3CF
330
1B
100
AcDbEntity
67
0
8
Markers-One
62
41
420
14737632
6
Dashed
370
0
48
1.0
60
0
100
AcDb3dPolyline
10
0.0
20
0.0
30
0.0
70
8
75
0
210
0.0
220
0.0
230
1.0
0
VERTEX
5
3CC
100
AcDbEntity
8
Markers-One
62
41
420
14737632
100
AcDbVertex
100
AcDb3dPolylineVertex
10
159600.0
20
4010.0
30
0.0
70
32
0
VERTEX
5
3CD
100
AcDbEntity
8
Markers-One
62
41
420
14737632
100
AcDbVertex
100
AcDb3dPolylineVertex
10
159600.0
20
4015.0
30
0.0
70
32
0
SEQEND
5
3CE
100
AcDbEntity
8
Markers-One
0
TEXT
5
3D0
330
1B
100
AcDbEntity
67
0
8
Chainage Text
62
9
6
ByLayer
370
15
48
1.0
60
0
100
AcDbText
1
159+600
10
159600.0
20
4020.0
30
0.0
40
14.0
41
1.0
50
90.0
51
0.0
7
True type font
11
159600.0
21
4020.0
31
0.0
210
0.0
220
0.0
230
1.0
72
0
100
AcDbText
73
0
0
POLYLINE
5
3D4
330
1B
100
AcDbEntity
67
0
8
Markers-One
62
41
420
14737632
6
Dashed
370
0
48
1.0
60
0
100
AcDb3dPolyline
10
0.0
20
0.0
30
0.0
70
8
75
0
210
0.0
220
0.0
230
1.0
0
VERTEX
5
3D1
100
AcDbEntity
8
Markers-One
62
41
420
14737632
100
AcDbVertex
100
AcDb3dPolylineVertex
10
159700.0
20
4010.0
30
0.0
70
32
0
VERTEX
5
3D2
100
AcDbEntity
8
Markers-One
62
41
420
14737632
100
AcDbVertex
100
AcDb3dPolylineVertex
10
159700.0
20
4015.0
30
0.0
70
32
0
SEQEND
5
3D3
100
AcDbEntity
8
Markers-One
0
TEXT
5
3D5
330
1B
100
AcDbEntity
67
0
8
Chainage Text
62
9
6
ByLayer
370
15
48
1.0
60
0
100
AcDbText
1
159+700
10
159700.0
20
4020.0
30
0.0
40
14.0
41
1.0
50
90.0
51
0.0
7
True type font
11
159700.0
21
4020.0
31
0.0
210
0.0
220
0.0
230
1.0
72
0
100
AcDbText
73
0
0
POLYLINE
5
3D9
330
1B
100
AcDbEntity
67
0
8
Markers-One
62
41
420
14737632
6
Dashed
370
0
48
1.0
60
0
100
AcDb3dPolyline
10
0.0
20
0.0
30
0.0
70
8
75
0
210
0.0
220
0.0
230
1.0
0
VERTEX
5
3D6
100
AcDbEntity
8
Markers-One
62
41
420
14737632
100
AcDbVertex
100
AcDb3dPolylineVertex
10
159800.0
20
4010.0
30
0.0
70
32
0
VERTEX
5
3D7
100
AcDbEntity
8
Markers-One
62
41
420
14737632
100
AcDbVertex
100
AcDb3dPolylineVertex
10
159800.0
20
4015.0
30
0.0
70
32
0
SEQEND
5
3D8
100
AcDbEntity
8
Markers-One
0
TEXT
5
3DA
330
1B
100
AcDbEntity
67
0
8
Chainage Text
62
9
6
ByLayer
370
15
48
1.0
60
0
100
AcDbText
1
159+800
10
159800.0
20
4020.0
30
0.0
40
14.0
41
1.0
50
90.0
51
0.0
7
True type font
11
159800.0
21
4020.0
31
0.0
210
0.0
220
0.0
230
1.0
72
0
100
AcDbText
73
0
0
POLYLINE
5
3DE
330
1B
100
AcDbEntity
67
0
8
Markers-One
62
41
420
14737632
6
Dashed
370
0
48
1.0
60
0
100
AcDb3dPolyline
10
0.0
20
0.0
30
0.0
70
8
75
0
210
0.0
220
0.0
230
1.0
0
VERTEX
5
3DB
100
AcDbEntity
8
Markers-One
62
41
420
14737632
100
AcDbVertex
100
AcDb3dPolylineVertex
10
159900.0
20
4010.0
30
0.0
70
32
0
VERTEX
5
3DC
100
AcDbEntity
8
Markers-One
62
41
420
14737632
100
AcDbVertex
100
AcDb3dPolylineVertex
10
159900.0
20
4015.0
30
0.0
70
32
0
SEQEND
5
3DD
100
AcDbEntity
8
Markers-One
0
TEXT
5
3DF
330
1B
100
AcDbEntity
67
0
8
Chainage Text
62
9
6
ByLayer
370
15
48
1.0
60
0
100
AcDbText
1
159+900
10
159900.0
20
4020.0
30
0.0
40
14.0
41
1.0
50
90.0
51
0.0
7
True type font
11
159900.0
21
4020.0
31
0.0
210
0.0
220
0.0
230
1.0
72
0
100
AcDbText
73
0
0
POLYLINE
5
3E3
330
1B
100
AcDbEntity
67
0
8
Markers-One
62
41
420
14737632
6
Dashed
370
0
48
1.0
60
0
100
AcDb3dPolyline
10
0.0
20
0.0
30
0.0
70
8
75
0
210
0.0
220
0.0
230
1.0
0
VERTEX
5
3E0
100
AcDbEntity
8
Markers-One
62
41
420
14737632
100
AcDbVertex
100
AcDb3dPolylineVertex
10
160000.0
20
4010.0
30
0.0
70
32
0
VERTEX
5
3E1
100
AcDbEntity
8
Markers-One
62
41
420
14737632
100
AcDbVertex
100
AcDb3dPolylineVertex
10
160000.0
20
4015.0
30
0.0
70
32
0
SEQEND
5
3E2
100
AcDbEntity
8
Markers-One
0
TEXT
5
3E4
330
1B
100
AcDbEntity
67
0
8
Chainage Text
62
9
6
ByLayer
370
15
48
1.0
60
0
100
AcDbText
1
160+000
10
160000.0
20
4020.0
30
0.0
40
14.0
41
1.0
50
90.0
51
0.0
7
True type font
11
160000.0
21
4020.0
31
0.0
210
0.0
220
0.0
230
1.0
72
0
100
AcDbText
73
0
0
POLYLINE
5
3E8
330
1B
100
AcDbEntity
67
0
8
Markers-One
62
41
420
14737632
6
Dashed
370
0
48
1.0
60
0
100
AcDb3dPolyline
10
0.0
20
0.0
30
0.0
70
8
75
0
210
0.0
220
0.0
230
1.0
0
VERTEX
5
3E5
100
AcDbEntity
8
Markers-One
62
41
420
14737632
100
AcDbVertex
100
AcDb3dPolylineVertex
10
160100.0
20
4010.0
30
0.0
70
32
0
VERTEX
5
3E6
100
AcDbEntity
8
Markers-One
62
41
420
14737632
100
AcDbVertex
100
AcDb3dPolylineVertex
10
160100.0
20
4015.0
30
0.0
70
32
0
SEQEND
5
3E7
100
AcDbEntity
8
Markers-One
0
TEXT
5
3E9
330
1B
100
AcDbEntity
67
0
8
Chainage Text
62
9
6
ByLayer
370
15
48
1.0
60
0
100
AcDbText
1
160+100
10
160100.0
20
4020.0
30
0.0
40
14.0
41
1.0
50
90.0
51
0.0
7
True type font
11
160100.0
21
4020.0
31
0.0
210
0.0
220
0.0
230
1.0
72
0
100
AcDbText
73
0
0
POLYLINE
5
3ED
330
1B
100
AcDbEntity
67
0
8
Markers-One
62
41
420
14737632
6
Dashed
370
0
48
1.0
60
0
100
AcDb3dPolyline
10
0.0
20
0.0
30
0.0
70
8
75
0
210
0.0
220
0.0
230
1.0
0
VERTEX
5
3EA
100
AcDbEntity
8
Markers-One
62
41
420
14737632
100
AcDbVertex
100
AcDb3dPolylineVertex
10
160200.0
20
4010.0
30
0.0
70
32
0
VERTEX
5
3EB
100
AcDbEntity
8
Markers-One
62
41
420
14737632
100
AcDbVertex
100
AcDb3dPolylineVertex
10
160200.0
20
4015.0
30
0.0
70
32
0
SEQEND
5
3EC
100
AcDbEntity
8
Markers-One
0
TEXT
5
3EE
330
1B
100
AcDbEntity
67
0
8
Chainage Text
62
9
6
ByLayer
370
15
48
1.0
60
0
100
AcDbText
1
160+200
10
160200.0
20
4020.0
30
0.0
40
14.0
41
1.0
50
90.0
51
0.0
7
True type font
11
160200.0
21
4020.0
31
0.0
210
0.0
220
0.0
230
1.0
72
0
100
AcDbText
73
0
0
POLYLINE
5
3F2
330
1B
100
AcDbEntity
67
0
8
Markers-One
62
41
420
14737632
6
Dashed
370
0
48
1.0
60
0
100
AcDb3dPolyline
10
0.0
20
0.0
30
0.0
70
8
75
0
210
0.0
220
0.0
230
1.0
0
VERTEX
5
3EF
100
AcDbEntity
8
Markers-One
62
41
420
14737632
100
AcDbVertex
100
AcDb3dPolylineVertex
10
160300.0
20
4010.0
30
0.0
70
32
0
VERTEX
5
3F0
100
AcDbEntity
8
Markers-One
62
41
420
14737632
100
AcDbVertex
100
AcDb3dPolylineVertex
10
160300.0
20
4015.0
30
0.0
70
32
0
SEQEND
5
3F1
100
AcDbEntity
8
Markers-One
0
TEXT
5
3F3
330
1B
100
AcDbEntity
67
0
8
Chainage Text
62
9
6
ByLayer
370
15
48
1.0
60
0
100
AcDbText
1
160+300
10
160300.0
20
4020.0
30
0.0
40
14.0
41
1.0
50
90.0
51
0.0
7
True type font
11
160300.0
21
4020.0
31
0.0
210
0.0
220
0.0
230
1.0
72
0
100
AcDbText
73
0
0
POLYLINE
5
3F7
330
1B
100
AcDbEntity
67
0
8
Markers-One
62
41
420
14737632
6
Dashed
370
0
48
1.0
60
0
100
AcDb3dPolyline
10
0.0
20
0.0
30
0.0
70
8
75
0
210
0.0
220
0.0
230
1.0
0
VERTEX
5
3F4
100
AcDbEntity
8
Markers-One
62
41
420
14737632
100
AcDbVertex
100
AcDb3dPolylineVertex
10
160400.0
20
4010.0
30
0.0
70
32
0
VERTEX
5
3F5
100
AcDbEntity
8
Markers-One
62
41
420
14737632
100
AcDbVertex
100
AcDb3dPolylineVertex
10
160400.0
20
4015.0
30
0.0
70
32
0
SEQEND
5
3F6
100
AcDbEntity
8
Markers-One
0
TEXT
5
3F8
330
1B
100
AcDbEntity
67
0
8
Chainage Text
62
9
6
ByLayer
370
15
48
1.0
60
0
100
AcDbText
1
160+400
10
160400.0
20
4020.0
30
0.0
40
14.0
41
1.0
50
90.0
51
0.0
7
True type font
11
160400.0
21
4020.0
31
0.0
210
0.0
220
0.0
230
1.0
72
0
100
AcDbText
73
0
0
POLYLINE
5
3FC
330
1B
100
AcDbEntity
67
0
8
Markers-One
62
41
420
14737632
6
Dashed
370
0
48
1.0
60
0
100
AcDb3dPolyline
10
0.0
20
0.0
30
0.0
70
8
75
0
210
0.0
220
0.0
230
1.0
0
VERTEX
5
3F9
100
AcDbEntity
8
Markers-One
62
41
420
14737632
100
AcDbVertex
100
AcDb3dPolylineVertex
10
160500.0
20
4010.0
30
0.0
70
32
0
VERTEX
5
3FA
100
AcDbEntity
8
Markers-One
62
41
420
14737632
100
AcDbVertex
100
AcDb3dPolylineVertex
10
160500.0
20
4015.0
30
0.0
70
32
0
SEQEND
5
3FB
100
AcDbEntity
8
Markers-One
0
TEXT
5
3FD
330
1B
100
AcDbEntity
67
0
8
Chainage Text
62
9
6
ByLayer
370
15
48
1.0
60
0
100
AcDbText
1
160+500
10
160500.0
20
4020.0
30
0.0
40
14.0
41
1.0
50
90.0
51
0.0
7
True type font
11
160500.0
21
4020.0
31
0.0
210
0.0
220
0.0
230
1.0
72
0
100
AcDbText
73
0
0
POLYLINE
5
401
330
1B
100
AcDbEntity
67
0
8
Markers-One
62
41
420
14737632
6
Dashed
370
0
48
1.0
60
0
100
AcDb3dPolyline
10
0.0
20
0.0
30
0.0
70
8
75
0
210
0.0
220
0.0
230
1.0
0
VERTEX
5
3FE
100
AcDbEntity
8
Markers-One
62
41
420
14737632
100
AcDbVertex
100
AcDb3dPolylineVertex
10
160600.0
20
4010.0
30
0.0
70
32
0
VERTEX
5
3FF
100
AcDbEntity
8
Markers-One
62
41
420
14737632
100
AcDbVertex
100
AcDb3dPolylineVertex
10
160600.0
20
4015.0
30
0.0
70
32
0
SEQEND
5
400
100
AcDbEntity
8
Markers-One
0
TEXT
5
402
330
1B
100
AcDbEntity
67
0
8
Chainage Text
62
9
6
ByLayer
370
15
48
1.0
60
0
100
AcDbText
1
160+600
10
160600.0
20
4020.0
30
0.0
40
14.0
41
1.0
50
90.0
51
0.0
7
True type font
11
160600.0
21
4020.0
31
0.0
210
0.0
220
0.0
230
1.0
72
0
100
AcDbText
73
0
0
POLYLINE
5
406
330
1B
100
AcDbEntity
67
0
8
Markers-One
62
41
420
14737632
6
Dashed
370
0
48
1.0
60
0
100
AcDb3dPolyline
10
0.0
20
0.0
30
0.0
70
8
75
0
210
0.0
220
0.0
230
1.0
0
VERTEX
5
403
100
AcDbEntity
8
Markers-One
62
41
420
14737632
100
AcDbVertex
100
AcDb3dPolylineVertex
10
160700.0
20
4010.0
30
0.0
70
32
0
VERTEX
5
404
100
AcDbEntity
8
Markers-One
62
41
420
14737632
100
AcDbVertex
100
AcDb3dPolylineVertex
10
160700.0
20
4015.0
30
0.0
70
32
0
SEQEND
5
405
100
AcDbEntity
8
Markers-One
0
TEXT
5
407
330
1B
100
AcDbEntity
67
0
8
Chainage Text
62
9
6
ByLayer
370
15
48
1.0
60
0
100
AcDbText
1
160+700
10
160700.0
20
4020.0
30
0.0
40
14.0
41
1.0
50
90.0
51
0.0
7
True type font
11
160700.0
21
4020.0
31
0.0
210
0.0
220
0.0
230
1.0
72
0
100
AcDbText
73
0
0
POLYLINE
5
40B
330
1B
100
AcDbEntity
67
0
8
Markers-One
62
41
420
14737632
6
Dashed
370
0
48
1.0
60
0
100
AcDb3dPolyline
10
0.0
20
0.0
30
0.0
70
8
75
0
210
0.0
220
0.0
230
1.0
0
VERTEX
5
408
100
AcDbEntity
8
Markers-One
62
41
420
14737632
100
AcDbVertex
100
AcDb3dPolylineVertex
10
160800.0
20
4010.0
30
0.0
70
32
0
VERTEX
5
409
100
AcDbEntity
8
Markers-One
62
41
420
14737632
100
AcDbVertex
100
AcDb3dPolylineVertex
10
160800.0
20
4015.0
30
0.0
70
32
0
SEQEND
5
40A
100
AcDbEntity
8
Markers-One
0
TEXT
5
40C
330
1B
100
AcDbEntity
67
0
8
Chainage Text
62
9
6
ByLayer
370
15
48
1.0
60
0
100
AcDbText
1
160+800
10
160800.0
20
4020.0
30
0.0
40
14.0
41
1.0
50
90.0
51
0.0
7
True type font
11
160800.0
21
4020.0
31
0.0
210
0.0
220
0.0
230
1.0
72
0
100
AcDbText
73
0
0
POLYLINE
5
410
330
1B
100
AcDbEntity
67
0
8
Markers-One
62
41
420
14737632
6
Dashed
370
0
48
1.0
60
0
100
AcDb3dPolyline
10
0.0
20
0.0
30
0.0
70
8
75
0
210
0.0
220
0.0
230
1.0
0
VERTEX
5
40D
100
AcDbEntity
8
Markers-One
62
41
420
14737632
100
AcDbVertex
100
AcDb3dPolylineVertex
10
160900.0
20
4010.0
30
0.0
70
32
0
VERTEX
5
40E
100
AcDbEntity
8
Markers-One
62
41
420
14737632
100
AcDbVertex
100
AcDb3dPolylineVertex
10
160900.0
20
4015.0
30
0.0
70
32
0
SEQEND
5
40F
100
AcDbEntity
8
Markers-One
0
TEXT
5
411
330
1B
100
AcDbEntity
67
0
8
Chainage Text
62
9
6
ByLayer
370
15
48
1.0
60
0
100
AcDbText
1
160+900
10
160900.0
20
4020.0
30
0.0
40
14.0
41
1.0
50
90.0
51
0.0
7
True type font
11
160900.0
21
4020.0
31
0.0
210
0.0
220
0.0
230
1.0
72
0
100
AcDbText
73
0
0
POLYLINE
5
415
330
1B
100
AcDbEntity
67
0
8
Markers-One
62
41
420
14737632
6
Dashed
370
0
48
1.0
60
0
100
AcDb3dPolyline
10
0.0
20
0.0
30
0.0
70
8
75
0
210
0.0
220
0.0
230
1.0
0
VERTEX
5
412
100
AcDbEntity
8
Markers-One
62
41
420
14737632
100
AcDbVertex
100
AcDb3dPolylineVertex
10
161000.0
20
4010.0
30
0.0
70
32
0
VERTEX
5
413
100
AcDbEntity
8
Markers-One
62
41
420
14737632
100
AcDbVertex
100
AcDb3dPolylineVertex
10
161000.0
20
4015.0
30
0.0
70
32
0
SEQEND
5
414
100
AcDbEntity
8
Markers-One
0
TEXT
5
416
330
1B
100
AcDbEntity
67
0
8
Chainage Text
62
9
6
ByLayer
370
15
48
1.0
60
0
100
AcDbText
1
161+000
10
161000.0
20
4020.0
30
0.0
40
14.0
41
1.0
50
90.0
51
0.0
7
True type font
11
161000.0
21
4020.0
31
0.0
210
0.0
220
0.0
230
1.0
72
0
100
AcDbText
73
0
0
POLYLINE
5
41A
330
1B
100
AcDbEntity
67
0
8
Markers-One
62
41
420
14737632
6
Dashed
370
0
48
1.0
60
0
100
AcDb3dPolyline
10
0.0
20
0.0
30
0.0
70
8
75
0
210
0.0
220
0.0
230
1.0
0
VERTEX
5
417
100
AcDbEntity
8
Markers-One
62
41
420
14737632
100
AcDbVertex
100
AcDb3dPolylineVertex
10
161100.0
20
4010.0
30
0.0
70
32
0
VERTEX
5
418
100
AcDbEntity
8
Markers-One
62
41
420
14737632
100
AcDbVertex
100
AcDb3dPolylineVertex
10
161100.0
20
4015.0
30
0.0
70
32
0
SEQEND
5
419
100
AcDbEntity
8
Markers-One
0
TEXT
5
41B
330
1B
100
AcDbEntity
67
0
8
Chainage Text
62
9
6
ByLayer
370
15
48
1.0
60
0
100
AcDbText
1
161+100
10
161100.0
20
4020.0
30
0.0
40
14.0
41
1.0
50
90.0
51
0.0
7
True type font
11
161100.0
21
4020.0
31
0.0
210
0.0
220
0.0
230
1.0
72
0
100
AcDbText
73
0
0
POLYLINE
5
41F
330
1B
100
AcDbEntity
67
0
8
Markers-One
62
41
420
14737632
6
Dashed
370
0
48
1.0
60
0
100
AcDb3dPolyline
10
0.0
20
0.0
30
0.0
70
8
75
0
210
0.0
220
0.0
230
1.0
0
VERTEX
5
41C
100
AcDbEntity
8
Markers-One
62
41
420
14737632
100
AcDbVertex
100
AcDb3dPolylineVertex
10
161200.0
20
4010.0
30
0.0
70
32
0
VERTEX
5
41D
100
AcDbEntity
8
Markers-One
62
41
420
14737632
100
AcDbVertex
100
AcDb3dPolylineVertex
10
161200.0
20
4015.0
30
0.0
70
32
0
SEQEND
5
41E
100
AcDbEntity
8
Markers-One
0
TEXT
5
420
330
1B
100
AcDbEntity
67
0
8
Chainage Text
62
9
6
ByLayer
370
15
48
1.0
60
0
100
AcDbText
1
161+200
10
161200.0
20
4020.0
30
0.0
40
14.0
41
1.0
50
90.0
51
0.0
7
True type font
11
161200.0
21
4020.0
31
0.0
210
0.0
220
0.0
230
1.0
72
0
100
AcDbText
73
0
0
POLYLINE
5
424
330
1B
100
AcDbEntity
67
0
8
Markers-One
62
41
420
14737632
6
Dashed
370
0
48
1.0
60
0
100
AcDb3dPolyline
10
0.0
20
0.0
30
0.0
70
8
75
0
210
0.0
220
0.0
230
1.0
0
VERTEX
5
421
100
AcDbEntity
8
Markers-One
62
41
420
14737632
100
AcDbVertex
100
AcDb3dPolylineVertex
10
161300.0
20
4010.0
30
0.0
70
32
0
VERTEX
5
422
100
AcDbEntity
8
Markers-One
62
41
420
14737632
100
AcDbVertex
100
AcDb3dPolylineVertex
10
161300.0
20
4015.0
30
0.0
70
32
0
SEQEND
5
423
100
AcDbEntity
8
Markers-One
0
TEXT
5
425
330
1B
100
AcDbEntity
67
0
8
Chainage Text
62
9
6
ByLayer
370
15
48
1.0
60
0
100
AcDbText
1
161+300
10
161300.0
20
4020.0
30
0.0
40
14.0
41
1.0
50
90.0
51
0.0
7
True type font
11
161300.0
21
4020.0
31
0.0
210
0.0
220
0.0
230
1.0
72
0
100
AcDbText
73
0
0
POLYLINE
5
429
330
1B
100
AcDbEntity
67
0
8
Markers-One
62
41
420
14737632
6
Dashed
370
0
48
1.0
60
0
100
AcDb3dPolyline
10
0.0
20
0.0
30
0.0
70
8
75
0
210
0.0
220
0.0
230
1.0
0
VERTEX
5
426
100
AcDbEntity
8
Markers-One
62
41
420
14737632
100
AcDbVertex
100
AcDb3dPolylineVertex
10
161400.0
20
4010.0
30
0.0
70
32
0
VERTEX
5
427
100
AcDbEntity
8
Markers-One
62
41
420
14737632
100
AcDbVertex
100
AcDb3dPolylineVertex
10
161400.0
20
4015.0
30
0.0
70
32
0
SEQEND
5
428
100
AcDbEntity
8
Markers-One
0
TEXT
5
42A
330
1B
100
AcDbEntity
67
0
8
Chainage Text
62
9
6
ByLayer
370
15
48
1.0
60
0
100
AcDbText
1
161+400
10
161400.0
20
4020.0
30
0.0
40
14.0
41
1.0
50
90.0
51
0.0
7
True type font
11
161400.0
21
4020.0
31
0.0
210
0.0
220
0.0
230
1.0
72
0
100
AcDbText
73
0
0
POLYLINE
5
42E
330
1B
100
AcDbEntity
67
0
8
Markers-One
62
41
420
14737632
6
Dashed
370
0
48
1.0
60
0
100
AcDb3dPolyline
10
0.0
20
0.0
30
0.0
70
8
75
0
210
0.0
220
0.0
230
1.0
0
VERTEX
5
42B
100
AcDbEntity
8
Markers-One
62
41
420
14737632
100
AcDbVertex
100
AcDb3dPolylineVertex
10
161500.0
20
4010.0
30
0.0
70
32
0
VERTEX
5
42C
100
AcDbEntity
8
Markers-One
62
41
420
14737632
100
AcDbVertex
100
AcDb3dPolylineVertex
10
161500.0
20
4015.0
30
0.0
70
32
0
SEQEND
5
42D
100
AcDbEntity
8
Markers-One
0
TEXT
5
42F
330
1B
100
AcDbEntity
67
0
8
Chainage Text
62
9
6
ByLayer
370
15
48
1.0
60
0
100
AcDbText
1
161+500
10
161500.0
20
4020.0
30
0.0
40
14.0
41
1.0
50
90.0
51
0.0
7
True type font
11
161500.0
21
4020.0
31
0.0
210
0.0
220
0.0
230
1.0
72
0
100
AcDbText
73
0
0
POLYLINE
5
433
330
1B
100
AcDbEntity
67
0
8
Markers-One
62
41
420
14737632
6
Dashed
370
0
48
1.0
60
0
100
AcDb3dPolyline
10
0.0
20
0.0
30
0.0
70
8
75
0
210
0.0
220
0.0
230
1.0
0
VERTEX
5
430
100
AcDbEntity
8
Markers-One
62
41
420
14737632
100
AcDbVertex
100
AcDb3dPolylineVertex
10
161600.0
20
4010.0
30
0.0
70
32
0
VERTEX
5
431
100
AcDbEntity
8
Markers-One
62
41
420
14737632
100
AcDbVertex
100
AcDb3dPolylineVertex
10
161600.0
20
4015.0
30
0.0
70
32
0
SEQEND
5
432
100
AcDbEntity
8
Markers-One
0
TEXT
5
434
330
1B
100
AcDbEntity
67
0
8
Chainage Text
62
9
6
ByLayer
370
15
48
1.0
60
0
100
AcDbText
1
161+600
10
161600.0
20
4020.0
30
0.0
40
14.0
41
1.0
50
90.0
51
0.0
7
True type font
11
161600.0
21
4020.0
31
0.0
210
0.0
220
0.0
230
1.0
72
0
100
AcDbText
73
0
0
POLYLINE
5
438
330
1B
100
AcDbEntity
67
0
8
Markers-One
62
41
420
14737632
6
Dashed
370
0
48
1.0
60
0
100
AcDb3dPolyline
10
0.0
20
0.0
30
0.0
70
8
75
0
210
0.0
220
0.0
230
1.0
0
VERTEX
5
435
100
AcDbEntity
8
Markers-One
62
41
420
14737632
100
AcDbVertex
100
AcDb3dPolylineVertex
10
161700.0
20
4010.0
30
0.0
70
32
0
VERTEX
5
436
100
AcDbEntity
8
Markers-One
62
41
420
14737632
100
AcDbVertex
100
AcDb3dPolylineVertex
10
161700.0
20
4015.0
30
0.0
70
32
0
SEQEND
5
437
100
AcDbEntity
8
Markers-One
0
TEXT
5
439
330
1B
100
AcDbEntity
67
0
8
Chainage Text
62
9
6
ByLayer
370
15
48
1.0
60
0
100
AcDbText
1
161+700
10
161700.0
20
4020.0
30
0.0
40
14.0
41
1.0
50
90.0
51
0.0
7
True type font
11
161700.0
21
4020.0
31
0.0
210
0.0
220
0.0
230
1.0
72
0
100
AcDbText
73
0
0
POLYLINE
5
43D
330
1B
100
AcDbEntity
67
0
8
Markers-One
62
41
420
14737632
6
Dashed
370
0
48
1.0
60
0
100
AcDb3dPolyline
10
0.0
20
0.0
30
0.0
70
8
75
0
210
0.0
220
0.0
230
1.0
0
VERTEX
5
43A
100
AcDbEntity
8
Markers-One
62
41
420
14737632
100
AcDbVertex
100
AcDb3dPolylineVertex
10
161800.0
20
4010.0
30
0.0
70
32
0
VERTEX
5
43B
100
AcDbEntity
8
Markers-One
62
41
420
14737632
100
AcDbVertex
100
AcDb3dPolylineVertex
10
161800.0
20
4015.0
30
0.0
70
32
0
SEQEND
5
43C
100
AcDbEntity
8
Markers-One
0
TEXT
5
43E
330
1B
100
AcDbEntity
67
0
8
Chainage Text
62
9
6
ByLayer
370
15
48
1.0
60
0
100
AcDbText
1
161+800
10
161800.0
20
4020.0
30
0.0
40
14.0
41
1.0
50
90.0
51
0.0
7
True type font
11
161800.0
21
4020.0
31
0.0
210
0.0
220
0.0
230
1.0
72
0
100
AcDbText
73
0
0
POLYLINE
5
442
330
1B
100
AcDbEntity
67
0
8
Markers-One
62
41
420
14737632
6
Dashed
370
0
48
1.0
60
0
100
AcDb3dPolyline
10
0.0
20
0.0
30
0.0
70
8
75
0
210
0.0
220
0.0
230
1.0
0
VERTEX
5
43F
100
AcDbEntity
8
Markers-One
62
41
420
14737632
100
AcDbVertex
100
AcDb3dPolylineVertex
10
161900.0
20
4010.0
30
0.0
70
32
0
VERTEX
5
440
100
AcDbEntity
8
Markers-One
62
41
420
14737632
100
AcDbVertex
100
AcDb3dPolylineVertex
10
161900.0
20
4015.0
30
0.0
70
32
0
SEQEND
5
441
100
AcDbEntity
8
Markers-One
0
TEXT
5
443
330
1B
100
AcDbEntity
67
0
8
Chainage Text
62
9
6
ByLayer
370
15
48
1.0
60
0
100
AcDbText
1
161+900
10
161900.0
20
4020.0
30
0.0
40
14.0
41
1.0
50
90.0
51
0.0
7
True type font
11
161900.0
21
4020.0
31
0.0
210
0.0
220
0.0
230
1.0
72
0
100
AcDbText
73
0
0
POLYLINE
5
447
330
1B
100
AcDbEntity
67
0
8
Markers-One
62
41
420
14737632
6
Dashed
370
0
48
1.0
60
0
100
AcDb3dPolyline
10
0.0
20
0.0
30
0.0
70
8
75
0
210
0.0
220
0.0
230
1.0
0
VERTEX
5
444
100
AcDbEntity
8
Markers-One
62
41
420
14737632
100
AcDbVertex
100
AcDb3dPolylineVertex
10
162000.0
20
4010.0
30
0.0
70
32
0
VERTEX
5
445
100
AcDbEntity
8
Markers-One
62
41
420
14737632
100
AcDbVertex
100
AcDb3dPolylineVertex
10
162000.0
20
4015.0
30
0.0
70
32
0
SEQEND
5
446
100
AcDbEntity
8
Markers-One
0
TEXT
5
448
330
1B
100
AcDbEntity
67
0
8
Chainage Text
62
9
6
ByLayer
370
15
48
1.0
60
0
100
AcDbText
1
162+000
10
162000.0
20
4020.0
30
0.0
40
14.0
41
1.0
50
90.0
51
0.0
7
True type font
11
162000.0
21
4020.0
31
0.0
210
0.0
220
0.0
230
1.0
72
0
100
AcDbText
73
0
0
POLYLINE
5
44C
330
1B
100
AcDbEntity
67
0
8
Markers-One
62
41
420
14737632
6
Dashed
370
0
48
1.0
60
0
100
AcDb3dPolyline
10
0.0
20
0.0
30
0.0
70
8
75
0
210
0.0
220
0.0
230
1.0
0
VERTEX
5
449
100
AcDbEntity
8
Markers-One
62
41
420
14737632
100
AcDbVertex
100
AcDb3dPolylineVertex
10
162100.0
20
4010.0
30
0.0
70
32
0
VERTEX
5
44A
100
AcDbEntity
8
Markers-One
62
41
420
14737632
100
AcDbVertex
100
AcDb3dPolylineVertex
10
162100.0
20
4015.0
30
0.0
70
32
0
SEQEND
5
44B
100
AcDbEntity
8
Markers-One
0
TEXT
5
44D
330
1B
100
AcDbEntity
67
0
8
Chainage Text
62
9
6
ByLayer
370
15
48
1.0
60
0
100
AcDbText
1
162+100
10
162100.0
20
4020.0
30
0.0
40
14.0
41
1.0
50
90.0
51
0.0
7
True type font
11
162100.0
21
4020.0
31
0.0
210
0.0
220
0.0
230
1.0
72
0
100
AcDbText
73
0
0
POLYLINE
5
451
330
1B
100
AcDbEntity
67
0
8
Markers-One
62
41
420
14737632
6
Dashed
370
0
48
1.0
60
0
100
AcDb3dPolyline
10
0.0
20
0.0
30
0.0
70
8
75
0
210
0.0
220
0.0
230
1.0
0
VERTEX
5
44E
100
AcDbEntity
8
Markers-One
62
41
420
14737632
100
AcDbVertex
100
AcDb3dPolylineVertex
10
162200.0
20
4010.0
30
0.0
70
32
0
VERTEX
5
44F
100
AcDbEntity
8
Markers-One
62
41
420
14737632
100
AcDbVertex
100
AcDb3dPolylineVertex
10
162200.0
20
4015.0
30
0.0
70
32
0
SEQEND
5
450
100
AcDbEntity
8
Markers-One
0
TEXT
5
452
330
1B
100
AcDbEntity
67
0
8
Chainage Text
62
9
6
ByLayer
370
15
48
1.0
60
0
100
AcDbText
1
162+200
10
162200.0
20
4020.0
30
0.0
40
14.0
41
1.0
50
90.0
51
0.0
7
True type font
11
162200.0
21
4020.0
31
0.0
210
0.0
220
0.0
230
1.0
72
0
100
AcDbText
73
0
0
POLYLINE
5
456
330
1B
100
AcDbEntity
67
0
8
Markers-One
62
41
420
14737632
6
Dashed
370
0
48
1.0
60
0
100
AcDb3dPolyline
10
0.0
20
0.0
30
0.0
70
8
75
0
210
0.0
220
0.0
230
1.0
0
VERTEX
5
453
100
AcDbEntity
8
Markers-One
62
41
420
14737632
100
AcDbVertex
100
AcDb3dPolylineVertex
10
162300.0
20
4010.0
30
0.0
70
32
0
VERTEX
5
454
100
AcDbEntity
8
Markers-One
62
41
420
14737632
100
AcDbVertex
100
AcDb3dPolylineVertex
10
162300.0
20
4015.0
30
0.0
70
32
0
SEQEND
5
455
100
AcDbEntity
8
Markers-One
0
TEXT
5
457
330
1B
100
AcDbEntity
67
0
8
Chainage Text
62
9
6
ByLayer
370
15
48
1.0
60
0
100
AcDbText
1
162+300
10
162300.0
20
4020.0
30
0.0
40
14.0
41
1.0
50
90.0
51
0.0
7
True type font
11
162300.0
21
4020.0
31
0.0
210
0.0
220
0.0
230
1.0
72
0
100
AcDbText
73
0
0
POLYLINE
5
45B
330
1B
100
AcDbEntity
67
0
8
Markers-One
62
41
420
14737632
6
Dashed
370
0
48
1.0
60
0
100
AcDb3dPolyline
10
0.0
20
0.0
30
0.0
70
8
75
0
210
0.0
220
0.0
230
1.0
0
VERTEX
5
458
100
AcDbEntity
8
Markers-One
62
41
420
14737632
100
AcDbVertex
100
AcDb3dPolylineVertex
10
162400.0
20
4010.0
30
0.0
70
32
0
VERTEX
5
459
100
AcDbEntity
8
Markers-One
62
41
420
14737632
100
AcDbVertex
100
AcDb3dPolylineVertex
10
162400.0
20
4015.0
30
0.0
70
32
0
SEQEND
5
45A
100
AcDbEntity
8
Markers-One
0
TEXT
5
45C
330
1B
100
AcDbEntity
67
0
8
Chainage Text
62
9
6
ByLayer
370
15
48
1.0
60
0
100
AcDbText
1
162+400
10
162400.0
20
4020.0
30
0.0
40
14.0
41
1.0
50
90.0
51
0.0
7
True type font
11
162400.0
21
4020.0
31
0.0
210
0.0
220
0.0
230
1.0
72
0
100
AcDbText
73
0
0
POLYLINE
5
460
330
1B
100
AcDbEntity
67
0
8
Markers-One
62
41
420
14737632
6
Dashed
370
0
48
1.0
60
0
100
AcDb3dPolyline
10
0.0
20
0.0
30
0.0
70
8
75
0
210
0.0
220
0.0
230
1.0
0
VERTEX
5
45D
100
AcDbEntity
8
Markers-One
62
41
420
14737632
100
AcDbVertex
100
AcDb3dPolylineVertex
10
162500.0
20
4010.0
30
0.0
70
32
0
VERTEX
5
45E
100
AcDbEntity
8
Markers-One
62
41
420
14737632
100
AcDbVertex
100
AcDb3dPolylineVertex
10
162500.0
20
4015.0
30
0.0
70
32
0
SEQEND
5
45F
100
AcDbEntity
8
Markers-One
0
TEXT
5
461
330
1B
100
AcDbEntity
67
0
8
Chainage Text
62
9
6
ByLayer
370
15
48
1.0
60
0
100
AcDbText
1
162+500
10
162500.0
20
4020.0
30
0.0
40
14.0
41
1.0
50
90.0
51
0.0
7
True type font
11
162500.0
21
4020.0
31
0.0
210
0.0
220
0.0
230
1.0
72
0
100
AcDbText
73
0
0
POLYLINE
5
465
330
1B
100
AcDbEntity
67
0
8
Markers-One
62
41
420
14737632
6
Dashed
370
0
48
1.0
60
0
100
AcDb3dPolyline
10
0.0
20
0.0
30
0.0
70
8
75
0
210
0.0
220
0.0
230
1.0
0
VERTEX
5
462
100
AcDbEntity
8
Markers-One
62
41
420
14737632
100
AcDbVertex
100
AcDb3dPolylineVertex
10
162600.0
20
4010.0
30
0.0
70
32
0
VERTEX
5
463
100
AcDbEntity
8
Markers-One
62
41
420
14737632
100
AcDbVertex
100
AcDb3dPolylineVertex
10
162600.0
20
4015.0
30
0.0
70
32
0
SEQEND
5
464
100
AcDbEntity
8
Markers-One
0
TEXT
5
466
330
1B
100
AcDbEntity
67
0
8
Chainage Text
62
9
6
ByLayer
370
15
48
1.0
60
0
100
AcDbText
1
162+600
10
162600.0
20
4020.0
30
0.0
40
14.0
41
1.0
50
90.0
51
0.0
7
True type font
11
162600.0
21
4020.0
31
0.0
210
0.0
220
0.0
230
1.0
72
0
100
AcDbText
73
0
0
POLYLINE
5
46A
330
1B
100
AcDbEntity
67
0
8
Markers-One
62
41
420
14737632
6
Dashed
370
0
48
1.0
60
0
100
AcDb3dPolyline
10
0.0
20
0.0
30
0.0
70
8
75
0
210
0.0
220
0.0
230
1.0
0
VERTEX
5
467
100
AcDbEntity
8
Markers-One
62
41
420
14737632
100
AcDbVertex
100
AcDb3dPolylineVertex
10
162700.0
20
4010.0
30
0.0
70
32
0
VERTEX
5
468
100
AcDbEntity
8
Markers-One
62
41
420
14737632
100
AcDbVertex
100
AcDb3dPolylineVertex
10
162700.0
20
4015.0
30
0.0
70
32
0
SEQEND
5
469
100
AcDbEntity
8
Markers-One
0
TEXT
5
46B
330
1B
100
AcDbEntity
67
0
8
Chainage Text
62
9
6
ByLayer
370
15
48
1.0
60
0
100
AcDbText
1
162+700
10
162700.0
20
4020.0
30
0.0
40
14.0
41
1.0
50
90.0
51
0.0
7
True type font
11
162700.0
21
4020.0
31
0.0
210
0.0
220
0.0
230
1.0
72
0
100
AcDbText
73
0
0
POLYLINE
5
46F
330
1B
100
AcDbEntity
67
0
8
Markers-One
62
41
420
14737632
6
Dashed
370
0
48
1.0
60
0
100
AcDb3dPolyline
10
0.0
20
0.0
30
0.0
70
8
75
0
210
0.0
220
0.0
230
1.0
0
VERTEX
5
46C
100
AcDbEntity
8
Markers-One
62
41
420
14737632
100
AcDbVertex
100
AcDb3dPolylineVertex
10
162800.0
20
4010.0
30
0.0
70
32
0
VERTEX
5
46D
100
AcDbEntity
8
Markers-One
62
41
420
14737632
100
AcDbVertex
100
AcDb3dPolylineVertex
10
162800.0
20
4015.0
30
0.0
70
32
0
SEQEND
5
46E
100
AcDbEntity
8
Markers-One
0
TEXT
5
470
330
1B
100
AcDbEntity
67
0
8
Chainage Text
62
9
6
ByLayer
370
15
48
1.0
60
0
100
AcDbText
1
162+800
10
162800.0
20
4020.0
30
0.0
40
14.0
41
1.0
50
90.0
51
0.0
7
True type font
11
162800.0
21
4020.0
31
0.0
210
0.0
220
0.0
230
1.0
72
0
100
AcDbText
73
0
0
POLYLINE
5
474
330
1B
100
AcDbEntity
67
0
8
Markers-One
62
41
420
14737632
6
Dashed
370
0
48
1.0
60
0
100
AcDb3dPolyline
10
0.0
20
0.0
30
0.0
70
8
75
0
210
0.0
220
0.0
230
1.0
0
VERTEX
5
471
100
AcDbEntity
8
Markers-One
62
41
420
14737632
100
AcDbVertex
100
AcDb3dPolylineVertex
10
162900.0
20
4010.0
30
0.0
70
32
0
VERTEX
5
472
100
AcDbEntity
8
Markers-One
62
41
420
14737632
100
AcDbVertex
100
AcDb3dPolylineVertex
10
162900.0
20
4015.0
30
0.0
70
32
0
SEQEND
5
473
100
AcDbEntity
8
Markers-One
0
TEXT
5
475
330
1B
100
AcDbEntity
67
0
8
Chainage Text
62
9
6
ByLayer
370
15
48
1.0
60
0
100
AcDbText
1
162+900
10
162900.0
20
4020.0
30
0.0
40
14.0
41
1.0
50
90.0
51
0.0
7
True type font
11
162900.0
21
4020.0
31
0.0
210
0.0
220
0.0
230
1.0
72
0
100
AcDbText
73
0
0
POLYLINE
5
479
330
1B
100
AcDbEntity
67
0
8
Markers-One
62
41
420
14737632
6
Dashed
370
0
48
1.0
60
0
100
AcDb3dPolyline
10
0.0
20
0.0
30
0.0
70
8
75
0
210
0.0
220
0.0
230
1.0
0
VERTEX
5
476
100
AcDbEntity
8
Markers-One
62
41
420
14737632
100
AcDbVertex
100
AcDb3dPolylineVertex
10
163000.0
20
4010.0
30
0.0
70
32
0
VERTEX
5
477
100
AcDbEntity
8
Markers-One
62
41
420
14737632
100
AcDbVertex
100
AcDb3dPolylineVertex
10
163000.0
20
4015.0
30
0.0
70
32
0
SEQEND
5
478
100
AcDbEntity
8
Markers-One
0
TEXT
5
47A
330
1B
100
AcDbEntity
67
0
8
Chainage Text
62
9
6
ByLayer
370
15
48
1.0
60
0
100
AcDbText
1
163+000
10
163000.0
20
4020.0
30
0.0
40
14.0
41
1.0
50
90.0
51
0.0
7
True type font
11
163000.0
21
4020.0
31
0.0
210
0.0
220
0.0
230
1.0
72
0
100
AcDbText
73
0
0
POLYLINE
5
47E
330
1B
100
AcDbEntity
67
0
8
Markers-One
62
41
420
14737632
6
Dashed
370
0
48
1.0
60
0
100
AcDb3dPolyline
10
0.0
20
0.0
30
0.0
70
8
75
0
210
0.0
220
0.0
230
1.0
0
VERTEX
5
47B
100
AcDbEntity
8
Markers-One
62
41
420
14737632
100
AcDbVertex
100
AcDb3dPolylineVertex
10
163100.0
20
4010.0
30
0.0
70
32
0
VERTEX
5
47C
100
AcDbEntity
8
Markers-One
62
41
420
14737632
100
AcDbVertex
100
AcDb3dPolylineVertex
10
163100.0
20
4015.0
30
0.0
70
32
0
SEQEND
5
47D
100
AcDbEntity
8
Markers-One
0
TEXT
5
47F
330
1B
100
AcDbEntity
67
0
8
Chainage Text
62
9
6
ByLayer
370
15
48
1.0
60
0
100
AcDbText
1
163+100
10
163100.0
20
4020.0
30
0.0
40
14.0
41
1.0
50
90.0
51
0.0
7
True type font
11
163100.0
21
4020.0
31
0.0
210
0.0
220
0.0
230
1.0
72
0
100
AcDbText
73
0
0
POLYLINE
5
483
330
1B
100
AcDbEntity
67
0
8
Markers-One
62
41
420
14737632
6
Dashed
370
0
48
1.0
60
0
100
AcDb3dPolyline
10
0.0
20
0.0
30
0.0
70
8
75
0
210
0.0
220
0.0
230
1.0
0
VERTEX
5
480
100
AcDbEntity
8
Markers-One
62
41
420
14737632
100
AcDbVertex
100
AcDb3dPolylineVertex
10
163200.0
20
4010.0
30
0.0
70
32
0
VERTEX
5
481
100
AcDbEntity
8
Markers-One
62
41
420
14737632
100
AcDbVertex
100
AcDb3dPolylineVertex
10
163200.0
20
4015.0
30
0.0
70
32
0
SEQEND
5
482
100
AcDbEntity
8
Markers-One
0
TEXT
5
484
330
1B
100
AcDbEntity
67
0
8
Chainage Text
62
9
6
ByLayer
370
15
48
1.0
60
0
100
AcDbText
1
163+200
10
163200.0
20
4020.0
30
0.0
40
14.0
41
1.0
50
90.0
51
0.0
7
True type font
11
163200.0
21
4020.0
31
0.0
210
0.0
220
0.0
230
1.0
72
0
100
AcDbText
73
0
0
POLYLINE
5
488
330
1B
100
AcDbEntity
67
0
8
Markers-One
62
41
420
14737632
6
Dashed
370
0
48
1.0
60
0
100
AcDb3dPolyline
10
0.0
20
0.0
30
0.0
70
8
75
0
210
0.0
220
0.0
230
1.0
0
VERTEX
5
485
100
AcDbEntity
8
Markers-One
62
41
420
14737632
100
AcDbVertex
100
AcDb3dPolylineVertex
10
163300.0
20
4010.0
30
0.0
70
32
0
VERTEX
5
486
100
AcDbEntity
8
Markers-One
62
41
420
14737632
100
AcDbVertex
100
AcDb3dPolylineVertex
10
163300.0
20
4015.0
30
0.0
70
32
0
SEQEND
5
487
100
AcDbEntity
8
Markers-One
0
TEXT
5
489
330
1B
100
AcDbEntity
67
0
8
Chainage Text
62
9
6
ByLayer
370
15
48
1.0
60
0
100
AcDbText
1
163+300
10
163300.0
20
4020.0
30
0.0
40
14.0
41
1.0
50
90.0
51
0.0
7
True type font
11
163300.0
21
4020.0
31
0.0
210
0.0
220
0.0
230
1.0
72
0
100
AcDbText
73
0
0
POLYLINE
5
48D
330
1B
100
AcDbEntity
67
0
8
Markers-One
62
41
420
14737632
6
Dashed
370
0
48
1.0
60
0
100
AcDb3dPolyline
10
0.0
20
0.0
30
0.0
70
8
75
0
210
0.0
220
0.0
230
1.0
0
VERTEX
5
48A
100
AcDbEntity
8
Markers-One
62
41
420
14737632
100
AcDbVertex
100
AcDb3dPolylineVertex
10
163400.0
20
4010.0
30
0.0
70
32
0
VERTEX
5
48B
100
AcDbEntity
8
Markers-One
62
41
420
14737632
100
AcDbVertex
100
AcDb3dPolylineVertex
10
163400.0
20
4015.0
30
0.0
70
32
0
SEQEND
5
48C
100
AcDbEntity
8
Markers-One
0
TEXT
5
48E
330
1B
100
AcDbEntity
67
0
8
Chainage Text
62
9
6
ByLayer
370
15
48
1.0
60
0
100
AcDbText
1
163+400
10
163400.0
20
4020.0
30
0.0
40
14.0
41
1.0
50
90.0
51
0.0
7
True type font
11
163400.0
21
4020.0
31
0.0
210
0.0
220
0.0
230
1.0
72
0
100
AcDbText
73
0
0
POLYLINE
5
492
330
1B
100
AcDbEntity
67
0
8
Markers-One
62
41
420
14737632
6
Dashed
370
0
48
1.0
60
0
100
AcDb3dPolyline
10
0.0
20
0.0
30
0.0
70
8
75
0
210
0.0
220
0.0
230
1.0
0
VERTEX
5
48F
100
AcDbEntity
8
Markers-One
62
41
420
14737632
100
AcDbVertex
100
AcDb3dPolylineVertex
10
163500.0
20
4010.0
30
0.0
70
32
0
VERTEX
5
490
100
AcDbEntity
8
Markers-One
62
41
420
14737632
100
AcDbVertex
100
AcDb3dPolylineVertex
10
163500.0
20
4015.0
30
0.0
70
32
0
SEQEND
5
491
100
AcDbEntity
8
Markers-One
0
TEXT
5
493
330
1B
100
AcDbEntity
67
0
8
Chainage Text
62
9
6
ByLayer
370
15
48
1.0
60
0
100
AcDbText
1
163+500
10
163500.0
20
4020.0
30
0.0
40
14.0
41
1.0
50
90.0
51
0.0
7
True type font
11
163500.0
21
4020.0
31
0.0
210
0.0
220
0.0
230
1.0
72
0
100
AcDbText
73
0
0
POLYLINE
5
497
330
1B
100
AcDbEntity
67
0
8
Markers-One
62
41
420
14737632
6
Dashed
370
0
48
1.0
60
0
100
AcDb3dPolyline
10
0.0
20
0.0
30
0.0
70
8
75
0
210
0.0
220
0.0
230
1.0
0
VERTEX
5
494
100
AcDbEntity
8
Markers-One
62
41
420
14737632
100
AcDbVertex
100
AcDb3dPolylineVertex
10
163600.0
20
4010.0
30
0.0
70
32
0
VERTEX
5
495
100
AcDbEntity
8
Markers-One
62
41
420
14737632
100
AcDbVertex
100
AcDb3dPolylineVertex
10
163600.0
20
4015.0
30
0.0
70
32
0
SEQEND
5
496
100
AcDbEntity
8
Markers-One
0
TEXT
5
498
330
1B
100
AcDbEntity
67
0
8
Chainage Text
62
9
6
ByLayer
370
15
48
1.0
60
0
100
AcDbText
1
163+600
10
163600.0
20
4020.0
30
0.0
40
14.0
41
1.0
50
90.0
51
0.0
7
True type font
11
163600.0
21
4020.0
31
0.0
210
0.0
220
0.0
230
1.0
72
0
100
AcDbText
73
0
0
POLYLINE
5
49C
330
1B
100
AcDbEntity
67
0
8
Markers-One
62
41
420
14737632
6
Dashed
370
0
48
1.0
60
0
100
AcDb3dPolyline
10
0.0
20
0.0
30
0.0
70
8
75
0
210
0.0
220
0.0
230
1.0
0
VERTEX
5
499
100
AcDbEntity
8
Markers-One
62
41
420
14737632
100
AcDbVertex
100
AcDb3dPolylineVertex
10
163700.0
20
4010.0
30
0.0
70
32
0
VERTEX
5
49A
100
AcDbEntity
8
Markers-One
62
41
420
14737632
100
AcDbVertex
100
AcDb3dPolylineVertex
10
163700.0
20
4015.0
30
0.0
70
32
0
SEQEND
5
49B
100
AcDbEntity
8
Markers-One
0
TEXT
5
49D
330
1B
100
AcDbEntity
67
0
8
Chainage Text
62
9
6
ByLayer
370
15
48
1.0
60
0
100
AcDbText
1
163+700
10
163700.0
20
4020.0
30
0.0
40
14.0
41
1.0
50
90.0
51
0.0
7
True type font
11
163700.0
21
4020.0
31
0.0
210
0.0
220
0.0
230
1.0
72
0
100
AcDbText
73
0
0
POLYLINE
5
4A1
330
1B
100
AcDbEntity
67
0
8
Markers-One
62
41
420
14737632
6
Dashed
370
0
48
1.0
60
0
100
AcDb3dPolyline
10
0.0
20
0.0
30
0.0
70
8
75
0
210
0.0
220
0.0
230
1.0
0
VERTEX
5
49E
100
AcDbEntity
8
Markers-One
62
41
420
14737632
100
AcDbVertex
100
AcDb3dPolylineVertex
10
163800.0
20
4010.0
30
0.0
70
32
0
VERTEX
5
49F
100
AcDbEntity
8
Markers-One
62
41
420
14737632
100
AcDbVertex
100
AcDb3dPolylineVertex
10
163800.0
20
4015.0
30
0.0
70
32
0
SEQEND
5
4A0
100
AcDbEntity
8
Markers-One
0
TEXT
5
4A2
330
1B
100
AcDbEntity
67
0
8
Chainage Text
62
9
6
ByLayer
370
15
48
1.0
60
0
100
AcDbText
1
163+800
10
163800.0
20
4020.0
30
0.0
40
14.0
41
1.0
50
90.0
51
0.0
7
True type font
11
163800.0
21
4020.0
31
0.0
210
0.0
220
0.0
230
1.0
72
0
100
AcDbText
73
0
0
POLYLINE
5
4A6
330
1B
100
AcDbEntity
67
0
8
Markers-One
62
41
420
14737632
6
Dashed
370
0
48
1.0
60
0
100
AcDb3dPolyline
10
0.0
20
0.0
30
0.0
70
8
75
0
210
0.0
220
0.0
230
1.0
0
VERTEX
5
4A3
100
AcDbEntity
8
Markers-One
62
41
420
14737632
100
AcDbVertex
100
AcDb3dPolylineVertex
10
163900.0
20
4010.0
30
0.0
70
32
0
VERTEX
5
4A4
100
AcDbEntity
8
Markers-One
62
41
420
14737632
100
AcDbVertex
100
AcDb3dPolylineVertex
10
163900.0
20
4015.0
30
0.0
70
32
0
SEQEND
5
4A5
100
AcDbEntity
8
Markers-One
0
TEXT
5
4A7
330
1B
100
AcDbEntity
67
0
8
Chainage Text
62
9
6
ByLayer
370
15
48
1.0
60
0
100
AcDbText
1
163+900
10
163900.0
20
4020.0
30
0.0
40
14.0
41
1.0
50
90.0
51
0.0
7
True type font
11
163900.0
21
4020.0
31
0.0
210
0.0
220
0.0
230
1.0
72
0
100
AcDbText
73
0
0
POLYLINE
5
4AB
330
1B
100
AcDbEntity
67
0
8
Markers-One
62
41
420
14737632
6
Dashed
370
0
48
1.0
60
0
100
AcDb3dPolyline
10
0.0
20
0.0
30
0.0
70
8
75
0
210
0.0
220
0.0
230
1.0
0
VERTEX
5
4A8
100
AcDbEntity
8
Markers-One
62
41
420
14737632
100
AcDbVertex
100
AcDb3dPolylineVertex
10
164000.0
20
4010.0
30
0.0
70
32
0
VERTEX
5
4A9
100
AcDbEntity
8
Markers-One
62
41
420
14737632
100
AcDbVertex
100
AcDb3dPolylineVertex
10
164000.0
20
4015.0
30
0.0
70
32
0
SEQEND
5
4AA
100
AcDbEntity
8
Markers-One
0
TEXT
5
4AC
330
1B
100
AcDbEntity
67
0
8
Chainage Text
62
9
6
ByLayer
370
15
48
1.0
60
0
100
AcDbText
1
164+000
10
164000.0
20
4020.0
30
0.0
40
14.0
41
1.0
50
90.0
51
0.0
7
True type font
11
164000.0
21
4020.0
31
0.0
210
0.0
220
0.0
230
1.0
72
0
100
AcDbText
73
0
0
POLYLINE
5
4B0
330
1B
100
AcDbEntity
67
0
8
Markers-One
62
41
420
14737632
6
Dashed
370
0
48
1.0
60
0
100
AcDb3dPolyline
10
0.0
20
0.0
30
0.0
70
8
75
0
210
0.0
220
0.0
230
1.0
0
VERTEX
5
4AD
100
AcDbEntity
8
Markers-One
62
41
420
14737632
100
AcDbVertex
100
AcDb3dPolylineVertex
10
164096.0
20
4010.0
30
0.0
70
32
0
VERTEX
5
4AE
100
AcDbEntity
8
Markers-One
62
41
420
14737632
100
AcDbVertex
100
AcDb3dPolylineVertex
10
164096.0
20
4015.0
30
0.0
70
32
0
SEQEND
5
4AF
100
AcDbEntity
8
Markers-One
0
TEXT
5
4B1
330
1B
100
AcDbEntity
67
0
8
Chainage Text
62
9
6
ByLayer
370
15
48
1.0
60
0
100
AcDbText
1
164+096
10
164096.0
20
4020.0
30
0.0
40
14.0
41
1.0
50
90.0
51
0.0
7
True type font
11
164096.0
21
4020.0
31
0.0
210
0.0
220
0.0
230
1.0
72
0
100
AcDbText
73
0
0
POLYLINE
5
4B8
330
1B
100
AcDbEntity
67
0
8
Entity
62
9
6
ByLayer
370
25
48
1.0
60
0
100
AcDb3dPolyline
10
0.0
20
0.0
30
0.0
70
9
75
0
210
0.0
220
0.0
230
1.0
0
VERTEX
5
4B3
100
AcDbEntity
8
Entity
62
9
100
AcDbVertex
100
AcDb3dPolylineVertex
10
157449.0
20
3850.0
30
0.0
70
32
0
VERTEX
5
4B4
100
AcDbEntity
8
Entity
62
9
100
AcDbVertex
100
AcDb3dPolylineVertex
10
157450.0
20
3850.0
30
0.0
70
32
0
VERTEX
5
4B5
100
AcDbEntity
8
Entity
62
9
100
AcDbVertex
100
AcDb3dPolylineVertex
10
157450.0
20
3800.0
30
0.0
70
32
0
VERTEX
5
4B6
100
AcDbEntity
8
Entity
62
9
100
AcDbVertex
100
AcDb3dPolylineVertex
10
157449.0
20
3800.0
30
0.0
70
32
0
SEQEND
5
4B7
100
AcDbEntity
8
Entity
0
TEXT
5
4B9
330
1B
100
AcDbEntity
67
0
8
Entity
62
9
6
ByLayer
370
15
48
1.0
60
0
100
AcDbText
1
BNo.120 Span- 1x Type-RCC Box
10
157459.0
20
3750.0
30
0.0
40
8.0
41
1.0
50
90.0
51
0.0
7
True type font
11
157459.0
21
3750.0
31
0.0
210
0.0
220
0.0
230
1.0
72
0
100
AcDbText
73
0
0
POLYLINE
5
4BF
330
1B
100
AcDbEntity
67
0
8
Entity
62
9
6
ByLayer
370
25
48
1.0
60
0
100
AcDb3dPolyline
10
0.0
20
0.0
30
0.0
70
9
75
0
210
0.0
220
0.0
230
1.0
0
VERTEX
5
4BA
100
AcDbEntity
8
Entity
62
9
100
AcDbVertex
100
AcDb3dPolylineVertex
10
157849.0
20
3850.0
30
0.0
70
32
0
VERTEX
5
4BB
100
AcDbEntity
8
Entity
62
9
100
AcDbVertex
100
AcDb3dPolylineVertex
10
157850.0
20
3850.0
30
0.0
70
32
0
VERTEX
5
4BC
100
AcDbEntity
8
Entity
62
9
100
AcDbVertex
100
AcDb3dPolylineVertex
10
157850.0
20
3800.0
30
0.0
70
32
0
VERTEX
5
4BD
100
AcDbEntity
8
Entity
62
9
100
AcDbVertex
100
AcDb3dPolylineVertex
10
157849.0
20
3800.0
30
0.0
70
32
0
SEQEND
5
4BE
100
AcDbEntity
8
Entity
0
TEXT
5
4C0
330
1B
100
AcDbEntity
67
0
8
Entity
62
9
6
ByLayer
370
15
48
1.0
60
0
100
AcDbText
1
BNo.121 Span- 1x Type-RCC Box
10
157859.0
20
3750.0
30
0.0
40
8.0
41
1.0
50
90.0
51
0.0
7
True type font
11
157859.0
21
3750.0
31
0.0
210
0.0
220
0.0
230
1.0
72
0
100
AcDbText
73
0
0
POLYLINE
5
4C6
330
1B
100
AcDbEntity
67
0
8
Entity
62
9
6
ByLayer
370
25
48
1.0
60
0
100
AcDb3dPolyline
10
0.0
20
0.0
30
0.0
70
9
75
0
210
0.0
220
0.0
230
1.0
0
VERTEX
5
4C1
100
AcDbEntity
8
Entity
62
9
100
AcDbVertex
100
AcDb3dPolylineVertex
10
158140.0
20
3850.0
30
0.0
70
32
0
VERTEX
5
4C2
100
AcDbEntity
8
Entity
62
9
100
AcDbVertex
100
AcDb3dPolylineVertex
10
158159.0
20
3850.0
30
0.0
70
32
0
VERTEX
5
4C3
100
AcDbEntity
8
Entity
62
9
100
AcDbVertex
100
AcDb3dPolylineVertex
10
158159.0
20
3800.0
30
0.0
70
32
0
VERTEX
5
4C4
100
AcDbEntity
8
Entity
62
9
100
AcDbVertex
100
AcDb3dPolylineVertex
10
158140.0
20
3800.0
30
0.0
70
32
0
SEQEND
5
4C5
100
AcDbEntity
8
Entity
0
TEXT
5
4C7
330
1B
100
AcDbEntity
67
0
8
Entity
62
9
6
ByLayer
370
15
48
1.0
60
0
100
AcDbText
1
Bridge No-122 Span- 3X Type-PSC SLAB
10
158150.0
20
3750.0
30
0.0
40
8.0
41
1.0
50
90.0
51
0.0
7
True type font
11
158150.0
21
3750.0
31
0.0
210
0.0
220
0.0
230
1.0
72
0
100
AcDbText
73
0
0
POLYLINE
5
4CD
330
1B
100
AcDbEntity
67
0
8
Entity
62
9
6
ByLayer
370
25
48
1.0
60
0
100
AcDb3dPolyline
10
0.0
20
0.0
30
0.0
70
9
75
0
210
0.0
220
0.0
230
1.0
0
VERTEX
5
4C8
100
AcDbEntity
8
Entity
62
9
100
AcDbVertex
100
AcDb3dPolylineVertex
10
159844.0
20
3850.0
30
0.0
70
32
0
VERTEX
5
4C9
100
AcDbEntity
8
Entity
62
9
100
AcDbVertex
100
AcDb3dPolylineVertex
10
159855.0
20
3850.0
30
0.0
70
32
0
VERTEX
5
4CA
100
AcDbEntity
8
Entity
62
9
100
AcDbVertex
100
AcDb3dPolylineVertex
10
159855.0
20
3800.0
30
0.0
70
32
0
VERTEX
5
4CB
100
AcDbEntity
8
Entity
62
9
100
AcDbVertex
100
AcDb3dPolylineVertex
10
159844.0
20
3800.0
30
0.0
70
32
0
SEQEND
5
4CC
100
AcDbEntity
8
Entity
0
TEXT
5
4CE
330
1B
100
AcDbEntity
67
0
8
Entity
62
9
6
ByLayer
370
15
48
1.0
60
0
100
AcDbText
1
BNo.124 Span- 2x Type-RCC Box
10
159854.0
20
3750.0
30
0.0
40
8.0
41
1.0
50
90.0
51
0.0
7
True type font
11
159854.0
21
3750.0
31
0.0
210
0.0
220
0.0
230
1.0
72
0
100
AcDbText
73
0
0
POLYLINE
5
4D4
330
1B
100
AcDbEntity
67
0
8
Entity
62
9
6
ByLayer
370
25
48
1.0
60
0
100
AcDb3dPolyline
10
0.0
20
0.0
30
0.0
70
9
75
0
210
0.0
220
0.0
230
1.0
0
VERTEX
5
4CF
100
AcDbEntity
8
Entity
62
9
100
AcDbVertex
100
AcDb3dPolylineVertex
10
161948.0
20
3850.0
30
0.0
70
32
0
VERTEX
5
4D0
100
AcDbEntity
8
Entity
62
9
100
AcDbVertex
100
AcDb3dPolylineVertex
10
161951.0
20
3850.0
30
0.0
70
32
0
VERTEX
5
4D1
100
AcDbEntity
8
Entity
62
9
100
AcDbVertex
100
AcDb3dPolylineVertex
10
161951.0
20
3800.0
30
0.0
70
32
0
VERTEX
5
4D2
100
AcDbEntity
8
Entity
62
9
100
AcDbVertex
100
AcDb3dPolylineVertex
10
161948.0
20
3800.0
30
0.0
70
32
0
SEQEND
5
4D3
100
AcDbEntity
8
Entity
0
TEXT
5
4D5
330
1B
100
AcDbEntity
67
0
8
Entity
62
9
6
ByLayer
370
15
48
1.0
60
0
100
AcDbText
1
BNo.125A Span- 1x Type-RCC Box
10
161958.0
20
3750.0
30
0.0
40
8.0
41
1.0
50
90.0
51
0.0
7
True type font
11
161958.0
21
3750.0
31
0.0
210
0.0
220
0.0
230
1.0
72
0
100
AcDbText
73
0
0
POLYLINE
5
4DB
330
1B
100
AcDbEntity
67
0
8
Entity
62
9
6
ByLayer
370
25
48
1.0
60
0
100
AcDb3dPolyline
10
0.0
20
0.0
30
0.0
70
9
75
0
210
0.0
220
0.0
230
1.0
0
VERTEX
5
4D6
100
AcDbEntity
8
Entity
62
9
100
AcDbVertex
100
AcDb3dPolylineVertex
10
162847.0
20
3850.0
30
0.0
70
32
0
VERTEX
5
4D7
100
AcDbEntity
8
Entity
62
9
100
AcDbVertex
100
AcDb3dPolylineVertex
10
162852.0
20
3850.0
30
0.0
70
32
0
VERTEX
5
4D8
100
AcDbEntity
8
Entity
62
9
100
AcDbVertex
100
AcDb3dPolylineVertex
10
162852.0
20
3800.0
30
0.0
70
32
0
VERTEX
5
4D9
100
AcDbEntity
8
Entity
62
9
100
AcDbVertex
100
AcDb3dPolylineVertex
10
162847.0
20
3800.0
30
0.0
70
32
0
SEQEND
5
4DA
100
AcDbEntity
8
Entity
0
TEXT
5
4DC
330
1B
100
AcDbEntity
67
0
8
Entity
62
9
6
ByLayer
370
15
48
1.0
60
0
100
AcDbText
1
BNo.126 Span- 1x Type-RCC Box
10
162857.0
20
3750.0
30
0.0
40
8.0
41
1.0
50
90.0
51
0.0
7
True type font
11
162857.0
21
3750.0
31
0.0
210
0.0
220
0.0
230
1.0
72
0
100
AcDbText
73
0
0
POLYLINE
5
4E1
330
1B
100
AcDbEntity
67
0
8
Block
62
9
6
Dashed
370
0
48
1.0
60
0
100
AcDb3dPolyline
10
0.0
20
0.0
30
0.0
70
8
75
0
210
0.0
220
0.0
230
1.0
0
VERTEX
5
4DE
100
AcDbEntity
8
Block
62
9
100
AcDbVertex
100
AcDb3dPolylineVertex
10
156560.0
20
5000.0
30
0.0
70
32
0
VERTEX
5
4DF
100
AcDbEntity
8
Block
62
9
100
AcDbVertex
100
AcDb3dPolylineVertex
10
156560.0
20
3800.0
30
0.0
70
32
0
SEQEND
5
4E0
100
AcDbEntity
8
Block
0
POLYLINE
5
4E5
330
1B
100
AcDbEntity
67
0
8
Block
62
9
6
Dashed
370
0
48
1.0
60
0
100
AcDb3dPolyline
10
0.0
20
0.0
30
0.0
70
8
75
0
210
0.0
220
0.0
230
1.0
0
VERTEX
5
4E2
100
AcDbEntity
8
Block
62
9
100
AcDbVertex
100
AcDb3dPolylineVertex
10
164096.0
20
5000.0
30
0.0
70
32
0
VERTEX
5
4E3
100
AcDbEntity
8
Block
62
9
100
AcDbVertex
100
AcDb3dPolylineVertex
10
164096.0
20
3800.0
30
0.0
70
32
0
SEQEND
5
4E4
100
AcDbEntity
8
Block
0
POLYLINE
5
4EC
330
1B
100
AcDbEntity
67
0
8
Outer Box
62
9
6
ByLayer
370
5
48
1.0
60
0
100
AcDb3dPolyline
10
0.0
20
0.0
30
0.0
70
9
75
0
210
0.0
220
0.0
230
1.0
0
VERTEX
5
4E7
100
AcDbEntity
8
Outer Box
62
9
100
AcDbVertex
100
AcDb3dPolylineVertex
10
156260.0
20
5000.0
30
0.0
70
32
0
VERTEX
5
4E8
100
AcDbEntity
8
Outer Box
62
9
100
AcDbVertex
100
AcDb3dPolylineVertex
10
164396.0
20
5000.0
30
0.0
70
32
0
VERTEX
5
4E9
100
AcDbEntity
8
Outer Box
62
9
100
AcDbVertex
100
AcDb3dPolylineVertex
10
164396.0
20
3800.0
30
0.0
70
32
0
VERTEX
5
4EA
100
AcDbEntity
8
Outer Box
62
9
100
AcDbVertex
100
AcDb3dPolylineVertex
10
156260.0
20
3800.0
30
0.0
70
32
0
SEQEND
5
4EB
100
AcDbEntity
8
Outer Box
0
VIEWPORT
5
4F1
330
4ED
100
AcDbEntity
67
1
8
0
62
256
6
ByLayer
370
-1
48
1.0
60
0
100
AcDbViewport
10
0.0
20
0.0
30
0.0
40
297.0
41
210.0
68
1
69
1
12
50.0
22
100.0
13
0.0
23
0.0
14
10.0
24
10.0
15
10.0
25
10.0
16
0.0
26
0.0
36
1.0
17
0.0
27
0.0
37
0.0
42
50.0
43
0.0
44
0.0
45
250.0
50
0.0
51
0.0
72
1000
90
819232
110
0.0
120
0.0
130
0.0
111
1.0
121
0.0
131
0.0
112
0.0
122
1.0
132
0.0
0
ENDSEC
0
SECTION
2
OBJECTS
0
DICTIONARY
5
4F6
330
0
100
AcDbDictionary
280
0
281
1
3
ACAD_GROUP
350
4F7
3
ACAD_LAYOUT
350
4F8
3
ACAD_MLINESTYLE
350
4FC
0
DICTIONARY
5
4F7
330
4F6
100
AcDbDictionary
280
0
281
1
0
DICTIONARY
5
4F8
330
4F6
100
AcDbDictionary
280
0
281
1
3
Model
350
1F
3
Layout1
350
4F2
0
DICTIONARY
5
4FC
330
4F6
100
AcDbDictionary
280
0
281
1
3
Standard
350
1A
0
LAYOUT
5
1F
330
4F8
100
AcDbPlotSettings
1

2
none_device
4
ISO_A4_(210.00_x_297.00_MM)
6

40
7.5
41
20.0
42
7.5
43
20.0
44
210.0
45
297.0
46
0.0
47
0.0
48
0.0
49
0.0
140
0.0
141
0.0
142
1.0
143
1.0
70
11952
72
1
73
1
74
1
7

75
0
76
0
77
2
78
300
147
1.0
148
0.0
149
0.0
100
AcDbLayout
1
Model
70
1
71
0
10
-20.0
20
-7.5
11
277.0
21
202.5
12
0.0
22
0.0
32
0.0
14
25.7
24
19.5
34
0.0
15
231.3
25
175.5
35
0.0
146
0.0
13
0.0
23
0.0
33
0.0
16
1.0
26
0.0
36
0.0
17
0.0
27
1.0
37
0.0
76
0
330
1B
0
LAYOUT
5
4F2
330
4F8
100
AcDbPlotSettings
1

2
none_device
4
ISO_A4_(210.00_x_297.00_MM)
6

40
7.5
41
20.0
42
7.5
43
20.0
44
210.0
45
297.0
46
0.0
47
0.0
48
0.0
49
0.0
140
0.0
141
0.0
142
1.0
143
1.0
70
688
72
1
73
1
74
1
7

75
0
76
0
77
2
78
300
147
1.0
148
0.0
149
0.0
100
AcDbLayout
1
Layout1
70
1
71
1
10
-20.0
20
-7.5
11
277.0
21
202.5
12
0.0
22
0.0
32
0.0
14
25.7
24
19.5
34
0.0
15
231.3
25
175.5
35
0.0
146
0.0
13
0.0
23
0.0
33
0.0
16
1.0
26
0.0
36
0.0
17
0.0
27
1.0
37
0.0
76
0
330
4ED
0
MLINESTYLE
5
1A
330
4FC
100
AcDbMlineStyle
2
Standard
70
0
3

62
256
51
90.0
52
90.0
71
2
49
-0.5
62
256
6
ByLayer
49
0.5
62
256
6
ByLayer
0
ENDSEC
0
EOF
