999
Dxf file generated by netDxf https://github.com/haplokuon/netDxf, Copyright(C) 2009-2018 Daniel Carvajal, Licensed under LGPL
0
SECTION
2
HEADER
9
$ACADVER
1
AC1015
9
$DWGCODEPAGE
3
ANSI_1252
9
$HANDSEED
5
4C1
9
$ANGBASE
50
0.0
9
$ANGDIR
70
0
9
$ATTMODE
70
1
9
$AUNITS
70
0
9
$AUPREC
70
0
9
$CECOLOR
62
256
9
$CELTSCALE
40
1.0
9
$CELTYPE
6
ByLayer
9
$CELWEIGHT
370
-1
9
$CLAYER
8
0
9
$CMLJUST
70
0
9
$CMLSCALE
40
20.0
9
$CMLSTYLE
2
Standard
9
$DIMSTYLE
2
Standard
9
$TEXTSIZE
40
2.5
9
$TEXTSTYLE
7
Standard
9
$LUNITS
70
2
9
$LUPREC
70
4
9
$EXTNAMES
290
1
9
$INSBASE
10
0.0
20
0.0
30
0.0
9
$INSUNITS
70
0
9
$LTSCALE
40
1.0
9
$LWDISPLAY
290
0
9
$PDMODE
70
0
9
$PDSIZE
40
0.0
9
$PLINEGEN
70
0
9
$PSLTSCALE
70
1
9
$TDCREATE
40
2458975.43939249
9
$TDUCREATE
40
2458975.21022582
9
$TDUPDATE
40
2458975.43939249
9
$TDUUPDATE
40
2458975.21022582
9
$TDINDWG
40
0.0
9
$UCSORG
10
0.0
20
0.0
30
0.0
9
$UCSXDIR
10
1.0
20
0.0
30
0.0
9
$UCSYDIR
10
0.0
20
1.0
30
0.0
9
$DIMADEC
70
0
9
$DIMALT
70
0
9
$DIMALTD
70
2
9
$DIMALTF
40
25.4
9
$DIMALTRND
40
0.0
9
$DIMALTTD
70
2
9
$DIMALTTZ
70
0
9
$DIMALTU
70
2
9
$DIMALTZ
70
0
9
$DIMAPOST
1
[]
9
$DIMATFIT
70
3
9
$DIMAUNIT
70
0
9
$DIMASZ
40
0.18
9
$DIMAZIN
70
0
9
$DIMSAH
70
0
9
$DIMBLK
1

9
$DIMLDRBLK
1

9
$DIMCEN
40
0.09
9
$DIMCLRD
70
0
9
$DIMCLRE
70
0
9
$DIMCLRT
70
0
9
$DIMDEC
70
4
9
$DIMDLE
40
0.0
9
$DIMDLI
40
0.38
9
$DIMDSEP
70
46
9
$DIMEXE
40
0.18
9
$DIMEXO
40
0.0625
9
$DIMFXLON
70
0
9
$DIMFXL
40
1.0
9
$DIMGAP
40
0.09
9
$DIMJUST
70
0
9
$DIMLFAC
40
1.0
9
$DIMLUNIT
70
2
9
$DIMLWD
70
-2
9
$DIMLWE
70
-2
9
$DIMPOST
1
<>
9
$DIMRND
40
0.0
9
$DIMSCALE
40
1.0
9
$DIMSD1
70
0
9
$DIMSD2
70
0
9
$DIMSE1
70
0
9
$DIMSE2
70
0
9
$DIMSOXD
70
1
9
$DIMTAD
70
0
9
$DIMTDEC
70
4
9
$DIMTFAC
40
1.0
9
$DIMTIH
70
0
9
$DIMTIX
70
0
9
$DIMTM
40
0.0
9
$DIMTMOVE
70
0
9
$DIMTOFL
70
0
9
$DIMTOH
70
0
9
$DIMTOL
70
0
9
$DIMLIM
70
0
9
$DIMTOLJ
70
1
9
$DIMTP
40
0.0
9
$DIMTXT
40
0.18
9
$DIMTXTDIRECTION
70
0
9
$DIMTZIN
70
0
9
$DIMZIN
70
0
9
$DIMFRAC
70
0
9
$DIMLTYPE
6
ByBlock
9
$DIMLTEX1
6
ByBlock
9
$DIMLTEX2
6
ByBlock
0
ENDSEC
0
SECTION
2
CLASSES
0
CLASS
1
RASTERVARIABLES
2
AcDbRasterVariables
3
ISM
90
0
280
0
281
0
0
ENDSEC
0
SECTION
2
TABLES
0
TABLE
2
APPID
5
4
330
0
100
AcDbSymbolTable
70
4
0
APPID
5
18
330
4
100
AcDbSymbolTableRecord
100
AcDbRegAppTableRecord
2
ACAD
70
0
0
APPID
5
4B6
330
4
100
AcDbSymbolTableRecord
100
AcDbRegAppTableRecord
2
AcCmTransparency
70
0
0
APPID
5
4B7
330
4
100
AcDbSymbolTableRecord
100
AcDbRegAppTableRecord
2
GradientColor1ACI
70
0
0
APPID
5
4B8
330
4
100
AcDbSymbolTableRecord
100
AcDbRegAppTableRecord
2
GradientColor2ACI
70
0
0
ENDTAB
0
TABLE
2
VPORT
5
1
330
0
100
AcDbSymbolTable
70
1
0
VPORT
5
2
330
1
100
AcDbSymbolTableRecord
100
AcDbViewportTableRecord
2
*Active
70
0
10
0.0
20
0.0
11
1.0
21
1.0
12
0.0
22
0.0
13
0.0
23
0.0
14
0.5
24
0.5
15
10.0
25
10.0
16
0.0
26
0.0
36
1.0
17
0.0
27
0.0
37
0.0
40
10.0
41
1.0
75
0
76
1
0
ENDTAB
0
TABLE
2
LTYPE
5
6
330
0
100
AcDbSymbolTable
70
4
0
LTYPE
5
14
330
6
100
AcDbSymbolTableRecord
100
AcDbLinetypeTableRecord
2
Continuous
70
0
3
Solid line
72
65
73
0
40
0.0
0
LTYPE
5
15
330
6
100
AcDbSymbolTableRecord
100
AcDbLinetypeTableRecord
2
ByLayer
70
0
3

72
65
73
0
40
0.0
0
LTYPE
5
16
330
6
100
AcDbSymbolTableRecord
100
AcDbLinetypeTableRecord
2
ByBlock
70
0
3

72
65
73
0
40
0.0
0
LTYPE
5
64
330
6
100
AcDbSymbolTableRecord
100
AcDbLinetypeTableRecord
2
Dashed
70
0
3

72
65
73
0
40
0.0
0
ENDTAB
0
TABLE
2
LAYER
5
5
330
0
100
AcDbSymbolTable
70
11
0
LAYER
5
13
330
5
100
AcDbSymbolTableRecord
100
AcDbLayerTableRecord
2
0
70
0
62
7
6
Continuous
290
1
370
-3
390
0
0
LAYER
5
21
330
5
100
AcDbSymbolTableRecord
100
AcDbLayerTableRecord
2
Package
70
0
62
7
6
Continuous
290
1
370
-3
390
0
0
LAYER
5
2A
330
5
100
AcDbSymbolTableRecord
100
AcDbLayerTableRecord
2
Section
70
0
62
7
6
Continuous
290
1
370
-3
390
0
0
LAYER
5
47
330
5
100
AcDbSymbolTableRecord
100
AcDbLayerTableRecord
2
Entity
70
0
62
7
6
Continuous
290
1
370
-3
390
0
0
LAYER
5
63
330
5
100
AcDbSymbolTableRecord
100
AcDbLayerTableRecord
2
Markers-One
70
0
62
7
6
Continuous
290
1
370
-3
390
0
0
LAYER
5
69
330
5
100
AcDbSymbolTableRecord
100
AcDbLayerTableRecord
2
Chainage Text
70
0
62
7
6
Continuous
290
1
370
-3
390
0
0
LAYER
5
1DD
330
5
100
AcDbSymbolTableRecord
100
AcDbLayerTableRecord
2
Activity Names
70
0
62
7
6
Continuous
290
1
370
-3
390
0
0
LAYER
5
1E0
330
5
100
AcDbSymbolTableRecord
100
AcDbLayerTableRecord
2
Activity Lines
70
0
62
7
6
Continuous
290
1
370
-3
390
0
0
LAYER
5
1F7
330
5
100
AcDbSymbolTableRecord
100
AcDbLayerTableRecord
2
Vertical Chainage Lines
70
0
62
7
6
Continuous
290
1
370
-3
390
0
0
LAYER
5
4A0
330
5
100
AcDbSymbolTableRecord
100
AcDbLayerTableRecord
2
Block
70
0
62
7
6
Continuous
290
1
370
-3
390
0
0
LAYER
5
4A9
330
5
100
AcDbSymbolTableRecord
100
AcDbLayerTableRecord
2
Outer Box
70
0
62
7
6
Continuous
290
1
370
-3
390
0
0
ENDTAB
0
TABLE
2
STYLE
5
7
330
0
100
AcDbSymbolTable
70
2
0
STYLE
5
17
330
7
100
AcDbSymbolTableRecord
100
AcDbTextStyleTableRecord
2
Standard
3
simplex.shx
70
0
71
0
40
0.0
41
1.0
42
0.0
50
0.0
0
STYLE
5
29
330
7
100
AcDbSymbolTableRecord
100
AcDbTextStyleTableRecord
2
True type font
3
Arial.ttf
70
0
71
0
40
0.0
41
1.0
42
0.0
50
0.0
0
ENDTAB
0
TABLE
2
DIMSTYLE
5
9
330
0
100
AcDbSymbolTable
70
1
100
AcDbDimStyleTable
0
DIMSTYLE
105
19
330
9
100
AcDbSymbolTableRecord
100
AcDbDimStyleTableRecord
2
Standard
3
<>
4
[]
40
1.0
41
0.18
42
0.0625
43
0.38
44
0.18
45
0.0
46
0.0
47
0.0
49
1.0
70
0
71
0
72
0
73
0
74
0
75
0
76
0
77
0
78
0
79
0
140
0.18
141
0.09
143
25.4
144
1.0
146
1.0
147
0.09
148
0.0
170
0
171
2
172
0
174
0
175
1
176
0
177
0
178
0
179
0
271
4
272
4
273
2
274
2
275
0
276
0
277
2
278
46
279
0
280
0
281
0
282
0
283
1
284
0
285
0
286
0
289
3
290
0
294
0
340
17
173
0
345
16
346
16
347
16
371
-2
372
-2
0
ENDTAB
0
TABLE
2
VIEW
5
3
330
0
100
AcDbSymbolTable
70
0
0
ENDTAB
0
TABLE
2
UCS
5
B
330
0
100
AcDbSymbolTable
70
0
0
ENDTAB
0
TABLE
2
BLOCK_RECORD
5
C
330
0
100
AcDbSymbolTable
70
2
0
BLOCK_RECORD
5
1B
330
C
100
AcDbSymbolTableRecord
100
AcDbBlockTableRecord
2
*Model_Space
340
1F
0
BLOCK_RECORD
5
4B0
330
C
100
AcDbSymbolTableRecord
100
AcDbBlockTableRecord
2
*Paper_Space
340
4B5
0
ENDTAB
0
ENDSEC
0
SECTION
2
BLOCKS
0
BLOCK
5
1D
330
1B
100
AcDbEntity
67
0
8
0
100
AcDbBlockBegin
2
*Model_Space
70
0
10
0.0
20
0.0
30
0.0
3
*Model_Space
0
ENDBLK
5
1C
330
1B
100
AcDbEntity
8
0
100
AcDbBlockEnd
0
BLOCK
5
4B2
330
4B0
100
AcDbEntity
67
1
8
0
100
AcDbBlockBegin
2
*Paper_Space
70
0
10
0.0
20
0.0
30
0.0
3
*Paper_Space
0
ENDBLK
5
4B1
330
4B0
100
AcDbEntity
8
0
100
AcDbBlockEnd
0
ENDSEC
0
SECTION
2
ENTITIES
0
POLYLINE
5
27
330
1B
100
AcDbEntity
67
0
8
Package
62
9
6
ByLayer
370
25
48
1.0
60
0
100
AcDb3dPolyline
10
0.0
20
0.0
30
0.0
70
9
75
0
210
0.0
220
0.0
230
1.0
0
VERTEX
5
22
100
AcDbEntity
8
Package
62
9
100
AcDbVertex
100
AcDb3dPolylineVertex
10
224540.0
20
5000.0
30
0.0
70
32
0
VERTEX
5
23
100
AcDbEntity
8
Package
62
9
100
AcDbVertex
100
AcDb3dPolylineVertex
10
231870.0
20
5000.0
30
0.0
70
32
0
VERTEX
5
24
100
AcDbEntity
8
Package
62
9
100
AcDbVertex
100
AcDb3dPolylineVertex
10
231870.0
20
4950.0
30
0.0
70
32
0
VERTEX
5
25
100
AcDbEntity
8
Package
62
9
100
AcDbVertex
100
AcDb3dPolylineVertex
10
224540.0
20
4950.0
30
0.0
70
32
0
SEQEND
5
26
100
AcDbEntity
8
Package
0
TEXT
5
28
330
1B
100
AcDbEntity
67
0
8
Package
62
8
6
ByLayer
370
15
48
1.0
60
0
100
AcDbText
1
PKG01 - Samakhiyali to Kidiyanagar
10
224550.0
20
4965.0
30
0.0
40
20.0
41
1.0
50
0.0
51
0.0
7
True type font
11
224550.0
21
4965.0
31
0.0
210
0.0
220
0.0
230
1.0
72
0
100
AcDbText
73
0
0
POLYLINE
5
30
330
1B
100
AcDbEntity
67
0
8
Section
62
9
6
ByLayer
370
25
48
1.0
60
0
100
AcDb3dPolyline
10
0.0
20
0.0
30
0.0
70
9
75
0
210
0.0
220
0.0
230
1.0
0
VERTEX
5
2B
100
AcDbEntity
8
Section
62
9
100
AcDbVertex
100
AcDb3dPolylineVertex
10
224540.0
20
4950.0
30
0.0
70
32
0
VERTEX
5
2C
100
AcDbEntity
8
Section
62
9
100
AcDbVertex
100
AcDb3dPolylineVertex
10
231870.0
20
4950.0
30
0.0
70
32
0
VERTEX
5
2D
100
AcDbEntity
8
Section
62
9
100
AcDbVertex
100
AcDb3dPolylineVertex
10
231870.0
20
4900.0
30
0.0
70
32
0
VERTEX
5
2E
100
AcDbEntity
8
Section
62
9
100
AcDbVertex
100
AcDb3dPolylineVertex
10
224540.0
20
4900.0
30
0.0
70
32
0
SEQEND
5
2F
100
AcDbEntity
8
Section
0
TEXT
5
31
330
1B
100
AcDbEntity
67
0
8
Section
62
8
6
ByLayer
370
15
48
1.0
60
0
100
AcDbText
1
P01S5 - Demo Testing  (102+151 to 247+730)
10
224550.0
20
4915.0
30
0.0
40
20.0
41
1.0
50
0.0
51
0.0
7
True type font
11
224550.0
21
4915.0
31
0.0
210
0.0
220
0.0
230
1.0
72
0
100
AcDbText
73
0
0
POLYLINE
5
37
330
1B
100
AcDbEntity
67
0
8
Section
62
9
6
ByLayer
370
25
48
1.0
60
0
100
AcDb3dPolyline
10
0.0
20
0.0
30
0.0
70
9
75
0
210
0.0
220
0.0
230
1.0
0
VERTEX
5
32
100
AcDbEntity
8
Section
62
9
100
AcDbVertex
100
AcDb3dPolylineVertex
10
224540.0
20
4950.0
30
0.0
70
32
0
VERTEX
5
33
100
AcDbEntity
8
Section
62
9
100
AcDbVertex
100
AcDb3dPolylineVertex
10
224540.0
20
4950.0
30
0.0
70
32
0
VERTEX
5
34
100
AcDbEntity
8
Section
62
9
100
AcDbVertex
100
AcDb3dPolylineVertex
10
224540.0
20
4900.0
30
0.0
70
32
0
VERTEX
5
35
100
AcDbEntity
8
Section
62
9
100
AcDbVertex
100
AcDb3dPolylineVertex
10
224540.0
20
4900.0
30
0.0
70
32
0
SEQEND
5
36
100
AcDbEntity
8
Section
0
TEXT
5
38
330
1B
100
AcDbEntity
67
0
8
Section
62
8
6
ByLayer
370
15
48
1.0
60
0
100
AcDbText
1
P1S4 - Section-04- Chitrod-Kidiyanagar (214+140 to 224+540)
10
224550.0
20
4915.0
30
0.0
40
20.0
41
1.0
50
0.0
51
0.0
7
True type font
11
224550.0
21
4915.0
31
0.0
210
0.0
220
0.0
230
1.0
72
0
100
AcDbText
73
0
0
POLYLINE
5
3E
330
1B
100
AcDbEntity
67
0
8
Section
62
9
6
ByLayer
370
25
48
1.0
60
0
100
AcDb3dPolyline
10
0.0
20
0.0
30
0.0
70
9
75
0
210
0.0
220
0.0
230
1.0
0
VERTEX
5
39
100
AcDbEntity
8
Section
62
9
100
AcDbVertex
100
AcDb3dPolylineVertex
10
224540.0
20
4950.0
30
0.0
70
32
0
VERTEX
5
3A
100
AcDbEntity
8
Section
62
9
100
AcDbVertex
100
AcDb3dPolylineVertex
10
231870.0
20
4950.0
30
0.0
70
32
0
VERTEX
5
3B
100
AcDbEntity
8
Section
62
9
100
AcDbVertex
100
AcDb3dPolylineVertex
10
231870.0
20
4900.0
30
0.0
70
32
0
VERTEX
5
3C
100
AcDbEntity
8
Section
62
9
100
AcDbVertex
100
AcDb3dPolylineVertex
10
224540.0
20
4900.0
30
0.0
70
32
0
SEQEND
5
3D
100
AcDbEntity
8
Section
0
TEXT
5
3F
330
1B
100
AcDbEntity
67
0
8
Section
62
8
6
ByLayer
370
15
48
1.0
60
0
100
AcDbText
1
P1S3 - Section-03- Shivlakha- Chitrod (224+540 to 231+870)
10
224550.0
20
4915.0
30
0.0
40
20.0
41
1.0
50
0.0
51
0.0
7
True type font
11
224550.0
21
4915.0
31
0.0
210
0.0
220
0.0
230
1.0
72
0
100
AcDbText
73
0
0
POLYLINE
5
45
330
1B
100
AcDbEntity
67
0
8
Section
62
9
6
ByLayer
370
25
48
1.0
60
0
100
AcDb3dPolyline
10
0.0
20
0.0
30
0.0
70
9
75
0
210
0.0
220
0.0
230
1.0
0
VERTEX
5
40
100
AcDbEntity
8
Section
62
9
100
AcDbVertex
100
AcDb3dPolylineVertex
10
231870.0
20
4950.0
30
0.0
70
32
0
VERTEX
5
41
100
AcDbEntity
8
Section
62
9
100
AcDbVertex
100
AcDb3dPolylineVertex
10
231870.0
20
4950.0
30
0.0
70
32
0
VERTEX
5
42
100
AcDbEntity
8
Section
62
9
100
AcDbVertex
100
AcDb3dPolylineVertex
10
231870.0
20
4900.0
30
0.0
70
32
0
VERTEX
5
43
100
AcDbEntity
8
Section
62
9
100
AcDbVertex
100
AcDb3dPolylineVertex
10
231870.0
20
4900.0
30
0.0
70
32
0
SEQEND
5
44
100
AcDbEntity
8
Section
0
TEXT
5
46
330
1B
100
AcDbEntity
67
0
8
Section
62
8
6
ByLayer
370
15
48
1.0
60
0
100
AcDbText
1
P1S2 - Section-02- Lakadiya- Shivlakha (231+870 to 239+170)
10
231880.0
20
4915.0
30
0.0
40
20.0
41
1.0
50
0.0
51
0.0
7
True type font
11
231880.0
21
4915.0
31
0.0
210
0.0
220
0.0
230
1.0
72
0
100
AcDbText
73
0
0
POLYLINE
5
4D
330
1B
100
AcDbEntity
67
0
8
Entity
62
9
6
ByLayer
370
25
48
1.0
60
0
100
AcDb3dPolyline
10
0.0
20
0.0
30
0.0
70
9
75
0
210
0.0
220
0.0
230
1.0
0
VERTEX
5
48
100
AcDbEntity
8
Entity
62
9
100
AcDbVertex
100
AcDb3dPolylineVertex
10
224540.0
20
4900.0
30
0.0
70
32
0
VERTEX
5
49
100
AcDbEntity
8
Entity
62
9
100
AcDbVertex
100
AcDb3dPolylineVertex
10
225000.0
20
4900.0
30
0.0
70
32
0
VERTEX
5
4A
100
AcDbEntity
8
Entity
62
9
100
AcDbVertex
100
AcDb3dPolylineVertex
10
225000.0
20
4850.0
30
0.0
70
32
0
VERTEX
5
4B
100
AcDbEntity
8
Entity
62
9
100
AcDbVertex
100
AcDb3dPolylineVertex
10
224540.0
20
4850.0
30
0.0
70
32
0
SEQEND
5
4C
100
AcDbEntity
8
Entity
0
TEXT
5
4E
330
1B
100
AcDbEntity
67
0
8
Entity
62
8
6
ByLayer
370
15
48
1.0
60
0
100
AcDbText
1
ENT0003 - Chitrod Yard (223+000 to 225+000)
10
224550.0
20
4865.0
30
0.0
40
20.0
41
1.0
50
0.0
51
0.0
7
True type font
11
224550.0
21
4865.0
31
0.0
210
0.0
220
0.0
230
1.0
72
0
100
AcDbText
73
0
0
POLYLINE
5
54
330
1B
100
AcDbEntity
67
0
8
Entity
62
9
6
ByLayer
370
25
48
1.0
60
0
100
AcDb3dPolyline
10
0.0
20
0.0
30
0.0
70
9
75
0
210
0.0
220
0.0
230
1.0
0
VERTEX
5
4F
100
AcDbEntity
8
Entity
62
9
100
AcDbVertex
100
AcDb3dPolylineVertex
10
224541.0
20
4900.0
30
0.0
70
32
0
VERTEX
5
50
100
AcDbEntity
8
Entity
62
9
100
AcDbVertex
100
AcDb3dPolylineVertex
10
224542.0
20
4900.0
30
0.0
70
32
0
VERTEX
5
51
100
AcDbEntity
8
Entity
62
9
100
AcDbVertex
100
AcDb3dPolylineVertex
10
224542.0
20
4850.0
30
0.0
70
32
0
VERTEX
5
52
100
AcDbEntity
8
Entity
62
9
100
AcDbVertex
100
AcDb3dPolylineVertex
10
224541.0
20
4850.0
30
0.0
70
32
0
SEQEND
5
53
100
AcDbEntity
8
Entity
0
TEXT
5
55
330
1B
100
AcDbEntity
67
0
8
Entity
62
8
6
ByLayer
370
15
48
1.0
60
0
100
AcDbText
1
ENT246 - entitys chainage check (224+541 to 224+542)
10
224551.0
20
4865.0
30
0.0
40
20.0
41
1.0
50
0.0
51
0.0
7
True type font
11
224551.0
21
4865.0
31
0.0
210
0.0
220
0.0
230
1.0
72
0
100
AcDbText
73
0
0
POLYLINE
5
5B
330
1B
100
AcDbEntity
67
0
8
Entity
62
9
6
ByLayer
370
25
48
1.0
60
0
100
AcDb3dPolyline
10
0.0
20
0.0
30
0.0
70
9
75
0
210
0.0
220
0.0
230
1.0
0
VERTEX
5
56
100
AcDbEntity
8
Entity
62
9
100
AcDbVertex
100
AcDb3dPolylineVertex
10
231200.0
20
4900.0
30
0.0
70
32
0
VERTEX
5
57
100
AcDbEntity
8
Entity
62
9
100
AcDbVertex
100
AcDb3dPolylineVertex
10
231870.0
20
4900.0
30
0.0
70
32
0
VERTEX
5
58
100
AcDbEntity
8
Entity
62
9
100
AcDbVertex
100
AcDb3dPolylineVertex
10
231870.0
20
4850.0
30
0.0
70
32
0
VERTEX
5
59
100
AcDbEntity
8
Entity
62
9
100
AcDbVertex
100
AcDb3dPolylineVertex
10
231200.0
20
4850.0
30
0.0
70
32
0
SEQEND
5
5A
100
AcDbEntity
8
Entity
0
TEXT
5
5C
330
1B
100
AcDbEntity
67
0
8
Entity
62
8
6
ByLayer
370
15
48
1.0
60
0
100
AcDbText
1
ENT0005 - Shivlakha Yard (231+200 to 232+240)
10
231210.0
20
4865.0
30
0.0
40
20.0
41
1.0
50
0.0
51
0.0
7
True type font
11
231210.0
21
4865.0
31
0.0
210
0.0
220
0.0
230
1.0
72
0
100
AcDbText
73
0
0
POLYLINE
5
62
330
1B
100
AcDbEntity
67
0
8
Package
62
9
6
ByLayer
370
25
48
1.0
60
0
100
AcDb3dPolyline
10
0.0
20
0.0
30
0.0
70
9
75
0
210
0.0
220
0.0
230
1.0
0
VERTEX
5
5D
100
AcDbEntity
8
Package
62
9
100
AcDbVertex
100
AcDb3dPolylineVertex
10
224540.0
20
4850.0
30
0.0
70
32
0
VERTEX
5
5E
100
AcDbEntity
8
Package
62
9
100
AcDbVertex
100
AcDb3dPolylineVertex
10
231870.0
20
4850.0
30
0.0
70
32
0
VERTEX
5
5F
100
AcDbEntity
8
Package
62
9
100
AcDbVertex
100
AcDb3dPolylineVertex
10
231870.0
20
4730.0
30
0.0
70
32
0
VERTEX
5
60
100
AcDbEntity
8
Package
62
9
100
AcDbVertex
100
AcDb3dPolylineVertex
10
224540.0
20
4730.0
30
0.0
70
32
0
SEQEND
5
61
100
AcDbEntity
8
Package
0
POLYLINE
5
68
330
1B
100
AcDbEntity
67
0
8
Markers-One
62
41
420
14737632
6
Dashed
370
0
48
1.0
60
0
100
AcDb3dPolyline
10
0.0
20
0.0
30
0.0
70
8
75
0
210
0.0
220
0.0
230
1.0
0
VERTEX
5
65
100
AcDbEntity
8
Markers-One
62
41
420
14737632
100
AcDbVertex
100
AcDb3dPolylineVertex
10
224540.0
20
4730.0
30
0.0
70
32
0
VERTEX
5
66
100
AcDbEntity
8
Markers-One
62
41
420
14737632
100
AcDbVertex
100
AcDb3dPolylineVertex
10
224540.0
20
4735.0
30
0.0
70
32
0
SEQEND
5
67
100
AcDbEntity
8
Markers-One
0
TEXT
5
6A
330
1B
100
AcDbEntity
67
0
8
Chainage Text
62
9
6
ByLayer
370
15
48
1.0
60
0
100
AcDbText
1
224+540
10
224540.0
20
4740.0
30
0.0
40
14.0
41
1.0
50
90.0
51
0.0
7
True type font
11
224540.0
21
4740.0
31
0.0
210
0.0
220
0.0
230
1.0
72
0
100
AcDbText
73
0
0
POLYLINE
5
6E
330
1B
100
AcDbEntity
67
0
8
Markers-One
62
41
420
14737632
6
Dashed
370
0
48
1.0
60
0
100
AcDb3dPolyline
10
0.0
20
0.0
30
0.0
70
8
75
0
210
0.0
220
0.0
230
1.0
0
VERTEX
5
6B
100
AcDbEntity
8
Markers-One
62
41
420
14737632
100
AcDbVertex
100
AcDb3dPolylineVertex
10
224600.0
20
4730.0
30
0.0
70
32
0
VERTEX
5
6C
100
AcDbEntity
8
Markers-One
62
41
420
14737632
100
AcDbVertex
100
AcDb3dPolylineVertex
10
224600.0
20
4735.0
30
0.0
70
32
0
SEQEND
5
6D
100
AcDbEntity
8
Markers-One
0
TEXT
5
6F
330
1B
100
AcDbEntity
67
0
8
Chainage Text
62
9
6
ByLayer
370
15
48
1.0
60
0
100
AcDbText
1
224+600
10
224600.0
20
4740.0
30
0.0
40
14.0
41
1.0
50
90.0
51
0.0
7
True type font
11
224600.0
21
4740.0
31
0.0
210
0.0
220
0.0
230
1.0
72
0
100
AcDbText
73
0
0
POLYLINE
5
73
330
1B
100
AcDbEntity
67
0
8
Markers-One
62
41
420
14737632
6
Dashed
370
0
48
1.0
60
0
100
AcDb3dPolyline
10
0.0
20
0.0
30
0.0
70
8
75
0
210
0.0
220
0.0
230
1.0
0
VERTEX
5
70
100
AcDbEntity
8
Markers-One
62
41
420
14737632
100
AcDbVertex
100
AcDb3dPolylineVertex
10
224700.0
20
4730.0
30
0.0
70
32
0
VERTEX
5
71
100
AcDbEntity
8
Markers-One
62
41
420
14737632
100
AcDbVertex
100
AcDb3dPolylineVertex
10
224700.0
20
4735.0
30
0.0
70
32
0
SEQEND
5
72
100
AcDbEntity
8
Markers-One
0
TEXT
5
74
330
1B
100
AcDbEntity
67
0
8
Chainage Text
62
9
6
ByLayer
370
15
48
1.0
60
0
100
AcDbText
1
224+700
10
224700.0
20
4740.0
30
0.0
40
14.0
41
1.0
50
90.0
51
0.0
7
True type font
11
224700.0
21
4740.0
31
0.0
210
0.0
220
0.0
230
1.0
72
0
100
AcDbText
73
0
0
POLYLINE
5
78
330
1B
100
AcDbEntity
67
0
8
Markers-One
62
41
420
14737632
6
Dashed
370
0
48
1.0
60
0
100
AcDb3dPolyline
10
0.0
20
0.0
30
0.0
70
8
75
0
210
0.0
220
0.0
230
1.0
0
VERTEX
5
75
100
AcDbEntity
8
Markers-One
62
41
420
14737632
100
AcDbVertex
100
AcDb3dPolylineVertex
10
224800.0
20
4730.0
30
0.0
70
32
0
VERTEX
5
76
100
AcDbEntity
8
Markers-One
62
41
420
14737632
100
AcDbVertex
100
AcDb3dPolylineVertex
10
224800.0
20
4735.0
30
0.0
70
32
0
SEQEND
5
77
100
AcDbEntity
8
Markers-One
0
TEXT
5
79
330
1B
100
AcDbEntity
67
0
8
Chainage Text
62
9
6
ByLayer
370
15
48
1.0
60
0
100
AcDbText
1
224+800
10
224800.0
20
4740.0
30
0.0
40
14.0
41
1.0
50
90.0
51
0.0
7
True type font
11
224800.0
21
4740.0
31
0.0
210
0.0
220
0.0
230
1.0
72
0
100
AcDbText
73
0
0
POLYLINE
5
7D
330
1B
100
AcDbEntity
67
0
8
Markers-One
62
41
420
14737632
6
Dashed
370
0
48
1.0
60
0
100
AcDb3dPolyline
10
0.0
20
0.0
30
0.0
70
8
75
0
210
0.0
220
0.0
230
1.0
0
VERTEX
5
7A
100
AcDbEntity
8
Markers-One
62
41
420
14737632
100
AcDbVertex
100
AcDb3dPolylineVertex
10
224900.0
20
4730.0
30
0.0
70
32
0
VERTEX
5
7B
100
AcDbEntity
8
Markers-One
62
41
420
14737632
100
AcDbVertex
100
AcDb3dPolylineVertex
10
224900.0
20
4735.0
30
0.0
70
32
0
SEQEND
5
7C
100
AcDbEntity
8
Markers-One
0
TEXT
5
7E
330
1B
100
AcDbEntity
67
0
8
Chainage Text
62
9
6
ByLayer
370
15
48
1.0
60
0
100
AcDbText
1
224+900
10
224900.0
20
4740.0
30
0.0
40
14.0
41
1.0
50
90.0
51
0.0
7
True type font
11
224900.0
21
4740.0
31
0.0
210
0.0
220
0.0
230
1.0
72
0
100
AcDbText
73
0
0
POLYLINE
5
82
330
1B
100
AcDbEntity
67
0
8
Markers-One
62
41
420
14737632
6
Dashed
370
0
48
1.0
60
0
100
AcDb3dPolyline
10
0.0
20
0.0
30
0.0
70
8
75
0
210
0.0
220
0.0
230
1.0
0
VERTEX
5
7F
100
AcDbEntity
8
Markers-One
62
41
420
14737632
100
AcDbVertex
100
AcDb3dPolylineVertex
10
225000.0
20
4730.0
30
0.0
70
32
0
VERTEX
5
80
100
AcDbEntity
8
Markers-One
62
41
420
14737632
100
AcDbVertex
100
AcDb3dPolylineVertex
10
225000.0
20
4735.0
30
0.0
70
32
0
SEQEND
5
81
100
AcDbEntity
8
Markers-One
0
TEXT
5
83
330
1B
100
AcDbEntity
67
0
8
Chainage Text
62
9
6
ByLayer
370
15
48
1.0
60
0
100
AcDbText
1
225+000
10
225000.0
20
4740.0
30
0.0
40
14.0
41
1.0
50
90.0
51
0.0
7
True type font
11
225000.0
21
4740.0
31
0.0
210
0.0
220
0.0
230
1.0
72
0
100
AcDbText
73
0
0
POLYLINE
5
87
330
1B
100
AcDbEntity
67
0
8
Markers-One
62
41
420
14737632
6
Dashed
370
0
48
1.0
60
0
100
AcDb3dPolyline
10
0.0
20
0.0
30
0.0
70
8
75
0
210
0.0
220
0.0
230
1.0
0
VERTEX
5
84
100
AcDbEntity
8
Markers-One
62
41
420
14737632
100
AcDbVertex
100
AcDb3dPolylineVertex
10
225100.0
20
4730.0
30
0.0
70
32
0
VERTEX
5
85
100
AcDbEntity
8
Markers-One
62
41
420
14737632
100
AcDbVertex
100
AcDb3dPolylineVertex
10
225100.0
20
4735.0
30
0.0
70
32
0
SEQEND
5
86
100
AcDbEntity
8
Markers-One
0
TEXT
5
88
330
1B
100
AcDbEntity
67
0
8
Chainage Text
62
9
6
ByLayer
370
15
48
1.0
60
0
100
AcDbText
1
225+100
10
225100.0
20
4740.0
30
0.0
40
14.0
41
1.0
50
90.0
51
0.0
7
True type font
11
225100.0
21
4740.0
31
0.0
210
0.0
220
0.0
230
1.0
72
0
100
AcDbText
73
0
0
POLYLINE
5
8C
330
1B
100
AcDbEntity
67
0
8
Markers-One
62
41
420
14737632
6
Dashed
370
0
48
1.0
60
0
100
AcDb3dPolyline
10
0.0
20
0.0
30
0.0
70
8
75
0
210
0.0
220
0.0
230
1.0
0
VERTEX
5
89
100
AcDbEntity
8
Markers-One
62
41
420
14737632
100
AcDbVertex
100
AcDb3dPolylineVertex
10
225200.0
20
4730.0
30
0.0
70
32
0
VERTEX
5
8A
100
AcDbEntity
8
Markers-One
62
41
420
14737632
100
AcDbVertex
100
AcDb3dPolylineVertex
10
225200.0
20
4735.0
30
0.0
70
32
0
SEQEND
5
8B
100
AcDbEntity
8
Markers-One
0
TEXT
5
8D
330
1B
100
AcDbEntity
67
0
8
Chainage Text
62
9
6
ByLayer
370
15
48
1.0
60
0
100
AcDbText
1
225+200
10
225200.0
20
4740.0
30
0.0
40
14.0
41
1.0
50
90.0
51
0.0
7
True type font
11
225200.0
21
4740.0
31
0.0
210
0.0
220
0.0
230
1.0
72
0
100
AcDbText
73
0
0
POLYLINE
5
91
330
1B
100
AcDbEntity
67
0
8
Markers-One
62
41
420
14737632
6
Dashed
370
0
48
1.0
60
0
100
AcDb3dPolyline
10
0.0
20
0.0
30
0.0
70
8
75
0
210
0.0
220
0.0
230
1.0
0
VERTEX
5
8E
100
AcDbEntity
8
Markers-One
62
41
420
14737632
100
AcDbVertex
100
AcDb3dPolylineVertex
10
225300.0
20
4730.0
30
0.0
70
32
0
VERTEX
5
8F
100
AcDbEntity
8
Markers-One
62
41
420
14737632
100
AcDbVertex
100
AcDb3dPolylineVertex
10
225300.0
20
4735.0
30
0.0
70
32
0
SEQEND
5
90
100
AcDbEntity
8
Markers-One
0
TEXT
5
92
330
1B
100
AcDbEntity
67
0
8
Chainage Text
62
9
6
ByLayer
370
15
48
1.0
60
0
100
AcDbText
1
225+300
10
225300.0
20
4740.0
30
0.0
40
14.0
41
1.0
50
90.0
51
0.0
7
True type font
11
225300.0
21
4740.0
31
0.0
210
0.0
220
0.0
230
1.0
72
0
100
AcDbText
73
0
0
POLYLINE
5
96
330
1B
100
AcDbEntity
67
0
8
Markers-One
62
41
420
14737632
6
Dashed
370
0
48
1.0
60
0
100
AcDb3dPolyline
10
0.0
20
0.0
30
0.0
70
8
75
0
210
0.0
220
0.0
230
1.0
0
VERTEX
5
93
100
AcDbEntity
8
Markers-One
62
41
420
14737632
100
AcDbVertex
100
AcDb3dPolylineVertex
10
225400.0
20
4730.0
30
0.0
70
32
0
VERTEX
5
94
100
AcDbEntity
8
Markers-One
62
41
420
14737632
100
AcDbVertex
100
AcDb3dPolylineVertex
10
225400.0
20
4735.0
30
0.0
70
32
0
SEQEND
5
95
100
AcDbEntity
8
Markers-One
0
TEXT
5
97
330
1B
100
AcDbEntity
67
0
8
Chainage Text
62
9
6
ByLayer
370
15
48
1.0
60
0
100
AcDbText
1
225+400
10
225400.0
20
4740.0
30
0.0
40
14.0
41
1.0
50
90.0
51
0.0
7
True type font
11
225400.0
21
4740.0
31
0.0
210
0.0
220
0.0
230
1.0
72
0
100
AcDbText
73
0
0
POLYLINE
5
9B
330
1B
100
AcDbEntity
67
0
8
Markers-One
62
41
420
14737632
6
Dashed
370
0
48
1.0
60
0
100
AcDb3dPolyline
10
0.0
20
0.0
30
0.0
70
8
75
0
210
0.0
220
0.0
230
1.0
0
VERTEX
5
98
100
AcDbEntity
8
Markers-One
62
41
420
14737632
100
AcDbVertex
100
AcDb3dPolylineVertex
10
225500.0
20
4730.0
30
0.0
70
32
0
VERTEX
5
99
100
AcDbEntity
8
Markers-One
62
41
420
14737632
100
AcDbVertex
100
AcDb3dPolylineVertex
10
225500.0
20
4735.0
30
0.0
70
32
0
SEQEND
5
9A
100
AcDbEntity
8
Markers-One
0
TEXT
5
9C
330
1B
100
AcDbEntity
67
0
8
Chainage Text
62
9
6
ByLayer
370
15
48
1.0
60
0
100
AcDbText
1
225+500
10
225500.0
20
4740.0
30
0.0
40
14.0
41
1.0
50
90.0
51
0.0
7
True type font
11
225500.0
21
4740.0
31
0.0
210
0.0
220
0.0
230
1.0
72
0
100
AcDbText
73
0
0
POLYLINE
5
A0
330
1B
100
AcDbEntity
67
0
8
Markers-One
62
41
420
14737632
6
Dashed
370
0
48
1.0
60
0
100
AcDb3dPolyline
10
0.0
20
0.0
30
0.0
70
8
75
0
210
0.0
220
0.0
230
1.0
0
VERTEX
5
9D
100
AcDbEntity
8
Markers-One
62
41
420
14737632
100
AcDbVertex
100
AcDb3dPolylineVertex
10
225600.0
20
4730.0
30
0.0
70
32
0
VERTEX
5
9E
100
AcDbEntity
8
Markers-One
62
41
420
14737632
100
AcDbVertex
100
AcDb3dPolylineVertex
10
225600.0
20
4735.0
30
0.0
70
32
0
SEQEND
5
9F
100
AcDbEntity
8
Markers-One
0
TEXT
5
A1
330
1B
100
AcDbEntity
67
0
8
Chainage Text
62
9
6
ByLayer
370
15
48
1.0
60
0
100
AcDbText
1
225+600
10
225600.0
20
4740.0
30
0.0
40
14.0
41
1.0
50
90.0
51
0.0
7
True type font
11
225600.0
21
4740.0
31
0.0
210
0.0
220
0.0
230
1.0
72
0
100
AcDbText
73
0
0
POLYLINE
5
A5
330
1B
100
AcDbEntity
67
0
8
Markers-One
62
41
420
14737632
6
Dashed
370
0
48
1.0
60
0
100
AcDb3dPolyline
10
0.0
20
0.0
30
0.0
70
8
75
0
210
0.0
220
0.0
230
1.0
0
VERTEX
5
A2
100
AcDbEntity
8
Markers-One
62
41
420
14737632
100
AcDbVertex
100
AcDb3dPolylineVertex
10
225700.0
20
4730.0
30
0.0
70
32
0
VERTEX
5
A3
100
AcDbEntity
8
Markers-One
62
41
420
14737632
100
AcDbVertex
100
AcDb3dPolylineVertex
10
225700.0
20
4735.0
30
0.0
70
32
0
SEQEND
5
A4
100
AcDbEntity
8
Markers-One
0
TEXT
5
A6
330
1B
100
AcDbEntity
67
0
8
Chainage Text
62
9
6
ByLayer
370
15
48
1.0
60
0
100
AcDbText
1
225+700
10
225700.0
20
4740.0
30
0.0
40
14.0
41
1.0
50
90.0
51
0.0
7
True type font
11
225700.0
21
4740.0
31
0.0
210
0.0
220
0.0
230
1.0
72
0
100
AcDbText
73
0
0
POLYLINE
5
AA
330
1B
100
AcDbEntity
67
0
8
Markers-One
62
41
420
14737632
6
Dashed
370
0
48
1.0
60
0
100
AcDb3dPolyline
10
0.0
20
0.0
30
0.0
70
8
75
0
210
0.0
220
0.0
230
1.0
0
VERTEX
5
A7
100
AcDbEntity
8
Markers-One
62
41
420
14737632
100
AcDbVertex
100
AcDb3dPolylineVertex
10
225800.0
20
4730.0
30
0.0
70
32
0
VERTEX
5
A8
100
AcDbEntity
8
Markers-One
62
41
420
14737632
100
AcDbVertex
100
AcDb3dPolylineVertex
10
225800.0
20
4735.0
30
0.0
70
32
0
SEQEND
5
A9
100
AcDbEntity
8
Markers-One
0
TEXT
5
AB
330
1B
100
AcDbEntity
67
0
8
Chainage Text
62
9
6
ByLayer
370
15
48
1.0
60
0
100
AcDbText
1
225+800
10
225800.0
20
4740.0
30
0.0
40
14.0
41
1.0
50
90.0
51
0.0
7
True type font
11
225800.0
21
4740.0
31
0.0
210
0.0
220
0.0
230
1.0
72
0
100
AcDbText
73
0
0
POLYLINE
5
AF
330
1B
100
AcDbEntity
67
0
8
Markers-One
62
41
420
14737632
6
Dashed
370
0
48
1.0
60
0
100
AcDb3dPolyline
10
0.0
20
0.0
30
0.0
70
8
75
0
210
0.0
220
0.0
230
1.0
0
VERTEX
5
AC
100
AcDbEntity
8
Markers-One
62
41
420
14737632
100
AcDbVertex
100
AcDb3dPolylineVertex
10
225900.0
20
4730.0
30
0.0
70
32
0
VERTEX
5
AD
100
AcDbEntity
8
Markers-One
62
41
420
14737632
100
AcDbVertex
100
AcDb3dPolylineVertex
10
225900.0
20
4735.0
30
0.0
70
32
0
SEQEND
5
AE
100
AcDbEntity
8
Markers-One
0
TEXT
5
B0
330
1B
100
AcDbEntity
67
0
8
Chainage Text
62
9
6
ByLayer
370
15
48
1.0
60
0
100
AcDbText
1
225+900
10
225900.0
20
4740.0
30
0.0
40
14.0
41
1.0
50
90.0
51
0.0
7
True type font
11
225900.0
21
4740.0
31
0.0
210
0.0
220
0.0
230
1.0
72
0
100
AcDbText
73
0
0
POLYLINE
5
B4
330
1B
100
AcDbEntity
67
0
8
Markers-One
62
41
420
14737632
6
Dashed
370
0
48
1.0
60
0
100
AcDb3dPolyline
10
0.0
20
0.0
30
0.0
70
8
75
0
210
0.0
220
0.0
230
1.0
0
VERTEX
5
B1
100
AcDbEntity
8
Markers-One
62
41
420
14737632
100
AcDbVertex
100
AcDb3dPolylineVertex
10
226000.0
20
4730.0
30
0.0
70
32
0
VERTEX
5
B2
100
AcDbEntity
8
Markers-One
62
41
420
14737632
100
AcDbVertex
100
AcDb3dPolylineVertex
10
226000.0
20
4735.0
30
0.0
70
32
0
SEQEND
5
B3
100
AcDbEntity
8
Markers-One
0
TEXT
5
B5
330
1B
100
AcDbEntity
67
0
8
Chainage Text
62
9
6
ByLayer
370
15
48
1.0
60
0
100
AcDbText
1
226+000
10
226000.0
20
4740.0
30
0.0
40
14.0
41
1.0
50
90.0
51
0.0
7
True type font
11
226000.0
21
4740.0
31
0.0
210
0.0
220
0.0
230
1.0
72
0
100
AcDbText
73
0
0
POLYLINE
5
B9
330
1B
100
AcDbEntity
67
0
8
Markers-One
62
41
420
14737632
6
Dashed
370
0
48
1.0
60
0
100
AcDb3dPolyline
10
0.0
20
0.0
30
0.0
70
8
75
0
210
0.0
220
0.0
230
1.0
0
VERTEX
5
B6
100
AcDbEntity
8
Markers-One
62
41
420
14737632
100
AcDbVertex
100
AcDb3dPolylineVertex
10
226100.0
20
4730.0
30
0.0
70
32
0
VERTEX
5
B7
100
AcDbEntity
8
Markers-One
62
41
420
14737632
100
AcDbVertex
100
AcDb3dPolylineVertex
10
226100.0
20
4735.0
30
0.0
70
32
0
SEQEND
5
B8
100
AcDbEntity
8
Markers-One
0
TEXT
5
BA
330
1B
100
AcDbEntity
67
0
8
Chainage Text
62
9
6
ByLayer
370
15
48
1.0
60
0
100
AcDbText
1
226+100
10
226100.0
20
4740.0
30
0.0
40
14.0
41
1.0
50
90.0
51
0.0
7
True type font
11
226100.0
21
4740.0
31
0.0
210
0.0
220
0.0
230
1.0
72
0
100
AcDbText
73
0
0
POLYLINE
5
BE
330
1B
100
AcDbEntity
67
0
8
Markers-One
62
41
420
14737632
6
Dashed
370
0
48
1.0
60
0
100
AcDb3dPolyline
10
0.0
20
0.0
30
0.0
70
8
75
0
210
0.0
220
0.0
230
1.0
0
VERTEX
5
BB
100
AcDbEntity
8
Markers-One
62
41
420
14737632
100
AcDbVertex
100
AcDb3dPolylineVertex
10
226200.0
20
4730.0
30
0.0
70
32
0
VERTEX
5
BC
100
AcDbEntity
8
Markers-One
62
41
420
14737632
100
AcDbVertex
100
AcDb3dPolylineVertex
10
226200.0
20
4735.0
30
0.0
70
32
0
SEQEND
5
BD
100
AcDbEntity
8
Markers-One
0
TEXT
5
BF
330
1B
100
AcDbEntity
67
0
8
Chainage Text
62
9
6
ByLayer
370
15
48
1.0
60
0
100
AcDbText
1
226+200
10
226200.0
20
4740.0
30
0.0
40
14.0
41
1.0
50
90.0
51
0.0
7
True type font
11
226200.0
21
4740.0
31
0.0
210
0.0
220
0.0
230
1.0
72
0
100
AcDbText
73
0
0
POLYLINE
5
C3
330
1B
100
AcDbEntity
67
0
8
Markers-One
62
41
420
14737632
6
Dashed
370
0
48
1.0
60
0
100
AcDb3dPolyline
10
0.0
20
0.0
30
0.0
70
8
75
0
210
0.0
220
0.0
230
1.0
0
VERTEX
5
C0
100
AcDbEntity
8
Markers-One
62
41
420
14737632
100
AcDbVertex
100
AcDb3dPolylineVertex
10
226300.0
20
4730.0
30
0.0
70
32
0
VERTEX
5
C1
100
AcDbEntity
8
Markers-One
62
41
420
14737632
100
AcDbVertex
100
AcDb3dPolylineVertex
10
226300.0
20
4735.0
30
0.0
70
32
0
SEQEND
5
C2
100
AcDbEntity
8
Markers-One
0
TEXT
5
C4
330
1B
100
AcDbEntity
67
0
8
Chainage Text
62
9
6
ByLayer
370
15
48
1.0
60
0
100
AcDbText
1
226+300
10
226300.0
20
4740.0
30
0.0
40
14.0
41
1.0
50
90.0
51
0.0
7
True type font
11
226300.0
21
4740.0
31
0.0
210
0.0
220
0.0
230
1.0
72
0
100
AcDbText
73
0
0
POLYLINE
5
C8
330
1B
100
AcDbEntity
67
0
8
Markers-One
62
41
420
14737632
6
Dashed
370
0
48
1.0
60
0
100
AcDb3dPolyline
10
0.0
20
0.0
30
0.0
70
8
75
0
210
0.0
220
0.0
230
1.0
0
VERTEX
5
C5
100
AcDbEntity
8
Markers-One
62
41
420
14737632
100
AcDbVertex
100
AcDb3dPolylineVertex
10
226400.0
20
4730.0
30
0.0
70
32
0
VERTEX
5
C6
100
AcDbEntity
8
Markers-One
62
41
420
14737632
100
AcDbVertex
100
AcDb3dPolylineVertex
10
226400.0
20
4735.0
30
0.0
70
32
0
SEQEND
5
C7
100
AcDbEntity
8
Markers-One
0
TEXT
5
C9
330
1B
100
AcDbEntity
67
0
8
Chainage Text
62
9
6
ByLayer
370
15
48
1.0
60
0
100
AcDbText
1
226+400
10
226400.0
20
4740.0
30
0.0
40
14.0
41
1.0
50
90.0
51
0.0
7
True type font
11
226400.0
21
4740.0
31
0.0
210
0.0
220
0.0
230
1.0
72
0
100
AcDbText
73
0
0
POLYLINE
5
CD
330
1B
100
AcDbEntity
67
0
8
Markers-One
62
41
420
14737632
6
Dashed
370
0
48
1.0
60
0
100
AcDb3dPolyline
10
0.0
20
0.0
30
0.0
70
8
75
0
210
0.0
220
0.0
230
1.0
0
VERTEX
5
CA
100
AcDbEntity
8
Markers-One
62
41
420
14737632
100
AcDbVertex
100
AcDb3dPolylineVertex
10
226500.0
20
4730.0
30
0.0
70
32
0
VERTEX
5
CB
100
AcDbEntity
8
Markers-One
62
41
420
14737632
100
AcDbVertex
100
AcDb3dPolylineVertex
10
226500.0
20
4735.0
30
0.0
70
32
0
SEQEND
5
CC
100
AcDbEntity
8
Markers-One
0
TEXT
5
CE
330
1B
100
AcDbEntity
67
0
8
Chainage Text
62
9
6
ByLayer
370
15
48
1.0
60
0
100
AcDbText
1
226+500
10
226500.0
20
4740.0
30
0.0
40
14.0
41
1.0
50
90.0
51
0.0
7
True type font
11
226500.0
21
4740.0
31
0.0
210
0.0
220
0.0
230
1.0
72
0
100
AcDbText
73
0
0
POLYLINE
5
D2
330
1B
100
AcDbEntity
67
0
8
Markers-One
62
41
420
14737632
6
Dashed
370
0
48
1.0
60
0
100
AcDb3dPolyline
10
0.0
20
0.0
30
0.0
70
8
75
0
210
0.0
220
0.0
230
1.0
0
VERTEX
5
CF
100
AcDbEntity
8
Markers-One
62
41
420
14737632
100
AcDbVertex
100
AcDb3dPolylineVertex
10
226600.0
20
4730.0
30
0.0
70
32
0
VERTEX
5
D0
100
AcDbEntity
8
Markers-One
62
41
420
14737632
100
AcDbVertex
100
AcDb3dPolylineVertex
10
226600.0
20
4735.0
30
0.0
70
32
0
SEQEND
5
D1
100
AcDbEntity
8
Markers-One
0
TEXT
5
D3
330
1B
100
AcDbEntity
67
0
8
Chainage Text
62
9
6
ByLayer
370
15
48
1.0
60
0
100
AcDbText
1
226+600
10
226600.0
20
4740.0
30
0.0
40
14.0
41
1.0
50
90.0
51
0.0
7
True type font
11
226600.0
21
4740.0
31
0.0
210
0.0
220
0.0
230
1.0
72
0
100
AcDbText
73
0
0
POLYLINE
5
D7
330
1B
100
AcDbEntity
67
0
8
Markers-One
62
41
420
14737632
6
Dashed
370
0
48
1.0
60
0
100
AcDb3dPolyline
10
0.0
20
0.0
30
0.0
70
8
75
0
210
0.0
220
0.0
230
1.0
0
VERTEX
5
D4
100
AcDbEntity
8
Markers-One
62
41
420
14737632
100
AcDbVertex
100
AcDb3dPolylineVertex
10
226700.0
20
4730.0
30
0.0
70
32
0
VERTEX
5
D5
100
AcDbEntity
8
Markers-One
62
41
420
14737632
100
AcDbVertex
100
AcDb3dPolylineVertex
10
226700.0
20
4735.0
30
0.0
70
32
0
SEQEND
5
D6
100
AcDbEntity
8
Markers-One
0
TEXT
5
D8
330
1B
100
AcDbEntity
67
0
8
Chainage Text
62
9
6
ByLayer
370
15
48
1.0
60
0
100
AcDbText
1
226+700
10
226700.0
20
4740.0
30
0.0
40
14.0
41
1.0
50
90.0
51
0.0
7
True type font
11
226700.0
21
4740.0
31
0.0
210
0.0
220
0.0
230
1.0
72
0
100
AcDbText
73
0
0
POLYLINE
5
DC
330
1B
100
AcDbEntity
67
0
8
Markers-One
62
41
420
14737632
6
Dashed
370
0
48
1.0
60
0
100
AcDb3dPolyline
10
0.0
20
0.0
30
0.0
70
8
75
0
210
0.0
220
0.0
230
1.0
0
VERTEX
5
D9
100
AcDbEntity
8
Markers-One
62
41
420
14737632
100
AcDbVertex
100
AcDb3dPolylineVertex
10
226800.0
20
4730.0
30
0.0
70
32
0
VERTEX
5
DA
100
AcDbEntity
8
Markers-One
62
41
420
14737632
100
AcDbVertex
100
AcDb3dPolylineVertex
10
226800.0
20
4735.0
30
0.0
70
32
0
SEQEND
5
DB
100
AcDbEntity
8
Markers-One
0
TEXT
5
DD
330
1B
100
AcDbEntity
67
0
8
Chainage Text
62
9
6
ByLayer
370
15
48
1.0
60
0
100
AcDbText
1
226+800
10
226800.0
20
4740.0
30
0.0
40
14.0
41
1.0
50
90.0
51
0.0
7
True type font
11
226800.0
21
4740.0
31
0.0
210
0.0
220
0.0
230
1.0
72
0
100
AcDbText
73
0
0
POLYLINE
5
E1
330
1B
100
AcDbEntity
67
0
8
Markers-One
62
41
420
14737632
6
Dashed
370
0
48
1.0
60
0
100
AcDb3dPolyline
10
0.0
20
0.0
30
0.0
70
8
75
0
210
0.0
220
0.0
230
1.0
0
VERTEX
5
DE
100
AcDbEntity
8
Markers-One
62
41
420
14737632
100
AcDbVertex
100
AcDb3dPolylineVertex
10
226900.0
20
4730.0
30
0.0
70
32
0
VERTEX
5
DF
100
AcDbEntity
8
Markers-One
62
41
420
14737632
100
AcDbVertex
100
AcDb3dPolylineVertex
10
226900.0
20
4735.0
30
0.0
70
32
0
SEQEND
5
E0
100
AcDbEntity
8
Markers-One
0
TEXT
5
E2
330
1B
100
AcDbEntity
67
0
8
Chainage Text
62
9
6
ByLayer
370
15
48
1.0
60
0
100
AcDbText
1
226+900
10
226900.0
20
4740.0
30
0.0
40
14.0
41
1.0
50
90.0
51
0.0
7
True type font
11
226900.0
21
4740.0
31
0.0
210
0.0
220
0.0
230
1.0
72
0
100
AcDbText
73
0
0
POLYLINE
5
E6
330
1B
100
AcDbEntity
67
0
8
Markers-One
62
41
420
14737632
6
Dashed
370
0
48
1.0
60
0
100
AcDb3dPolyline
10
0.0
20
0.0
30
0.0
70
8
75
0
210
0.0
220
0.0
230
1.0
0
VERTEX
5
E3
100
AcDbEntity
8
Markers-One
62
41
420
14737632
100
AcDbVertex
100
AcDb3dPolylineVertex
10
227000.0
20
4730.0
30
0.0
70
32
0
VERTEX
5
E4
100
AcDbEntity
8
Markers-One
62
41
420
14737632
100
AcDbVertex
100
AcDb3dPolylineVertex
10
227000.0
20
4735.0
30
0.0
70
32
0
SEQEND
5
E5
100
AcDbEntity
8
Markers-One
0
TEXT
5
E7
330
1B
100
AcDbEntity
67
0
8
Chainage Text
62
9
6
ByLayer
370
15
48
1.0
60
0
100
AcDbText
1
227+000
10
227000.0
20
4740.0
30
0.0
40
14.0
41
1.0
50
90.0
51
0.0
7
True type font
11
227000.0
21
4740.0
31
0.0
210
0.0
220
0.0
230
1.0
72
0
100
AcDbText
73
0
0
POLYLINE
5
EB
330
1B
100
AcDbEntity
67
0
8
Markers-One
62
41
420
14737632
6
Dashed
370
0
48
1.0
60
0
100
AcDb3dPolyline
10
0.0
20
0.0
30
0.0
70
8
75
0
210
0.0
220
0.0
230
1.0
0
VERTEX
5
E8
100
AcDbEntity
8
Markers-One
62
41
420
14737632
100
AcDbVertex
100
AcDb3dPolylineVertex
10
227100.0
20
4730.0
30
0.0
70
32
0
VERTEX
5
E9
100
AcDbEntity
8
Markers-One
62
41
420
14737632
100
AcDbVertex
100
AcDb3dPolylineVertex
10
227100.0
20
4735.0
30
0.0
70
32
0
SEQEND
5
EA
100
AcDbEntity
8
Markers-One
0
TEXT
5
EC
330
1B
100
AcDbEntity
67
0
8
Chainage Text
62
9
6
ByLayer
370
15
48
1.0
60
0
100
AcDbText
1
227+100
10
227100.0
20
4740.0
30
0.0
40
14.0
41
1.0
50
90.0
51
0.0
7
True type font
11
227100.0
21
4740.0
31
0.0
210
0.0
220
0.0
230
1.0
72
0
100
AcDbText
73
0
0
POLYLINE
5
F0
330
1B
100
AcDbEntity
67
0
8
Markers-One
62
41
420
14737632
6
Dashed
370
0
48
1.0
60
0
100
AcDb3dPolyline
10
0.0
20
0.0
30
0.0
70
8
75
0
210
0.0
220
0.0
230
1.0
0
VERTEX
5
ED
100
AcDbEntity
8
Markers-One
62
41
420
14737632
100
AcDbVertex
100
AcDb3dPolylineVertex
10
227200.0
20
4730.0
30
0.0
70
32
0
VERTEX
5
EE
100
AcDbEntity
8
Markers-One
62
41
420
14737632
100
AcDbVertex
100
AcDb3dPolylineVertex
10
227200.0
20
4735.0
30
0.0
70
32
0
SEQEND
5
EF
100
AcDbEntity
8
Markers-One
0
TEXT
5
F1
330
1B
100
AcDbEntity
67
0
8
Chainage Text
62
9
6
ByLayer
370
15
48
1.0
60
0
100
AcDbText
1
227+200
10
227200.0
20
4740.0
30
0.0
40
14.0
41
1.0
50
90.0
51
0.0
7
True type font
11
227200.0
21
4740.0
31
0.0
210
0.0
220
0.0
230
1.0
72
0
100
AcDbText
73
0
0
POLYLINE
5
F5
330
1B
100
AcDbEntity
67
0
8
Markers-One
62
41
420
14737632
6
Dashed
370
0
48
1.0
60
0
100
AcDb3dPolyline
10
0.0
20
0.0
30
0.0
70
8
75
0
210
0.0
220
0.0
230
1.0
0
VERTEX
5
F2
100
AcDbEntity
8
Markers-One
62
41
420
14737632
100
AcDbVertex
100
AcDb3dPolylineVertex
10
227300.0
20
4730.0
30
0.0
70
32
0
VERTEX
5
F3
100
AcDbEntity
8
Markers-One
62
41
420
14737632
100
AcDbVertex
100
AcDb3dPolylineVertex
10
227300.0
20
4735.0
30
0.0
70
32
0
SEQEND
5
F4
100
AcDbEntity
8
Markers-One
0
TEXT
5
F6
330
1B
100
AcDbEntity
67
0
8
Chainage Text
62
9
6
ByLayer
370
15
48
1.0
60
0
100
AcDbText
1
227+300
10
227300.0
20
4740.0
30
0.0
40
14.0
41
1.0
50
90.0
51
0.0
7
True type font
11
227300.0
21
4740.0
31
0.0
210
0.0
220
0.0
230
1.0
72
0
100
AcDbText
73
0
0
POLYLINE
5
FA
330
1B
100
AcDbEntity
67
0
8
Markers-One
62
41
420
14737632
6
Dashed
370
0
48
1.0
60
0
100
AcDb3dPolyline
10
0.0
20
0.0
30
0.0
70
8
75
0
210
0.0
220
0.0
230
1.0
0
VERTEX
5
F7
100
AcDbEntity
8
Markers-One
62
41
420
14737632
100
AcDbVertex
100
AcDb3dPolylineVertex
10
227400.0
20
4730.0
30
0.0
70
32
0
VERTEX
5
F8
100
AcDbEntity
8
Markers-One
62
41
420
14737632
100
AcDbVertex
100
AcDb3dPolylineVertex
10
227400.0
20
4735.0
30
0.0
70
32
0
SEQEND
5
F9
100
AcDbEntity
8
Markers-One
0
TEXT
5
FB
330
1B
100
AcDbEntity
67
0
8
Chainage Text
62
9
6
ByLayer
370
15
48
1.0
60
0
100
AcDbText
1
227+400
10
227400.0
20
4740.0
30
0.0
40
14.0
41
1.0
50
90.0
51
0.0
7
True type font
11
227400.0
21
4740.0
31
0.0
210
0.0
220
0.0
230
1.0
72
0
100
AcDbText
73
0
0
POLYLINE
5
FF
330
1B
100
AcDbEntity
67
0
8
Markers-One
62
41
420
14737632
6
Dashed
370
0
48
1.0
60
0
100
AcDb3dPolyline
10
0.0
20
0.0
30
0.0
70
8
75
0
210
0.0
220
0.0
230
1.0
0
VERTEX
5
FC
100
AcDbEntity
8
Markers-One
62
41
420
14737632
100
AcDbVertex
100
AcDb3dPolylineVertex
10
227500.0
20
4730.0
30
0.0
70
32
0
VERTEX
5
FD
100
AcDbEntity
8
Markers-One
62
41
420
14737632
100
AcDbVertex
100
AcDb3dPolylineVertex
10
227500.0
20
4735.0
30
0.0
70
32
0
SEQEND
5
FE
100
AcDbEntity
8
Markers-One
0
TEXT
5
100
330
1B
100
AcDbEntity
67
0
8
Chainage Text
62
9
6
ByLayer
370
15
48
1.0
60
0
100
AcDbText
1
227+500
10
227500.0
20
4740.0
30
0.0
40
14.0
41
1.0
50
90.0
51
0.0
7
True type font
11
227500.0
21
4740.0
31
0.0
210
0.0
220
0.0
230
1.0
72
0
100
AcDbText
73
0
0
POLYLINE
5
104
330
1B
100
AcDbEntity
67
0
8
Markers-One
62
41
420
14737632
6
Dashed
370
0
48
1.0
60
0
100
AcDb3dPolyline
10
0.0
20
0.0
30
0.0
70
8
75
0
210
0.0
220
0.0
230
1.0
0
VERTEX
5
101
100
AcDbEntity
8
Markers-One
62
41
420
14737632
100
AcDbVertex
100
AcDb3dPolylineVertex
10
227600.0
20
4730.0
30
0.0
70
32
0
VERTEX
5
102
100
AcDbEntity
8
Markers-One
62
41
420
14737632
100
AcDbVertex
100
AcDb3dPolylineVertex
10
227600.0
20
4735.0
30
0.0
70
32
0
SEQEND
5
103
100
AcDbEntity
8
Markers-One
0
TEXT
5
105
330
1B
100
AcDbEntity
67
0
8
Chainage Text
62
9
6
ByLayer
370
15
48
1.0
60
0
100
AcDbText
1
227+600
10
227600.0
20
4740.0
30
0.0
40
14.0
41
1.0
50
90.0
51
0.0
7
True type font
11
227600.0
21
4740.0
31
0.0
210
0.0
220
0.0
230
1.0
72
0
100
AcDbText
73
0
0
POLYLINE
5
109
330
1B
100
AcDbEntity
67
0
8
Markers-One
62
41
420
14737632
6
Dashed
370
0
48
1.0
60
0
100
AcDb3dPolyline
10
0.0
20
0.0
30
0.0
70
8
75
0
210
0.0
220
0.0
230
1.0
0
VERTEX
5
106
100
AcDbEntity
8
Markers-One
62
41
420
14737632
100
AcDbVertex
100
AcDb3dPolylineVertex
10
227700.0
20
4730.0
30
0.0
70
32
0
VERTEX
5
107
100
AcDbEntity
8
Markers-One
62
41
420
14737632
100
AcDbVertex
100
AcDb3dPolylineVertex
10
227700.0
20
4735.0
30
0.0
70
32
0
SEQEND
5
108
100
AcDbEntity
8
Markers-One
0
TEXT
5
10A
330
1B
100
AcDbEntity
67
0
8
Chainage Text
62
9
6
ByLayer
370
15
48
1.0
60
0
100
AcDbText
1
227+700
10
227700.0
20
4740.0
30
0.0
40
14.0
41
1.0
50
90.0
51
0.0
7
True type font
11
227700.0
21
4740.0
31
0.0
210
0.0
220
0.0
230
1.0
72
0
100
AcDbText
73
0
0
POLYLINE
5
10E
330
1B
100
AcDbEntity
67
0
8
Markers-One
62
41
420
14737632
6
Dashed
370
0
48
1.0
60
0
100
AcDb3dPolyline
10
0.0
20
0.0
30
0.0
70
8
75
0
210
0.0
220
0.0
230
1.0
0
VERTEX
5
10B
100
AcDbEntity
8
Markers-One
62
41
420
14737632
100
AcDbVertex
100
AcDb3dPolylineVertex
10
227800.0
20
4730.0
30
0.0
70
32
0
VERTEX
5
10C
100
AcDbEntity
8
Markers-One
62
41
420
14737632
100
AcDbVertex
100
AcDb3dPolylineVertex
10
227800.0
20
4735.0
30
0.0
70
32
0
SEQEND
5
10D
100
AcDbEntity
8
Markers-One
0
TEXT
5
10F
330
1B
100
AcDbEntity
67
0
8
Chainage Text
62
9
6
ByLayer
370
15
48
1.0
60
0
100
AcDbText
1
227+800
10
227800.0
20
4740.0
30
0.0
40
14.0
41
1.0
50
90.0
51
0.0
7
True type font
11
227800.0
21
4740.0
31
0.0
210
0.0
220
0.0
230
1.0
72
0
100
AcDbText
73
0
0
POLYLINE
5
113
330
1B
100
AcDbEntity
67
0
8
Markers-One
62
41
420
14737632
6
Dashed
370
0
48
1.0
60
0
100
AcDb3dPolyline
10
0.0
20
0.0
30
0.0
70
8
75
0
210
0.0
220
0.0
230
1.0
0
VERTEX
5
110
100
AcDbEntity
8
Markers-One
62
41
420
14737632
100
AcDbVertex
100
AcDb3dPolylineVertex
10
227900.0
20
4730.0
30
0.0
70
32
0
VERTEX
5
111
100
AcDbEntity
8
Markers-One
62
41
420
14737632
100
AcDbVertex
100
AcDb3dPolylineVertex
10
227900.0
20
4735.0
30
0.0
70
32
0
SEQEND
5
112
100
AcDbEntity
8
Markers-One
0
TEXT
5
114
330
1B
100
AcDbEntity
67
0
8
Chainage Text
62
9
6
ByLayer
370
15
48
1.0
60
0
100
AcDbText
1
227+900
10
227900.0
20
4740.0
30
0.0
40
14.0
41
1.0
50
90.0
51
0.0
7
True type font
11
227900.0
21
4740.0
31
0.0
210
0.0
220
0.0
230
1.0
72
0
100
AcDbText
73
0
0
POLYLINE
5
118
330
1B
100
AcDbEntity
67
0
8
Markers-One
62
41
420
14737632
6
Dashed
370
0
48
1.0
60
0
100
AcDb3dPolyline
10
0.0
20
0.0
30
0.0
70
8
75
0
210
0.0
220
0.0
230
1.0
0
VERTEX
5
115
100
AcDbEntity
8
Markers-One
62
41
420
14737632
100
AcDbVertex
100
AcDb3dPolylineVertex
10
228000.0
20
4730.0
30
0.0
70
32
0
VERTEX
5
116
100
AcDbEntity
8
Markers-One
62
41
420
14737632
100
AcDbVertex
100
AcDb3dPolylineVertex
10
228000.0
20
4735.0
30
0.0
70
32
0
SEQEND
5
117
100
AcDbEntity
8
Markers-One
0
TEXT
5
119
330
1B
100
AcDbEntity
67
0
8
Chainage Text
62
9
6
ByLayer
370
15
48
1.0
60
0
100
AcDbText
1
228+000
10
228000.0
20
4740.0
30
0.0
40
14.0
41
1.0
50
90.0
51
0.0
7
True type font
11
228000.0
21
4740.0
31
0.0
210
0.0
220
0.0
230
1.0
72
0
100
AcDbText
73
0
0
POLYLINE
5
11D
330
1B
100
AcDbEntity
67
0
8
Markers-One
62
41
420
14737632
6
Dashed
370
0
48
1.0
60
0
100
AcDb3dPolyline
10
0.0
20
0.0
30
0.0
70
8
75
0
210
0.0
220
0.0
230
1.0
0
VERTEX
5
11A
100
AcDbEntity
8
Markers-One
62
41
420
14737632
100
AcDbVertex
100
AcDb3dPolylineVertex
10
228100.0
20
4730.0
30
0.0
70
32
0
VERTEX
5
11B
100
AcDbEntity
8
Markers-One
62
41
420
14737632
100
AcDbVertex
100
AcDb3dPolylineVertex
10
228100.0
20
4735.0
30
0.0
70
32
0
SEQEND
5
11C
100
AcDbEntity
8
Markers-One
0
TEXT
5
11E
330
1B
100
AcDbEntity
67
0
8
Chainage Text
62
9
6
ByLayer
370
15
48
1.0
60
0
100
AcDbText
1
228+100
10
228100.0
20
4740.0
30
0.0
40
14.0
41
1.0
50
90.0
51
0.0
7
True type font
11
228100.0
21
4740.0
31
0.0
210
0.0
220
0.0
230
1.0
72
0
100
AcDbText
73
0
0
POLYLINE
5
122
330
1B
100
AcDbEntity
67
0
8
Markers-One
62
41
420
14737632
6
Dashed
370
0
48
1.0
60
0
100
AcDb3dPolyline
10
0.0
20
0.0
30
0.0
70
8
75
0
210
0.0
220
0.0
230
1.0
0
VERTEX
5
11F
100
AcDbEntity
8
Markers-One
62
41
420
14737632
100
AcDbVertex
100
AcDb3dPolylineVertex
10
228200.0
20
4730.0
30
0.0
70
32
0
VERTEX
5
120
100
AcDbEntity
8
Markers-One
62
41
420
14737632
100
AcDbVertex
100
AcDb3dPolylineVertex
10
228200.0
20
4735.0
30
0.0
70
32
0
SEQEND
5
121
100
AcDbEntity
8
Markers-One
0
TEXT
5
123
330
1B
100
AcDbEntity
67
0
8
Chainage Text
62
9
6
ByLayer
370
15
48
1.0
60
0
100
AcDbText
1
228+200
10
228200.0
20
4740.0
30
0.0
40
14.0
41
1.0
50
90.0
51
0.0
7
True type font
11
228200.0
21
4740.0
31
0.0
210
0.0
220
0.0
230
1.0
72
0
100
AcDbText
73
0
0
POLYLINE
5
127
330
1B
100
AcDbEntity
67
0
8
Markers-One
62
41
420
14737632
6
Dashed
370
0
48
1.0
60
0
100
AcDb3dPolyline
10
0.0
20
0.0
30
0.0
70
8
75
0
210
0.0
220
0.0
230
1.0
0
VERTEX
5
124
100
AcDbEntity
8
Markers-One
62
41
420
14737632
100
AcDbVertex
100
AcDb3dPolylineVertex
10
228300.0
20
4730.0
30
0.0
70
32
0
VERTEX
5
125
100
AcDbEntity
8
Markers-One
62
41
420
14737632
100
AcDbVertex
100
AcDb3dPolylineVertex
10
228300.0
20
4735.0
30
0.0
70
32
0
SEQEND
5
126
100
AcDbEntity
8
Markers-One
0
TEXT
5
128
330
1B
100
AcDbEntity
67
0
8
Chainage Text
62
9
6
ByLayer
370
15
48
1.0
60
0
100
AcDbText
1
228+300
10
228300.0
20
4740.0
30
0.0
40
14.0
41
1.0
50
90.0
51
0.0
7
True type font
11
228300.0
21
4740.0
31
0.0
210
0.0
220
0.0
230
1.0
72
0
100
AcDbText
73
0
0
POLYLINE
5
12C
330
1B
100
AcDbEntity
67
0
8
Markers-One
62
41
420
14737632
6
Dashed
370
0
48
1.0
60
0
100
AcDb3dPolyline
10
0.0
20
0.0
30
0.0
70
8
75
0
210
0.0
220
0.0
230
1.0
0
VERTEX
5
129
100
AcDbEntity
8
Markers-One
62
41
420
14737632
100
AcDbVertex
100
AcDb3dPolylineVertex
10
228400.0
20
4730.0
30
0.0
70
32
0
VERTEX
5
12A
100
AcDbEntity
8
Markers-One
62
41
420
14737632
100
AcDbVertex
100
AcDb3dPolylineVertex
10
228400.0
20
4735.0
30
0.0
70
32
0
SEQEND
5
12B
100
AcDbEntity
8
Markers-One
0
TEXT
5
12D
330
1B
100
AcDbEntity
67
0
8
Chainage Text
62
9
6
ByLayer
370
15
48
1.0
60
0
100
AcDbText
1
228+400
10
228400.0
20
4740.0
30
0.0
40
14.0
41
1.0
50
90.0
51
0.0
7
True type font
11
228400.0
21
4740.0
31
0.0
210
0.0
220
0.0
230
1.0
72
0
100
AcDbText
73
0
0
POLYLINE
5
131
330
1B
100
AcDbEntity
67
0
8
Markers-One
62
41
420
14737632
6
Dashed
370
0
48
1.0
60
0
100
AcDb3dPolyline
10
0.0
20
0.0
30
0.0
70
8
75
0
210
0.0
220
0.0
230
1.0
0
VERTEX
5
12E
100
AcDbEntity
8
Markers-One
62
41
420
14737632
100
AcDbVertex
100
AcDb3dPolylineVertex
10
228500.0
20
4730.0
30
0.0
70
32
0
VERTEX
5
12F
100
AcDbEntity
8
Markers-One
62
41
420
14737632
100
AcDbVertex
100
AcDb3dPolylineVertex
10
228500.0
20
4735.0
30
0.0
70
32
0
SEQEND
5
130
100
AcDbEntity
8
Markers-One
0
TEXT
5
132
330
1B
100
AcDbEntity
67
0
8
Chainage Text
62
9
6
ByLayer
370
15
48
1.0
60
0
100
AcDbText
1
228+500
10
228500.0
20
4740.0
30
0.0
40
14.0
41
1.0
50
90.0
51
0.0
7
True type font
11
228500.0
21
4740.0
31
0.0
210
0.0
220
0.0
230
1.0
72
0
100
AcDbText
73
0
0
POLYLINE
5
136
330
1B
100
AcDbEntity
67
0
8
Markers-One
62
41
420
14737632
6
Dashed
370
0
48
1.0
60
0
100
AcDb3dPolyline
10
0.0
20
0.0
30
0.0
70
8
75
0
210
0.0
220
0.0
230
1.0
0
VERTEX
5
133
100
AcDbEntity
8
Markers-One
62
41
420
14737632
100
AcDbVertex
100
AcDb3dPolylineVertex
10
228600.0
20
4730.0
30
0.0
70
32
0
VERTEX
5
134
100
AcDbEntity
8
Markers-One
62
41
420
14737632
100
AcDbVertex
100
AcDb3dPolylineVertex
10
228600.0
20
4735.0
30
0.0
70
32
0
SEQEND
5
135
100
AcDbEntity
8
Markers-One
0
TEXT
5
137
330
1B
100
AcDbEntity
67
0
8
Chainage Text
62
9
6
ByLayer
370
15
48
1.0
60
0
100
AcDbText
1
228+600
10
228600.0
20
4740.0
30
0.0
40
14.0
41
1.0
50
90.0
51
0.0
7
True type font
11
228600.0
21
4740.0
31
0.0
210
0.0
220
0.0
230
1.0
72
0
100
AcDbText
73
0
0
POLYLINE
5
13B
330
1B
100
AcDbEntity
67
0
8
Markers-One
62
41
420
14737632
6
Dashed
370
0
48
1.0
60
0
100
AcDb3dPolyline
10
0.0
20
0.0
30
0.0
70
8
75
0
210
0.0
220
0.0
230
1.0
0
VERTEX
5
138
100
AcDbEntity
8
Markers-One
62
41
420
14737632
100
AcDbVertex
100
AcDb3dPolylineVertex
10
228700.0
20
4730.0
30
0.0
70
32
0
VERTEX
5
139
100
AcDbEntity
8
Markers-One
62
41
420
14737632
100
AcDbVertex
100
AcDb3dPolylineVertex
10
228700.0
20
4735.0
30
0.0
70
32
0
SEQEND
5
13A
100
AcDbEntity
8
Markers-One
0
TEXT
5
13C
330
1B
100
AcDbEntity
67
0
8
Chainage Text
62
9
6
ByLayer
370
15
48
1.0
60
0
100
AcDbText
1
228+700
10
228700.0
20
4740.0
30
0.0
40
14.0
41
1.0
50
90.0
51
0.0
7
True type font
11
228700.0
21
4740.0
31
0.0
210
0.0
220
0.0
230
1.0
72
0
100
AcDbText
73
0
0
POLYLINE
5
140
330
1B
100
AcDbEntity
67
0
8
Markers-One
62
41
420
14737632
6
Dashed
370
0
48
1.0
60
0
100
AcDb3dPolyline
10
0.0
20
0.0
30
0.0
70
8
75
0
210
0.0
220
0.0
230
1.0
0
VERTEX
5
13D
100
AcDbEntity
8
Markers-One
62
41
420
14737632
100
AcDbVertex
100
AcDb3dPolylineVertex
10
228800.0
20
4730.0
30
0.0
70
32
0
VERTEX
5
13E
100
AcDbEntity
8
Markers-One
62
41
420
14737632
100
AcDbVertex
100
AcDb3dPolylineVertex
10
228800.0
20
4735.0
30
0.0
70
32
0
SEQEND
5
13F
100
AcDbEntity
8
Markers-One
0
TEXT
5
141
330
1B
100
AcDbEntity
67
0
8
Chainage Text
62
9
6
ByLayer
370
15
48
1.0
60
0
100
AcDbText
1
228+800
10
228800.0
20
4740.0
30
0.0
40
14.0
41
1.0
50
90.0
51
0.0
7
True type font
11
228800.0
21
4740.0
31
0.0
210
0.0
220
0.0
230
1.0
72
0
100
AcDbText
73
0
0
POLYLINE
5
145
330
1B
100
AcDbEntity
67
0
8
Markers-One
62
41
420
14737632
6
Dashed
370
0
48
1.0
60
0
100
AcDb3dPolyline
10
0.0
20
0.0
30
0.0
70
8
75
0
210
0.0
220
0.0
230
1.0
0
VERTEX
5
142
100
AcDbEntity
8
Markers-One
62
41
420
14737632
100
AcDbVertex
100
AcDb3dPolylineVertex
10
228900.0
20
4730.0
30
0.0
70
32
0
VERTEX
5
143
100
AcDbEntity
8
Markers-One
62
41
420
14737632
100
AcDbVertex
100
AcDb3dPolylineVertex
10
228900.0
20
4735.0
30
0.0
70
32
0
SEQEND
5
144
100
AcDbEntity
8
Markers-One
0
TEXT
5
146
330
1B
100
AcDbEntity
67
0
8
Chainage Text
62
9
6
ByLayer
370
15
48
1.0
60
0
100
AcDbText
1
228+900
10
228900.0
20
4740.0
30
0.0
40
14.0
41
1.0
50
90.0
51
0.0
7
True type font
11
228900.0
21
4740.0
31
0.0
210
0.0
220
0.0
230
1.0
72
0
100
AcDbText
73
0
0
POLYLINE
5
14A
330
1B
100
AcDbEntity
67
0
8
Markers-One
62
41
420
14737632
6
Dashed
370
0
48
1.0
60
0
100
AcDb3dPolyline
10
0.0
20
0.0
30
0.0
70
8
75
0
210
0.0
220
0.0
230
1.0
0
VERTEX
5
147
100
AcDbEntity
8
Markers-One
62
41
420
14737632
100
AcDbVertex
100
AcDb3dPolylineVertex
10
229000.0
20
4730.0
30
0.0
70
32
0
VERTEX
5
148
100
AcDbEntity
8
Markers-One
62
41
420
14737632
100
AcDbVertex
100
AcDb3dPolylineVertex
10
229000.0
20
4735.0
30
0.0
70
32
0
SEQEND
5
149
100
AcDbEntity
8
Markers-One
0
TEXT
5
14B
330
1B
100
AcDbEntity
67
0
8
Chainage Text
62
9
6
ByLayer
370
15
48
1.0
60
0
100
AcDbText
1
229+000
10
229000.0
20
4740.0
30
0.0
40
14.0
41
1.0
50
90.0
51
0.0
7
True type font
11
229000.0
21
4740.0
31
0.0
210
0.0
220
0.0
230
1.0
72
0
100
AcDbText
73
0
0
POLYLINE
5
14F
330
1B
100
AcDbEntity
67
0
8
Markers-One
62
41
420
14737632
6
Dashed
370
0
48
1.0
60
0
100
AcDb3dPolyline
10
0.0
20
0.0
30
0.0
70
8
75
0
210
0.0
220
0.0
230
1.0
0
VERTEX
5
14C
100
AcDbEntity
8
Markers-One
62
41
420
14737632
100
AcDbVertex
100
AcDb3dPolylineVertex
10
229100.0
20
4730.0
30
0.0
70
32
0
VERTEX
5
14D
100
AcDbEntity
8
Markers-One
62
41
420
14737632
100
AcDbVertex
100
AcDb3dPolylineVertex
10
229100.0
20
4735.0
30
0.0
70
32
0
SEQEND
5
14E
100
AcDbEntity
8
Markers-One
0
TEXT
5
150
330
1B
100
AcDbEntity
67
0
8
Chainage Text
62
9
6
ByLayer
370
15
48
1.0
60
0
100
AcDbText
1
229+100
10
229100.0
20
4740.0
30
0.0
40
14.0
41
1.0
50
90.0
51
0.0
7
True type font
11
229100.0
21
4740.0
31
0.0
210
0.0
220
0.0
230
1.0
72
0
100
AcDbText
73
0
0
POLYLINE
5
154
330
1B
100
AcDbEntity
67
0
8
Markers-One
62
41
420
14737632
6
Dashed
370
0
48
1.0
60
0
100
AcDb3dPolyline
10
0.0
20
0.0
30
0.0
70
8
75
0
210
0.0
220
0.0
230
1.0
0
VERTEX
5
151
100
AcDbEntity
8
Markers-One
62
41
420
14737632
100
AcDbVertex
100
AcDb3dPolylineVertex
10
229200.0
20
4730.0
30
0.0
70
32
0
VERTEX
5
152
100
AcDbEntity
8
Markers-One
62
41
420
14737632
100
AcDbVertex
100
AcDb3dPolylineVertex
10
229200.0
20
4735.0
30
0.0
70
32
0
SEQEND
5
153
100
AcDbEntity
8
Markers-One
0
TEXT
5
155
330
1B
100
AcDbEntity
67
0
8
Chainage Text
62
9
6
ByLayer
370
15
48
1.0
60
0
100
AcDbText
1
229+200
10
229200.0
20
4740.0
30
0.0
40
14.0
41
1.0
50
90.0
51
0.0
7
True type font
11
229200.0
21
4740.0
31
0.0
210
0.0
220
0.0
230
1.0
72
0
100
AcDbText
73
0
0
POLYLINE
5
159
330
1B
100
AcDbEntity
67
0
8
Markers-One
62
41
420
14737632
6
Dashed
370
0
48
1.0
60
0
100
AcDb3dPolyline
10
0.0
20
0.0
30
0.0
70
8
75
0
210
0.0
220
0.0
230
1.0
0
VERTEX
5
156
100
AcDbEntity
8
Markers-One
62
41
420
14737632
100
AcDbVertex
100
AcDb3dPolylineVertex
10
229300.0
20
4730.0
30
0.0
70
32
0
VERTEX
5
157
100
AcDbEntity
8
Markers-One
62
41
420
14737632
100
AcDbVertex
100
AcDb3dPolylineVertex
10
229300.0
20
4735.0
30
0.0
70
32
0
SEQEND
5
158
100
AcDbEntity
8
Markers-One
0
TEXT
5
15A
330
1B
100
AcDbEntity
67
0
8
Chainage Text
62
9
6
ByLayer
370
15
48
1.0
60
0
100
AcDbText
1
229+300
10
229300.0
20
4740.0
30
0.0
40
14.0
41
1.0
50
90.0
51
0.0
7
True type font
11
229300.0
21
4740.0
31
0.0
210
0.0
220
0.0
230
1.0
72
0
100
AcDbText
73
0
0
POLYLINE
5
15E
330
1B
100
AcDbEntity
67
0
8
Markers-One
62
41
420
14737632
6
Dashed
370
0
48
1.0
60
0
100
AcDb3dPolyline
10
0.0
20
0.0
30
0.0
70
8
75
0
210
0.0
220
0.0
230
1.0
0
VERTEX
5
15B
100
AcDbEntity
8
Markers-One
62
41
420
14737632
100
AcDbVertex
100
AcDb3dPolylineVertex
10
229400.0
20
4730.0
30
0.0
70
32
0
VERTEX
5
15C
100
AcDbEntity
8
Markers-One
62
41
420
14737632
100
AcDbVertex
100
AcDb3dPolylineVertex
10
229400.0
20
4735.0
30
0.0
70
32
0
SEQEND
5
15D
100
AcDbEntity
8
Markers-One
0
TEXT
5
15F
330
1B
100
AcDbEntity
67
0
8
Chainage Text
62
9
6
ByLayer
370
15
48
1.0
60
0
100
AcDbText
1
229+400
10
229400.0
20
4740.0
30
0.0
40
14.0
41
1.0
50
90.0
51
0.0
7
True type font
11
229400.0
21
4740.0
31
0.0
210
0.0
220
0.0
230
1.0
72
0
100
AcDbText
73
0
0
POLYLINE
5
163
330
1B
100
AcDbEntity
67
0
8
Markers-One
62
41
420
14737632
6
Dashed
370
0
48
1.0
60
0
100
AcDb3dPolyline
10
0.0
20
0.0
30
0.0
70
8
75
0
210
0.0
220
0.0
230
1.0
0
VERTEX
5
160
100
AcDbEntity
8
Markers-One
62
41
420
14737632
100
AcDbVertex
100
AcDb3dPolylineVertex
10
229500.0
20
4730.0
30
0.0
70
32
0
VERTEX
5
161
100
AcDbEntity
8
Markers-One
62
41
420
14737632
100
AcDbVertex
100
AcDb3dPolylineVertex
10
229500.0
20
4735.0
30
0.0
70
32
0
SEQEND
5
162
100
AcDbEntity
8
Markers-One
0
TEXT
5
164
330
1B
100
AcDbEntity
67
0
8
Chainage Text
62
9
6
ByLayer
370
15
48
1.0
60
0
100
AcDbText
1
229+500
10
229500.0
20
4740.0
30
0.0
40
14.0
41
1.0
50
90.0
51
0.0
7
True type font
11
229500.0
21
4740.0
31
0.0
210
0.0
220
0.0
230
1.0
72
0
100
AcDbText
73
0
0
POLYLINE
5
168
330
1B
100
AcDbEntity
67
0
8
Markers-One
62
41
420
14737632
6
Dashed
370
0
48
1.0
60
0
100
AcDb3dPolyline
10
0.0
20
0.0
30
0.0
70
8
75
0
210
0.0
220
0.0
230
1.0
0
VERTEX
5
165
100
AcDbEntity
8
Markers-One
62
41
420
14737632
100
AcDbVertex
100
AcDb3dPolylineVertex
10
229600.0
20
4730.0
30
0.0
70
32
0
VERTEX
5
166
100
AcDbEntity
8
Markers-One
62
41
420
14737632
100
AcDbVertex
100
AcDb3dPolylineVertex
10
229600.0
20
4735.0
30
0.0
70
32
0
SEQEND
5
167
100
AcDbEntity
8
Markers-One
0
TEXT
5
169
330
1B
100
AcDbEntity
67
0
8
Chainage Text
62
9
6
ByLayer
370
15
48
1.0
60
0
100
AcDbText
1
229+600
10
229600.0
20
4740.0
30
0.0
40
14.0
41
1.0
50
90.0
51
0.0
7
True type font
11
229600.0
21
4740.0
31
0.0
210
0.0
220
0.0
230
1.0
72
0
100
AcDbText
73
0
0
POLYLINE
5
16D
330
1B
100
AcDbEntity
67
0
8
Markers-One
62
41
420
14737632
6
Dashed
370
0
48
1.0
60
0
100
AcDb3dPolyline
10
0.0
20
0.0
30
0.0
70
8
75
0
210
0.0
220
0.0
230
1.0
0
VERTEX
5
16A
100
AcDbEntity
8
Markers-One
62
41
420
14737632
100
AcDbVertex
100
AcDb3dPolylineVertex
10
229700.0
20
4730.0
30
0.0
70
32
0
VERTEX
5
16B
100
AcDbEntity
8
Markers-One
62
41
420
14737632
100
AcDbVertex
100
AcDb3dPolylineVertex
10
229700.0
20
4735.0
30
0.0
70
32
0
SEQEND
5
16C
100
AcDbEntity
8
Markers-One
0
TEXT
5
16E
330
1B
100
AcDbEntity
67
0
8
Chainage Text
62
9
6
ByLayer
370
15
48
1.0
60
0
100
AcDbText
1
229+700
10
229700.0
20
4740.0
30
0.0
40
14.0
41
1.0
50
90.0
51
0.0
7
True type font
11
229700.0
21
4740.0
31
0.0
210
0.0
220
0.0
230
1.0
72
0
100
AcDbText
73
0
0
POLYLINE
5
172
330
1B
100
AcDbEntity
67
0
8
Markers-One
62
41
420
14737632
6
Dashed
370
0
48
1.0
60
0
100
AcDb3dPolyline
10
0.0
20
0.0
30
0.0
70
8
75
0
210
0.0
220
0.0
230
1.0
0
VERTEX
5
16F
100
AcDbEntity
8
Markers-One
62
41
420
14737632
100
AcDbVertex
100
AcDb3dPolylineVertex
10
229800.0
20
4730.0
30
0.0
70
32
0
VERTEX
5
170
100
AcDbEntity
8
Markers-One
62
41
420
14737632
100
AcDbVertex
100
AcDb3dPolylineVertex
10
229800.0
20
4735.0
30
0.0
70
32
0
SEQEND
5
171
100
AcDbEntity
8
Markers-One
0
TEXT
5
173
330
1B
100
AcDbEntity
67
0
8
Chainage Text
62
9
6
ByLayer
370
15
48
1.0
60
0
100
AcDbText
1
229+800
10
229800.0
20
4740.0
30
0.0
40
14.0
41
1.0
50
90.0
51
0.0
7
True type font
11
229800.0
21
4740.0
31
0.0
210
0.0
220
0.0
230
1.0
72
0
100
AcDbText
73
0
0
POLYLINE
5
177
330
1B
100
AcDbEntity
67
0
8
Markers-One
62
41
420
14737632
6
Dashed
370
0
48
1.0
60
0
100
AcDb3dPolyline
10
0.0
20
0.0
30
0.0
70
8
75
0
210
0.0
220
0.0
230
1.0
0
VERTEX
5
174
100
AcDbEntity
8
Markers-One
62
41
420
14737632
100
AcDbVertex
100
AcDb3dPolylineVertex
10
229900.0
20
4730.0
30
0.0
70
32
0
VERTEX
5
175
100
AcDbEntity
8
Markers-One
62
41
420
14737632
100
AcDbVertex
100
AcDb3dPolylineVertex
10
229900.0
20
4735.0
30
0.0
70
32
0
SEQEND
5
176
100
AcDbEntity
8
Markers-One
0
TEXT
5
178
330
1B
100
AcDbEntity
67
0
8
Chainage Text
62
9
6
ByLayer
370
15
48
1.0
60
0
100
AcDbText
1
229+900
10
229900.0
20
4740.0
30
0.0
40
14.0
41
1.0
50
90.0
51
0.0
7
True type font
11
229900.0
21
4740.0
31
0.0
210
0.0
220
0.0
230
1.0
72
0
100
AcDbText
73
0
0
POLYLINE
5
17C
330
1B
100
AcDbEntity
67
0
8
Markers-One
62
41
420
14737632
6
Dashed
370
0
48
1.0
60
0
100
AcDb3dPolyline
10
0.0
20
0.0
30
0.0
70
8
75
0
210
0.0
220
0.0
230
1.0
0
VERTEX
5
179
100
AcDbEntity
8
Markers-One
62
41
420
14737632
100
AcDbVertex
100
AcDb3dPolylineVertex
10
230000.0
20
4730.0
30
0.0
70
32
0
VERTEX
5
17A
100
AcDbEntity
8
Markers-One
62
41
420
14737632
100
AcDbVertex
100
AcDb3dPolylineVertex
10
230000.0
20
4735.0
30
0.0
70
32
0
SEQEND
5
17B
100
AcDbEntity
8
Markers-One
0
TEXT
5
17D
330
1B
100
AcDbEntity
67
0
8
Chainage Text
62
9
6
ByLayer
370
15
48
1.0
60
0
100
AcDbText
1
230+000
10
230000.0
20
4740.0
30
0.0
40
14.0
41
1.0
50
90.0
51
0.0
7
True type font
11
230000.0
21
4740.0
31
0.0
210
0.0
220
0.0
230
1.0
72
0
100
AcDbText
73
0
0
POLYLINE
5
181
330
1B
100
AcDbEntity
67
0
8
Markers-One
62
41
420
14737632
6
Dashed
370
0
48
1.0
60
0
100
AcDb3dPolyline
10
0.0
20
0.0
30
0.0
70
8
75
0
210
0.0
220
0.0
230
1.0
0
VERTEX
5
17E
100
AcDbEntity
8
Markers-One
62
41
420
14737632
100
AcDbVertex
100
AcDb3dPolylineVertex
10
230100.0
20
4730.0
30
0.0
70
32
0
VERTEX
5
17F
100
AcDbEntity
8
Markers-One
62
41
420
14737632
100
AcDbVertex
100
AcDb3dPolylineVertex
10
230100.0
20
4735.0
30
0.0
70
32
0
SEQEND
5
180
100
AcDbEntity
8
Markers-One
0
TEXT
5
182
330
1B
100
AcDbEntity
67
0
8
Chainage Text
62
9
6
ByLayer
370
15
48
1.0
60
0
100
AcDbText
1
230+100
10
230100.0
20
4740.0
30
0.0
40
14.0
41
1.0
50
90.0
51
0.0
7
True type font
11
230100.0
21
4740.0
31
0.0
210
0.0
220
0.0
230
1.0
72
0
100
AcDbText
73
0
0
POLYLINE
5
186
330
1B
100
AcDbEntity
67
0
8
Markers-One
62
41
420
14737632
6
Dashed
370
0
48
1.0
60
0
100
AcDb3dPolyline
10
0.0
20
0.0
30
0.0
70
8
75
0
210
0.0
220
0.0
230
1.0
0
VERTEX
5
183
100
AcDbEntity
8
Markers-One
62
41
420
14737632
100
AcDbVertex
100
AcDb3dPolylineVertex
10
230200.0
20
4730.0
30
0.0
70
32
0
VERTEX
5
184
100
AcDbEntity
8
Markers-One
62
41
420
14737632
100
AcDbVertex
100
AcDb3dPolylineVertex
10
230200.0
20
4735.0
30
0.0
70
32
0
SEQEND
5
185
100
AcDbEntity
8
Markers-One
0
TEXT
5
187
330
1B
100
AcDbEntity
67
0
8
Chainage Text
62
9
6
ByLayer
370
15
48
1.0
60
0
100
AcDbText
1
230+200
10
230200.0
20
4740.0
30
0.0
40
14.0
41
1.0
50
90.0
51
0.0
7
True type font
11
230200.0
21
4740.0
31
0.0
210
0.0
220
0.0
230
1.0
72
0
100
AcDbText
73
0
0
POLYLINE
5
18B
330
1B
100
AcDbEntity
67
0
8
Markers-One
62
41
420
14737632
6
Dashed
370
0
48
1.0
60
0
100
AcDb3dPolyline
10
0.0
20
0.0
30
0.0
70
8
75
0
210
0.0
220
0.0
230
1.0
0
VERTEX
5
188
100
AcDbEntity
8
Markers-One
62
41
420
14737632
100
AcDbVertex
100
AcDb3dPolylineVertex
10
230300.0
20
4730.0
30
0.0
70
32
0
VERTEX
5
189
100
AcDbEntity
8
Markers-One
62
41
420
14737632
100
AcDbVertex
100
AcDb3dPolylineVertex
10
230300.0
20
4735.0
30
0.0
70
32
0
SEQEND
5
18A
100
AcDbEntity
8
Markers-One
0
TEXT
5
18C
330
1B
100
AcDbEntity
67
0
8
Chainage Text
62
9
6
ByLayer
370
15
48
1.0
60
0
100
AcDbText
1
230+300
10
230300.0
20
4740.0
30
0.0
40
14.0
41
1.0
50
90.0
51
0.0
7
True type font
11
230300.0
21
4740.0
31
0.0
210
0.0
220
0.0
230
1.0
72
0
100
AcDbText
73
0
0
POLYLINE
5
190
330
1B
100
AcDbEntity
67
0
8
Markers-One
62
41
420
14737632
6
Dashed
370
0
48
1.0
60
0
100
AcDb3dPolyline
10
0.0
20
0.0
30
0.0
70
8
75
0
210
0.0
220
0.0
230
1.0
0
VERTEX
5
18D
100
AcDbEntity
8
Markers-One
62
41
420
14737632
100
AcDbVertex
100
AcDb3dPolylineVertex
10
230400.0
20
4730.0
30
0.0
70
32
0
VERTEX
5
18E
100
AcDbEntity
8
Markers-One
62
41
420
14737632
100
AcDbVertex
100
AcDb3dPolylineVertex
10
230400.0
20
4735.0
30
0.0
70
32
0
SEQEND
5
18F
100
AcDbEntity
8
Markers-One
0
TEXT
5
191
330
1B
100
AcDbEntity
67
0
8
Chainage Text
62
9
6
ByLayer
370
15
48
1.0
60
0
100
AcDbText
1
230+400
10
230400.0
20
4740.0
30
0.0
40
14.0
41
1.0
50
90.0
51
0.0
7
True type font
11
230400.0
21
4740.0
31
0.0
210
0.0
220
0.0
230
1.0
72
0
100
AcDbText
73
0
0
POLYLINE
5
195
330
1B
100
AcDbEntity
67
0
8
Markers-One
62
41
420
14737632
6
Dashed
370
0
48
1.0
60
0
100
AcDb3dPolyline
10
0.0
20
0.0
30
0.0
70
8
75
0
210
0.0
220
0.0
230
1.0
0
VERTEX
5
192
100
AcDbEntity
8
Markers-One
62
41
420
14737632
100
AcDbVertex
100
AcDb3dPolylineVertex
10
230500.0
20
4730.0
30
0.0
70
32
0
VERTEX
5
193
100
AcDbEntity
8
Markers-One
62
41
420
14737632
100
AcDbVertex
100
AcDb3dPolylineVertex
10
230500.0
20
4735.0
30
0.0
70
32
0
SEQEND
5
194
100
AcDbEntity
8
Markers-One
0
TEXT
5
196
330
1B
100
AcDbEntity
67
0
8
Chainage Text
62
9
6
ByLayer
370
15
48
1.0
60
0
100
AcDbText
1
230+500
10
230500.0
20
4740.0
30
0.0
40
14.0
41
1.0
50
90.0
51
0.0
7
True type font
11
230500.0
21
4740.0
31
0.0
210
0.0
220
0.0
230
1.0
72
0
100
AcDbText
73
0
0
POLYLINE
5
19A
330
1B
100
AcDbEntity
67
0
8
Markers-One
62
41
420
14737632
6
Dashed
370
0
48
1.0
60
0
100
AcDb3dPolyline
10
0.0
20
0.0
30
0.0
70
8
75
0
210
0.0
220
0.0
230
1.0
0
VERTEX
5
197
100
AcDbEntity
8
Markers-One
62
41
420
14737632
100
AcDbVertex
100
AcDb3dPolylineVertex
10
230600.0
20
4730.0
30
0.0
70
32
0
VERTEX
5
198
100
AcDbEntity
8
Markers-One
62
41
420
14737632
100
AcDbVertex
100
AcDb3dPolylineVertex
10
230600.0
20
4735.0
30
0.0
70
32
0
SEQEND
5
199
100
AcDbEntity
8
Markers-One
0
TEXT
5
19B
330
1B
100
AcDbEntity
67
0
8
Chainage Text
62
9
6
ByLayer
370
15
48
1.0
60
0
100
AcDbText
1
230+600
10
230600.0
20
4740.0
30
0.0
40
14.0
41
1.0
50
90.0
51
0.0
7
True type font
11
230600.0
21
4740.0
31
0.0
210
0.0
220
0.0
230
1.0
72
0
100
AcDbText
73
0
0
POLYLINE
5
19F
330
1B
100
AcDbEntity
67
0
8
Markers-One
62
41
420
14737632
6
Dashed
370
0
48
1.0
60
0
100
AcDb3dPolyline
10
0.0
20
0.0
30
0.0
70
8
75
0
210
0.0
220
0.0
230
1.0
0
VERTEX
5
19C
100
AcDbEntity
8
Markers-One
62
41
420
14737632
100
AcDbVertex
100
AcDb3dPolylineVertex
10
230700.0
20
4730.0
30
0.0
70
32
0
VERTEX
5
19D
100
AcDbEntity
8
Markers-One
62
41
420
14737632
100
AcDbVertex
100
AcDb3dPolylineVertex
10
230700.0
20
4735.0
30
0.0
70
32
0
SEQEND
5
19E
100
AcDbEntity
8
Markers-One
0
TEXT
5
1A0
330
1B
100
AcDbEntity
67
0
8
Chainage Text
62
9
6
ByLayer
370
15
48
1.0
60
0
100
AcDbText
1
230+700
10
230700.0
20
4740.0
30
0.0
40
14.0
41
1.0
50
90.0
51
0.0
7
True type font
11
230700.0
21
4740.0
31
0.0
210
0.0
220
0.0
230
1.0
72
0
100
AcDbText
73
0
0
POLYLINE
5
1A4
330
1B
100
AcDbEntity
67
0
8
Markers-One
62
41
420
14737632
6
Dashed
370
0
48
1.0
60
0
100
AcDb3dPolyline
10
0.0
20
0.0
30
0.0
70
8
75
0
210
0.0
220
0.0
230
1.0
0
VERTEX
5
1A1
100
AcDbEntity
8
Markers-One
62
41
420
14737632
100
AcDbVertex
100
AcDb3dPolylineVertex
10
230800.0
20
4730.0
30
0.0
70
32
0
VERTEX
5
1A2
100
AcDbEntity
8
Markers-One
62
41
420
14737632
100
AcDbVertex
100
AcDb3dPolylineVertex
10
230800.0
20
4735.0
30
0.0
70
32
0
SEQEND
5
1A3
100
AcDbEntity
8
Markers-One
0
TEXT
5
1A5
330
1B
100
AcDbEntity
67
0
8
Chainage Text
62
9
6
ByLayer
370
15
48
1.0
60
0
100
AcDbText
1
230+800
10
230800.0
20
4740.0
30
0.0
40
14.0
41
1.0
50
90.0
51
0.0
7
True type font
11
230800.0
21
4740.0
31
0.0
210
0.0
220
0.0
230
1.0
72
0
100
AcDbText
73
0
0
POLYLINE
5
1A9
330
1B
100
AcDbEntity
67
0
8
Markers-One
62
41
420
14737632
6
Dashed
370
0
48
1.0
60
0
100
AcDb3dPolyline
10
0.0
20
0.0
30
0.0
70
8
75
0
210
0.0
220
0.0
230
1.0
0
VERTEX
5
1A6
100
AcDbEntity
8
Markers-One
62
41
420
14737632
100
AcDbVertex
100
AcDb3dPolylineVertex
10
230900.0
20
4730.0
30
0.0
70
32
0
VERTEX
5
1A7
100
AcDbEntity
8
Markers-One
62
41
420
14737632
100
AcDbVertex
100
AcDb3dPolylineVertex
10
230900.0
20
4735.0
30
0.0
70
32
0
SEQEND
5
1A8
100
AcDbEntity
8
Markers-One
0
TEXT
5
1AA
330
1B
100
AcDbEntity
67
0
8
Chainage Text
62
9
6
ByLayer
370
15
48
1.0
60
0
100
AcDbText
1
230+900
10
230900.0
20
4740.0
30
0.0
40
14.0
41
1.0
50
90.0
51
0.0
7
True type font
11
230900.0
21
4740.0
31
0.0
210
0.0
220
0.0
230
1.0
72
0
100
AcDbText
73
0
0
POLYLINE
5
1AE
330
1B
100
AcDbEntity
67
0
8
Markers-One
62
41
420
14737632
6
Dashed
370
0
48
1.0
60
0
100
AcDb3dPolyline
10
0.0
20
0.0
30
0.0
70
8
75
0
210
0.0
220
0.0
230
1.0
0
VERTEX
5
1AB
100
AcDbEntity
8
Markers-One
62
41
420
14737632
100
AcDbVertex
100
AcDb3dPolylineVertex
10
231000.0
20
4730.0
30
0.0
70
32
0
VERTEX
5
1AC
100
AcDbEntity
8
Markers-One
62
41
420
14737632
100
AcDbVertex
100
AcDb3dPolylineVertex
10
231000.0
20
4735.0
30
0.0
70
32
0
SEQEND
5
1AD
100
AcDbEntity
8
Markers-One
0
TEXT
5
1AF
330
1B
100
AcDbEntity
67
0
8
Chainage Text
62
9
6
ByLayer
370
15
48
1.0
60
0
100
AcDbText
1
231+000
10
231000.0
20
4740.0
30
0.0
40
14.0
41
1.0
50
90.0
51
0.0
7
True type font
11
231000.0
21
4740.0
31
0.0
210
0.0
220
0.0
230
1.0
72
0
100
AcDbText
73
0
0
POLYLINE
5
1B3
330
1B
100
AcDbEntity
67
0
8
Markers-One
62
41
420
14737632
6
Dashed
370
0
48
1.0
60
0
100
AcDb3dPolyline
10
0.0
20
0.0
30
0.0
70
8
75
0
210
0.0
220
0.0
230
1.0
0
VERTEX
5
1B0
100
AcDbEntity
8
Markers-One
62
41
420
14737632
100
AcDbVertex
100
AcDb3dPolylineVertex
10
231100.0
20
4730.0
30
0.0
70
32
0
VERTEX
5
1B1
100
AcDbEntity
8
Markers-One
62
41
420
14737632
100
AcDbVertex
100
AcDb3dPolylineVertex
10
231100.0
20
4735.0
30
0.0
70
32
0
SEQEND
5
1B2
100
AcDbEntity
8
Markers-One
0
TEXT
5
1B4
330
1B
100
AcDbEntity
67
0
8
Chainage Text
62
9
6
ByLayer
370
15
48
1.0
60
0
100
AcDbText
1
231+100
10
231100.0
20
4740.0
30
0.0
40
14.0
41
1.0
50
90.0
51
0.0
7
True type font
11
231100.0
21
4740.0
31
0.0
210
0.0
220
0.0
230
1.0
72
0
100
AcDbText
73
0
0
POLYLINE
5
1B8
330
1B
100
AcDbEntity
67
0
8
Markers-One
62
41
420
14737632
6
Dashed
370
0
48
1.0
60
0
100
AcDb3dPolyline
10
0.0
20
0.0
30
0.0
70
8
75
0
210
0.0
220
0.0
230
1.0
0
VERTEX
5
1B5
100
AcDbEntity
8
Markers-One
62
41
420
14737632
100
AcDbVertex
100
AcDb3dPolylineVertex
10
231200.0
20
4730.0
30
0.0
70
32
0
VERTEX
5
1B6
100
AcDbEntity
8
Markers-One
62
41
420
14737632
100
AcDbVertex
100
AcDb3dPolylineVertex
10
231200.0
20
4735.0
30
0.0
70
32
0
SEQEND
5
1B7
100
AcDbEntity
8
Markers-One
0
TEXT
5
1B9
330
1B
100
AcDbEntity
67
0
8
Chainage Text
62
9
6
ByLayer
370
15
48
1.0
60
0
100
AcDbText
1
231+200
10
231200.0
20
4740.0
30
0.0
40
14.0
41
1.0
50
90.0
51
0.0
7
True type font
11
231200.0
21
4740.0
31
0.0
210
0.0
220
0.0
230
1.0
72
0
100
AcDbText
73
0
0
POLYLINE
5
1BD
330
1B
100
AcDbEntity
67
0
8
Markers-One
62
41
420
14737632
6
Dashed
370
0
48
1.0
60
0
100
AcDb3dPolyline
10
0.0
20
0.0
30
0.0
70
8
75
0
210
0.0
220
0.0
230
1.0
0
VERTEX
5
1BA
100
AcDbEntity
8
Markers-One
62
41
420
14737632
100
AcDbVertex
100
AcDb3dPolylineVertex
10
231300.0
20
4730.0
30
0.0
70
32
0
VERTEX
5
1BB
100
AcDbEntity
8
Markers-One
62
41
420
14737632
100
AcDbVertex
100
AcDb3dPolylineVertex
10
231300.0
20
4735.0
30
0.0
70
32
0
SEQEND
5
1BC
100
AcDbEntity
8
Markers-One
0
TEXT
5
1BE
330
1B
100
AcDbEntity
67
0
8
Chainage Text
62
9
6
ByLayer
370
15
48
1.0
60
0
100
AcDbText
1
231+300
10
231300.0
20
4740.0
30
0.0
40
14.0
41
1.0
50
90.0
51
0.0
7
True type font
11
231300.0
21
4740.0
31
0.0
210
0.0
220
0.0
230
1.0
72
0
100
AcDbText
73
0
0
POLYLINE
5
1C2
330
1B
100
AcDbEntity
67
0
8
Markers-One
62
41
420
14737632
6
Dashed
370
0
48
1.0
60
0
100
AcDb3dPolyline
10
0.0
20
0.0
30
0.0
70
8
75
0
210
0.0
220
0.0
230
1.0
0
VERTEX
5
1BF
100
AcDbEntity
8
Markers-One
62
41
420
14737632
100
AcDbVertex
100
AcDb3dPolylineVertex
10
231400.0
20
4730.0
30
0.0
70
32
0
VERTEX
5
1C0
100
AcDbEntity
8
Markers-One
62
41
420
14737632
100
AcDbVertex
100
AcDb3dPolylineVertex
10
231400.0
20
4735.0
30
0.0
70
32
0
SEQEND
5
1C1
100
AcDbEntity
8
Markers-One
0
TEXT
5
1C3
330
1B
100
AcDbEntity
67
0
8
Chainage Text
62
9
6
ByLayer
370
15
48
1.0
60
0
100
AcDbText
1
231+400
10
231400.0
20
4740.0
30
0.0
40
14.0
41
1.0
50
90.0
51
0.0
7
True type font
11
231400.0
21
4740.0
31
0.0
210
0.0
220
0.0
230
1.0
72
0
100
AcDbText
73
0
0
POLYLINE
5
1C7
330
1B
100
AcDbEntity
67
0
8
Markers-One
62
41
420
14737632
6
Dashed
370
0
48
1.0
60
0
100
AcDb3dPolyline
10
0.0
20
0.0
30
0.0
70
8
75
0
210
0.0
220
0.0
230
1.0
0
VERTEX
5
1C4
100
AcDbEntity
8
Markers-One
62
41
420
14737632
100
AcDbVertex
100
AcDb3dPolylineVertex
10
231500.0
20
4730.0
30
0.0
70
32
0
VERTEX
5
1C5
100
AcDbEntity
8
Markers-One
62
41
420
14737632
100
AcDbVertex
100
AcDb3dPolylineVertex
10
231500.0
20
4735.0
30
0.0
70
32
0
SEQEND
5
1C6
100
AcDbEntity
8
Markers-One
0
TEXT
5
1C8
330
1B
100
AcDbEntity
67
0
8
Chainage Text
62
9
6
ByLayer
370
15
48
1.0
60
0
100
AcDbText
1
231+500
10
231500.0
20
4740.0
30
0.0
40
14.0
41
1.0
50
90.0
51
0.0
7
True type font
11
231500.0
21
4740.0
31
0.0
210
0.0
220
0.0
230
1.0
72
0
100
AcDbText
73
0
0
POLYLINE
5
1CC
330
1B
100
AcDbEntity
67
0
8
Markers-One
62
41
420
14737632
6
Dashed
370
0
48
1.0
60
0
100
AcDb3dPolyline
10
0.0
20
0.0
30
0.0
70
8
75
0
210
0.0
220
0.0
230
1.0
0
VERTEX
5
1C9
100
AcDbEntity
8
Markers-One
62
41
420
14737632
100
AcDbVertex
100
AcDb3dPolylineVertex
10
231600.0
20
4730.0
30
0.0
70
32
0
VERTEX
5
1CA
100
AcDbEntity
8
Markers-One
62
41
420
14737632
100
AcDbVertex
100
AcDb3dPolylineVertex
10
231600.0
20
4735.0
30
0.0
70
32
0
SEQEND
5
1CB
100
AcDbEntity
8
Markers-One
0
TEXT
5
1CD
330
1B
100
AcDbEntity
67
0
8
Chainage Text
62
9
6
ByLayer
370
15
48
1.0
60
0
100
AcDbText
1
231+600
10
231600.0
20
4740.0
30
0.0
40
14.0
41
1.0
50
90.0
51
0.0
7
True type font
11
231600.0
21
4740.0
31
0.0
210
0.0
220
0.0
230
1.0
72
0
100
AcDbText
73
0
0
POLYLINE
5
1D1
330
1B
100
AcDbEntity
67
0
8
Markers-One
62
41
420
14737632
6
Dashed
370
0
48
1.0
60
0
100
AcDb3dPolyline
10
0.0
20
0.0
30
0.0
70
8
75
0
210
0.0
220
0.0
230
1.0
0
VERTEX
5
1CE
100
AcDbEntity
8
Markers-One
62
41
420
14737632
100
AcDbVertex
100
AcDb3dPolylineVertex
10
231700.0
20
4730.0
30
0.0
70
32
0
VERTEX
5
1CF
100
AcDbEntity
8
Markers-One
62
41
420
14737632
100
AcDbVertex
100
AcDb3dPolylineVertex
10
231700.0
20
4735.0
30
0.0
70
32
0
SEQEND
5
1D0
100
AcDbEntity
8
Markers-One
0
TEXT
5
1D2
330
1B
100
AcDbEntity
67
0
8
Chainage Text
62
9
6
ByLayer
370
15
48
1.0
60
0
100
AcDbText
1
231+700
10
231700.0
20
4740.0
30
0.0
40
14.0
41
1.0
50
90.0
51
0.0
7
True type font
11
231700.0
21
4740.0
31
0.0
210
0.0
220
0.0
230
1.0
72
0
100
AcDbText
73
0
0
POLYLINE
5
1D6
330
1B
100
AcDbEntity
67
0
8
Markers-One
62
41
420
14737632
6
Dashed
370
0
48
1.0
60
0
100
AcDb3dPolyline
10
0.0
20
0.0
30
0.0
70
8
75
0
210
0.0
220
0.0
230
1.0
0
VERTEX
5
1D3
100
AcDbEntity
8
Markers-One
62
41
420
14737632
100
AcDbVertex
100
AcDb3dPolylineVertex
10
231800.0
20
4730.0
30
0.0
70
32
0
VERTEX
5
1D4
100
AcDbEntity
8
Markers-One
62
41
420
14737632
100
AcDbVertex
100
AcDb3dPolylineVertex
10
231800.0
20
4735.0
30
0.0
70
32
0
SEQEND
5
1D5
100
AcDbEntity
8
Markers-One
0
TEXT
5
1D7
330
1B
100
AcDbEntity
67
0
8
Chainage Text
62
9
6
ByLayer
370
15
48
1.0
60
0
100
AcDbText
1
231+800
10
231800.0
20
4740.0
30
0.0
40
14.0
41
1.0
50
90.0
51
0.0
7
True type font
11
231800.0
21
4740.0
31
0.0
210
0.0
220
0.0
230
1.0
72
0
100
AcDbText
73
0
0
POLYLINE
5
1DB
330
1B
100
AcDbEntity
67
0
8
Markers-One
62
41
420
14737632
6
Dashed
370
0
48
1.0
60
0
100
AcDb3dPolyline
10
0.0
20
0.0
30
0.0
70
8
75
0
210
0.0
220
0.0
230
1.0
0
VERTEX
5
1D8
100
AcDbEntity
8
Markers-One
62
41
420
14737632
100
AcDbVertex
100
AcDb3dPolylineVertex
10
231870.0
20
4730.0
30
0.0
70
32
0
VERTEX
5
1D9
100
AcDbEntity
8
Markers-One
62
41
420
14737632
100
AcDbVertex
100
AcDb3dPolylineVertex
10
231870.0
20
4735.0
30
0.0
70
32
0
SEQEND
5
1DA
100
AcDbEntity
8
Markers-One
0
TEXT
5
1DC
330
1B
100
AcDbEntity
67
0
8
Chainage Text
62
9
6
ByLayer
370
15
48
1.0
60
0
100
AcDbText
1
231+870
10
231870.0
20
4740.0
30
0.0
40
14.0
41
1.0
50
90.0
51
0.0
7
True type font
11
231870.0
21
4740.0
31
0.0
210
0.0
220
0.0
230
1.0
72
0
100
AcDbText
73
0
0
TEXT
5
1DE
330
1B
100
AcDbEntity
67
0
8
Activity Names
62
171
420
8421631
6
ByLayer
370
15
48
1.0
60
0
100
AcDbText
1
Bridge mast
10
224290.0
20
4504.0
30
0.0
40
16.0
41
1.0
50
0.0
51
0.0
7
True type font
11
224290.0
21
4504.0
31
0.0
210
0.0
220
0.0
230
1.0
72
0
100
AcDbText
73
0
0
TEXT
5
1DF
330
1B
100
AcDbEntity
67
0
8
Activity Names
62
171
420
8421631
6
ByLayer
370
15
48
1.0
60
0
100
AcDbText
1
Bridge mast
10
231880.0
20
4504.0
30
0.0
40
16.0
41
1.0
50
0.0
51
0.0
7
True type font
11
231880.0
21
4504.0
31
0.0
210
0.0
220
0.0
230
1.0
72
0
100
AcDbText
73
0
0
POLYLINE
5
1E4
330
1B
100
AcDbEntity
67
0
8
Activity Lines
62
171
420
8421631
6
Dashed
370
15
48
1.0
60
0
100
AcDb3dPolyline
10
0.0
20
0.0
30
0.0
70
8
75
0
210
0.0
220
0.0
230
1.0
0
VERTEX
5
1E1
100
AcDbEntity
8
Activity Lines
62
171
420
8421631
100
AcDbVertex
100
AcDb3dPolylineVertex
10
224540.0
20
4530.0
30
0.0
70
32
0
VERTEX
5
1E2
100
AcDbEntity
8
Activity Lines
62
171
420
8421631
100
AcDbVertex
100
AcDb3dPolylineVertex
10
231870.0
20
4530.0
30
0.0
70
32
0
SEQEND
5
1E3
100
AcDbEntity
8
Activity Lines
0
TEXT
5
1E5
330
1B
100
AcDbEntity
67
0
8
Activity Names
62
133
420
1041411
6
ByLayer
370
15
48
1.0
60
0
100
AcDbText
1
Cabling -Continuity Testing
10
224290.0
20
4454.0
30
0.0
40
16.0
41
1.0
50
0.0
51
0.0
7
True type font
11
224290.0
21
4454.0
31
0.0
210
0.0
220
0.0
230
1.0
72
0
100
AcDbText
73
0
0
TEXT
5
1E6
330
1B
100
AcDbEntity
67
0
8
Activity Names
62
133
420
1041411
6
ByLayer
370
15
48
1.0
60
0
100
AcDbText
1
Cabling -Continuity Testing
10
231880.0
20
4454.0
30
0.0
40
16.0
41
1.0
50
0.0
51
0.0
7
True type font
11
231880.0
21
4454.0
31
0.0
210
0.0
220
0.0
230
1.0
72
0
100
AcDbText
73
0
0
POLYLINE
5
1EA
330
1B
100
AcDbEntity
67
0
8
Activity Lines
62
133
420
1041411
6
Dashed
370
15
48
1.0
60
0
100
AcDb3dPolyline
10
0.0
20
0.0
30
0.0
70
8
75
0
210
0.0
220
0.0
230
1.0
0
VERTEX
5
1E7
100
AcDbEntity
8
Activity Lines
62
133
420
1041411
100
AcDbVertex
100
AcDb3dPolylineVertex
10
224540.0
20
4480.0
30
0.0
70
32
0
VERTEX
5
1E8
100
AcDbEntity
8
Activity Lines
62
133
420
1041411
100
AcDbVertex
100
AcDb3dPolylineVertex
10
231870.0
20
4480.0
30
0.0
70
32
0
SEQEND
5
1E9
100
AcDbEntity
8
Activity Lines
0
TEXT
5
1EB
330
1B
100
AcDbEntity
67
0
8
Activity Names
62
250
420
0
6
ByLayer
370
15
48
1.0
60
0
100
AcDbText
1
6 Quad cable-Jointing & Testing
10
224290.0
20
4404.0
30
0.0
40
16.0
41
1.0
50
0.0
51
0.0
7
True type font
11
224290.0
21
4404.0
31
0.0
210
0.0
220
0.0
230
1.0
72
0
100
AcDbText
73
0
0
TEXT
5
1EC
330
1B
100
AcDbEntity
67
0
8
Activity Names
62
250
420
0
6
ByLayer
370
15
48
1.0
60
0
100
AcDbText
1
6 Quad cable-Jointing & Testing
10
231880.0
20
4404.0
30
0.0
40
16.0
41
1.0
50
0.0
51
0.0
7
True type font
11
231880.0
21
4404.0
31
0.0
210
0.0
220
0.0
230
1.0
72
0
100
AcDbText
73
0
0
POLYLINE
5
1F0
330
1B
100
AcDbEntity
67
0
8
Activity Lines
62
250
420
0
6
Dashed
370
15
48
1.0
60
0
100
AcDb3dPolyline
10
0.0
20
0.0
30
0.0
70
8
75
0
210
0.0
220
0.0
230
1.0
0
VERTEX
5
1ED
100
AcDbEntity
8
Activity Lines
62
250
420
0
100
AcDbVertex
100
AcDb3dPolylineVertex
10
224540.0
20
4430.0
30
0.0
70
32
0
VERTEX
5
1EE
100
AcDbEntity
8
Activity Lines
62
250
420
0
100
AcDbVertex
100
AcDb3dPolylineVertex
10
231870.0
20
4430.0
30
0.0
70
32
0
SEQEND
5
1EF
100
AcDbEntity
8
Activity Lines
0
TEXT
5
1F1
330
1B
100
AcDbEntity
67
0
8
Activity Names
62
4
420
65535
6
ByLayer
370
15
48
1.0
60
0
100
AcDbText
1
As made drawings  - I/D
10
224290.0
20
4354.0
30
0.0
40
16.0
41
1.0
50
0.0
51
0.0
7
True type font
11
224290.0
21
4354.0
31
0.0
210
0.0
220
0.0
230
1.0
72
0
100
AcDbText
73
0
0
TEXT
5
1F2
330
1B
100
AcDbEntity
67
0
8
Activity Names
62
4
420
65535
6
ByLayer
370
15
48
1.0
60
0
100
AcDbText
1
As made drawings  - I/D
10
231880.0
20
4354.0
30
0.0
40
16.0
41
1.0
50
0.0
51
0.0
7
True type font
11
231880.0
21
4354.0
31
0.0
210
0.0
220
0.0
230
1.0
72
0
100
AcDbText
73
0
0
POLYLINE
5
1F6
330
1B
100
AcDbEntity
67
0
8
Activity Lines
62
4
420
65535
6
Dashed
370
15
48
1.0
60
0
100
AcDb3dPolyline
10
0.0
20
0.0
30
0.0
70
8
75
0
210
0.0
220
0.0
230
1.0
0
VERTEX
5
1F3
100
AcDbEntity
8
Activity Lines
62
4
420
65535
100
AcDbVertex
100
AcDb3dPolylineVertex
10
224540.0
20
4380.0
30
0.0
70
32
0
VERTEX
5
1F4
100
AcDbEntity
8
Activity Lines
62
4
420
65535
100
AcDbVertex
100
AcDb3dPolylineVertex
10
231870.0
20
4380.0
30
0.0
70
32
0
SEQEND
5
1F5
100
AcDbEntity
8
Activity Lines
0
POLYLINE
5
1FB
330
1B
100
AcDbEntity
67
0
8
Vertical Chainage Lines
62
41
420
14737632
6
Dashed
370
0
48
1.0
60
0
100
AcDb3dPolyline
10
0.0
20
0.0
30
0.0
70
8
75
0
210
0.0
220
0.0
230
1.0
0
VERTEX
5
1F8
100
AcDbEntity
8
Vertical Chainage Lines
62
41
420
14737632
100
AcDbVertex
100
AcDb3dPolylineVertex
10
224600.0
20
4730.0
30
0.0
70
32
0
VERTEX
5
1F9
100
AcDbEntity
8
Vertical Chainage Lines
62
41
420
14737632
100
AcDbVertex
100
AcDb3dPolylineVertex
10
224600.0
20
4330.0
30
0.0
70
32
0
SEQEND
5
1FA
100
AcDbEntity
8
Vertical Chainage Lines
0
POLYLINE
5
1FF
330
1B
100
AcDbEntity
67
0
8
Vertical Chainage Lines
62
41
420
14737632
6
Dashed
370
0
48
1.0
60
0
100
AcDb3dPolyline
10
0.0
20
0.0
30
0.0
70
8
75
0
210
0.0
220
0.0
230
1.0
0
VERTEX
5
1FC
100
AcDbEntity
8
Vertical Chainage Lines
62
41
420
14737632
100
AcDbVertex
100
AcDb3dPolylineVertex
10
224700.0
20
4730.0
30
0.0
70
32
0
VERTEX
5
1FD
100
AcDbEntity
8
Vertical Chainage Lines
62
41
420
14737632
100
AcDbVertex
100
AcDb3dPolylineVertex
10
224700.0
20
4330.0
30
0.0
70
32
0
SEQEND
5
1FE
100
AcDbEntity
8
Vertical Chainage Lines
0
POLYLINE
5
203
330
1B
100
AcDbEntity
67
0
8
Vertical Chainage Lines
62
41
420
14737632
6
Dashed
370
0
48
1.0
60
0
100
AcDb3dPolyline
10
0.0
20
0.0
30
0.0
70
8
75
0
210
0.0
220
0.0
230
1.0
0
VERTEX
5
200
100
AcDbEntity
8
Vertical Chainage Lines
62
41
420
14737632
100
AcDbVertex
100
AcDb3dPolylineVertex
10
224800.0
20
4730.0
30
0.0
70
32
0
VERTEX
5
201
100
AcDbEntity
8
Vertical Chainage Lines
62
41
420
14737632
100
AcDbVertex
100
AcDb3dPolylineVertex
10
224800.0
20
4330.0
30
0.0
70
32
0
SEQEND
5
202
100
AcDbEntity
8
Vertical Chainage Lines
0
POLYLINE
5
207
330
1B
100
AcDbEntity
67
0
8
Vertical Chainage Lines
62
41
420
14737632
6
Dashed
370
0
48
1.0
60
0
100
AcDb3dPolyline
10
0.0
20
0.0
30
0.0
70
8
75
0
210
0.0
220
0.0
230
1.0
0
VERTEX
5
204
100
AcDbEntity
8
Vertical Chainage Lines
62
41
420
14737632
100
AcDbVertex
100
AcDb3dPolylineVertex
10
224900.0
20
4730.0
30
0.0
70
32
0
VERTEX
5
205
100
AcDbEntity
8
Vertical Chainage Lines
62
41
420
14737632
100
AcDbVertex
100
AcDb3dPolylineVertex
10
224900.0
20
4330.0
30
0.0
70
32
0
SEQEND
5
206
100
AcDbEntity
8
Vertical Chainage Lines
0
POLYLINE
5
20B
330
1B
100
AcDbEntity
67
0
8
Vertical Chainage Lines
62
41
420
14737632
6
Dashed
370
0
48
1.0
60
0
100
AcDb3dPolyline
10
0.0
20
0.0
30
0.0
70
8
75
0
210
0.0
220
0.0
230
1.0
0
VERTEX
5
208
100
AcDbEntity
8
Vertical Chainage Lines
62
41
420
14737632
100
AcDbVertex
100
AcDb3dPolylineVertex
10
225000.0
20
4730.0
30
0.0
70
32
0
VERTEX
5
209
100
AcDbEntity
8
Vertical Chainage Lines
62
41
420
14737632
100
AcDbVertex
100
AcDb3dPolylineVertex
10
225000.0
20
4330.0
30
0.0
70
32
0
SEQEND
5
20A
100
AcDbEntity
8
Vertical Chainage Lines
0
POLYLINE
5
20F
330
1B
100
AcDbEntity
67
0
8
Vertical Chainage Lines
62
41
420
14737632
6
Dashed
370
0
48
1.0
60
0
100
AcDb3dPolyline
10
0.0
20
0.0
30
0.0
70
8
75
0
210
0.0
220
0.0
230
1.0
0
VERTEX
5
20C
100
AcDbEntity
8
Vertical Chainage Lines
62
41
420
14737632
100
AcDbVertex
100
AcDb3dPolylineVertex
10
225100.0
20
4730.0
30
0.0
70
32
0
VERTEX
5
20D
100
AcDbEntity
8
Vertical Chainage Lines
62
41
420
14737632
100
AcDbVertex
100
AcDb3dPolylineVertex
10
225100.0
20
4330.0
30
0.0
70
32
0
SEQEND
5
20E
100
AcDbEntity
8
Vertical Chainage Lines
0
POLYLINE
5
213
330
1B
100
AcDbEntity
67
0
8
Vertical Chainage Lines
62
41
420
14737632
6
Dashed
370
0
48
1.0
60
0
100
AcDb3dPolyline
10
0.0
20
0.0
30
0.0
70
8
75
0
210
0.0
220
0.0
230
1.0
0
VERTEX
5
210
100
AcDbEntity
8
Vertical Chainage Lines
62
41
420
14737632
100
AcDbVertex
100
AcDb3dPolylineVertex
10
225200.0
20
4730.0
30
0.0
70
32
0
VERTEX
5
211
100
AcDbEntity
8
Vertical Chainage Lines
62
41
420
14737632
100
AcDbVertex
100
AcDb3dPolylineVertex
10
225200.0
20
4330.0
30
0.0
70
32
0
SEQEND
5
212
100
AcDbEntity
8
Vertical Chainage Lines
0
POLYLINE
5
217
330
1B
100
AcDbEntity
67
0
8
Vertical Chainage Lines
62
41
420
14737632
6
Dashed
370
0
48
1.0
60
0
100
AcDb3dPolyline
10
0.0
20
0.0
30
0.0
70
8
75
0
210
0.0
220
0.0
230
1.0
0
VERTEX
5
214
100
AcDbEntity
8
Vertical Chainage Lines
62
41
420
14737632
100
AcDbVertex
100
AcDb3dPolylineVertex
10
225300.0
20
4730.0
30
0.0
70
32
0
VERTEX
5
215
100
AcDbEntity
8
Vertical Chainage Lines
62
41
420
14737632
100
AcDbVertex
100
AcDb3dPolylineVertex
10
225300.0
20
4330.0
30
0.0
70
32
0
SEQEND
5
216
100
AcDbEntity
8
Vertical Chainage Lines
0
POLYLINE
5
21B
330
1B
100
AcDbEntity
67
0
8
Vertical Chainage Lines
62
41
420
14737632
6
Dashed
370
0
48
1.0
60
0
100
AcDb3dPolyline
10
0.0
20
0.0
30
0.0
70
8
75
0
210
0.0
220
0.0
230
1.0
0
VERTEX
5
218
100
AcDbEntity
8
Vertical Chainage Lines
62
41
420
14737632
100
AcDbVertex
100
AcDb3dPolylineVertex
10
225400.0
20
4730.0
30
0.0
70
32
0
VERTEX
5
219
100
AcDbEntity
8
Vertical Chainage Lines
62
41
420
14737632
100
AcDbVertex
100
AcDb3dPolylineVertex
10
225400.0
20
4330.0
30
0.0
70
32
0
SEQEND
5
21A
100
AcDbEntity
8
Vertical Chainage Lines
0
POLYLINE
5
21F
330
1B
100
AcDbEntity
67
0
8
Vertical Chainage Lines
62
41
420
14737632
6
Dashed
370
0
48
1.0
60
0
100
AcDb3dPolyline
10
0.0
20
0.0
30
0.0
70
8
75
0
210
0.0
220
0.0
230
1.0
0
VERTEX
5
21C
100
AcDbEntity
8
Vertical Chainage Lines
62
41
420
14737632
100
AcDbVertex
100
AcDb3dPolylineVertex
10
225500.0
20
4730.0
30
0.0
70
32
0
VERTEX
5
21D
100
AcDbEntity
8
Vertical Chainage Lines
62
41
420
14737632
100
AcDbVertex
100
AcDb3dPolylineVertex
10
225500.0
20
4330.0
30
0.0
70
32
0
SEQEND
5
21E
100
AcDbEntity
8
Vertical Chainage Lines
0
POLYLINE
5
223
330
1B
100
AcDbEntity
67
0
8
Vertical Chainage Lines
62
41
420
14737632
6
Dashed
370
0
48
1.0
60
0
100
AcDb3dPolyline
10
0.0
20
0.0
30
0.0
70
8
75
0
210
0.0
220
0.0
230
1.0
0
VERTEX
5
220
100
AcDbEntity
8
Vertical Chainage Lines
62
41
420
14737632
100
AcDbVertex
100
AcDb3dPolylineVertex
10
225600.0
20
4730.0
30
0.0
70
32
0
VERTEX
5
221
100
AcDbEntity
8
Vertical Chainage Lines
62
41
420
14737632
100
AcDbVertex
100
AcDb3dPolylineVertex
10
225600.0
20
4330.0
30
0.0
70
32
0
SEQEND
5
222
100
AcDbEntity
8
Vertical Chainage Lines
0
POLYLINE
5
227
330
1B
100
AcDbEntity
67
0
8
Vertical Chainage Lines
62
41
420
14737632
6
Dashed
370
0
48
1.0
60
0
100
AcDb3dPolyline
10
0.0
20
0.0
30
0.0
70
8
75
0
210
0.0
220
0.0
230
1.0
0
VERTEX
5
224
100
AcDbEntity
8
Vertical Chainage Lines
62
41
420
14737632
100
AcDbVertex
100
AcDb3dPolylineVertex
10
225700.0
20
4730.0
30
0.0
70
32
0
VERTEX
5
225
100
AcDbEntity
8
Vertical Chainage Lines
62
41
420
14737632
100
AcDbVertex
100
AcDb3dPolylineVertex
10
225700.0
20
4330.0
30
0.0
70
32
0
SEQEND
5
226
100
AcDbEntity
8
Vertical Chainage Lines
0
POLYLINE
5
22B
330
1B
100
AcDbEntity
67
0
8
Vertical Chainage Lines
62
41
420
14737632
6
Dashed
370
0
48
1.0
60
0
100
AcDb3dPolyline
10
0.0
20
0.0
30
0.0
70
8
75
0
210
0.0
220
0.0
230
1.0
0
VERTEX
5
228
100
AcDbEntity
8
Vertical Chainage Lines
62
41
420
14737632
100
AcDbVertex
100
AcDb3dPolylineVertex
10
225800.0
20
4730.0
30
0.0
70
32
0
VERTEX
5
229
100
AcDbEntity
8
Vertical Chainage Lines
62
41
420
14737632
100
AcDbVertex
100
AcDb3dPolylineVertex
10
225800.0
20
4330.0
30
0.0
70
32
0
SEQEND
5
22A
100
AcDbEntity
8
Vertical Chainage Lines
0
POLYLINE
5
22F
330
1B
100
AcDbEntity
67
0
8
Vertical Chainage Lines
62
41
420
14737632
6
Dashed
370
0
48
1.0
60
0
100
AcDb3dPolyline
10
0.0
20
0.0
30
0.0
70
8
75
0
210
0.0
220
0.0
230
1.0
0
VERTEX
5
22C
100
AcDbEntity
8
Vertical Chainage Lines
62
41
420
14737632
100
AcDbVertex
100
AcDb3dPolylineVertex
10
225900.0
20
4730.0
30
0.0
70
32
0
VERTEX
5
22D
100
AcDbEntity
8
Vertical Chainage Lines
62
41
420
14737632
100
AcDbVertex
100
AcDb3dPolylineVertex
10
225900.0
20
4330.0
30
0.0
70
32
0
SEQEND
5
22E
100
AcDbEntity
8
Vertical Chainage Lines
0
POLYLINE
5
233
330
1B
100
AcDbEntity
67
0
8
Vertical Chainage Lines
62
41
420
14737632
6
Dashed
370
0
48
1.0
60
0
100
AcDb3dPolyline
10
0.0
20
0.0
30
0.0
70
8
75
0
210
0.0
220
0.0
230
1.0
0
VERTEX
5
230
100
AcDbEntity
8
Vertical Chainage Lines
62
41
420
14737632
100
AcDbVertex
100
AcDb3dPolylineVertex
10
226000.0
20
4730.0
30
0.0
70
32
0
VERTEX
5
231
100
AcDbEntity
8
Vertical Chainage Lines
62
41
420
14737632
100
AcDbVertex
100
AcDb3dPolylineVertex
10
226000.0
20
4330.0
30
0.0
70
32
0
SEQEND
5
232
100
AcDbEntity
8
Vertical Chainage Lines
0
POLYLINE
5
237
330
1B
100
AcDbEntity
67
0
8
Vertical Chainage Lines
62
41
420
14737632
6
Dashed
370
0
48
1.0
60
0
100
AcDb3dPolyline
10
0.0
20
0.0
30
0.0
70
8
75
0
210
0.0
220
0.0
230
1.0
0
VERTEX
5
234
100
AcDbEntity
8
Vertical Chainage Lines
62
41
420
14737632
100
AcDbVertex
100
AcDb3dPolylineVertex
10
226100.0
20
4730.0
30
0.0
70
32
0
VERTEX
5
235
100
AcDbEntity
8
Vertical Chainage Lines
62
41
420
14737632
100
AcDbVertex
100
AcDb3dPolylineVertex
10
226100.0
20
4330.0
30
0.0
70
32
0
SEQEND
5
236
100
AcDbEntity
8
Vertical Chainage Lines
0
POLYLINE
5
23B
330
1B
100
AcDbEntity
67
0
8
Vertical Chainage Lines
62
41
420
14737632
6
Dashed
370
0
48
1.0
60
0
100
AcDb3dPolyline
10
0.0
20
0.0
30
0.0
70
8
75
0
210
0.0
220
0.0
230
1.0
0
VERTEX
5
238
100
AcDbEntity
8
Vertical Chainage Lines
62
41
420
14737632
100
AcDbVertex
100
AcDb3dPolylineVertex
10
226200.0
20
4730.0
30
0.0
70
32
0
VERTEX
5
239
100
AcDbEntity
8
Vertical Chainage Lines
62
41
420
14737632
100
AcDbVertex
100
AcDb3dPolylineVertex
10
226200.0
20
4330.0
30
0.0
70
32
0
SEQEND
5
23A
100
AcDbEntity
8
Vertical Chainage Lines
0
POLYLINE
5
23F
330
1B
100
AcDbEntity
67
0
8
Vertical Chainage Lines
62
41
420
14737632
6
Dashed
370
0
48
1.0
60
0
100
AcDb3dPolyline
10
0.0
20
0.0
30
0.0
70
8
75
0
210
0.0
220
0.0
230
1.0
0
VERTEX
5
23C
100
AcDbEntity
8
Vertical Chainage Lines
62
41
420
14737632
100
AcDbVertex
100
AcDb3dPolylineVertex
10
226300.0
20
4730.0
30
0.0
70
32
0
VERTEX
5
23D
100
AcDbEntity
8
Vertical Chainage Lines
62
41
420
14737632
100
AcDbVertex
100
AcDb3dPolylineVertex
10
226300.0
20
4330.0
30
0.0
70
32
0
SEQEND
5
23E
100
AcDbEntity
8
Vertical Chainage Lines
0
POLYLINE
5
243
330
1B
100
AcDbEntity
67
0
8
Vertical Chainage Lines
62
41
420
14737632
6
Dashed
370
0
48
1.0
60
0
100
AcDb3dPolyline
10
0.0
20
0.0
30
0.0
70
8
75
0
210
0.0
220
0.0
230
1.0
0
VERTEX
5
240
100
AcDbEntity
8
Vertical Chainage Lines
62
41
420
14737632
100
AcDbVertex
100
AcDb3dPolylineVertex
10
226400.0
20
4730.0
30
0.0
70
32
0
VERTEX
5
241
100
AcDbEntity
8
Vertical Chainage Lines
62
41
420
14737632
100
AcDbVertex
100
AcDb3dPolylineVertex
10
226400.0
20
4330.0
30
0.0
70
32
0
SEQEND
5
242
100
AcDbEntity
8
Vertical Chainage Lines
0
POLYLINE
5
247
330
1B
100
AcDbEntity
67
0
8
Vertical Chainage Lines
62
41
420
14737632
6
Dashed
370
0
48
1.0
60
0
100
AcDb3dPolyline
10
0.0
20
0.0
30
0.0
70
8
75
0
210
0.0
220
0.0
230
1.0
0
VERTEX
5
244
100
AcDbEntity
8
Vertical Chainage Lines
62
41
420
14737632
100
AcDbVertex
100
AcDb3dPolylineVertex
10
226500.0
20
4730.0
30
0.0
70
32
0
VERTEX
5
245
100
AcDbEntity
8
Vertical Chainage Lines
62
41
420
14737632
100
AcDbVertex
100
AcDb3dPolylineVertex
10
226500.0
20
4330.0
30
0.0
70
32
0
SEQEND
5
246
100
AcDbEntity
8
Vertical Chainage Lines
0
POLYLINE
5
24B
330
1B
100
AcDbEntity
67
0
8
Vertical Chainage Lines
62
41
420
14737632
6
Dashed
370
0
48
1.0
60
0
100
AcDb3dPolyline
10
0.0
20
0.0
30
0.0
70
8
75
0
210
0.0
220
0.0
230
1.0
0
VERTEX
5
248
100
AcDbEntity
8
Vertical Chainage Lines
62
41
420
14737632
100
AcDbVertex
100
AcDb3dPolylineVertex
10
226600.0
20
4730.0
30
0.0
70
32
0
VERTEX
5
249
100
AcDbEntity
8
Vertical Chainage Lines
62
41
420
14737632
100
AcDbVertex
100
AcDb3dPolylineVertex
10
226600.0
20
4330.0
30
0.0
70
32
0
SEQEND
5
24A
100
AcDbEntity
8
Vertical Chainage Lines
0
POLYLINE
5
24F
330
1B
100
AcDbEntity
67
0
8
Vertical Chainage Lines
62
41
420
14737632
6
Dashed
370
0
48
1.0
60
0
100
AcDb3dPolyline
10
0.0
20
0.0
30
0.0
70
8
75
0
210
0.0
220
0.0
230
1.0
0
VERTEX
5
24C
100
AcDbEntity
8
Vertical Chainage Lines
62
41
420
14737632
100
AcDbVertex
100
AcDb3dPolylineVertex
10
226700.0
20
4730.0
30
0.0
70
32
0
VERTEX
5
24D
100
AcDbEntity
8
Vertical Chainage Lines
62
41
420
14737632
100
AcDbVertex
100
AcDb3dPolylineVertex
10
226700.0
20
4330.0
30
0.0
70
32
0
SEQEND
5
24E
100
AcDbEntity
8
Vertical Chainage Lines
0
POLYLINE
5
253
330
1B
100
AcDbEntity
67
0
8
Vertical Chainage Lines
62
41
420
14737632
6
Dashed
370
0
48
1.0
60
0
100
AcDb3dPolyline
10
0.0
20
0.0
30
0.0
70
8
75
0
210
0.0
220
0.0
230
1.0
0
VERTEX
5
250
100
AcDbEntity
8
Vertical Chainage Lines
62
41
420
14737632
100
AcDbVertex
100
AcDb3dPolylineVertex
10
226800.0
20
4730.0
30
0.0
70
32
0
VERTEX
5
251
100
AcDbEntity
8
Vertical Chainage Lines
62
41
420
14737632
100
AcDbVertex
100
AcDb3dPolylineVertex
10
226800.0
20
4330.0
30
0.0
70
32
0
SEQEND
5
252
100
AcDbEntity
8
Vertical Chainage Lines
0
POLYLINE
5
257
330
1B
100
AcDbEntity
67
0
8
Vertical Chainage Lines
62
41
420
14737632
6
Dashed
370
0
48
1.0
60
0
100
AcDb3dPolyline
10
0.0
20
0.0
30
0.0
70
8
75
0
210
0.0
220
0.0
230
1.0
0
VERTEX
5
254
100
AcDbEntity
8
Vertical Chainage Lines
62
41
420
14737632
100
AcDbVertex
100
AcDb3dPolylineVertex
10
226900.0
20
4730.0
30
0.0
70
32
0
VERTEX
5
255
100
AcDbEntity
8
Vertical Chainage Lines
62
41
420
14737632
100
AcDbVertex
100
AcDb3dPolylineVertex
10
226900.0
20
4330.0
30
0.0
70
32
0
SEQEND
5
256
100
AcDbEntity
8
Vertical Chainage Lines
0
POLYLINE
5
25B
330
1B
100
AcDbEntity
67
0
8
Vertical Chainage Lines
62
41
420
14737632
6
Dashed
370
0
48
1.0
60
0
100
AcDb3dPolyline
10
0.0
20
0.0
30
0.0
70
8
75
0
210
0.0
220
0.0
230
1.0
0
VERTEX
5
258
100
AcDbEntity
8
Vertical Chainage Lines
62
41
420
14737632
100
AcDbVertex
100
AcDb3dPolylineVertex
10
227000.0
20
4730.0
30
0.0
70
32
0
VERTEX
5
259
100
AcDbEntity
8
Vertical Chainage Lines
62
41
420
14737632
100
AcDbVertex
100
AcDb3dPolylineVertex
10
227000.0
20
4330.0
30
0.0
70
32
0
SEQEND
5
25A
100
AcDbEntity
8
Vertical Chainage Lines
0
POLYLINE
5
25F
330
1B
100
AcDbEntity
67
0
8
Vertical Chainage Lines
62
41
420
14737632
6
Dashed
370
0
48
1.0
60
0
100
AcDb3dPolyline
10
0.0
20
0.0
30
0.0
70
8
75
0
210
0.0
220
0.0
230
1.0
0
VERTEX
5
25C
100
AcDbEntity
8
Vertical Chainage Lines
62
41
420
14737632
100
AcDbVertex
100
AcDb3dPolylineVertex
10
227100.0
20
4730.0
30
0.0
70
32
0
VERTEX
5
25D
100
AcDbEntity
8
Vertical Chainage Lines
62
41
420
14737632
100
AcDbVertex
100
AcDb3dPolylineVertex
10
227100.0
20
4330.0
30
0.0
70
32
0
SEQEND
5
25E
100
AcDbEntity
8
Vertical Chainage Lines
0
POLYLINE
5
263
330
1B
100
AcDbEntity
67
0
8
Vertical Chainage Lines
62
41
420
14737632
6
Dashed
370
0
48
1.0
60
0
100
AcDb3dPolyline
10
0.0
20
0.0
30
0.0
70
8
75
0
210
0.0
220
0.0
230
1.0
0
VERTEX
5
260
100
AcDbEntity
8
Vertical Chainage Lines
62
41
420
14737632
100
AcDbVertex
100
AcDb3dPolylineVertex
10
227200.0
20
4730.0
30
0.0
70
32
0
VERTEX
5
261
100
AcDbEntity
8
Vertical Chainage Lines
62
41
420
14737632
100
AcDbVertex
100
AcDb3dPolylineVertex
10
227200.0
20
4330.0
30
0.0
70
32
0
SEQEND
5
262
100
AcDbEntity
8
Vertical Chainage Lines
0
POLYLINE
5
267
330
1B
100
AcDbEntity
67
0
8
Vertical Chainage Lines
62
41
420
14737632
6
Dashed
370
0
48
1.0
60
0
100
AcDb3dPolyline
10
0.0
20
0.0
30
0.0
70
8
75
0
210
0.0
220
0.0
230
1.0
0
VERTEX
5
264
100
AcDbEntity
8
Vertical Chainage Lines
62
41
420
14737632
100
AcDbVertex
100
AcDb3dPolylineVertex
10
227300.0
20
4730.0
30
0.0
70
32
0
VERTEX
5
265
100
AcDbEntity
8
Vertical Chainage Lines
62
41
420
14737632
100
AcDbVertex
100
AcDb3dPolylineVertex
10
227300.0
20
4330.0
30
0.0
70
32
0
SEQEND
5
266
100
AcDbEntity
8
Vertical Chainage Lines
0
POLYLINE
5
26B
330
1B
100
AcDbEntity
67
0
8
Vertical Chainage Lines
62
41
420
14737632
6
Dashed
370
0
48
1.0
60
0
100
AcDb3dPolyline
10
0.0
20
0.0
30
0.0
70
8
75
0
210
0.0
220
0.0
230
1.0
0
VERTEX
5
268
100
AcDbEntity
8
Vertical Chainage Lines
62
41
420
14737632
100
AcDbVertex
100
AcDb3dPolylineVertex
10
227400.0
20
4730.0
30
0.0
70
32
0
VERTEX
5
269
100
AcDbEntity
8
Vertical Chainage Lines
62
41
420
14737632
100
AcDbVertex
100
AcDb3dPolylineVertex
10
227400.0
20
4330.0
30
0.0
70
32
0
SEQEND
5
26A
100
AcDbEntity
8
Vertical Chainage Lines
0
POLYLINE
5
26F
330
1B
100
AcDbEntity
67
0
8
Vertical Chainage Lines
62
41
420
14737632
6
Dashed
370
0
48
1.0
60
0
100
AcDb3dPolyline
10
0.0
20
0.0
30
0.0
70
8
75
0
210
0.0
220
0.0
230
1.0
0
VERTEX
5
26C
100
AcDbEntity
8
Vertical Chainage Lines
62
41
420
14737632
100
AcDbVertex
100
AcDb3dPolylineVertex
10
227500.0
20
4730.0
30
0.0
70
32
0
VERTEX
5
26D
100
AcDbEntity
8
Vertical Chainage Lines
62
41
420
14737632
100
AcDbVertex
100
AcDb3dPolylineVertex
10
227500.0
20
4330.0
30
0.0
70
32
0
SEQEND
5
26E
100
AcDbEntity
8
Vertical Chainage Lines
0
POLYLINE
5
273
330
1B
100
AcDbEntity
67
0
8
Vertical Chainage Lines
62
41
420
14737632
6
Dashed
370
0
48
1.0
60
0
100
AcDb3dPolyline
10
0.0
20
0.0
30
0.0
70
8
75
0
210
0.0
220
0.0
230
1.0
0
VERTEX
5
270
100
AcDbEntity
8
Vertical Chainage Lines
62
41
420
14737632
100
AcDbVertex
100
AcDb3dPolylineVertex
10
227600.0
20
4730.0
30
0.0
70
32
0
VERTEX
5
271
100
AcDbEntity
8
Vertical Chainage Lines
62
41
420
14737632
100
AcDbVertex
100
AcDb3dPolylineVertex
10
227600.0
20
4330.0
30
0.0
70
32
0
SEQEND
5
272
100
AcDbEntity
8
Vertical Chainage Lines
0
POLYLINE
5
277
330
1B
100
AcDbEntity
67
0
8
Vertical Chainage Lines
62
41
420
14737632
6
Dashed
370
0
48
1.0
60
0
100
AcDb3dPolyline
10
0.0
20
0.0
30
0.0
70
8
75
0
210
0.0
220
0.0
230
1.0
0
VERTEX
5
274
100
AcDbEntity
8
Vertical Chainage Lines
62
41
420
14737632
100
AcDbVertex
100
AcDb3dPolylineVertex
10
227700.0
20
4730.0
30
0.0
70
32
0
VERTEX
5
275
100
AcDbEntity
8
Vertical Chainage Lines
62
41
420
14737632
100
AcDbVertex
100
AcDb3dPolylineVertex
10
227700.0
20
4330.0
30
0.0
70
32
0
SEQEND
5
276
100
AcDbEntity
8
Vertical Chainage Lines
0
POLYLINE
5
27B
330
1B
100
AcDbEntity
67
0
8
Vertical Chainage Lines
62
41
420
14737632
6
Dashed
370
0
48
1.0
60
0
100
AcDb3dPolyline
10
0.0
20
0.0
30
0.0
70
8
75
0
210
0.0
220
0.0
230
1.0
0
VERTEX
5
278
100
AcDbEntity
8
Vertical Chainage Lines
62
41
420
14737632
100
AcDbVertex
100
AcDb3dPolylineVertex
10
227800.0
20
4730.0
30
0.0
70
32
0
VERTEX
5
279
100
AcDbEntity
8
Vertical Chainage Lines
62
41
420
14737632
100
AcDbVertex
100
AcDb3dPolylineVertex
10
227800.0
20
4330.0
30
0.0
70
32
0
SEQEND
5
27A
100
AcDbEntity
8
Vertical Chainage Lines
0
POLYLINE
5
27F
330
1B
100
AcDbEntity
67
0
8
Vertical Chainage Lines
62
41
420
14737632
6
Dashed
370
0
48
1.0
60
0
100
AcDb3dPolyline
10
0.0
20
0.0
30
0.0
70
8
75
0
210
0.0
220
0.0
230
1.0
0
VERTEX
5
27C
100
AcDbEntity
8
Vertical Chainage Lines
62
41
420
14737632
100
AcDbVertex
100
AcDb3dPolylineVertex
10
227900.0
20
4730.0
30
0.0
70
32
0
VERTEX
5
27D
100
AcDbEntity
8
Vertical Chainage Lines
62
41
420
14737632
100
AcDbVertex
100
AcDb3dPolylineVertex
10
227900.0
20
4330.0
30
0.0
70
32
0
SEQEND
5
27E
100
AcDbEntity
8
Vertical Chainage Lines
0
POLYLINE
5
283
330
1B
100
AcDbEntity
67
0
8
Vertical Chainage Lines
62
41
420
14737632
6
Dashed
370
0
48
1.0
60
0
100
AcDb3dPolyline
10
0.0
20
0.0
30
0.0
70
8
75
0
210
0.0
220
0.0
230
1.0
0
VERTEX
5
280
100
AcDbEntity
8
Vertical Chainage Lines
62
41
420
14737632
100
AcDbVertex
100
AcDb3dPolylineVertex
10
228000.0
20
4730.0
30
0.0
70
32
0
VERTEX
5
281
100
AcDbEntity
8
Vertical Chainage Lines
62
41
420
14737632
100
AcDbVertex
100
AcDb3dPolylineVertex
10
228000.0
20
4330.0
30
0.0
70
32
0
SEQEND
5
282
100
AcDbEntity
8
Vertical Chainage Lines
0
POLYLINE
5
287
330
1B
100
AcDbEntity
67
0
8
Vertical Chainage Lines
62
41
420
14737632
6
Dashed
370
0
48
1.0
60
0
100
AcDb3dPolyline
10
0.0
20
0.0
30
0.0
70
8
75
0
210
0.0
220
0.0
230
1.0
0
VERTEX
5
284
100
AcDbEntity
8
Vertical Chainage Lines
62
41
420
14737632
100
AcDbVertex
100
AcDb3dPolylineVertex
10
228100.0
20
4730.0
30
0.0
70
32
0
VERTEX
5
285
100
AcDbEntity
8
Vertical Chainage Lines
62
41
420
14737632
100
AcDbVertex
100
AcDb3dPolylineVertex
10
228100.0
20
4330.0
30
0.0
70
32
0
SEQEND
5
286
100
AcDbEntity
8
Vertical Chainage Lines
0
POLYLINE
5
28B
330
1B
100
AcDbEntity
67
0
8
Vertical Chainage Lines
62
41
420
14737632
6
Dashed
370
0
48
1.0
60
0
100
AcDb3dPolyline
10
0.0
20
0.0
30
0.0
70
8
75
0
210
0.0
220
0.0
230
1.0
0
VERTEX
5
288
100
AcDbEntity
8
Vertical Chainage Lines
62
41
420
14737632
100
AcDbVertex
100
AcDb3dPolylineVertex
10
228200.0
20
4730.0
30
0.0
70
32
0
VERTEX
5
289
100
AcDbEntity
8
Vertical Chainage Lines
62
41
420
14737632
100
AcDbVertex
100
AcDb3dPolylineVertex
10
228200.0
20
4330.0
30
0.0
70
32
0
SEQEND
5
28A
100
AcDbEntity
8
Vertical Chainage Lines
0
POLYLINE
5
28F
330
1B
100
AcDbEntity
67
0
8
Vertical Chainage Lines
62
41
420
14737632
6
Dashed
370
0
48
1.0
60
0
100
AcDb3dPolyline
10
0.0
20
0.0
30
0.0
70
8
75
0
210
0.0
220
0.0
230
1.0
0
VERTEX
5
28C
100
AcDbEntity
8
Vertical Chainage Lines
62
41
420
14737632
100
AcDbVertex
100
AcDb3dPolylineVertex
10
228300.0
20
4730.0
30
0.0
70
32
0
VERTEX
5
28D
100
AcDbEntity
8
Vertical Chainage Lines
62
41
420
14737632
100
AcDbVertex
100
AcDb3dPolylineVertex
10
228300.0
20
4330.0
30
0.0
70
32
0
SEQEND
5
28E
100
AcDbEntity
8
Vertical Chainage Lines
0
POLYLINE
5
293
330
1B
100
AcDbEntity
67
0
8
Vertical Chainage Lines
62
41
420
14737632
6
Dashed
370
0
48
1.0
60
0
100
AcDb3dPolyline
10
0.0
20
0.0
30
0.0
70
8
75
0
210
0.0
220
0.0
230
1.0
0
VERTEX
5
290
100
AcDbEntity
8
Vertical Chainage Lines
62
41
420
14737632
100
AcDbVertex
100
AcDb3dPolylineVertex
10
228400.0
20
4730.0
30
0.0
70
32
0
VERTEX
5
291
100
AcDbEntity
8
Vertical Chainage Lines
62
41
420
14737632
100
AcDbVertex
100
AcDb3dPolylineVertex
10
228400.0
20
4330.0
30
0.0
70
32
0
SEQEND
5
292
100
AcDbEntity
8
Vertical Chainage Lines
0
POLYLINE
5
297
330
1B
100
AcDbEntity
67
0
8
Vertical Chainage Lines
62
41
420
14737632
6
Dashed
370
0
48
1.0
60
0
100
AcDb3dPolyline
10
0.0
20
0.0
30
0.0
70
8
75
0
210
0.0
220
0.0
230
1.0
0
VERTEX
5
294
100
AcDbEntity
8
Vertical Chainage Lines
62
41
420
14737632
100
AcDbVertex
100
AcDb3dPolylineVertex
10
228500.0
20
4730.0
30
0.0
70
32
0
VERTEX
5
295
100
AcDbEntity
8
Vertical Chainage Lines
62
41
420
14737632
100
AcDbVertex
100
AcDb3dPolylineVertex
10
228500.0
20
4330.0
30
0.0
70
32
0
SEQEND
5
296
100
AcDbEntity
8
Vertical Chainage Lines
0
POLYLINE
5
29B
330
1B
100
AcDbEntity
67
0
8
Vertical Chainage Lines
62
41
420
14737632
6
Dashed
370
0
48
1.0
60
0
100
AcDb3dPolyline
10
0.0
20
0.0
30
0.0
70
8
75
0
210
0.0
220
0.0
230
1.0
0
VERTEX
5
298
100
AcDbEntity
8
Vertical Chainage Lines
62
41
420
14737632
100
AcDbVertex
100
AcDb3dPolylineVertex
10
228600.0
20
4730.0
30
0.0
70
32
0
VERTEX
5
299
100
AcDbEntity
8
Vertical Chainage Lines
62
41
420
14737632
100
AcDbVertex
100
AcDb3dPolylineVertex
10
228600.0
20
4330.0
30
0.0
70
32
0
SEQEND
5
29A
100
AcDbEntity
8
Vertical Chainage Lines
0
POLYLINE
5
29F
330
1B
100
AcDbEntity
67
0
8
Vertical Chainage Lines
62
41
420
14737632
6
Dashed
370
0
48
1.0
60
0
100
AcDb3dPolyline
10
0.0
20
0.0
30
0.0
70
8
75
0
210
0.0
220
0.0
230
1.0
0
VERTEX
5
29C
100
AcDbEntity
8
Vertical Chainage Lines
62
41
420
14737632
100
AcDbVertex
100
AcDb3dPolylineVertex
10
228700.0
20
4730.0
30
0.0
70
32
0
VERTEX
5
29D
100
AcDbEntity
8
Vertical Chainage Lines
62
41
420
14737632
100
AcDbVertex
100
AcDb3dPolylineVertex
10
228700.0
20
4330.0
30
0.0
70
32
0
SEQEND
5
29E
100
AcDbEntity
8
Vertical Chainage Lines
0
POLYLINE
5
2A3
330
1B
100
AcDbEntity
67
0
8
Vertical Chainage Lines
62
41
420
14737632
6
Dashed
370
0
48
1.0
60
0
100
AcDb3dPolyline
10
0.0
20
0.0
30
0.0
70
8
75
0
210
0.0
220
0.0
230
1.0
0
VERTEX
5
2A0
100
AcDbEntity
8
Vertical Chainage Lines
62
41
420
14737632
100
AcDbVertex
100
AcDb3dPolylineVertex
10
228800.0
20
4730.0
30
0.0
70
32
0
VERTEX
5
2A1
100
AcDbEntity
8
Vertical Chainage Lines
62
41
420
14737632
100
AcDbVertex
100
AcDb3dPolylineVertex
10
228800.0
20
4330.0
30
0.0
70
32
0
SEQEND
5
2A2
100
AcDbEntity
8
Vertical Chainage Lines
0
POLYLINE
5
2A7
330
1B
100
AcDbEntity
67
0
8
Vertical Chainage Lines
62
41
420
14737632
6
Dashed
370
0
48
1.0
60
0
100
AcDb3dPolyline
10
0.0
20
0.0
30
0.0
70
8
75
0
210
0.0
220
0.0
230
1.0
0
VERTEX
5
2A4
100
AcDbEntity
8
Vertical Chainage Lines
62
41
420
14737632
100
AcDbVertex
100
AcDb3dPolylineVertex
10
228900.0
20
4730.0
30
0.0
70
32
0
VERTEX
5
2A5
100
AcDbEntity
8
Vertical Chainage Lines
62
41
420
14737632
100
AcDbVertex
100
AcDb3dPolylineVertex
10
228900.0
20
4330.0
30
0.0
70
32
0
SEQEND
5
2A6
100
AcDbEntity
8
Vertical Chainage Lines
0
POLYLINE
5
2AB
330
1B
100
AcDbEntity
67
0
8
Vertical Chainage Lines
62
41
420
14737632
6
Dashed
370
0
48
1.0
60
0
100
AcDb3dPolyline
10
0.0
20
0.0
30
0.0
70
8
75
0
210
0.0
220
0.0
230
1.0
0
VERTEX
5
2A8
100
AcDbEntity
8
Vertical Chainage Lines
62
41
420
14737632
100
AcDbVertex
100
AcDb3dPolylineVertex
10
229000.0
20
4730.0
30
0.0
70
32
0
VERTEX
5
2A9
100
AcDbEntity
8
Vertical Chainage Lines
62
41
420
14737632
100
AcDbVertex
100
AcDb3dPolylineVertex
10
229000.0
20
4330.0
30
0.0
70
32
0
SEQEND
5
2AA
100
AcDbEntity
8
Vertical Chainage Lines
0
POLYLINE
5
2AF
330
1B
100
AcDbEntity
67
0
8
Vertical Chainage Lines
62
41
420
14737632
6
Dashed
370
0
48
1.0
60
0
100
AcDb3dPolyline
10
0.0
20
0.0
30
0.0
70
8
75
0
210
0.0
220
0.0
230
1.0
0
VERTEX
5
2AC
100
AcDbEntity
8
Vertical Chainage Lines
62
41
420
14737632
100
AcDbVertex
100
AcDb3dPolylineVertex
10
229100.0
20
4730.0
30
0.0
70
32
0
VERTEX
5
2AD
100
AcDbEntity
8
Vertical Chainage Lines
62
41
420
14737632
100
AcDbVertex
100
AcDb3dPolylineVertex
10
229100.0
20
4330.0
30
0.0
70
32
0
SEQEND
5
2AE
100
AcDbEntity
8
Vertical Chainage Lines
0
POLYLINE
5
2B3
330
1B
100
AcDbEntity
67
0
8
Vertical Chainage Lines
62
41
420
14737632
6
Dashed
370
0
48
1.0
60
0
100
AcDb3dPolyline
10
0.0
20
0.0
30
0.0
70
8
75
0
210
0.0
220
0.0
230
1.0
0
VERTEX
5
2B0
100
AcDbEntity
8
Vertical Chainage Lines
62
41
420
14737632
100
AcDbVertex
100
AcDb3dPolylineVertex
10
229200.0
20
4730.0
30
0.0
70
32
0
VERTEX
5
2B1
100
AcDbEntity
8
Vertical Chainage Lines
62
41
420
14737632
100
AcDbVertex
100
AcDb3dPolylineVertex
10
229200.0
20
4330.0
30
0.0
70
32
0
SEQEND
5
2B2
100
AcDbEntity
8
Vertical Chainage Lines
0
POLYLINE
5
2B7
330
1B
100
AcDbEntity
67
0
8
Vertical Chainage Lines
62
41
420
14737632
6
Dashed
370
0
48
1.0
60
0
100
AcDb3dPolyline
10
0.0
20
0.0
30
0.0
70
8
75
0
210
0.0
220
0.0
230
1.0
0
VERTEX
5
2B4
100
AcDbEntity
8
Vertical Chainage Lines
62
41
420
14737632
100
AcDbVertex
100
AcDb3dPolylineVertex
10
229300.0
20
4730.0
30
0.0
70
32
0
VERTEX
5
2B5
100
AcDbEntity
8
Vertical Chainage Lines
62
41
420
14737632
100
AcDbVertex
100
AcDb3dPolylineVertex
10
229300.0
20
4330.0
30
0.0
70
32
0
SEQEND
5
2B6
100
AcDbEntity
8
Vertical Chainage Lines
0
POLYLINE
5
2BB
330
1B
100
AcDbEntity
67
0
8
Vertical Chainage Lines
62
41
420
14737632
6
Dashed
370
0
48
1.0
60
0
100
AcDb3dPolyline
10
0.0
20
0.0
30
0.0
70
8
75
0
210
0.0
220
0.0
230
1.0
0
VERTEX
5
2B8
100
AcDbEntity
8
Vertical Chainage Lines
62
41
420
14737632
100
AcDbVertex
100
AcDb3dPolylineVertex
10
229400.0
20
4730.0
30
0.0
70
32
0
VERTEX
5
2B9
100
AcDbEntity
8
Vertical Chainage Lines
62
41
420
14737632
100
AcDbVertex
100
AcDb3dPolylineVertex
10
229400.0
20
4330.0
30
0.0
70
32
0
SEQEND
5
2BA
100
AcDbEntity
8
Vertical Chainage Lines
0
POLYLINE
5
2BF
330
1B
100
AcDbEntity
67
0
8
Vertical Chainage Lines
62
41
420
14737632
6
Dashed
370
0
48
1.0
60
0
100
AcDb3dPolyline
10
0.0
20
0.0
30
0.0
70
8
75
0
210
0.0
220
0.0
230
1.0
0
VERTEX
5
2BC
100
AcDbEntity
8
Vertical Chainage Lines
62
41
420
14737632
100
AcDbVertex
100
AcDb3dPolylineVertex
10
229500.0
20
4730.0
30
0.0
70
32
0
VERTEX
5
2BD
100
AcDbEntity
8
Vertical Chainage Lines
62
41
420
14737632
100
AcDbVertex
100
AcDb3dPolylineVertex
10
229500.0
20
4330.0
30
0.0
70
32
0
SEQEND
5
2BE
100
AcDbEntity
8
Vertical Chainage Lines
0
POLYLINE
5
2C3
330
1B
100
AcDbEntity
67
0
8
Vertical Chainage Lines
62
41
420
14737632
6
Dashed
370
0
48
1.0
60
0
100
AcDb3dPolyline
10
0.0
20
0.0
30
0.0
70
8
75
0
210
0.0
220
0.0
230
1.0
0
VERTEX
5
2C0
100
AcDbEntity
8
Vertical Chainage Lines
62
41
420
14737632
100
AcDbVertex
100
AcDb3dPolylineVertex
10
229600.0
20
4730.0
30
0.0
70
32
0
VERTEX
5
2C1
100
AcDbEntity
8
Vertical Chainage Lines
62
41
420
14737632
100
AcDbVertex
100
AcDb3dPolylineVertex
10
229600.0
20
4330.0
30
0.0
70
32
0
SEQEND
5
2C2
100
AcDbEntity
8
Vertical Chainage Lines
0
POLYLINE
5
2C7
330
1B
100
AcDbEntity
67
0
8
Vertical Chainage Lines
62
41
420
14737632
6
Dashed
370
0
48
1.0
60
0
100
AcDb3dPolyline
10
0.0
20
0.0
30
0.0
70
8
75
0
210
0.0
220
0.0
230
1.0
0
VERTEX
5
2C4
100
AcDbEntity
8
Vertical Chainage Lines
62
41
420
14737632
100
AcDbVertex
100
AcDb3dPolylineVertex
10
229700.0
20
4730.0
30
0.0
70
32
0
VERTEX
5
2C5
100
AcDbEntity
8
Vertical Chainage Lines
62
41
420
14737632
100
AcDbVertex
100
AcDb3dPolylineVertex
10
229700.0
20
4330.0
30
0.0
70
32
0
SEQEND
5
2C6
100
AcDbEntity
8
Vertical Chainage Lines
0
POLYLINE
5
2CB
330
1B
100
AcDbEntity
67
0
8
Vertical Chainage Lines
62
41
420
14737632
6
Dashed
370
0
48
1.0
60
0
100
AcDb3dPolyline
10
0.0
20
0.0
30
0.0
70
8
75
0
210
0.0
220
0.0
230
1.0
0
VERTEX
5
2C8
100
AcDbEntity
8
Vertical Chainage Lines
62
41
420
14737632
100
AcDbVertex
100
AcDb3dPolylineVertex
10
229800.0
20
4730.0
30
0.0
70
32
0
VERTEX
5
2C9
100
AcDbEntity
8
Vertical Chainage Lines
62
41
420
14737632
100
AcDbVertex
100
AcDb3dPolylineVertex
10
229800.0
20
4330.0
30
0.0
70
32
0
SEQEND
5
2CA
100
AcDbEntity
8
Vertical Chainage Lines
0
POLYLINE
5
2CF
330
1B
100
AcDbEntity
67
0
8
Vertical Chainage Lines
62
41
420
14737632
6
Dashed
370
0
48
1.0
60
0
100
AcDb3dPolyline
10
0.0
20
0.0
30
0.0
70
8
75
0
210
0.0
220
0.0
230
1.0
0
VERTEX
5
2CC
100
AcDbEntity
8
Vertical Chainage Lines
62
41
420
14737632
100
AcDbVertex
100
AcDb3dPolylineVertex
10
229900.0
20
4730.0
30
0.0
70
32
0
VERTEX
5
2CD
100
AcDbEntity
8
Vertical Chainage Lines
62
41
420
14737632
100
AcDbVertex
100
AcDb3dPolylineVertex
10
229900.0
20
4330.0
30
0.0
70
32
0
SEQEND
5
2CE
100
AcDbEntity
8
Vertical Chainage Lines
0
POLYLINE
5
2D3
330
1B
100
AcDbEntity
67
0
8
Vertical Chainage Lines
62
41
420
14737632
6
Dashed
370
0
48
1.0
60
0
100
AcDb3dPolyline
10
0.0
20
0.0
30
0.0
70
8
75
0
210
0.0
220
0.0
230
1.0
0
VERTEX
5
2D0
100
AcDbEntity
8
Vertical Chainage Lines
62
41
420
14737632
100
AcDbVertex
100
AcDb3dPolylineVertex
10
230000.0
20
4730.0
30
0.0
70
32
0
VERTEX
5
2D1
100
AcDbEntity
8
Vertical Chainage Lines
62
41
420
14737632
100
AcDbVertex
100
AcDb3dPolylineVertex
10
230000.0
20
4330.0
30
0.0
70
32
0
SEQEND
5
2D2
100
AcDbEntity
8
Vertical Chainage Lines
0
POLYLINE
5
2D7
330
1B
100
AcDbEntity
67
0
8
Vertical Chainage Lines
62
41
420
14737632
6
Dashed
370
0
48
1.0
60
0
100
AcDb3dPolyline
10
0.0
20
0.0
30
0.0
70
8
75
0
210
0.0
220
0.0
230
1.0
0
VERTEX
5
2D4
100
AcDbEntity
8
Vertical Chainage Lines
62
41
420
14737632
100
AcDbVertex
100
AcDb3dPolylineVertex
10
230100.0
20
4730.0
30
0.0
70
32
0
VERTEX
5
2D5
100
AcDbEntity
8
Vertical Chainage Lines
62
41
420
14737632
100
AcDbVertex
100
AcDb3dPolylineVertex
10
230100.0
20
4330.0
30
0.0
70
32
0
SEQEND
5
2D6
100
AcDbEntity
8
Vertical Chainage Lines
0
POLYLINE
5
2DB
330
1B
100
AcDbEntity
67
0
8
Vertical Chainage Lines
62
41
420
14737632
6
Dashed
370
0
48
1.0
60
0
100
AcDb3dPolyline
10
0.0
20
0.0
30
0.0
70
8
75
0
210
0.0
220
0.0
230
1.0
0
VERTEX
5
2D8
100
AcDbEntity
8
Vertical Chainage Lines
62
41
420
14737632
100
AcDbVertex
100
AcDb3dPolylineVertex
10
230200.0
20
4730.0
30
0.0
70
32
0
VERTEX
5
2D9
100
AcDbEntity
8
Vertical Chainage Lines
62
41
420
14737632
100
AcDbVertex
100
AcDb3dPolylineVertex
10
230200.0
20
4330.0
30
0.0
70
32
0
SEQEND
5
2DA
100
AcDbEntity
8
Vertical Chainage Lines
0
POLYLINE
5
2DF
330
1B
100
AcDbEntity
67
0
8
Vertical Chainage Lines
62
41
420
14737632
6
Dashed
370
0
48
1.0
60
0
100
AcDb3dPolyline
10
0.0
20
0.0
30
0.0
70
8
75
0
210
0.0
220
0.0
230
1.0
0
VERTEX
5
2DC
100
AcDbEntity
8
Vertical Chainage Lines
62
41
420
14737632
100
AcDbVertex
100
AcDb3dPolylineVertex
10
230300.0
20
4730.0
30
0.0
70
32
0
VERTEX
5
2DD
100
AcDbEntity
8
Vertical Chainage Lines
62
41
420
14737632
100
AcDbVertex
100
AcDb3dPolylineVertex
10
230300.0
20
4330.0
30
0.0
70
32
0
SEQEND
5
2DE
100
AcDbEntity
8
Vertical Chainage Lines
0
POLYLINE
5
2E3
330
1B
100
AcDbEntity
67
0
8
Vertical Chainage Lines
62
41
420
14737632
6
Dashed
370
0
48
1.0
60
0
100
AcDb3dPolyline
10
0.0
20
0.0
30
0.0
70
8
75
0
210
0.0
220
0.0
230
1.0
0
VERTEX
5
2E0
100
AcDbEntity
8
Vertical Chainage Lines
62
41
420
14737632
100
AcDbVertex
100
AcDb3dPolylineVertex
10
230400.0
20
4730.0
30
0.0
70
32
0
VERTEX
5
2E1
100
AcDbEntity
8
Vertical Chainage Lines
62
41
420
14737632
100
AcDbVertex
100
AcDb3dPolylineVertex
10
230400.0
20
4330.0
30
0.0
70
32
0
SEQEND
5
2E2
100
AcDbEntity
8
Vertical Chainage Lines
0
POLYLINE
5
2E7
330
1B
100
AcDbEntity
67
0
8
Vertical Chainage Lines
62
41
420
14737632
6
Dashed
370
0
48
1.0
60
0
100
AcDb3dPolyline
10
0.0
20
0.0
30
0.0
70
8
75
0
210
0.0
220
0.0
230
1.0
0
VERTEX
5
2E4
100
AcDbEntity
8
Vertical Chainage Lines
62
41
420
14737632
100
AcDbVertex
100
AcDb3dPolylineVertex
10
230500.0
20
4730.0
30
0.0
70
32
0
VERTEX
5
2E5
100
AcDbEntity
8
Vertical Chainage Lines
62
41
420
14737632
100
AcDbVertex
100
AcDb3dPolylineVertex
10
230500.0
20
4330.0
30
0.0
70
32
0
SEQEND
5
2E6
100
AcDbEntity
8
Vertical Chainage Lines
0
POLYLINE
5
2EB
330
1B
100
AcDbEntity
67
0
8
Vertical Chainage Lines
62
41
420
14737632
6
Dashed
370
0
48
1.0
60
0
100
AcDb3dPolyline
10
0.0
20
0.0
30
0.0
70
8
75
0
210
0.0
220
0.0
230
1.0
0
VERTEX
5
2E8
100
AcDbEntity
8
Vertical Chainage Lines
62
41
420
14737632
100
AcDbVertex
100
AcDb3dPolylineVertex
10
230600.0
20
4730.0
30
0.0
70
32
0
VERTEX
5
2E9
100
AcDbEntity
8
Vertical Chainage Lines
62
41
420
14737632
100
AcDbVertex
100
AcDb3dPolylineVertex
10
230600.0
20
4330.0
30
0.0
70
32
0
SEQEND
5
2EA
100
AcDbEntity
8
Vertical Chainage Lines
0
POLYLINE
5
2EF
330
1B
100
AcDbEntity
67
0
8
Vertical Chainage Lines
62
41
420
14737632
6
Dashed
370
0
48
1.0
60
0
100
AcDb3dPolyline
10
0.0
20
0.0
30
0.0
70
8
75
0
210
0.0
220
0.0
230
1.0
0
VERTEX
5
2EC
100
AcDbEntity
8
Vertical Chainage Lines
62
41
420
14737632
100
AcDbVertex
100
AcDb3dPolylineVertex
10
230700.0
20
4730.0
30
0.0
70
32
0
VERTEX
5
2ED
100
AcDbEntity
8
Vertical Chainage Lines
62
41
420
14737632
100
AcDbVertex
100
AcDb3dPolylineVertex
10
230700.0
20
4330.0
30
0.0
70
32
0
SEQEND
5
2EE
100
AcDbEntity
8
Vertical Chainage Lines
0
POLYLINE
5
2F3
330
1B
100
AcDbEntity
67
0
8
Vertical Chainage Lines
62
41
420
14737632
6
Dashed
370
0
48
1.0
60
0
100
AcDb3dPolyline
10
0.0
20
0.0
30
0.0
70
8
75
0
210
0.0
220
0.0
230
1.0
0
VERTEX
5
2F0
100
AcDbEntity
8
Vertical Chainage Lines
62
41
420
14737632
100
AcDbVertex
100
AcDb3dPolylineVertex
10
230800.0
20
4730.0
30
0.0
70
32
0
VERTEX
5
2F1
100
AcDbEntity
8
Vertical Chainage Lines
62
41
420
14737632
100
AcDbVertex
100
AcDb3dPolylineVertex
10
230800.0
20
4330.0
30
0.0
70
32
0
SEQEND
5
2F2
100
AcDbEntity
8
Vertical Chainage Lines
0
POLYLINE
5
2F7
330
1B
100
AcDbEntity
67
0
8
Vertical Chainage Lines
62
41
420
14737632
6
Dashed
370
0
48
1.0
60
0
100
AcDb3dPolyline
10
0.0
20
0.0
30
0.0
70
8
75
0
210
0.0
220
0.0
230
1.0
0
VERTEX
5
2F4
100
AcDbEntity
8
Vertical Chainage Lines
62
41
420
14737632
100
AcDbVertex
100
AcDb3dPolylineVertex
10
230900.0
20
4730.0
30
0.0
70
32
0
VERTEX
5
2F5
100
AcDbEntity
8
Vertical Chainage Lines
62
41
420
14737632
100
AcDbVertex
100
AcDb3dPolylineVertex
10
230900.0
20
4330.0
30
0.0
70
32
0
SEQEND
5
2F6
100
AcDbEntity
8
Vertical Chainage Lines
0
POLYLINE
5
2FB
330
1B
100
AcDbEntity
67
0
8
Vertical Chainage Lines
62
41
420
14737632
6
Dashed
370
0
48
1.0
60
0
100
AcDb3dPolyline
10
0.0
20
0.0
30
0.0
70
8
75
0
210
0.0
220
0.0
230
1.0
0
VERTEX
5
2F8
100
AcDbEntity
8
Vertical Chainage Lines
62
41
420
14737632
100
AcDbVertex
100
AcDb3dPolylineVertex
10
231000.0
20
4730.0
30
0.0
70
32
0
VERTEX
5
2F9
100
AcDbEntity
8
Vertical Chainage Lines
62
41
420
14737632
100
AcDbVertex
100
AcDb3dPolylineVertex
10
231000.0
20
4330.0
30
0.0
70
32
0
SEQEND
5
2FA
100
AcDbEntity
8
Vertical Chainage Lines
0
POLYLINE
5
2FF
330
1B
100
AcDbEntity
67
0
8
Vertical Chainage Lines
62
41
420
14737632
6
Dashed
370
0
48
1.0
60
0
100
AcDb3dPolyline
10
0.0
20
0.0
30
0.0
70
8
75
0
210
0.0
220
0.0
230
1.0
0
VERTEX
5
2FC
100
AcDbEntity
8
Vertical Chainage Lines
62
41
420
14737632
100
AcDbVertex
100
AcDb3dPolylineVertex
10
231100.0
20
4730.0
30
0.0
70
32
0
VERTEX
5
2FD
100
AcDbEntity
8
Vertical Chainage Lines
62
41
420
14737632
100
AcDbVertex
100
AcDb3dPolylineVertex
10
231100.0
20
4330.0
30
0.0
70
32
0
SEQEND
5
2FE
100
AcDbEntity
8
Vertical Chainage Lines
0
POLYLINE
5
303
330
1B
100
AcDbEntity
67
0
8
Vertical Chainage Lines
62
41
420
14737632
6
Dashed
370
0
48
1.0
60
0
100
AcDb3dPolyline
10
0.0
20
0.0
30
0.0
70
8
75
0
210
0.0
220
0.0
230
1.0
0
VERTEX
5
300
100
AcDbEntity
8
Vertical Chainage Lines
62
41
420
14737632
100
AcDbVertex
100
AcDb3dPolylineVertex
10
231200.0
20
4730.0
30
0.0
70
32
0
VERTEX
5
301
100
AcDbEntity
8
Vertical Chainage Lines
62
41
420
14737632
100
AcDbVertex
100
AcDb3dPolylineVertex
10
231200.0
20
4330.0
30
0.0
70
32
0
SEQEND
5
302
100
AcDbEntity
8
Vertical Chainage Lines
0
POLYLINE
5
307
330
1B
100
AcDbEntity
67
0
8
Vertical Chainage Lines
62
41
420
14737632
6
Dashed
370
0
48
1.0
60
0
100
AcDb3dPolyline
10
0.0
20
0.0
30
0.0
70
8
75
0
210
0.0
220
0.0
230
1.0
0
VERTEX
5
304
100
AcDbEntity
8
Vertical Chainage Lines
62
41
420
14737632
100
AcDbVertex
100
AcDb3dPolylineVertex
10
231300.0
20
4730.0
30
0.0
70
32
0
VERTEX
5
305
100
AcDbEntity
8
Vertical Chainage Lines
62
41
420
14737632
100
AcDbVertex
100
AcDb3dPolylineVertex
10
231300.0
20
4330.0
30
0.0
70
32
0
SEQEND
5
306
100
AcDbEntity
8
Vertical Chainage Lines
0
POLYLINE
5
30B
330
1B
100
AcDbEntity
67
0
8
Vertical Chainage Lines
62
41
420
14737632
6
Dashed
370
0
48
1.0
60
0
100
AcDb3dPolyline
10
0.0
20
0.0
30
0.0
70
8
75
0
210
0.0
220
0.0
230
1.0
0
VERTEX
5
308
100
AcDbEntity
8
Vertical Chainage Lines
62
41
420
14737632
100
AcDbVertex
100
AcDb3dPolylineVertex
10
231400.0
20
4730.0
30
0.0
70
32
0
VERTEX
5
309
100
AcDbEntity
8
Vertical Chainage Lines
62
41
420
14737632
100
AcDbVertex
100
AcDb3dPolylineVertex
10
231400.0
20
4330.0
30
0.0
70
32
0
SEQEND
5
30A
100
AcDbEntity
8
Vertical Chainage Lines
0
POLYLINE
5
30F
330
1B
100
AcDbEntity
67
0
8
Vertical Chainage Lines
62
41
420
14737632
6
Dashed
370
0
48
1.0
60
0
100
AcDb3dPolyline
10
0.0
20
0.0
30
0.0
70
8
75
0
210
0.0
220
0.0
230
1.0
0
VERTEX
5
30C
100
AcDbEntity
8
Vertical Chainage Lines
62
41
420
14737632
100
AcDbVertex
100
AcDb3dPolylineVertex
10
231500.0
20
4730.0
30
0.0
70
32
0
VERTEX
5
30D
100
AcDbEntity
8
Vertical Chainage Lines
62
41
420
14737632
100
AcDbVertex
100
AcDb3dPolylineVertex
10
231500.0
20
4330.0
30
0.0
70
32
0
SEQEND
5
30E
100
AcDbEntity
8
Vertical Chainage Lines
0
POLYLINE
5
313
330
1B
100
AcDbEntity
67
0
8
Vertical Chainage Lines
62
41
420
14737632
6
Dashed
370
0
48
1.0
60
0
100
AcDb3dPolyline
10
0.0
20
0.0
30
0.0
70
8
75
0
210
0.0
220
0.0
230
1.0
0
VERTEX
5
310
100
AcDbEntity
8
Vertical Chainage Lines
62
41
420
14737632
100
AcDbVertex
100
AcDb3dPolylineVertex
10
231600.0
20
4730.0
30
0.0
70
32
0
VERTEX
5
311
100
AcDbEntity
8
Vertical Chainage Lines
62
41
420
14737632
100
AcDbVertex
100
AcDb3dPolylineVertex
10
231600.0
20
4330.0
30
0.0
70
32
0
SEQEND
5
312
100
AcDbEntity
8
Vertical Chainage Lines
0
POLYLINE
5
317
330
1B
100
AcDbEntity
67
0
8
Vertical Chainage Lines
62
41
420
14737632
6
Dashed
370
0
48
1.0
60
0
100
AcDb3dPolyline
10
0.0
20
0.0
30
0.0
70
8
75
0
210
0.0
220
0.0
230
1.0
0
VERTEX
5
314
100
AcDbEntity
8
Vertical Chainage Lines
62
41
420
14737632
100
AcDbVertex
100
AcDb3dPolylineVertex
10
231700.0
20
4730.0
30
0.0
70
32
0
VERTEX
5
315
100
AcDbEntity
8
Vertical Chainage Lines
62
41
420
14737632
100
AcDbVertex
100
AcDb3dPolylineVertex
10
231700.0
20
4330.0
30
0.0
70
32
0
SEQEND
5
316
100
AcDbEntity
8
Vertical Chainage Lines
0
POLYLINE
5
31B
330
1B
100
AcDbEntity
67
0
8
Vertical Chainage Lines
62
41
420
14737632
6
Dashed
370
0
48
1.0
60
0
100
AcDb3dPolyline
10
0.0
20
0.0
30
0.0
70
8
75
0
210
0.0
220
0.0
230
1.0
0
VERTEX
5
318
100
AcDbEntity
8
Vertical Chainage Lines
62
41
420
14737632
100
AcDbVertex
100
AcDb3dPolylineVertex
10
231800.0
20
4730.0
30
0.0
70
32
0
VERTEX
5
319
100
AcDbEntity
8
Vertical Chainage Lines
62
41
420
14737632
100
AcDbVertex
100
AcDb3dPolylineVertex
10
231800.0
20
4330.0
30
0.0
70
32
0
SEQEND
5
31A
100
AcDbEntity
8
Vertical Chainage Lines
0
POLYLINE
5
321
330
1B
100
AcDbEntity
67
0
8
Package
62
9
6
ByLayer
370
25
48
1.0
60
0
100
AcDb3dPolyline
10
0.0
20
0.0
30
0.0
70
9
75
0
210
0.0
220
0.0
230
1.0
0
VERTEX
5
31C
100
AcDbEntity
8
Package
62
9
100
AcDbVertex
100
AcDb3dPolylineVertex
10
224540.0
20
4330.0
30
0.0
70
32
0
VERTEX
5
31D
100
AcDbEntity
8
Package
62
9
100
AcDbVertex
100
AcDb3dPolylineVertex
10
231870.0
20
4330.0
30
0.0
70
32
0
VERTEX
5
31E
100
AcDbEntity
8
Package
62
9
100
AcDbVertex
100
AcDb3dPolylineVertex
10
231870.0
20
4210.0
30
0.0
70
32
0
VERTEX
5
31F
100
AcDbEntity
8
Package
62
9
100
AcDbVertex
100
AcDb3dPolylineVertex
10
224540.0
20
4210.0
30
0.0
70
32
0
SEQEND
5
320
100
AcDbEntity
8
Package
0
POLYLINE
5
325
330
1B
100
AcDbEntity
67
0
8
Markers-One
62
41
420
14737632
6
Dashed
370
0
48
1.0
60
0
100
AcDb3dPolyline
10
0.0
20
0.0
30
0.0
70
8
75
0
210
0.0
220
0.0
230
1.0
0
VERTEX
5
322
100
AcDbEntity
8
Markers-One
62
41
420
14737632
100
AcDbVertex
100
AcDb3dPolylineVertex
10
224540.0
20
4210.0
30
0.0
70
32
0
VERTEX
5
323
100
AcDbEntity
8
Markers-One
62
41
420
14737632
100
AcDbVertex
100
AcDb3dPolylineVertex
10
224540.0
20
4215.0
30
0.0
70
32
0
SEQEND
5
324
100
AcDbEntity
8
Markers-One
0
TEXT
5
326
330
1B
100
AcDbEntity
67
0
8
Chainage Text
62
9
6
ByLayer
370
15
48
1.0
60
0
100
AcDbText
1
224+540
10
224540.0
20
4220.0
30
0.0
40
14.0
41
1.0
50
90.0
51
0.0
7
True type font
11
224540.0
21
4220.0
31
0.0
210
0.0
220
0.0
230
1.0
72
0
100
AcDbText
73
0
0
POLYLINE
5
32A
330
1B
100
AcDbEntity
67
0
8
Markers-One
62
41
420
14737632
6
Dashed
370
0
48
1.0
60
0
100
AcDb3dPolyline
10
0.0
20
0.0
30
0.0
70
8
75
0
210
0.0
220
0.0
230
1.0
0
VERTEX
5
327
100
AcDbEntity
8
Markers-One
62
41
420
14737632
100
AcDbVertex
100
AcDb3dPolylineVertex
10
224600.0
20
4210.0
30
0.0
70
32
0
VERTEX
5
328
100
AcDbEntity
8
Markers-One
62
41
420
14737632
100
AcDbVertex
100
AcDb3dPolylineVertex
10
224600.0
20
4215.0
30
0.0
70
32
0
SEQEND
5
329
100
AcDbEntity
8
Markers-One
0
TEXT
5
32B
330
1B
100
AcDbEntity
67
0
8
Chainage Text
62
9
6
ByLayer
370
15
48
1.0
60
0
100
AcDbText
1
224+600
10
224600.0
20
4220.0
30
0.0
40
14.0
41
1.0
50
90.0
51
0.0
7
True type font
11
224600.0
21
4220.0
31
0.0
210
0.0
220
0.0
230
1.0
72
0
100
AcDbText
73
0
0
POLYLINE
5
32F
330
1B
100
AcDbEntity
67
0
8
Markers-One
62
41
420
14737632
6
Dashed
370
0
48
1.0
60
0
100
AcDb3dPolyline
10
0.0
20
0.0
30
0.0
70
8
75
0
210
0.0
220
0.0
230
1.0
0
VERTEX
5
32C
100
AcDbEntity
8
Markers-One
62
41
420
14737632
100
AcDbVertex
100
AcDb3dPolylineVertex
10
224700.0
20
4210.0
30
0.0
70
32
0
VERTEX
5
32D
100
AcDbEntity
8
Markers-One
62
41
420
14737632
100
AcDbVertex
100
AcDb3dPolylineVertex
10
224700.0
20
4215.0
30
0.0
70
32
0
SEQEND
5
32E
100
AcDbEntity
8
Markers-One
0
TEXT
5
330
330
1B
100
AcDbEntity
67
0
8
Chainage Text
62
9
6
ByLayer
370
15
48
1.0
60
0
100
AcDbText
1
224+700
10
224700.0
20
4220.0
30
0.0
40
14.0
41
1.0
50
90.0
51
0.0
7
True type font
11
224700.0
21
4220.0
31
0.0
210
0.0
220
0.0
230
1.0
72
0
100
AcDbText
73
0
0
POLYLINE
5
334
330
1B
100
AcDbEntity
67
0
8
Markers-One
62
41
420
14737632
6
Dashed
370
0
48
1.0
60
0
100
AcDb3dPolyline
10
0.0
20
0.0
30
0.0
70
8
75
0
210
0.0
220
0.0
230
1.0
0
VERTEX
5
331
100
AcDbEntity
8
Markers-One
62
41
420
14737632
100
AcDbVertex
100
AcDb3dPolylineVertex
10
224800.0
20
4210.0
30
0.0
70
32
0
VERTEX
5
332
100
AcDbEntity
8
Markers-One
62
41
420
14737632
100
AcDbVertex
100
AcDb3dPolylineVertex
10
224800.0
20
4215.0
30
0.0
70
32
0
SEQEND
5
333
100
AcDbEntity
8
Markers-One
0
TEXT
5
335
330
1B
100
AcDbEntity
67
0
8
Chainage Text
62
9
6
ByLayer
370
15
48
1.0
60
0
100
AcDbText
1
224+800
10
224800.0
20
4220.0
30
0.0
40
14.0
41
1.0
50
90.0
51
0.0
7
True type font
11
224800.0
21
4220.0
31
0.0
210
0.0
220
0.0
230
1.0
72
0
100
AcDbText
73
0
0
POLYLINE
5
339
330
1B
100
AcDbEntity
67
0
8
Markers-One
62
41
420
14737632
6
Dashed
370
0
48
1.0
60
0
100
AcDb3dPolyline
10
0.0
20
0.0
30
0.0
70
8
75
0
210
0.0
220
0.0
230
1.0
0
VERTEX
5
336
100
AcDbEntity
8
Markers-One
62
41
420
14737632
100
AcDbVertex
100
AcDb3dPolylineVertex
10
224900.0
20
4210.0
30
0.0
70
32
0
VERTEX
5
337
100
AcDbEntity
8
Markers-One
62
41
420
14737632
100
AcDbVertex
100
AcDb3dPolylineVertex
10
224900.0
20
4215.0
30
0.0
70
32
0
SEQEND
5
338
100
AcDbEntity
8
Markers-One
0
TEXT
5
33A
330
1B
100
AcDbEntity
67
0
8
Chainage Text
62
9
6
ByLayer
370
15
48
1.0
60
0
100
AcDbText
1
224+900
10
224900.0
20
4220.0
30
0.0
40
14.0
41
1.0
50
90.0
51
0.0
7
True type font
11
224900.0
21
4220.0
31
0.0
210
0.0
220
0.0
230
1.0
72
0
100
AcDbText
73
0
0
POLYLINE
5
33E
330
1B
100
AcDbEntity
67
0
8
Markers-One
62
41
420
14737632
6
Dashed
370
0
48
1.0
60
0
100
AcDb3dPolyline
10
0.0
20
0.0
30
0.0
70
8
75
0
210
0.0
220
0.0
230
1.0
0
VERTEX
5
33B
100
AcDbEntity
8
Markers-One
62
41
420
14737632
100
AcDbVertex
100
AcDb3dPolylineVertex
10
225000.0
20
4210.0
30
0.0
70
32
0
VERTEX
5
33C
100
AcDbEntity
8
Markers-One
62
41
420
14737632
100
AcDbVertex
100
AcDb3dPolylineVertex
10
225000.0
20
4215.0
30
0.0
70
32
0
SEQEND
5
33D
100
AcDbEntity
8
Markers-One
0
TEXT
5
33F
330
1B
100
AcDbEntity
67
0
8
Chainage Text
62
9
6
ByLayer
370
15
48
1.0
60
0
100
AcDbText
1
225+000
10
225000.0
20
4220.0
30
0.0
40
14.0
41
1.0
50
90.0
51
0.0
7
True type font
11
225000.0
21
4220.0
31
0.0
210
0.0
220
0.0
230
1.0
72
0
100
AcDbText
73
0
0
POLYLINE
5
343
330
1B
100
AcDbEntity
67
0
8
Markers-One
62
41
420
14737632
6
Dashed
370
0
48
1.0
60
0
100
AcDb3dPolyline
10
0.0
20
0.0
30
0.0
70
8
75
0
210
0.0
220
0.0
230
1.0
0
VERTEX
5
340
100
AcDbEntity
8
Markers-One
62
41
420
14737632
100
AcDbVertex
100
AcDb3dPolylineVertex
10
225100.0
20
4210.0
30
0.0
70
32
0
VERTEX
5
341
100
AcDbEntity
8
Markers-One
62
41
420
14737632
100
AcDbVertex
100
AcDb3dPolylineVertex
10
225100.0
20
4215.0
30
0.0
70
32
0
SEQEND
5
342
100
AcDbEntity
8
Markers-One
0
TEXT
5
344
330
1B
100
AcDbEntity
67
0
8
Chainage Text
62
9
6
ByLayer
370
15
48
1.0
60
0
100
AcDbText
1
225+100
10
225100.0
20
4220.0
30
0.0
40
14.0
41
1.0
50
90.0
51
0.0
7
True type font
11
225100.0
21
4220.0
31
0.0
210
0.0
220
0.0
230
1.0
72
0
100
AcDbText
73
0
0
POLYLINE
5
348
330
1B
100
AcDbEntity
67
0
8
Markers-One
62
41
420
14737632
6
Dashed
370
0
48
1.0
60
0
100
AcDb3dPolyline
10
0.0
20
0.0
30
0.0
70
8
75
0
210
0.0
220
0.0
230
1.0
0
VERTEX
5
345
100
AcDbEntity
8
Markers-One
62
41
420
14737632
100
AcDbVertex
100
AcDb3dPolylineVertex
10
225200.0
20
4210.0
30
0.0
70
32
0
VERTEX
5
346
100
AcDbEntity
8
Markers-One
62
41
420
14737632
100
AcDbVertex
100
AcDb3dPolylineVertex
10
225200.0
20
4215.0
30
0.0
70
32
0
SEQEND
5
347
100
AcDbEntity
8
Markers-One
0
TEXT
5
349
330
1B
100
AcDbEntity
67
0
8
Chainage Text
62
9
6
ByLayer
370
15
48
1.0
60
0
100
AcDbText
1
225+200
10
225200.0
20
4220.0
30
0.0
40
14.0
41
1.0
50
90.0
51
0.0
7
True type font
11
225200.0
21
4220.0
31
0.0
210
0.0
220
0.0
230
1.0
72
0
100
AcDbText
73
0
0
POLYLINE
5
34D
330
1B
100
AcDbEntity
67
0
8
Markers-One
62
41
420
14737632
6
Dashed
370
0
48
1.0
60
0
100
AcDb3dPolyline
10
0.0
20
0.0
30
0.0
70
8
75
0
210
0.0
220
0.0
230
1.0
0
VERTEX
5
34A
100
AcDbEntity
8
Markers-One
62
41
420
14737632
100
AcDbVertex
100
AcDb3dPolylineVertex
10
225300.0
20
4210.0
30
0.0
70
32
0
VERTEX
5
34B
100
AcDbEntity
8
Markers-One
62
41
420
14737632
100
AcDbVertex
100
AcDb3dPolylineVertex
10
225300.0
20
4215.0
30
0.0
70
32
0
SEQEND
5
34C
100
AcDbEntity
8
Markers-One
0
TEXT
5
34E
330
1B
100
AcDbEntity
67
0
8
Chainage Text
62
9
6
ByLayer
370
15
48
1.0
60
0
100
AcDbText
1
225+300
10
225300.0
20
4220.0
30
0.0
40
14.0
41
1.0
50
90.0
51
0.0
7
True type font
11
225300.0
21
4220.0
31
0.0
210
0.0
220
0.0
230
1.0
72
0
100
AcDbText
73
0
0
POLYLINE
5
352
330
1B
100
AcDbEntity
67
0
8
Markers-One
62
41
420
14737632
6
Dashed
370
0
48
1.0
60
0
100
AcDb3dPolyline
10
0.0
20
0.0
30
0.0
70
8
75
0
210
0.0
220
0.0
230
1.0
0
VERTEX
5
34F
100
AcDbEntity
8
Markers-One
62
41
420
14737632
100
AcDbVertex
100
AcDb3dPolylineVertex
10
225400.0
20
4210.0
30
0.0
70
32
0
VERTEX
5
350
100
AcDbEntity
8
Markers-One
62
41
420
14737632
100
AcDbVertex
100
AcDb3dPolylineVertex
10
225400.0
20
4215.0
30
0.0
70
32
0
SEQEND
5
351
100
AcDbEntity
8
Markers-One
0
TEXT
5
353
330
1B
100
AcDbEntity
67
0
8
Chainage Text
62
9
6
ByLayer
370
15
48
1.0
60
0
100
AcDbText
1
225+400
10
225400.0
20
4220.0
30
0.0
40
14.0
41
1.0
50
90.0
51
0.0
7
True type font
11
225400.0
21
4220.0
31
0.0
210
0.0
220
0.0
230
1.0
72
0
100
AcDbText
73
0
0
POLYLINE
5
357
330
1B
100
AcDbEntity
67
0
8
Markers-One
62
41
420
14737632
6
Dashed
370
0
48
1.0
60
0
100
AcDb3dPolyline
10
0.0
20
0.0
30
0.0
70
8
75
0
210
0.0
220
0.0
230
1.0
0
VERTEX
5
354
100
AcDbEntity
8
Markers-One
62
41
420
14737632
100
AcDbVertex
100
AcDb3dPolylineVertex
10
225500.0
20
4210.0
30
0.0
70
32
0
VERTEX
5
355
100
AcDbEntity
8
Markers-One
62
41
420
14737632
100
AcDbVertex
100
AcDb3dPolylineVertex
10
225500.0
20
4215.0
30
0.0
70
32
0
SEQEND
5
356
100
AcDbEntity
8
Markers-One
0
TEXT
5
358
330
1B
100
AcDbEntity
67
0
8
Chainage Text
62
9
6
ByLayer
370
15
48
1.0
60
0
100
AcDbText
1
225+500
10
225500.0
20
4220.0
30
0.0
40
14.0
41
1.0
50
90.0
51
0.0
7
True type font
11
225500.0
21
4220.0
31
0.0
210
0.0
220
0.0
230
1.0
72
0
100
AcDbText
73
0
0
POLYLINE
5
35C
330
1B
100
AcDbEntity
67
0
8
Markers-One
62
41
420
14737632
6
Dashed
370
0
48
1.0
60
0
100
AcDb3dPolyline
10
0.0
20
0.0
30
0.0
70
8
75
0
210
0.0
220
0.0
230
1.0
0
VERTEX
5
359
100
AcDbEntity
8
Markers-One
62
41
420
14737632
100
AcDbVertex
100
AcDb3dPolylineVertex
10
225600.0
20
4210.0
30
0.0
70
32
0
VERTEX
5
35A
100
AcDbEntity
8
Markers-One
62
41
420
14737632
100
AcDbVertex
100
AcDb3dPolylineVertex
10
225600.0
20
4215.0
30
0.0
70
32
0
SEQEND
5
35B
100
AcDbEntity
8
Markers-One
0
TEXT
5
35D
330
1B
100
AcDbEntity
67
0
8
Chainage Text
62
9
6
ByLayer
370
15
48
1.0
60
0
100
AcDbText
1
225+600
10
225600.0
20
4220.0
30
0.0
40
14.0
41
1.0
50
90.0
51
0.0
7
True type font
11
225600.0
21
4220.0
31
0.0
210
0.0
220
0.0
230
1.0
72
0
100
AcDbText
73
0
0
POLYLINE
5
361
330
1B
100
AcDbEntity
67
0
8
Markers-One
62
41
420
14737632
6
Dashed
370
0
48
1.0
60
0
100
AcDb3dPolyline
10
0.0
20
0.0
30
0.0
70
8
75
0
210
0.0
220
0.0
230
1.0
0
VERTEX
5
35E
100
AcDbEntity
8
Markers-One
62
41
420
14737632
100
AcDbVertex
100
AcDb3dPolylineVertex
10
225700.0
20
4210.0
30
0.0
70
32
0
VERTEX
5
35F
100
AcDbEntity
8
Markers-One
62
41
420
14737632
100
AcDbVertex
100
AcDb3dPolylineVertex
10
225700.0
20
4215.0
30
0.0
70
32
0
SEQEND
5
360
100
AcDbEntity
8
Markers-One
0
TEXT
5
362
330
1B
100
AcDbEntity
67
0
8
Chainage Text
62
9
6
ByLayer
370
15
48
1.0
60
0
100
AcDbText
1
225+700
10
225700.0
20
4220.0
30
0.0
40
14.0
41
1.0
50
90.0
51
0.0
7
True type font
11
225700.0
21
4220.0
31
0.0
210
0.0
220
0.0
230
1.0
72
0
100
AcDbText
73
0
0
POLYLINE
5
366
330
1B
100
AcDbEntity
67
0
8
Markers-One
62
41
420
14737632
6
Dashed
370
0
48
1.0
60
0
100
AcDb3dPolyline
10
0.0
20
0.0
30
0.0
70
8
75
0
210
0.0
220
0.0
230
1.0
0
VERTEX
5
363
100
AcDbEntity
8
Markers-One
62
41
420
14737632
100
AcDbVertex
100
AcDb3dPolylineVertex
10
225800.0
20
4210.0
30
0.0
70
32
0
VERTEX
5
364
100
AcDbEntity
8
Markers-One
62
41
420
14737632
100
AcDbVertex
100
AcDb3dPolylineVertex
10
225800.0
20
4215.0
30
0.0
70
32
0
SEQEND
5
365
100
AcDbEntity
8
Markers-One
0
TEXT
5
367
330
1B
100
AcDbEntity
67
0
8
Chainage Text
62
9
6
ByLayer
370
15
48
1.0
60
0
100
AcDbText
1
225+800
10
225800.0
20
4220.0
30
0.0
40
14.0
41
1.0
50
90.0
51
0.0
7
True type font
11
225800.0
21
4220.0
31
0.0
210
0.0
220
0.0
230
1.0
72
0
100
AcDbText
73
0
0
POLYLINE
5
36B
330
1B
100
AcDbEntity
67
0
8
Markers-One
62
41
420
14737632
6
Dashed
370
0
48
1.0
60
0
100
AcDb3dPolyline
10
0.0
20
0.0
30
0.0
70
8
75
0
210
0.0
220
0.0
230
1.0
0
VERTEX
5
368
100
AcDbEntity
8
Markers-One
62
41
420
14737632
100
AcDbVertex
100
AcDb3dPolylineVertex
10
225900.0
20
4210.0
30
0.0
70
32
0
VERTEX
5
369
100
AcDbEntity
8
Markers-One
62
41
420
14737632
100
AcDbVertex
100
AcDb3dPolylineVertex
10
225900.0
20
4215.0
30
0.0
70
32
0
SEQEND
5
36A
100
AcDbEntity
8
Markers-One
0
TEXT
5
36C
330
1B
100
AcDbEntity
67
0
8
Chainage Text
62
9
6
ByLayer
370
15
48
1.0
60
0
100
AcDbText
1
225+900
10
225900.0
20
4220.0
30
0.0
40
14.0
41
1.0
50
90.0
51
0.0
7
True type font
11
225900.0
21
4220.0
31
0.0
210
0.0
220
0.0
230
1.0
72
0
100
AcDbText
73
0
0
POLYLINE
5
370
330
1B
100
AcDbEntity
67
0
8
Markers-One
62
41
420
14737632
6
Dashed
370
0
48
1.0
60
0
100
AcDb3dPolyline
10
0.0
20
0.0
30
0.0
70
8
75
0
210
0.0
220
0.0
230
1.0
0
VERTEX
5
36D
100
AcDbEntity
8
Markers-One
62
41
420
14737632
100
AcDbVertex
100
AcDb3dPolylineVertex
10
226000.0
20
4210.0
30
0.0
70
32
0
VERTEX
5
36E
100
AcDbEntity
8
Markers-One
62
41
420
14737632
100
AcDbVertex
100
AcDb3dPolylineVertex
10
226000.0
20
4215.0
30
0.0
70
32
0
SEQEND
5
36F
100
AcDbEntity
8
Markers-One
0
TEXT
5
371
330
1B
100
AcDbEntity
67
0
8
Chainage Text
62
9
6
ByLayer
370
15
48
1.0
60
0
100
AcDbText
1
226+000
10
226000.0
20
4220.0
30
0.0
40
14.0
41
1.0
50
90.0
51
0.0
7
True type font
11
226000.0
21
4220.0
31
0.0
210
0.0
220
0.0
230
1.0
72
0
100
AcDbText
73
0
0
POLYLINE
5
375
330
1B
100
AcDbEntity
67
0
8
Markers-One
62
41
420
14737632
6
Dashed
370
0
48
1.0
60
0
100
AcDb3dPolyline
10
0.0
20
0.0
30
0.0
70
8
75
0
210
0.0
220
0.0
230
1.0
0
VERTEX
5
372
100
AcDbEntity
8
Markers-One
62
41
420
14737632
100
AcDbVertex
100
AcDb3dPolylineVertex
10
226100.0
20
4210.0
30
0.0
70
32
0
VERTEX
5
373
100
AcDbEntity
8
Markers-One
62
41
420
14737632
100
AcDbVertex
100
AcDb3dPolylineVertex
10
226100.0
20
4215.0
30
0.0
70
32
0
SEQEND
5
374
100
AcDbEntity
8
Markers-One
0
TEXT
5
376
330
1B
100
AcDbEntity
67
0
8
Chainage Text
62
9
6
ByLayer
370
15
48
1.0
60
0
100
AcDbText
1
226+100
10
226100.0
20
4220.0
30
0.0
40
14.0
41
1.0
50
90.0
51
0.0
7
True type font
11
226100.0
21
4220.0
31
0.0
210
0.0
220
0.0
230
1.0
72
0
100
AcDbText
73
0
0
POLYLINE
5
37A
330
1B
100
AcDbEntity
67
0
8
Markers-One
62
41
420
14737632
6
Dashed
370
0
48
1.0
60
0
100
AcDb3dPolyline
10
0.0
20
0.0
30
0.0
70
8
75
0
210
0.0
220
0.0
230
1.0
0
VERTEX
5
377
100
AcDbEntity
8
Markers-One
62
41
420
14737632
100
AcDbVertex
100
AcDb3dPolylineVertex
10
226200.0
20
4210.0
30
0.0
70
32
0
VERTEX
5
378
100
AcDbEntity
8
Markers-One
62
41
420
14737632
100
AcDbVertex
100
AcDb3dPolylineVertex
10
226200.0
20
4215.0
30
0.0
70
32
0
SEQEND
5
379
100
AcDbEntity
8
Markers-One
0
TEXT
5
37B
330
1B
100
AcDbEntity
67
0
8
Chainage Text
62
9
6
ByLayer
370
15
48
1.0
60
0
100
AcDbText
1
226+200
10
226200.0
20
4220.0
30
0.0
40
14.0
41
1.0
50
90.0
51
0.0
7
True type font
11
226200.0
21
4220.0
31
0.0
210
0.0
220
0.0
230
1.0
72
0
100
AcDbText
73
0
0
POLYLINE
5
37F
330
1B
100
AcDbEntity
67
0
8
Markers-One
62
41
420
14737632
6
Dashed
370
0
48
1.0
60
0
100
AcDb3dPolyline
10
0.0
20
0.0
30
0.0
70
8
75
0
210
0.0
220
0.0
230
1.0
0
VERTEX
5
37C
100
AcDbEntity
8
Markers-One
62
41
420
14737632
100
AcDbVertex
100
AcDb3dPolylineVertex
10
226300.0
20
4210.0
30
0.0
70
32
0
VERTEX
5
37D
100
AcDbEntity
8
Markers-One
62
41
420
14737632
100
AcDbVertex
100
AcDb3dPolylineVertex
10
226300.0
20
4215.0
30
0.0
70
32
0
SEQEND
5
37E
100
AcDbEntity
8
Markers-One
0
TEXT
5
380
330
1B
100
AcDbEntity
67
0
8
Chainage Text
62
9
6
ByLayer
370
15
48
1.0
60
0
100
AcDbText
1
226+300
10
226300.0
20
4220.0
30
0.0
40
14.0
41
1.0
50
90.0
51
0.0
7
True type font
11
226300.0
21
4220.0
31
0.0
210
0.0
220
0.0
230
1.0
72
0
100
AcDbText
73
0
0
POLYLINE
5
384
330
1B
100
AcDbEntity
67
0
8
Markers-One
62
41
420
14737632
6
Dashed
370
0
48
1.0
60
0
100
AcDb3dPolyline
10
0.0
20
0.0
30
0.0
70
8
75
0
210
0.0
220
0.0
230
1.0
0
VERTEX
5
381
100
AcDbEntity
8
Markers-One
62
41
420
14737632
100
AcDbVertex
100
AcDb3dPolylineVertex
10
226400.0
20
4210.0
30
0.0
70
32
0
VERTEX
5
382
100
AcDbEntity
8
Markers-One
62
41
420
14737632
100
AcDbVertex
100
AcDb3dPolylineVertex
10
226400.0
20
4215.0
30
0.0
70
32
0
SEQEND
5
383
100
AcDbEntity
8
Markers-One
0
TEXT
5
385
330
1B
100
AcDbEntity
67
0
8
Chainage Text
62
9
6
ByLayer
370
15
48
1.0
60
0
100
AcDbText
1
226+400
10
226400.0
20
4220.0
30
0.0
40
14.0
41
1.0
50
90.0
51
0.0
7
True type font
11
226400.0
21
4220.0
31
0.0
210
0.0
220
0.0
230
1.0
72
0
100
AcDbText
73
0
0
POLYLINE
5
389
330
1B
100
AcDbEntity
67
0
8
Markers-One
62
41
420
14737632
6
Dashed
370
0
48
1.0
60
0
100
AcDb3dPolyline
10
0.0
20
0.0
30
0.0
70
8
75
0
210
0.0
220
0.0
230
1.0
0
VERTEX
5
386
100
AcDbEntity
8
Markers-One
62
41
420
14737632
100
AcDbVertex
100
AcDb3dPolylineVertex
10
226500.0
20
4210.0
30
0.0
70
32
0
VERTEX
5
387
100
AcDbEntity
8
Markers-One
62
41
420
14737632
100
AcDbVertex
100
AcDb3dPolylineVertex
10
226500.0
20
4215.0
30
0.0
70
32
0
SEQEND
5
388
100
AcDbEntity
8
Markers-One
0
TEXT
5
38A
330
1B
100
AcDbEntity
67
0
8
Chainage Text
62
9
6
ByLayer
370
15
48
1.0
60
0
100
AcDbText
1
226+500
10
226500.0
20
4220.0
30
0.0
40
14.0
41
1.0
50
90.0
51
0.0
7
True type font
11
226500.0
21
4220.0
31
0.0
210
0.0
220
0.0
230
1.0
72
0
100
AcDbText
73
0
0
POLYLINE
5
38E
330
1B
100
AcDbEntity
67
0
8
Markers-One
62
41
420
14737632
6
Dashed
370
0
48
1.0
60
0
100
AcDb3dPolyline
10
0.0
20
0.0
30
0.0
70
8
75
0
210
0.0
220
0.0
230
1.0
0
VERTEX
5
38B
100
AcDbEntity
8
Markers-One
62
41
420
14737632
100
AcDbVertex
100
AcDb3dPolylineVertex
10
226600.0
20
4210.0
30
0.0
70
32
0
VERTEX
5
38C
100
AcDbEntity
8
Markers-One
62
41
420
14737632
100
AcDbVertex
100
AcDb3dPolylineVertex
10
226600.0
20
4215.0
30
0.0
70
32
0
SEQEND
5
38D
100
AcDbEntity
8
Markers-One
0
TEXT
5
38F
330
1B
100
AcDbEntity
67
0
8
Chainage Text
62
9
6
ByLayer
370
15
48
1.0
60
0
100
AcDbText
1
226+600
10
226600.0
20
4220.0
30
0.0
40
14.0
41
1.0
50
90.0
51
0.0
7
True type font
11
226600.0
21
4220.0
31
0.0
210
0.0
220
0.0
230
1.0
72
0
100
AcDbText
73
0
0
POLYLINE
5
393
330
1B
100
AcDbEntity
67
0
8
Markers-One
62
41
420
14737632
6
Dashed
370
0
48
1.0
60
0
100
AcDb3dPolyline
10
0.0
20
0.0
30
0.0
70
8
75
0
210
0.0
220
0.0
230
1.0
0
VERTEX
5
390
100
AcDbEntity
8
Markers-One
62
41
420
14737632
100
AcDbVertex
100
AcDb3dPolylineVertex
10
226700.0
20
4210.0
30
0.0
70
32
0
VERTEX
5
391
100
AcDbEntity
8
Markers-One
62
41
420
14737632
100
AcDbVertex
100
AcDb3dPolylineVertex
10
226700.0
20
4215.0
30
0.0
70
32
0
SEQEND
5
392
100
AcDbEntity
8
Markers-One
0
TEXT
5
394
330
1B
100
AcDbEntity
67
0
8
Chainage Text
62
9
6
ByLayer
370
15
48
1.0
60
0
100
AcDbText
1
226+700
10
226700.0
20
4220.0
30
0.0
40
14.0
41
1.0
50
90.0
51
0.0
7
True type font
11
226700.0
21
4220.0
31
0.0
210
0.0
220
0.0
230
1.0
72
0
100
AcDbText
73
0
0
POLYLINE
5
398
330
1B
100
AcDbEntity
67
0
8
Markers-One
62
41
420
14737632
6
Dashed
370
0
48
1.0
60
0
100
AcDb3dPolyline
10
0.0
20
0.0
30
0.0
70
8
75
0
210
0.0
220
0.0
230
1.0
0
VERTEX
5
395
100
AcDbEntity
8
Markers-One
62
41
420
14737632
100
AcDbVertex
100
AcDb3dPolylineVertex
10
226800.0
20
4210.0
30
0.0
70
32
0
VERTEX
5
396
100
AcDbEntity
8
Markers-One
62
41
420
14737632
100
AcDbVertex
100
AcDb3dPolylineVertex
10
226800.0
20
4215.0
30
0.0
70
32
0
SEQEND
5
397
100
AcDbEntity
8
Markers-One
0
TEXT
5
399
330
1B
100
AcDbEntity
67
0
8
Chainage Text
62
9
6
ByLayer
370
15
48
1.0
60
0
100
AcDbText
1
226+800
10
226800.0
20
4220.0
30
0.0
40
14.0
41
1.0
50
90.0
51
0.0
7
True type font
11
226800.0
21
4220.0
31
0.0
210
0.0
220
0.0
230
1.0
72
0
100
AcDbText
73
0
0
POLYLINE
5
39D
330
1B
100
AcDbEntity
67
0
8
Markers-One
62
41
420
14737632
6
Dashed
370
0
48
1.0
60
0
100
AcDb3dPolyline
10
0.0
20
0.0
30
0.0
70
8
75
0
210
0.0
220
0.0
230
1.0
0
VERTEX
5
39A
100
AcDbEntity
8
Markers-One
62
41
420
14737632
100
AcDbVertex
100
AcDb3dPolylineVertex
10
226900.0
20
4210.0
30
0.0
70
32
0
VERTEX
5
39B
100
AcDbEntity
8
Markers-One
62
41
420
14737632
100
AcDbVertex
100
AcDb3dPolylineVertex
10
226900.0
20
4215.0
30
0.0
70
32
0
SEQEND
5
39C
100
AcDbEntity
8
Markers-One
0
TEXT
5
39E
330
1B
100
AcDbEntity
67
0
8
Chainage Text
62
9
6
ByLayer
370
15
48
1.0
60
0
100
AcDbText
1
226+900
10
226900.0
20
4220.0
30
0.0
40
14.0
41
1.0
50
90.0
51
0.0
7
True type font
11
226900.0
21
4220.0
31
0.0
210
0.0
220
0.0
230
1.0
72
0
100
AcDbText
73
0
0
POLYLINE
5
3A2
330
1B
100
AcDbEntity
67
0
8
Markers-One
62
41
420
14737632
6
Dashed
370
0
48
1.0
60
0
100
AcDb3dPolyline
10
0.0
20
0.0
30
0.0
70
8
75
0
210
0.0
220
0.0
230
1.0
0
VERTEX
5
39F
100
AcDbEntity
8
Markers-One
62
41
420
14737632
100
AcDbVertex
100
AcDb3dPolylineVertex
10
227000.0
20
4210.0
30
0.0
70
32
0
VERTEX
5
3A0
100
AcDbEntity
8
Markers-One
62
41
420
14737632
100
AcDbVertex
100
AcDb3dPolylineVertex
10
227000.0
20
4215.0
30
0.0
70
32
0
SEQEND
5
3A1
100
AcDbEntity
8
Markers-One
0
TEXT
5
3A3
330
1B
100
AcDbEntity
67
0
8
Chainage Text
62
9
6
ByLayer
370
15
48
1.0
60
0
100
AcDbText
1
227+000
10
227000.0
20
4220.0
30
0.0
40
14.0
41
1.0
50
90.0
51
0.0
7
True type font
11
227000.0
21
4220.0
31
0.0
210
0.0
220
0.0
230
1.0
72
0
100
AcDbText
73
0
0
POLYLINE
5
3A7
330
1B
100
AcDbEntity
67
0
8
Markers-One
62
41
420
14737632
6
Dashed
370
0
48
1.0
60
0
100
AcDb3dPolyline
10
0.0
20
0.0
30
0.0
70
8
75
0
210
0.0
220
0.0
230
1.0
0
VERTEX
5
3A4
100
AcDbEntity
8
Markers-One
62
41
420
14737632
100
AcDbVertex
100
AcDb3dPolylineVertex
10
227100.0
20
4210.0
30
0.0
70
32
0
VERTEX
5
3A5
100
AcDbEntity
8
Markers-One
62
41
420
14737632
100
AcDbVertex
100
AcDb3dPolylineVertex
10
227100.0
20
4215.0
30
0.0
70
32
0
SEQEND
5
3A6
100
AcDbEntity
8
Markers-One
0
TEXT
5
3A8
330
1B
100
AcDbEntity
67
0
8
Chainage Text
62
9
6
ByLayer
370
15
48
1.0
60
0
100
AcDbText
1
227+100
10
227100.0
20
4220.0
30
0.0
40
14.0
41
1.0
50
90.0
51
0.0
7
True type font
11
227100.0
21
4220.0
31
0.0
210
0.0
220
0.0
230
1.0
72
0
100
AcDbText
73
0
0
POLYLINE
5
3AC
330
1B
100
AcDbEntity
67
0
8
Markers-One
62
41
420
14737632
6
Dashed
370
0
48
1.0
60
0
100
AcDb3dPolyline
10
0.0
20
0.0
30
0.0
70
8
75
0
210
0.0
220
0.0
230
1.0
0
VERTEX
5
3A9
100
AcDbEntity
8
Markers-One
62
41
420
14737632
100
AcDbVertex
100
AcDb3dPolylineVertex
10
227200.0
20
4210.0
30
0.0
70
32
0
VERTEX
5
3AA
100
AcDbEntity
8
Markers-One
62
41
420
14737632
100
AcDbVertex
100
AcDb3dPolylineVertex
10
227200.0
20
4215.0
30
0.0
70
32
0
SEQEND
5
3AB
100
AcDbEntity
8
Markers-One
0
TEXT
5
3AD
330
1B
100
AcDbEntity
67
0
8
Chainage Text
62
9
6
ByLayer
370
15
48
1.0
60
0
100
AcDbText
1
227+200
10
227200.0
20
4220.0
30
0.0
40
14.0
41
1.0
50
90.0
51
0.0
7
True type font
11
227200.0
21
4220.0
31
0.0
210
0.0
220
0.0
230
1.0
72
0
100
AcDbText
73
0
0
POLYLINE
5
3B1
330
1B
100
AcDbEntity
67
0
8
Markers-One
62
41
420
14737632
6
Dashed
370
0
48
1.0
60
0
100
AcDb3dPolyline
10
0.0
20
0.0
30
0.0
70
8
75
0
210
0.0
220
0.0
230
1.0
0
VERTEX
5
3AE
100
AcDbEntity
8
Markers-One
62
41
420
14737632
100
AcDbVertex
100
AcDb3dPolylineVertex
10
227300.0
20
4210.0
30
0.0
70
32
0
VERTEX
5
3AF
100
AcDbEntity
8
Markers-One
62
41
420
14737632
100
AcDbVertex
100
AcDb3dPolylineVertex
10
227300.0
20
4215.0
30
0.0
70
32
0
SEQEND
5
3B0
100
AcDbEntity
8
Markers-One
0
TEXT
5
3B2
330
1B
100
AcDbEntity
67
0
8
Chainage Text
62
9
6
ByLayer
370
15
48
1.0
60
0
100
AcDbText
1
227+300
10
227300.0
20
4220.0
30
0.0
40
14.0
41
1.0
50
90.0
51
0.0
7
True type font
11
227300.0
21
4220.0
31
0.0
210
0.0
220
0.0
230
1.0
72
0
100
AcDbText
73
0
0
POLYLINE
5
3B6
330
1B
100
AcDbEntity
67
0
8
Markers-One
62
41
420
14737632
6
Dashed
370
0
48
1.0
60
0
100
AcDb3dPolyline
10
0.0
20
0.0
30
0.0
70
8
75
0
210
0.0
220
0.0
230
1.0
0
VERTEX
5
3B3
100
AcDbEntity
8
Markers-One
62
41
420
14737632
100
AcDbVertex
100
AcDb3dPolylineVertex
10
227400.0
20
4210.0
30
0.0
70
32
0
VERTEX
5
3B4
100
AcDbEntity
8
Markers-One
62
41
420
14737632
100
AcDbVertex
100
AcDb3dPolylineVertex
10
227400.0
20
4215.0
30
0.0
70
32
0
SEQEND
5
3B5
100
AcDbEntity
8
Markers-One
0
TEXT
5
3B7
330
1B
100
AcDbEntity
67
0
8
Chainage Text
62
9
6
ByLayer
370
15
48
1.0
60
0
100
AcDbText
1
227+400
10
227400.0
20
4220.0
30
0.0
40
14.0
41
1.0
50
90.0
51
0.0
7
True type font
11
227400.0
21
4220.0
31
0.0
210
0.0
220
0.0
230
1.0
72
0
100
AcDbText
73
0
0
POLYLINE
5
3BB
330
1B
100
AcDbEntity
67
0
8
Markers-One
62
41
420
14737632
6
Dashed
370
0
48
1.0
60
0
100
AcDb3dPolyline
10
0.0
20
0.0
30
0.0
70
8
75
0
210
0.0
220
0.0
230
1.0
0
VERTEX
5
3B8
100
AcDbEntity
8
Markers-One
62
41
420
14737632
100
AcDbVertex
100
AcDb3dPolylineVertex
10
227500.0
20
4210.0
30
0.0
70
32
0
VERTEX
5
3B9
100
AcDbEntity
8
Markers-One
62
41
420
14737632
100
AcDbVertex
100
AcDb3dPolylineVertex
10
227500.0
20
4215.0
30
0.0
70
32
0
SEQEND
5
3BA
100
AcDbEntity
8
Markers-One
0
TEXT
5
3BC
330
1B
100
AcDbEntity
67
0
8
Chainage Text
62
9
6
ByLayer
370
15
48
1.0
60
0
100
AcDbText
1
227+500
10
227500.0
20
4220.0
30
0.0
40
14.0
41
1.0
50
90.0
51
0.0
7
True type font
11
227500.0
21
4220.0
31
0.0
210
0.0
220
0.0
230
1.0
72
0
100
AcDbText
73
0
0
POLYLINE
5
3C0
330
1B
100
AcDbEntity
67
0
8
Markers-One
62
41
420
14737632
6
Dashed
370
0
48
1.0
60
0
100
AcDb3dPolyline
10
0.0
20
0.0
30
0.0
70
8
75
0
210
0.0
220
0.0
230
1.0
0
VERTEX
5
3BD
100
AcDbEntity
8
Markers-One
62
41
420
14737632
100
AcDbVertex
100
AcDb3dPolylineVertex
10
227600.0
20
4210.0
30
0.0
70
32
0
VERTEX
5
3BE
100
AcDbEntity
8
Markers-One
62
41
420
14737632
100
AcDbVertex
100
AcDb3dPolylineVertex
10
227600.0
20
4215.0
30
0.0
70
32
0
SEQEND
5
3BF
100
AcDbEntity
8
Markers-One
0
TEXT
5
3C1
330
1B
100
AcDbEntity
67
0
8
Chainage Text
62
9
6
ByLayer
370
15
48
1.0
60
0
100
AcDbText
1
227+600
10
227600.0
20
4220.0
30
0.0
40
14.0
41
1.0
50
90.0
51
0.0
7
True type font
11
227600.0
21
4220.0
31
0.0
210
0.0
220
0.0
230
1.0
72
0
100
AcDbText
73
0
0
POLYLINE
5
3C5
330
1B
100
AcDbEntity
67
0
8
Markers-One
62
41
420
14737632
6
Dashed
370
0
48
1.0
60
0
100
AcDb3dPolyline
10
0.0
20
0.0
30
0.0
70
8
75
0
210
0.0
220
0.0
230
1.0
0
VERTEX
5
3C2
100
AcDbEntity
8
Markers-One
62
41
420
14737632
100
AcDbVertex
100
AcDb3dPolylineVertex
10
227700.0
20
4210.0
30
0.0
70
32
0
VERTEX
5
3C3
100
AcDbEntity
8
Markers-One
62
41
420
14737632
100
AcDbVertex
100
AcDb3dPolylineVertex
10
227700.0
20
4215.0
30
0.0
70
32
0
SEQEND
5
3C4
100
AcDbEntity
8
Markers-One
0
TEXT
5
3C6
330
1B
100
AcDbEntity
67
0
8
Chainage Text
62
9
6
ByLayer
370
15
48
1.0
60
0
100
AcDbText
1
227+700
10
227700.0
20
4220.0
30
0.0
40
14.0
41
1.0
50
90.0
51
0.0
7
True type font
11
227700.0
21
4220.0
31
0.0
210
0.0
220
0.0
230
1.0
72
0
100
AcDbText
73
0
0
POLYLINE
5
3CA
330
1B
100
AcDbEntity
67
0
8
Markers-One
62
41
420
14737632
6
Dashed
370
0
48
1.0
60
0
100
AcDb3dPolyline
10
0.0
20
0.0
30
0.0
70
8
75
0
210
0.0
220
0.0
230
1.0
0
VERTEX
5
3C7
100
AcDbEntity
8
Markers-One
62
41
420
14737632
100
AcDbVertex
100
AcDb3dPolylineVertex
10
227800.0
20
4210.0
30
0.0
70
32
0
VERTEX
5
3C8
100
AcDbEntity
8
Markers-One
62
41
420
14737632
100
AcDbVertex
100
AcDb3dPolylineVertex
10
227800.0
20
4215.0
30
0.0
70
32
0
SEQEND
5
3C9
100
AcDbEntity
8
Markers-One
0
TEXT
5
3CB
330
1B
100
AcDbEntity
67
0
8
Chainage Text
62
9
6
ByLayer
370
15
48
1.0
60
0
100
AcDbText
1
227+800
10
227800.0
20
4220.0
30
0.0
40
14.0
41
1.0
50
90.0
51
0.0
7
True type font
11
227800.0
21
4220.0
31
0.0
210
0.0
220
0.0
230
1.0
72
0
100
AcDbText
73
0
0
POLYLINE
5
3CF
330
1B
100
AcDbEntity
67
0
8
Markers-One
62
41
420
14737632
6
Dashed
370
0
48
1.0
60
0
100
AcDb3dPolyline
10
0.0
20
0.0
30
0.0
70
8
75
0
210
0.0
220
0.0
230
1.0
0
VERTEX
5
3CC
100
AcDbEntity
8
Markers-One
62
41
420
14737632
100
AcDbVertex
100
AcDb3dPolylineVertex
10
227900.0
20
4210.0
30
0.0
70
32
0
VERTEX
5
3CD
100
AcDbEntity
8
Markers-One
62
41
420
14737632
100
AcDbVertex
100
AcDb3dPolylineVertex
10
227900.0
20
4215.0
30
0.0
70
32
0
SEQEND
5
3CE
100
AcDbEntity
8
Markers-One
0
TEXT
5
3D0
330
1B
100
AcDbEntity
67
0
8
Chainage Text
62
9
6
ByLayer
370
15
48
1.0
60
0
100
AcDbText
1
227+900
10
227900.0
20
4220.0
30
0.0
40
14.0
41
1.0
50
90.0
51
0.0
7
True type font
11
227900.0
21
4220.0
31
0.0
210
0.0
220
0.0
230
1.0
72
0
100
AcDbText
73
0
0
POLYLINE
5
3D4
330
1B
100
AcDbEntity
67
0
8
Markers-One
62
41
420
14737632
6
Dashed
370
0
48
1.0
60
0
100
AcDb3dPolyline
10
0.0
20
0.0
30
0.0
70
8
75
0
210
0.0
220
0.0
230
1.0
0
VERTEX
5
3D1
100
AcDbEntity
8
Markers-One
62
41
420
14737632
100
AcDbVertex
100
AcDb3dPolylineVertex
10
228000.0
20
4210.0
30
0.0
70
32
0
VERTEX
5
3D2
100
AcDbEntity
8
Markers-One
62
41
420
14737632
100
AcDbVertex
100
AcDb3dPolylineVertex
10
228000.0
20
4215.0
30
0.0
70
32
0
SEQEND
5
3D3
100
AcDbEntity
8
Markers-One
0
TEXT
5
3D5
330
1B
100
AcDbEntity
67
0
8
Chainage Text
62
9
6
ByLayer
370
15
48
1.0
60
0
100
AcDbText
1
228+000
10
228000.0
20
4220.0
30
0.0
40
14.0
41
1.0
50
90.0
51
0.0
7
True type font
11
228000.0
21
4220.0
31
0.0
210
0.0
220
0.0
230
1.0
72
0
100
AcDbText
73
0
0
POLYLINE
5
3D9
330
1B
100
AcDbEntity
67
0
8
Markers-One
62
41
420
14737632
6
Dashed
370
0
48
1.0
60
0
100
AcDb3dPolyline
10
0.0
20
0.0
30
0.0
70
8
75
0
210
0.0
220
0.0
230
1.0
0
VERTEX
5
3D6
100
AcDbEntity
8
Markers-One
62
41
420
14737632
100
AcDbVertex
100
AcDb3dPolylineVertex
10
228100.0
20
4210.0
30
0.0
70
32
0
VERTEX
5
3D7
100
AcDbEntity
8
Markers-One
62
41
420
14737632
100
AcDbVertex
100
AcDb3dPolylineVertex
10
228100.0
20
4215.0
30
0.0
70
32
0
SEQEND
5
3D8
100
AcDbEntity
8
Markers-One
0
TEXT
5
3DA
330
1B
100
AcDbEntity
67
0
8
Chainage Text
62
9
6
ByLayer
370
15
48
1.0
60
0
100
AcDbText
1
228+100
10
228100.0
20
4220.0
30
0.0
40
14.0
41
1.0
50
90.0
51
0.0
7
True type font
11
228100.0
21
4220.0
31
0.0
210
0.0
220
0.0
230
1.0
72
0
100
AcDbText
73
0
0
POLYLINE
5
3DE
330
1B
100
AcDbEntity
67
0
8
Markers-One
62
41
420
14737632
6
Dashed
370
0
48
1.0
60
0
100
AcDb3dPolyline
10
0.0
20
0.0
30
0.0
70
8
75
0
210
0.0
220
0.0
230
1.0
0
VERTEX
5
3DB
100
AcDbEntity
8
Markers-One
62
41
420
14737632
100
AcDbVertex
100
AcDb3dPolylineVertex
10
228200.0
20
4210.0
30
0.0
70
32
0
VERTEX
5
3DC
100
AcDbEntity
8
Markers-One
62
41
420
14737632
100
AcDbVertex
100
AcDb3dPolylineVertex
10
228200.0
20
4215.0
30
0.0
70
32
0
SEQEND
5
3DD
100
AcDbEntity
8
Markers-One
0
TEXT
5
3DF
330
1B
100
AcDbEntity
67
0
8
Chainage Text
62
9
6
ByLayer
370
15
48
1.0
60
0
100
AcDbText
1
228+200
10
228200.0
20
4220.0
30
0.0
40
14.0
41
1.0
50
90.0
51
0.0
7
True type font
11
228200.0
21
4220.0
31
0.0
210
0.0
220
0.0
230
1.0
72
0
100
AcDbText
73
0
0
POLYLINE
5
3E3
330
1B
100
AcDbEntity
67
0
8
Markers-One
62
41
420
14737632
6
Dashed
370
0
48
1.0
60
0
100
AcDb3dPolyline
10
0.0
20
0.0
30
0.0
70
8
75
0
210
0.0
220
0.0
230
1.0
0
VERTEX
5
3E0
100
AcDbEntity
8
Markers-One
62
41
420
14737632
100
AcDbVertex
100
AcDb3dPolylineVertex
10
228300.0
20
4210.0
30
0.0
70
32
0
VERTEX
5
3E1
100
AcDbEntity
8
Markers-One
62
41
420
14737632
100
AcDbVertex
100
AcDb3dPolylineVertex
10
228300.0
20
4215.0
30
0.0
70
32
0
SEQEND
5
3E2
100
AcDbEntity
8
Markers-One
0
TEXT
5
3E4
330
1B
100
AcDbEntity
67
0
8
Chainage Text
62
9
6
ByLayer
370
15
48
1.0
60
0
100
AcDbText
1
228+300
10
228300.0
20
4220.0
30
0.0
40
14.0
41
1.0
50
90.0
51
0.0
7
True type font
11
228300.0
21
4220.0
31
0.0
210
0.0
220
0.0
230
1.0
72
0
100
AcDbText
73
0
0
POLYLINE
5
3E8
330
1B
100
AcDbEntity
67
0
8
Markers-One
62
41
420
14737632
6
Dashed
370
0
48
1.0
60
0
100
AcDb3dPolyline
10
0.0
20
0.0
30
0.0
70
8
75
0
210
0.0
220
0.0
230
1.0
0
VERTEX
5
3E5
100
AcDbEntity
8
Markers-One
62
41
420
14737632
100
AcDbVertex
100
AcDb3dPolylineVertex
10
228400.0
20
4210.0
30
0.0
70
32
0
VERTEX
5
3E6
100
AcDbEntity
8
Markers-One
62
41
420
14737632
100
AcDbVertex
100
AcDb3dPolylineVertex
10
228400.0
20
4215.0
30
0.0
70
32
0
SEQEND
5
3E7
100
AcDbEntity
8
Markers-One
0
TEXT
5
3E9
330
1B
100
AcDbEntity
67
0
8
Chainage Text
62
9
6
ByLayer
370
15
48
1.0
60
0
100
AcDbText
1
228+400
10
228400.0
20
4220.0
30
0.0
40
14.0
41
1.0
50
90.0
51
0.0
7
True type font
11
228400.0
21
4220.0
31
0.0
210
0.0
220
0.0
230
1.0
72
0
100
AcDbText
73
0
0
POLYLINE
5
3ED
330
1B
100
AcDbEntity
67
0
8
Markers-One
62
41
420
14737632
6
Dashed
370
0
48
1.0
60
0
100
AcDb3dPolyline
10
0.0
20
0.0
30
0.0
70
8
75
0
210
0.0
220
0.0
230
1.0
0
VERTEX
5
3EA
100
AcDbEntity
8
Markers-One
62
41
420
14737632
100
AcDbVertex
100
AcDb3dPolylineVertex
10
228500.0
20
4210.0
30
0.0
70
32
0
VERTEX
5
3EB
100
AcDbEntity
8
Markers-One
62
41
420
14737632
100
AcDbVertex
100
AcDb3dPolylineVertex
10
228500.0
20
4215.0
30
0.0
70
32
0
SEQEND
5
3EC
100
AcDbEntity
8
Markers-One
0
TEXT
5
3EE
330
1B
100
AcDbEntity
67
0
8
Chainage Text
62
9
6
ByLayer
370
15
48
1.0
60
0
100
AcDbText
1
228+500
10
228500.0
20
4220.0
30
0.0
40
14.0
41
1.0
50
90.0
51
0.0
7
True type font
11
228500.0
21
4220.0
31
0.0
210
0.0
220
0.0
230
1.0
72
0
100
AcDbText
73
0
0
POLYLINE
5
3F2
330
1B
100
AcDbEntity
67
0
8
Markers-One
62
41
420
14737632
6
Dashed
370
0
48
1.0
60
0
100
AcDb3dPolyline
10
0.0
20
0.0
30
0.0
70
8
75
0
210
0.0
220
0.0
230
1.0
0
VERTEX
5
3EF
100
AcDbEntity
8
Markers-One
62
41
420
14737632
100
AcDbVertex
100
AcDb3dPolylineVertex
10
228600.0
20
4210.0
30
0.0
70
32
0
VERTEX
5
3F0
100
AcDbEntity
8
Markers-One
62
41
420
14737632
100
AcDbVertex
100
AcDb3dPolylineVertex
10
228600.0
20
4215.0
30
0.0
70
32
0
SEQEND
5
3F1
100
AcDbEntity
8
Markers-One
0
TEXT
5
3F3
330
1B
100
AcDbEntity
67
0
8
Chainage Text
62
9
6
ByLayer
370
15
48
1.0
60
0
100
AcDbText
1
228+600
10
228600.0
20
4220.0
30
0.0
40
14.0
41
1.0
50
90.0
51
0.0
7
True type font
11
228600.0
21
4220.0
31
0.0
210
0.0
220
0.0
230
1.0
72
0
100
AcDbText
73
0
0
POLYLINE
5
3F7
330
1B
100
AcDbEntity
67
0
8
Markers-One
62
41
420
14737632
6
Dashed
370
0
48
1.0
60
0
100
AcDb3dPolyline
10
0.0
20
0.0
30
0.0
70
8
75
0
210
0.0
220
0.0
230
1.0
0
VERTEX
5
3F4
100
AcDbEntity
8
Markers-One
62
41
420
14737632
100
AcDbVertex
100
AcDb3dPolylineVertex
10
228700.0
20
4210.0
30
0.0
70
32
0
VERTEX
5
3F5
100
AcDbEntity
8
Markers-One
62
41
420
14737632
100
AcDbVertex
100
AcDb3dPolylineVertex
10
228700.0
20
4215.0
30
0.0
70
32
0
SEQEND
5
3F6
100
AcDbEntity
8
Markers-One
0
TEXT
5
3F8
330
1B
100
AcDbEntity
67
0
8
Chainage Text
62
9
6
ByLayer
370
15
48
1.0
60
0
100
AcDbText
1
228+700
10
228700.0
20
4220.0
30
0.0
40
14.0
41
1.0
50
90.0
51
0.0
7
True type font
11
228700.0
21
4220.0
31
0.0
210
0.0
220
0.0
230
1.0
72
0
100
AcDbText
73
0
0
POLYLINE
5
3FC
330
1B
100
AcDbEntity
67
0
8
Markers-One
62
41
420
14737632
6
Dashed
370
0
48
1.0
60
0
100
AcDb3dPolyline
10
0.0
20
0.0
30
0.0
70
8
75
0
210
0.0
220
0.0
230
1.0
0
VERTEX
5
3F9
100
AcDbEntity
8
Markers-One
62
41
420
14737632
100
AcDbVertex
100
AcDb3dPolylineVertex
10
228800.0
20
4210.0
30
0.0
70
32
0
VERTEX
5
3FA
100
AcDbEntity
8
Markers-One
62
41
420
14737632
100
AcDbVertex
100
AcDb3dPolylineVertex
10
228800.0
20
4215.0
30
0.0
70
32
0
SEQEND
5
3FB
100
AcDbEntity
8
Markers-One
0
TEXT
5
3FD
330
1B
100
AcDbEntity
67
0
8
Chainage Text
62
9
6
ByLayer
370
15
48
1.0
60
0
100
AcDbText
1
228+800
10
228800.0
20
4220.0
30
0.0
40
14.0
41
1.0
50
90.0
51
0.0
7
True type font
11
228800.0
21
4220.0
31
0.0
210
0.0
220
0.0
230
1.0
72
0
100
AcDbText
73
0
0
POLYLINE
5
401
330
1B
100
AcDbEntity
67
0
8
Markers-One
62
41
420
14737632
6
Dashed
370
0
48
1.0
60
0
100
AcDb3dPolyline
10
0.0
20
0.0
30
0.0
70
8
75
0
210
0.0
220
0.0
230
1.0
0
VERTEX
5
3FE
100
AcDbEntity
8
Markers-One
62
41
420
14737632
100
AcDbVertex
100
AcDb3dPolylineVertex
10
228900.0
20
4210.0
30
0.0
70
32
0
VERTEX
5
3FF
100
AcDbEntity
8
Markers-One
62
41
420
14737632
100
AcDbVertex
100
AcDb3dPolylineVertex
10
228900.0
20
4215.0
30
0.0
70
32
0
SEQEND
5
400
100
AcDbEntity
8
Markers-One
0
TEXT
5
402
330
1B
100
AcDbEntity
67
0
8
Chainage Text
62
9
6
ByLayer
370
15
48
1.0
60
0
100
AcDbText
1
228+900
10
228900.0
20
4220.0
30
0.0
40
14.0
41
1.0
50
90.0
51
0.0
7
True type font
11
228900.0
21
4220.0
31
0.0
210
0.0
220
0.0
230
1.0
72
0
100
AcDbText
73
0
0
POLYLINE
5
406
330
1B
100
AcDbEntity
67
0
8
Markers-One
62
41
420
14737632
6
Dashed
370
0
48
1.0
60
0
100
AcDb3dPolyline
10
0.0
20
0.0
30
0.0
70
8
75
0
210
0.0
220
0.0
230
1.0
0
VERTEX
5
403
100
AcDbEntity
8
Markers-One
62
41
420
14737632
100
AcDbVertex
100
AcDb3dPolylineVertex
10
229000.0
20
4210.0
30
0.0
70
32
0
VERTEX
5
404
100
AcDbEntity
8
Markers-One
62
41
420
14737632
100
AcDbVertex
100
AcDb3dPolylineVertex
10
229000.0
20
4215.0
30
0.0
70
32
0
SEQEND
5
405
100
AcDbEntity
8
Markers-One
0
TEXT
5
407
330
1B
100
AcDbEntity
67
0
8
Chainage Text
62
9
6
ByLayer
370
15
48
1.0
60
0
100
AcDbText
1
229+000
10
229000.0
20
4220.0
30
0.0
40
14.0
41
1.0
50
90.0
51
0.0
7
True type font
11
229000.0
21
4220.0
31
0.0
210
0.0
220
0.0
230
1.0
72
0
100
AcDbText
73
0
0
POLYLINE
5
40B
330
1B
100
AcDbEntity
67
0
8
Markers-One
62
41
420
14737632
6
Dashed
370
0
48
1.0
60
0
100
AcDb3dPolyline
10
0.0
20
0.0
30
0.0
70
8
75
0
210
0.0
220
0.0
230
1.0
0
VERTEX
5
408
100
AcDbEntity
8
Markers-One
62
41
420
14737632
100
AcDbVertex
100
AcDb3dPolylineVertex
10
229100.0
20
4210.0
30
0.0
70
32
0
VERTEX
5
409
100
AcDbEntity
8
Markers-One
62
41
420
14737632
100
AcDbVertex
100
AcDb3dPolylineVertex
10
229100.0
20
4215.0
30
0.0
70
32
0
SEQEND
5
40A
100
AcDbEntity
8
Markers-One
0
TEXT
5
40C
330
1B
100
AcDbEntity
67
0
8
Chainage Text
62
9
6
ByLayer
370
15
48
1.0
60
0
100
AcDbText
1
229+100
10
229100.0
20
4220.0
30
0.0
40
14.0
41
1.0
50
90.0
51
0.0
7
True type font
11
229100.0
21
4220.0
31
0.0
210
0.0
220
0.0
230
1.0
72
0
100
AcDbText
73
0
0
POLYLINE
5
410
330
1B
100
AcDbEntity
67
0
8
Markers-One
62
41
420
14737632
6
Dashed
370
0
48
1.0
60
0
100
AcDb3dPolyline
10
0.0
20
0.0
30
0.0
70
8
75
0
210
0.0
220
0.0
230
1.0
0
VERTEX
5
40D
100
AcDbEntity
8
Markers-One
62
41
420
14737632
100
AcDbVertex
100
AcDb3dPolylineVertex
10
229200.0
20
4210.0
30
0.0
70
32
0
VERTEX
5
40E
100
AcDbEntity
8
Markers-One
62
41
420
14737632
100
AcDbVertex
100
AcDb3dPolylineVertex
10
229200.0
20
4215.0
30
0.0
70
32
0
SEQEND
5
40F
100
AcDbEntity
8
Markers-One
0
TEXT
5
411
330
1B
100
AcDbEntity
67
0
8
Chainage Text
62
9
6
ByLayer
370
15
48
1.0
60
0
100
AcDbText
1
229+200
10
229200.0
20
4220.0
30
0.0
40
14.0
41
1.0
50
90.0
51
0.0
7
True type font
11
229200.0
21
4220.0
31
0.0
210
0.0
220
0.0
230
1.0
72
0
100
AcDbText
73
0
0
POLYLINE
5
415
330
1B
100
AcDbEntity
67
0
8
Markers-One
62
41
420
14737632
6
Dashed
370
0
48
1.0
60
0
100
AcDb3dPolyline
10
0.0
20
0.0
30
0.0
70
8
75
0
210
0.0
220
0.0
230
1.0
0
VERTEX
5
412
100
AcDbEntity
8
Markers-One
62
41
420
14737632
100
AcDbVertex
100
AcDb3dPolylineVertex
10
229300.0
20
4210.0
30
0.0
70
32
0
VERTEX
5
413
100
AcDbEntity
8
Markers-One
62
41
420
14737632
100
AcDbVertex
100
AcDb3dPolylineVertex
10
229300.0
20
4215.0
30
0.0
70
32
0
SEQEND
5
414
100
AcDbEntity
8
Markers-One
0
TEXT
5
416
330
1B
100
AcDbEntity
67
0
8
Chainage Text
62
9
6
ByLayer
370
15
48
1.0
60
0
100
AcDbText
1
229+300
10
229300.0
20
4220.0
30
0.0
40
14.0
41
1.0
50
90.0
51
0.0
7
True type font
11
229300.0
21
4220.0
31
0.0
210
0.0
220
0.0
230
1.0
72
0
100
AcDbText
73
0
0
POLYLINE
5
41A
330
1B
100
AcDbEntity
67
0
8
Markers-One
62
41
420
14737632
6
Dashed
370
0
48
1.0
60
0
100
AcDb3dPolyline
10
0.0
20
0.0
30
0.0
70
8
75
0
210
0.0
220
0.0
230
1.0
0
VERTEX
5
417
100
AcDbEntity
8
Markers-One
62
41
420
14737632
100
AcDbVertex
100
AcDb3dPolylineVertex
10
229400.0
20
4210.0
30
0.0
70
32
0
VERTEX
5
418
100
AcDbEntity
8
Markers-One
62
41
420
14737632
100
AcDbVertex
100
AcDb3dPolylineVertex
10
229400.0
20
4215.0
30
0.0
70
32
0
SEQEND
5
419
100
AcDbEntity
8
Markers-One
0
TEXT
5
41B
330
1B
100
AcDbEntity
67
0
8
Chainage Text
62
9
6
ByLayer
370
15
48
1.0
60
0
100
AcDbText
1
229+400
10
229400.0
20
4220.0
30
0.0
40
14.0
41
1.0
50
90.0
51
0.0
7
True type font
11
229400.0
21
4220.0
31
0.0
210
0.0
220
0.0
230
1.0
72
0
100
AcDbText
73
0
0
POLYLINE
5
41F
330
1B
100
AcDbEntity
67
0
8
Markers-One
62
41
420
14737632
6
Dashed
370
0
48
1.0
60
0
100
AcDb3dPolyline
10
0.0
20
0.0
30
0.0
70
8
75
0
210
0.0
220
0.0
230
1.0
0
VERTEX
5
41C
100
AcDbEntity
8
Markers-One
62
41
420
14737632
100
AcDbVertex
100
AcDb3dPolylineVertex
10
229500.0
20
4210.0
30
0.0
70
32
0
VERTEX
5
41D
100
AcDbEntity
8
Markers-One
62
41
420
14737632
100
AcDbVertex
100
AcDb3dPolylineVertex
10
229500.0
20
4215.0
30
0.0
70
32
0
SEQEND
5
41E
100
AcDbEntity
8
Markers-One
0
TEXT
5
420
330
1B
100
AcDbEntity
67
0
8
Chainage Text
62
9
6
ByLayer
370
15
48
1.0
60
0
100
AcDbText
1
229+500
10
229500.0
20
4220.0
30
0.0
40
14.0
41
1.0
50
90.0
51
0.0
7
True type font
11
229500.0
21
4220.0
31
0.0
210
0.0
220
0.0
230
1.0
72
0
100
AcDbText
73
0
0
POLYLINE
5
424
330
1B
100
AcDbEntity
67
0
8
Markers-One
62
41
420
14737632
6
Dashed
370
0
48
1.0
60
0
100
AcDb3dPolyline
10
0.0
20
0.0
30
0.0
70
8
75
0
210
0.0
220
0.0
230
1.0
0
VERTEX
5
421
100
AcDbEntity
8
Markers-One
62
41
420
14737632
100
AcDbVertex
100
AcDb3dPolylineVertex
10
229600.0
20
4210.0
30
0.0
70
32
0
VERTEX
5
422
100
AcDbEntity
8
Markers-One
62
41
420
14737632
100
AcDbVertex
100
AcDb3dPolylineVertex
10
229600.0
20
4215.0
30
0.0
70
32
0
SEQEND
5
423
100
AcDbEntity
8
Markers-One
0
TEXT
5
425
330
1B
100
AcDbEntity
67
0
8
Chainage Text
62
9
6
ByLayer
370
15
48
1.0
60
0
100
AcDbText
1
229+600
10
229600.0
20
4220.0
30
0.0
40
14.0
41
1.0
50
90.0
51
0.0
7
True type font
11
229600.0
21
4220.0
31
0.0
210
0.0
220
0.0
230
1.0
72
0
100
AcDbText
73
0
0
POLYLINE
5
429
330
1B
100
AcDbEntity
67
0
8
Markers-One
62
41
420
14737632
6
Dashed
370
0
48
1.0
60
0
100
AcDb3dPolyline
10
0.0
20
0.0
30
0.0
70
8
75
0
210
0.0
220
0.0
230
1.0
0
VERTEX
5
426
100
AcDbEntity
8
Markers-One
62
41
420
14737632
100
AcDbVertex
100
AcDb3dPolylineVertex
10
229700.0
20
4210.0
30
0.0
70
32
0
VERTEX
5
427
100
AcDbEntity
8
Markers-One
62
41
420
14737632
100
AcDbVertex
100
AcDb3dPolylineVertex
10
229700.0
20
4215.0
30
0.0
70
32
0
SEQEND
5
428
100
AcDbEntity
8
Markers-One
0
TEXT
5
42A
330
1B
100
AcDbEntity
67
0
8
Chainage Text
62
9
6
ByLayer
370
15
48
1.0
60
0
100
AcDbText
1
229+700
10
229700.0
20
4220.0
30
0.0
40
14.0
41
1.0
50
90.0
51
0.0
7
True type font
11
229700.0
21
4220.0
31
0.0
210
0.0
220
0.0
230
1.0
72
0
100
AcDbText
73
0
0
POLYLINE
5
42E
330
1B
100
AcDbEntity
67
0
8
Markers-One
62
41
420
14737632
6
Dashed
370
0
48
1.0
60
0
100
AcDb3dPolyline
10
0.0
20
0.0
30
0.0
70
8
75
0
210
0.0
220
0.0
230
1.0
0
VERTEX
5
42B
100
AcDbEntity
8
Markers-One
62
41
420
14737632
100
AcDbVertex
100
AcDb3dPolylineVertex
10
229800.0
20
4210.0
30
0.0
70
32
0
VERTEX
5
42C
100
AcDbEntity
8
Markers-One
62
41
420
14737632
100
AcDbVertex
100
AcDb3dPolylineVertex
10
229800.0
20
4215.0
30
0.0
70
32
0
SEQEND
5
42D
100
AcDbEntity
8
Markers-One
0
TEXT
5
42F
330
1B
100
AcDbEntity
67
0
8
Chainage Text
62
9
6
ByLayer
370
15
48
1.0
60
0
100
AcDbText
1
229+800
10
229800.0
20
4220.0
30
0.0
40
14.0
41
1.0
50
90.0
51
0.0
7
True type font
11
229800.0
21
4220.0
31
0.0
210
0.0
220
0.0
230
1.0
72
0
100
AcDbText
73
0
0
POLYLINE
5
433
330
1B
100
AcDbEntity
67
0
8
Markers-One
62
41
420
14737632
6
Dashed
370
0
48
1.0
60
0
100
AcDb3dPolyline
10
0.0
20
0.0
30
0.0
70
8
75
0
210
0.0
220
0.0
230
1.0
0
VERTEX
5
430
100
AcDbEntity
8
Markers-One
62
41
420
14737632
100
AcDbVertex
100
AcDb3dPolylineVertex
10
229900.0
20
4210.0
30
0.0
70
32
0
VERTEX
5
431
100
AcDbEntity
8
Markers-One
62
41
420
14737632
100
AcDbVertex
100
AcDb3dPolylineVertex
10
229900.0
20
4215.0
30
0.0
70
32
0
SEQEND
5
432
100
AcDbEntity
8
Markers-One
0
TEXT
5
434
330
1B
100
AcDbEntity
67
0
8
Chainage Text
62
9
6
ByLayer
370
15
48
1.0
60
0
100
AcDbText
1
229+900
10
229900.0
20
4220.0
30
0.0
40
14.0
41
1.0
50
90.0
51
0.0
7
True type font
11
229900.0
21
4220.0
31
0.0
210
0.0
220
0.0
230
1.0
72
0
100
AcDbText
73
0
0
POLYLINE
5
438
330
1B
100
AcDbEntity
67
0
8
Markers-One
62
41
420
14737632
6
Dashed
370
0
48
1.0
60
0
100
AcDb3dPolyline
10
0.0
20
0.0
30
0.0
70
8
75
0
210
0.0
220
0.0
230
1.0
0
VERTEX
5
435
100
AcDbEntity
8
Markers-One
62
41
420
14737632
100
AcDbVertex
100
AcDb3dPolylineVertex
10
230000.0
20
4210.0
30
0.0
70
32
0
VERTEX
5
436
100
AcDbEntity
8
Markers-One
62
41
420
14737632
100
AcDbVertex
100
AcDb3dPolylineVertex
10
230000.0
20
4215.0
30
0.0
70
32
0
SEQEND
5
437
100
AcDbEntity
8
Markers-One
0
TEXT
5
439
330
1B
100
AcDbEntity
67
0
8
Chainage Text
62
9
6
ByLayer
370
15
48
1.0
60
0
100
AcDbText
1
230+000
10
230000.0
20
4220.0
30
0.0
40
14.0
41
1.0
50
90.0
51
0.0
7
True type font
11
230000.0
21
4220.0
31
0.0
210
0.0
220
0.0
230
1.0
72
0
100
AcDbText
73
0
0
POLYLINE
5
43D
330
1B
100
AcDbEntity
67
0
8
Markers-One
62
41
420
14737632
6
Dashed
370
0
48
1.0
60
0
100
AcDb3dPolyline
10
0.0
20
0.0
30
0.0
70
8
75
0
210
0.0
220
0.0
230
1.0
0
VERTEX
5
43A
100
AcDbEntity
8
Markers-One
62
41
420
14737632
100
AcDbVertex
100
AcDb3dPolylineVertex
10
230100.0
20
4210.0
30
0.0
70
32
0
VERTEX
5
43B
100
AcDbEntity
8
Markers-One
62
41
420
14737632
100
AcDbVertex
100
AcDb3dPolylineVertex
10
230100.0
20
4215.0
30
0.0
70
32
0
SEQEND
5
43C
100
AcDbEntity
8
Markers-One
0
TEXT
5
43E
330
1B
100
AcDbEntity
67
0
8
Chainage Text
62
9
6
ByLayer
370
15
48
1.0
60
0
100
AcDbText
1
230+100
10
230100.0
20
4220.0
30
0.0
40
14.0
41
1.0
50
90.0
51
0.0
7
True type font
11
230100.0
21
4220.0
31
0.0
210
0.0
220
0.0
230
1.0
72
0
100
AcDbText
73
0
0
POLYLINE
5
442
330
1B
100
AcDbEntity
67
0
8
Markers-One
62
41
420
14737632
6
Dashed
370
0
48
1.0
60
0
100
AcDb3dPolyline
10
0.0
20
0.0
30
0.0
70
8
75
0
210
0.0
220
0.0
230
1.0
0
VERTEX
5
43F
100
AcDbEntity
8
Markers-One
62
41
420
14737632
100
AcDbVertex
100
AcDb3dPolylineVertex
10
230200.0
20
4210.0
30
0.0
70
32
0
VERTEX
5
440
100
AcDbEntity
8
Markers-One
62
41
420
14737632
100
AcDbVertex
100
AcDb3dPolylineVertex
10
230200.0
20
4215.0
30
0.0
70
32
0
SEQEND
5
441
100
AcDbEntity
8
Markers-One
0
TEXT
5
443
330
1B
100
AcDbEntity
67
0
8
Chainage Text
62
9
6
ByLayer
370
15
48
1.0
60
0
100
AcDbText
1
230+200
10
230200.0
20
4220.0
30
0.0
40
14.0
41
1.0
50
90.0
51
0.0
7
True type font
11
230200.0
21
4220.0
31
0.0
210
0.0
220
0.0
230
1.0
72
0
100
AcDbText
73
0
0
POLYLINE
5
447
330
1B
100
AcDbEntity
67
0
8
Markers-One
62
41
420
14737632
6
Dashed
370
0
48
1.0
60
0
100
AcDb3dPolyline
10
0.0
20
0.0
30
0.0
70
8
75
0
210
0.0
220
0.0
230
1.0
0
VERTEX
5
444
100
AcDbEntity
8
Markers-One
62
41
420
14737632
100
AcDbVertex
100
AcDb3dPolylineVertex
10
230300.0
20
4210.0
30
0.0
70
32
0
VERTEX
5
445
100
AcDbEntity
8
Markers-One
62
41
420
14737632
100
AcDbVertex
100
AcDb3dPolylineVertex
10
230300.0
20
4215.0
30
0.0
70
32
0
SEQEND
5
446
100
AcDbEntity
8
Markers-One
0
TEXT
5
448
330
1B
100
AcDbEntity
67
0
8
Chainage Text
62
9
6
ByLayer
370
15
48
1.0
60
0
100
AcDbText
1
230+300
10
230300.0
20
4220.0
30
0.0
40
14.0
41
1.0
50
90.0
51
0.0
7
True type font
11
230300.0
21
4220.0
31
0.0
210
0.0
220
0.0
230
1.0
72
0
100
AcDbText
73
0
0
POLYLINE
5
44C
330
1B
100
AcDbEntity
67
0
8
Markers-One
62
41
420
14737632
6
Dashed
370
0
48
1.0
60
0
100
AcDb3dPolyline
10
0.0
20
0.0
30
0.0
70
8
75
0
210
0.0
220
0.0
230
1.0
0
VERTEX
5
449
100
AcDbEntity
8
Markers-One
62
41
420
14737632
100
AcDbVertex
100
AcDb3dPolylineVertex
10
230400.0
20
4210.0
30
0.0
70
32
0
VERTEX
5
44A
100
AcDbEntity
8
Markers-One
62
41
420
14737632
100
AcDbVertex
100
AcDb3dPolylineVertex
10
230400.0
20
4215.0
30
0.0
70
32
0
SEQEND
5
44B
100
AcDbEntity
8
Markers-One
0
TEXT
5
44D
330
1B
100
AcDbEntity
67
0
8
Chainage Text
62
9
6
ByLayer
370
15
48
1.0
60
0
100
AcDbText
1
230+400
10
230400.0
20
4220.0
30
0.0
40
14.0
41
1.0
50
90.0
51
0.0
7
True type font
11
230400.0
21
4220.0
31
0.0
210
0.0
220
0.0
230
1.0
72
0
100
AcDbText
73
0
0
POLYLINE
5
451
330
1B
100
AcDbEntity
67
0
8
Markers-One
62
41
420
14737632
6
Dashed
370
0
48
1.0
60
0
100
AcDb3dPolyline
10
0.0
20
0.0
30
0.0
70
8
75
0
210
0.0
220
0.0
230
1.0
0
VERTEX
5
44E
100
AcDbEntity
8
Markers-One
62
41
420
14737632
100
AcDbVertex
100
AcDb3dPolylineVertex
10
230500.0
20
4210.0
30
0.0
70
32
0
VERTEX
5
44F
100
AcDbEntity
8
Markers-One
62
41
420
14737632
100
AcDbVertex
100
AcDb3dPolylineVertex
10
230500.0
20
4215.0
30
0.0
70
32
0
SEQEND
5
450
100
AcDbEntity
8
Markers-One
0
TEXT
5
452
330
1B
100
AcDbEntity
67
0
8
Chainage Text
62
9
6
ByLayer
370
15
48
1.0
60
0
100
AcDbText
1
230+500
10
230500.0
20
4220.0
30
0.0
40
14.0
41
1.0
50
90.0
51
0.0
7
True type font
11
230500.0
21
4220.0
31
0.0
210
0.0
220
0.0
230
1.0
72
0
100
AcDbText
73
0
0
POLYLINE
5
456
330
1B
100
AcDbEntity
67
0
8
Markers-One
62
41
420
14737632
6
Dashed
370
0
48
1.0
60
0
100
AcDb3dPolyline
10
0.0
20
0.0
30
0.0
70
8
75
0
210
0.0
220
0.0
230
1.0
0
VERTEX
5
453
100
AcDbEntity
8
Markers-One
62
41
420
14737632
100
AcDbVertex
100
AcDb3dPolylineVertex
10
230600.0
20
4210.0
30
0.0
70
32
0
VERTEX
5
454
100
AcDbEntity
8
Markers-One
62
41
420
14737632
100
AcDbVertex
100
AcDb3dPolylineVertex
10
230600.0
20
4215.0
30
0.0
70
32
0
SEQEND
5
455
100
AcDbEntity
8
Markers-One
0
TEXT
5
457
330
1B
100
AcDbEntity
67
0
8
Chainage Text
62
9
6
ByLayer
370
15
48
1.0
60
0
100
AcDbText
1
230+600
10
230600.0
20
4220.0
30
0.0
40
14.0
41
1.0
50
90.0
51
0.0
7
True type font
11
230600.0
21
4220.0
31
0.0
210
0.0
220
0.0
230
1.0
72
0
100
AcDbText
73
0
0
POLYLINE
5
45B
330
1B
100
AcDbEntity
67
0
8
Markers-One
62
41
420
14737632
6
Dashed
370
0
48
1.0
60
0
100
AcDb3dPolyline
10
0.0
20
0.0
30
0.0
70
8
75
0
210
0.0
220
0.0
230
1.0
0
VERTEX
5
458
100
AcDbEntity
8
Markers-One
62
41
420
14737632
100
AcDbVertex
100
AcDb3dPolylineVertex
10
230700.0
20
4210.0
30
0.0
70
32
0
VERTEX
5
459
100
AcDbEntity
8
Markers-One
62
41
420
14737632
100
AcDbVertex
100
AcDb3dPolylineVertex
10
230700.0
20
4215.0
30
0.0
70
32
0
SEQEND
5
45A
100
AcDbEntity
8
Markers-One
0
TEXT
5
45C
330
1B
100
AcDbEntity
67
0
8
Chainage Text
62
9
6
ByLayer
370
15
48
1.0
60
0
100
AcDbText
1
230+700
10
230700.0
20
4220.0
30
0.0
40
14.0
41
1.0
50
90.0
51
0.0
7
True type font
11
230700.0
21
4220.0
31
0.0
210
0.0
220
0.0
230
1.0
72
0
100
AcDbText
73
0
0
POLYLINE
5
460
330
1B
100
AcDbEntity
67
0
8
Markers-One
62
41
420
14737632
6
Dashed
370
0
48
1.0
60
0
100
AcDb3dPolyline
10
0.0
20
0.0
30
0.0
70
8
75
0
210
0.0
220
0.0
230
1.0
0
VERTEX
5
45D
100
AcDbEntity
8
Markers-One
62
41
420
14737632
100
AcDbVertex
100
AcDb3dPolylineVertex
10
230800.0
20
4210.0
30
0.0
70
32
0
VERTEX
5
45E
100
AcDbEntity
8
Markers-One
62
41
420
14737632
100
AcDbVertex
100
AcDb3dPolylineVertex
10
230800.0
20
4215.0
30
0.0
70
32
0
SEQEND
5
45F
100
AcDbEntity
8
Markers-One
0
TEXT
5
461
330
1B
100
AcDbEntity
67
0
8
Chainage Text
62
9
6
ByLayer
370
15
48
1.0
60
0
100
AcDbText
1
230+800
10
230800.0
20
4220.0
30
0.0
40
14.0
41
1.0
50
90.0
51
0.0
7
True type font
11
230800.0
21
4220.0
31
0.0
210
0.0
220
0.0
230
1.0
72
0
100
AcDbText
73
0
0
POLYLINE
5
465
330
1B
100
AcDbEntity
67
0
8
Markers-One
62
41
420
14737632
6
Dashed
370
0
48
1.0
60
0
100
AcDb3dPolyline
10
0.0
20
0.0
30
0.0
70
8
75
0
210
0.0
220
0.0
230
1.0
0
VERTEX
5
462
100
AcDbEntity
8
Markers-One
62
41
420
14737632
100
AcDbVertex
100
AcDb3dPolylineVertex
10
230900.0
20
4210.0
30
0.0
70
32
0
VERTEX
5
463
100
AcDbEntity
8
Markers-One
62
41
420
14737632
100
AcDbVertex
100
AcDb3dPolylineVertex
10
230900.0
20
4215.0
30
0.0
70
32
0
SEQEND
5
464
100
AcDbEntity
8
Markers-One
0
TEXT
5
466
330
1B
100
AcDbEntity
67
0
8
Chainage Text
62
9
6
ByLayer
370
15
48
1.0
60
0
100
AcDbText
1
230+900
10
230900.0
20
4220.0
30
0.0
40
14.0
41
1.0
50
90.0
51
0.0
7
True type font
11
230900.0
21
4220.0
31
0.0
210
0.0
220
0.0
230
1.0
72
0
100
AcDbText
73
0
0
POLYLINE
5
46A
330
1B
100
AcDbEntity
67
0
8
Markers-One
62
41
420
14737632
6
Dashed
370
0
48
1.0
60
0
100
AcDb3dPolyline
10
0.0
20
0.0
30
0.0
70
8
75
0
210
0.0
220
0.0
230
1.0
0
VERTEX
5
467
100
AcDbEntity
8
Markers-One
62
41
420
14737632
100
AcDbVertex
100
AcDb3dPolylineVertex
10
231000.0
20
4210.0
30
0.0
70
32
0
VERTEX
5
468
100
AcDbEntity
8
Markers-One
62
41
420
14737632
100
AcDbVertex
100
AcDb3dPolylineVertex
10
231000.0
20
4215.0
30
0.0
70
32
0
SEQEND
5
469
100
AcDbEntity
8
Markers-One
0
TEXT
5
46B
330
1B
100
AcDbEntity
67
0
8
Chainage Text
62
9
6
ByLayer
370
15
48
1.0
60
0
100
AcDbText
1
231+000
10
231000.0
20
4220.0
30
0.0
40
14.0
41
1.0
50
90.0
51
0.0
7
True type font
11
231000.0
21
4220.0
31
0.0
210
0.0
220
0.0
230
1.0
72
0
100
AcDbText
73
0
0
POLYLINE
5
46F
330
1B
100
AcDbEntity
67
0
8
Markers-One
62
41
420
14737632
6
Dashed
370
0
48
1.0
60
0
100
AcDb3dPolyline
10
0.0
20
0.0
30
0.0
70
8
75
0
210
0.0
220
0.0
230
1.0
0
VERTEX
5
46C
100
AcDbEntity
8
Markers-One
62
41
420
14737632
100
AcDbVertex
100
AcDb3dPolylineVertex
10
231100.0
20
4210.0
30
0.0
70
32
0
VERTEX
5
46D
100
AcDbEntity
8
Markers-One
62
41
420
14737632
100
AcDbVertex
100
AcDb3dPolylineVertex
10
231100.0
20
4215.0
30
0.0
70
32
0
SEQEND
5
46E
100
AcDbEntity
8
Markers-One
0
TEXT
5
470
330
1B
100
AcDbEntity
67
0
8
Chainage Text
62
9
6
ByLayer
370
15
48
1.0
60
0
100
AcDbText
1
231+100
10
231100.0
20
4220.0
30
0.0
40
14.0
41
1.0
50
90.0
51
0.0
7
True type font
11
231100.0
21
4220.0
31
0.0
210
0.0
220
0.0
230
1.0
72
0
100
AcDbText
73
0
0
POLYLINE
5
474
330
1B
100
AcDbEntity
67
0
8
Markers-One
62
41
420
14737632
6
Dashed
370
0
48
1.0
60
0
100
AcDb3dPolyline
10
0.0
20
0.0
30
0.0
70
8
75
0
210
0.0
220
0.0
230
1.0
0
VERTEX
5
471
100
AcDbEntity
8
Markers-One
62
41
420
14737632
100
AcDbVertex
100
AcDb3dPolylineVertex
10
231200.0
20
4210.0
30
0.0
70
32
0
VERTEX
5
472
100
AcDbEntity
8
Markers-One
62
41
420
14737632
100
AcDbVertex
100
AcDb3dPolylineVertex
10
231200.0
20
4215.0
30
0.0
70
32
0
SEQEND
5
473
100
AcDbEntity
8
Markers-One
0
TEXT
5
475
330
1B
100
AcDbEntity
67
0
8
Chainage Text
62
9
6
ByLayer
370
15
48
1.0
60
0
100
AcDbText
1
231+200
10
231200.0
20
4220.0
30
0.0
40
14.0
41
1.0
50
90.0
51
0.0
7
True type font
11
231200.0
21
4220.0
31
0.0
210
0.0
220
0.0
230
1.0
72
0
100
AcDbText
73
0
0
POLYLINE
5
479
330
1B
100
AcDbEntity
67
0
8
Markers-One
62
41
420
14737632
6
Dashed
370
0
48
1.0
60
0
100
AcDb3dPolyline
10
0.0
20
0.0
30
0.0
70
8
75
0
210
0.0
220
0.0
230
1.0
0
VERTEX
5
476
100
AcDbEntity
8
Markers-One
62
41
420
14737632
100
AcDbVertex
100
AcDb3dPolylineVertex
10
231300.0
20
4210.0
30
0.0
70
32
0
VERTEX
5
477
100
AcDbEntity
8
Markers-One
62
41
420
14737632
100
AcDbVertex
100
AcDb3dPolylineVertex
10
231300.0
20
4215.0
30
0.0
70
32
0
SEQEND
5
478
100
AcDbEntity
8
Markers-One
0
TEXT
5
47A
330
1B
100
AcDbEntity
67
0
8
Chainage Text
62
9
6
ByLayer
370
15
48
1.0
60
0
100
AcDbText
1
231+300
10
231300.0
20
4220.0
30
0.0
40
14.0
41
1.0
50
90.0
51
0.0
7
True type font
11
231300.0
21
4220.0
31
0.0
210
0.0
220
0.0
230
1.0
72
0
100
AcDbText
73
0
0
POLYLINE
5
47E
330
1B
100
AcDbEntity
67
0
8
Markers-One
62
41
420
14737632
6
Dashed
370
0
48
1.0
60
0
100
AcDb3dPolyline
10
0.0
20
0.0
30
0.0
70
8
75
0
210
0.0
220
0.0
230
1.0
0
VERTEX
5
47B
100
AcDbEntity
8
Markers-One
62
41
420
14737632
100
AcDbVertex
100
AcDb3dPolylineVertex
10
231400.0
20
4210.0
30
0.0
70
32
0
VERTEX
5
47C
100
AcDbEntity
8
Markers-One
62
41
420
14737632
100
AcDbVertex
100
AcDb3dPolylineVertex
10
231400.0
20
4215.0
30
0.0
70
32
0
SEQEND
5
47D
100
AcDbEntity
8
Markers-One
0
TEXT
5
47F
330
1B
100
AcDbEntity
67
0
8
Chainage Text
62
9
6
ByLayer
370
15
48
1.0
60
0
100
AcDbText
1
231+400
10
231400.0
20
4220.0
30
0.0
40
14.0
41
1.0
50
90.0
51
0.0
7
True type font
11
231400.0
21
4220.0
31
0.0
210
0.0
220
0.0
230
1.0
72
0
100
AcDbText
73
0
0
POLYLINE
5
483
330
1B
100
AcDbEntity
67
0
8
Markers-One
62
41
420
14737632
6
Dashed
370
0
48
1.0
60
0
100
AcDb3dPolyline
10
0.0
20
0.0
30
0.0
70
8
75
0
210
0.0
220
0.0
230
1.0
0
VERTEX
5
480
100
AcDbEntity
8
Markers-One
62
41
420
14737632
100
AcDbVertex
100
AcDb3dPolylineVertex
10
231500.0
20
4210.0
30
0.0
70
32
0
VERTEX
5
481
100
AcDbEntity
8
Markers-One
62
41
420
14737632
100
AcDbVertex
100
AcDb3dPolylineVertex
10
231500.0
20
4215.0
30
0.0
70
32
0
SEQEND
5
482
100
AcDbEntity
8
Markers-One
0
TEXT
5
484
330
1B
100
AcDbEntity
67
0
8
Chainage Text
62
9
6
ByLayer
370
15
48
1.0
60
0
100
AcDbText
1
231+500
10
231500.0
20
4220.0
30
0.0
40
14.0
41
1.0
50
90.0
51
0.0
7
True type font
11
231500.0
21
4220.0
31
0.0
210
0.0
220
0.0
230
1.0
72
0
100
AcDbText
73
0
0
POLYLINE
5
488
330
1B
100
AcDbEntity
67
0
8
Markers-One
62
41
420
14737632
6
Dashed
370
0
48
1.0
60
0
100
AcDb3dPolyline
10
0.0
20
0.0
30
0.0
70
8
75
0
210
0.0
220
0.0
230
1.0
0
VERTEX
5
485
100
AcDbEntity
8
Markers-One
62
41
420
14737632
100
AcDbVertex
100
AcDb3dPolylineVertex
10
231600.0
20
4210.0
30
0.0
70
32
0
VERTEX
5
486
100
AcDbEntity
8
Markers-One
62
41
420
14737632
100
AcDbVertex
100
AcDb3dPolylineVertex
10
231600.0
20
4215.0
30
0.0
70
32
0
SEQEND
5
487
100
AcDbEntity
8
Markers-One
0
TEXT
5
489
330
1B
100
AcDbEntity
67
0
8
Chainage Text
62
9
6
ByLayer
370
15
48
1.0
60
0
100
AcDbText
1
231+600
10
231600.0
20
4220.0
30
0.0
40
14.0
41
1.0
50
90.0
51
0.0
7
True type font
11
231600.0
21
4220.0
31
0.0
210
0.0
220
0.0
230
1.0
72
0
100
AcDbText
73
0
0
POLYLINE
5
48D
330
1B
100
AcDbEntity
67
0
8
Markers-One
62
41
420
14737632
6
Dashed
370
0
48
1.0
60
0
100
AcDb3dPolyline
10
0.0
20
0.0
30
0.0
70
8
75
0
210
0.0
220
0.0
230
1.0
0
VERTEX
5
48A
100
AcDbEntity
8
Markers-One
62
41
420
14737632
100
AcDbVertex
100
AcDb3dPolylineVertex
10
231700.0
20
4210.0
30
0.0
70
32
0
VERTEX
5
48B
100
AcDbEntity
8
Markers-One
62
41
420
14737632
100
AcDbVertex
100
AcDb3dPolylineVertex
10
231700.0
20
4215.0
30
0.0
70
32
0
SEQEND
5
48C
100
AcDbEntity
8
Markers-One
0
TEXT
5
48E
330
1B
100
AcDbEntity
67
0
8
Chainage Text
62
9
6
ByLayer
370
15
48
1.0
60
0
100
AcDbText
1
231+700
10
231700.0
20
4220.0
30
0.0
40
14.0
41
1.0
50
90.0
51
0.0
7
True type font
11
231700.0
21
4220.0
31
0.0
210
0.0
220
0.0
230
1.0
72
0
100
AcDbText
73
0
0
POLYLINE
5
492
330
1B
100
AcDbEntity
67
0
8
Markers-One
62
41
420
14737632
6
Dashed
370
0
48
1.0
60
0
100
AcDb3dPolyline
10
0.0
20
0.0
30
0.0
70
8
75
0
210
0.0
220
0.0
230
1.0
0
VERTEX
5
48F
100
AcDbEntity
8
Markers-One
62
41
420
14737632
100
AcDbVertex
100
AcDb3dPolylineVertex
10
231800.0
20
4210.0
30
0.0
70
32
0
VERTEX
5
490
100
AcDbEntity
8
Markers-One
62
41
420
14737632
100
AcDbVertex
100
AcDb3dPolylineVertex
10
231800.0
20
4215.0
30
0.0
70
32
0
SEQEND
5
491
100
AcDbEntity
8
Markers-One
0
TEXT
5
493
330
1B
100
AcDbEntity
67
0
8
Chainage Text
62
9
6
ByLayer
370
15
48
1.0
60
0
100
AcDbText
1
231+800
10
231800.0
20
4220.0
30
0.0
40
14.0
41
1.0
50
90.0
51
0.0
7
True type font
11
231800.0
21
4220.0
31
0.0
210
0.0
220
0.0
230
1.0
72
0
100
AcDbText
73
0
0
POLYLINE
5
497
330
1B
100
AcDbEntity
67
0
8
Markers-One
62
41
420
14737632
6
Dashed
370
0
48
1.0
60
0
100
AcDb3dPolyline
10
0.0
20
0.0
30
0.0
70
8
75
0
210
0.0
220
0.0
230
1.0
0
VERTEX
5
494
100
AcDbEntity
8
Markers-One
62
41
420
14737632
100
AcDbVertex
100
AcDb3dPolylineVertex
10
231870.0
20
4210.0
30
0.0
70
32
0
VERTEX
5
495
100
AcDbEntity
8
Markers-One
62
41
420
14737632
100
AcDbVertex
100
AcDb3dPolylineVertex
10
231870.0
20
4215.0
30
0.0
70
32
0
SEQEND
5
496
100
AcDbEntity
8
Markers-One
0
TEXT
5
498
330
1B
100
AcDbEntity
67
0
8
Chainage Text
62
9
6
ByLayer
370
15
48
1.0
60
0
100
AcDbText
1
231+870
10
231870.0
20
4220.0
30
0.0
40
14.0
41
1.0
50
90.0
51
0.0
7
True type font
11
231870.0
21
4220.0
31
0.0
210
0.0
220
0.0
230
1.0
72
0
100
AcDbText
73
0
0
POLYLINE
5
49E
330
1B
100
AcDbEntity
67
0
8
Entity
62
9
6
ByLayer
370
25
48
1.0
60
0
100
AcDb3dPolyline
10
0.0
20
0.0
30
0.0
70
9
75
0
210
0.0
220
0.0
230
1.0
0
VERTEX
5
499
100
AcDbEntity
8
Entity
62
9
100
AcDbVertex
100
AcDb3dPolylineVertex
10
225000.0
20
4050.0
30
0.0
70
32
0
VERTEX
5
49A
100
AcDbEntity
8
Entity
62
9
100
AcDbVertex
100
AcDb3dPolylineVertex
10
231200.0
20
4050.0
30
0.0
70
32
0
VERTEX
5
49B
100
AcDbEntity
8
Entity
62
9
100
AcDbVertex
100
AcDb3dPolylineVertex
10
231200.0
20
4000.0
30
0.0
70
32
0
VERTEX
5
49C
100
AcDbEntity
8
Entity
62
9
100
AcDbVertex
100
AcDb3dPolylineVertex
10
225000.0
20
4000.0
30
0.0
70
32
0
SEQEND
5
49D
100
AcDbEntity
8
Entity
0
TEXT
5
49F
330
1B
100
AcDbEntity
67
0
8
Entity
62
9
6
ByLayer
370
15
48
1.0
60
0
100
AcDbText
1
Block-section-02
10
225010.0
20
3950.0
30
0.0
40
8.0
41
1.0
50
90.0
51
0.0
7
True type font
11
225010.0
21
3950.0
31
0.0
210
0.0
220
0.0
230
1.0
72
0
100
AcDbText
73
0
0
POLYLINE
5
4A4
330
1B
100
AcDbEntity
67
0
8
Block
62
9
6
Dashed
370
0
48
1.0
60
0
100
AcDb3dPolyline
10
0.0
20
0.0
30
0.0
70
8
75
0
210
0.0
220
0.0
230
1.0
0
VERTEX
5
4A1
100
AcDbEntity
8
Block
62
9
100
AcDbVertex
100
AcDb3dPolylineVertex
10
224540.0
20
5000.0
30
0.0
70
32
0
VERTEX
5
4A2
100
AcDbEntity
8
Block
62
9
100
AcDbVertex
100
AcDb3dPolylineVertex
10
224540.0
20
4000.0
30
0.0
70
32
0
SEQEND
5
4A3
100
AcDbEntity
8
Block
0
POLYLINE
5
4A8
330
1B
100
AcDbEntity
67
0
8
Block
62
9
6
Dashed
370
0
48
1.0
60
0
100
AcDb3dPolyline
10
0.0
20
0.0
30
0.0
70
8
75
0
210
0.0
220
0.0
230
1.0
0
VERTEX
5
4A5
100
AcDbEntity
8
Block
62
9
100
AcDbVertex
100
AcDb3dPolylineVertex
10
231870.0
20
5000.0
30
0.0
70
32
0
VERTEX
5
4A6
100
AcDbEntity
8
Block
62
9
100
AcDbVertex
100
AcDb3dPolylineVertex
10
231870.0
20
4000.0
30
0.0
70
32
0
SEQEND
5
4A7
100
AcDbEntity
8
Block
0
POLYLINE
5
4AF
330
1B
100
AcDbEntity
67
0
8
Outer Box
62
9
6
ByLayer
370
5
48
1.0
60
0
100
AcDb3dPolyline
10
0.0
20
0.0
30
0.0
70
9
75
0
210
0.0
220
0.0
230
1.0
0
VERTEX
5
4AA
100
AcDbEntity
8
Outer Box
62
9
100
AcDbVertex
100
AcDb3dPolylineVertex
10
224240.0
20
5000.0
30
0.0
70
32
0
VERTEX
5
4AB
100
AcDbEntity
8
Outer Box
62
9
100
AcDbVertex
100
AcDb3dPolylineVertex
10
232170.0
20
5000.0
30
0.0
70
32
0
VERTEX
5
4AC
100
AcDbEntity
8
Outer Box
62
9
100
AcDbVertex
100
AcDb3dPolylineVertex
10
232170.0
20
4000.0
30
0.0
70
32
0
VERTEX
5
4AD
100
AcDbEntity
8
Outer Box
62
9
100
AcDbVertex
100
AcDb3dPolylineVertex
10
224240.0
20
4000.0
30
0.0
70
32
0
SEQEND
5
4AE
100
AcDbEntity
8
Outer Box
0
VIEWPORT
5
4B4
330
4B0
100
AcDbEntity
67
1
8
0
62
256
6
ByLayer
370
-1
48
1.0
60
0
100
AcDbViewport
10
0.0
20
0.0
30
0.0
40
297.0
41
210.0
68
1
69
1
12
50.0
22
100.0
13
0.0
23
0.0
14
10.0
24
10.0
15
10.0
25
10.0
16
0.0
26
0.0
36
1.0
17
0.0
27
0.0
37
0.0
42
50.0
43
0.0
44
0.0
45
250.0
50
0.0
51
0.0
72
1000
90
819232
110
0.0
120
0.0
130
0.0
111
1.0
121
0.0
131
0.0
112
0.0
122
1.0
132
0.0
0
ENDSEC
0
SECTION
2
OBJECTS
0
DICTIONARY
5
4B9
330
0
100
AcDbDictionary
280
0
281
1
3
ACAD_GROUP
350
4BA
3
ACAD_LAYOUT
350
4BB
3
ACAD_MLINESTYLE
350
4BF
0
DICTIONARY
5
4BA
330
4B9
100
AcDbDictionary
280
0
281
1
0
DICTIONARY
5
4BB
330
4B9
100
AcDbDictionary
280
0
281
1
3
Model
350
1F
3
Layout1
350
4B5
0
DICTIONARY
5
4BF
330
4B9
100
AcDbDictionary
280
0
281
1
3
Standard
350
1A
0
LAYOUT
5
1F
330
4BB
100
AcDbPlotSettings
1

2
none_device
4
ISO_A4_(210.00_x_297.00_MM)
6

40
7.5
41
20.0
42
7.5
43
20.0
44
210.0
45
297.0
46
0.0
47
0.0
48
0.0
49
0.0
140
0.0
141
0.0
142
1.0
143
1.0
70
11952
72
1
73
1
74
1
7

75
0
76
0
77
2
78
300
147
1.0
148
0.0
149
0.0
100
AcDbLayout
1
Model
70
1
71
0
10
-20.0
20
-7.5
11
277.0
21
202.5
12
0.0
22
0.0
32
0.0
14
25.7
24
19.5
34
0.0
15
231.3
25
175.5
35
0.0
146
0.0
13
0.0
23
0.0
33
0.0
16
1.0
26
0.0
36
0.0
17
0.0
27
1.0
37
0.0
76
0
330
1B
0
LAYOUT
5
4B5
330
4BB
100
AcDbPlotSettings
1

2
none_device
4
ISO_A4_(210.00_x_297.00_MM)
6

40
7.5
41
20.0
42
7.5
43
20.0
44
210.0
45
297.0
46
0.0
47
0.0
48
0.0
49
0.0
140
0.0
141
0.0
142
1.0
143
1.0
70
688
72
1
73
1
74
1
7

75
0
76
0
77
2
78
300
147
1.0
148
0.0
149
0.0
100
AcDbLayout
1
Layout1
70
1
71
1
10
-20.0
20
-7.5
11
277.0
21
202.5
12
0.0
22
0.0
32
0.0
14
25.7
24
19.5
34
0.0
15
231.3
25
175.5
35
0.0
146
0.0
13
0.0
23
0.0
33
0.0
16
1.0
26
0.0
36
0.0
17
0.0
27
1.0
37
0.0
76
0
330
4B0
0
MLINESTYLE
5
1A
330
4BF
100
AcDbMlineStyle
2
Standard
70
0
3

62
256
51
90.0
52
90.0
71
2
49
-0.5
62
256
6
ByLayer
49
0.5
62
256
6
ByLayer
0
ENDSEC
0
EOF
