<?xml version="1.0" encoding="utf-8"?>
<!-- Generator: Adobe Illustrator 15.0.0, SVG Export Plug-In . SVG Version: 6.00 Build 0)  -->
<!DOCTYPE svg PUBLIC "-//W3C//DTD SVG 1.1//EN" "http://www.w3.org/Graphics/SVG/1.1/DTD/svg11.dtd">
<svg version="1.1" id="Layer_1" xmlns="http://www.w3.org/2000/svg" xmlns:xlink="http://www.w3.org/1999/xlink" x="0px" y="0px"
	 width="335px" height="75.334px" viewBox="0 0 335 75.334" enable-background="new 0 0 335 75.334" xml:space="preserve">
<g>
	<g>
		<path fill-rule="evenodd" clip-rule="evenodd" fill="#323130" d="M53.43,4.037h51.854v2.227H55.02
			c-8.135,0-15.792,6.046-20.58,14.004L3.013,72.461h-3.039l32.867-54.582C37.637,10.081,45.288,4.037,53.43,4.037L53.43,4.037z"/>
		<path fill-rule="evenodd" clip-rule="evenodd" fill="#A51E22" d="M58.059,13.583h43.391L67.787,71.99L49.122,44.777
			c14.357,2.227,26.483-7.96,28.876-17.986c3.352-13.369-10.85-10.82-19.146-10.82c-8.138,0-15.793,5.886-20.581,13.848
			L12.581,72.461H9.549l27.127-44.875C41.459,19.63,49.915,13.583,58.059,13.583L58.059,13.583z"/>
	</g>
	<g>
		<g>
			<path fill="#A51E22" d="M113.875,55.053h-2.769l2.815-13.412h5.971c1.028,0,1.827,0.105,2.399,0.314
				c0.573,0.209,1.034,0.596,1.385,1.158c0.352,0.561,0.528,1.24,0.528,2.039c0,1.141-0.345,2.082-1.029,2.826
				c-0.683,0.738-1.72,1.195-3.109,1.373c0.355,0.316,0.688,0.734,1,1.254c0.616,1.049,1.305,2.533,2.063,4.447h-2.972
				c-0.238-0.76-0.706-1.938-1.402-3.541c-0.38-0.867-0.783-1.449-1.211-1.748c-0.263-0.18-0.72-0.266-1.377-0.266h-1.128
				L113.875,55.053z M115.462,47.488h1.468c1.486,0,2.472-0.092,2.957-0.27c0.486-0.174,0.867-0.451,1.144-0.832
				c0.274-0.379,0.412-0.773,0.412-1.188c0-0.49-0.198-0.854-0.596-1.098c-0.246-0.148-0.774-0.223-1.588-0.223h-3.045
				L115.462,47.488z"/>
			<path fill="#A51E22" d="M128.183,48.088l-2.57-0.217c0.293-0.869,0.808-1.545,1.538-2.033c0.73-0.488,1.697-0.73,2.905-0.73
				c1.252,0,2.18,0.252,2.778,0.754c0.598,0.504,0.9,1.115,0.9,1.846c0,0.291-0.028,0.602-0.08,0.93
				c-0.052,0.33-0.233,1.197-0.546,2.598c-0.255,1.164-0.384,1.973-0.384,2.436c0,0.416,0.074,0.875,0.221,1.383h-2.559
				c-0.105-0.355-0.168-0.719-0.195-1.098c-0.384,0.424-0.83,0.754-1.328,0.982c-0.503,0.229-1.006,0.342-1.516,0.342
				c-0.805,0-1.473-0.262-2-0.789c-0.525-0.527-0.788-1.205-0.788-2.037c0-0.928,0.29-1.668,0.866-2.223
				c0.578-0.555,1.611-0.889,3.098-1.008c1.251-0.104,2.09-0.227,2.513-0.373c0.108-0.367,0.164-0.66,0.164-0.877
				c0-0.283-0.114-0.518-0.34-0.705c-0.227-0.189-0.564-0.285-1.01-0.285c-0.47,0-0.842,0.098-1.116,0.289
				C128.465,47.463,128.28,47.734,128.183,48.088z M130.685,50.523c-0.159,0.041-0.368,0.082-0.63,0.119
				c-1.323,0.158-2.185,0.391-2.587,0.693c-0.29,0.221-0.431,0.518-0.431,0.887c0,0.309,0.11,0.564,0.329,0.775
				c0.218,0.209,0.511,0.314,0.872,0.314c0.397,0,0.771-0.094,1.123-0.285c0.353-0.193,0.616-0.441,0.791-0.744
				c0.172-0.301,0.328-0.771,0.462-1.412L130.685,50.523z"/>
			<path fill="#A51E22" d="M137.234,45.336h2.633l-2.037,9.717h-2.633L137.234,45.336z M138.003,41.641h2.633l-0.497,2.377h-2.631
				L138.003,41.641z"/>
			<path fill="#A51E22" d="M140.53,55.053l2.814-13.412h2.624l-2.808,13.412H140.53z"/>
			<path fill="#A51E22" d="M158.984,55.053h-2.953l-2.413-13.412h2.76l1.707,10.145l5.569-10.145h2.738L158.984,55.053z"/>
			<path fill="#A51E22" d="M167.008,45.336h2.635l-2.036,9.717h-2.634L167.008,45.336z M167.782,41.641h2.628l-0.494,2.377h-2.631
				L167.782,41.641z"/>
			<path fill="#A51E22" d="M170.277,55.053l2.816-13.412h2.631l-1.467,6.979l3.431-3.283h3.422l-3.917,3.531l2.083,6.186h-2.634
				l-1.339-4.494l-1.779,1.574l-0.613,2.92H170.277z"/>
			<path fill="#A51E22" d="M184.769,48.088l-2.568-0.217c0.294-0.869,0.804-1.545,1.535-2.033c0.73-0.488,1.7-0.73,2.904-0.73
				c1.254,0,2.181,0.252,2.777,0.754c0.602,0.504,0.899,1.115,0.899,1.846c0,0.291-0.026,0.602-0.077,0.93
				c-0.051,0.33-0.233,1.197-0.545,2.598c-0.258,1.164-0.386,1.973-0.386,2.436c0,0.416,0.071,0.875,0.22,1.383h-2.56
				c-0.104-0.355-0.168-0.719-0.189-1.098c-0.388,0.424-0.831,0.754-1.332,0.982c-0.503,0.229-1.007,0.342-1.515,0.342
				c-0.807,0-1.471-0.262-2-0.789c-0.526-0.527-0.788-1.205-0.788-2.037c0-0.928,0.287-1.668,0.869-2.223
				c0.575-0.555,1.606-0.889,3.094-1.008c1.253-0.104,2.091-0.227,2.513-0.373c0.113-0.367,0.165-0.66,0.165-0.877
				c0-0.283-0.111-0.518-0.338-0.705c-0.229-0.189-0.564-0.285-1.01-0.285c-0.471,0-0.844,0.098-1.115,0.289
				C185.049,47.463,184.868,47.734,184.769,48.088z M187.271,50.523c-0.158,0.041-0.367,0.082-0.631,0.119
				c-1.322,0.158-2.185,0.391-2.586,0.693c-0.29,0.221-0.434,0.518-0.434,0.887c0,0.309,0.111,0.564,0.33,0.775
				c0.221,0.209,0.513,0.314,0.873,0.314c0.396,0,0.771-0.094,1.123-0.285c0.352-0.193,0.615-0.441,0.787-0.744
				c0.178-0.301,0.333-0.771,0.465-1.412L187.271,50.523z"/>
			<path fill="#A51E22" d="M191.444,52.334l2.551-0.404c0.225,0.541,0.507,0.92,0.843,1.143c0.337,0.223,0.797,0.332,1.374,0.332
				c0.604,0,1.08-0.133,1.44-0.4c0.253-0.186,0.377-0.406,0.377-0.67c0-0.176-0.065-0.338-0.193-0.475
				c-0.133-0.135-0.499-0.301-1.089-0.494c-1.592-0.523-2.576-0.941-2.955-1.246c-0.595-0.473-0.889-1.096-0.889-1.863
				s0.287-1.432,0.862-1.988c0.799-0.773,1.989-1.16,3.565-1.16c1.255,0,2.204,0.229,2.845,0.684
				c0.641,0.459,1.046,1.078,1.22,1.859l-2.43,0.42c-0.128-0.352-0.336-0.617-0.625-0.797c-0.392-0.234-0.86-0.355-1.411-0.355
				s-0.946,0.09-1.188,0.275c-0.24,0.184-0.362,0.393-0.362,0.631c0,0.242,0.122,0.447,0.366,0.604c0.153,0.1,0.647,0.27,1.479,0.51
				c1.282,0.375,2.143,0.74,2.579,1.102c0.607,0.506,0.913,1.117,0.913,1.828c0,0.922-0.388,1.719-1.164,2.398
				c-0.778,0.678-1.873,1.014-3.282,1.014c-1.41,0-2.495-0.256-3.262-0.77C192.24,53.992,191.72,53.27,191.444,52.334z"/>
			<path fill="#A51E22" d="M218.634,55.053h-2.579l-3.633-9.014l-1.887,9.014h-2.58l2.808-13.412h2.586l3.641,8.975l1.882-8.975
				h2.569L218.634,55.053z"/>
			<path fill="#A51E22" d="M223.335,45.336h2.633l-2.038,9.717h-2.631L223.335,45.336z M224.105,41.641h2.631l-0.495,2.377h-2.632
				L224.105,41.641z"/>
			<path fill="#A51E22" d="M226.509,55.563l2.779,0.404c0,0.279,0.047,0.492,0.14,0.637c0.091,0.143,0.24,0.266,0.441,0.365
				c0.206,0.1,0.486,0.152,0.843,0.152c0.556,0,1.001-0.111,1.338-0.332c0.248-0.17,0.455-0.443,0.617-0.822
				c0.094-0.236,0.222-0.756,0.375-1.557l0.091-0.455c-0.911,0.756-1.852,1.135-2.824,1.135c-0.956,0-1.738-0.336-2.351-1.008
				c-0.608-0.672-0.915-1.652-0.915-2.945c0-1.143,0.206-2.188,0.622-3.139c0.415-0.951,1.003-1.672,1.753-2.16
				c0.753-0.488,1.518-0.73,2.303-0.73c0.648,0,1.239,0.172,1.776,0.512c0.541,0.342,0.957,0.82,1.261,1.434l0.365-1.717h2.467
				l-1.688,8.096c-0.277,1.299-0.506,2.227-0.697,2.781c-0.19,0.555-0.407,1-0.651,1.328s-0.553,0.605-0.925,0.828
				c-0.373,0.221-0.814,0.381-1.323,0.479c-0.505,0.098-1.055,0.148-1.651,0.148c-1.374,0-2.414-0.236-3.119-0.703
				c-0.701-0.473-1.053-1.254-1.053-2.346C226.482,55.83,226.492,55.705,226.509,55.563z M229.612,50.871
				c0,0.738,0.164,1.301,0.5,1.686c0.332,0.389,0.748,0.582,1.252,0.582c0.456,0,0.901-0.172,1.331-0.521
				c0.433-0.35,0.765-0.842,0.993-1.48c0.227-0.643,0.344-1.258,0.344-1.859c0-0.689-0.187-1.242-0.561-1.664
				c-0.374-0.42-0.803-0.631-1.291-0.631c-0.472,0-0.905,0.186-1.299,0.559c-0.394,0.371-0.721,0.943-0.979,1.719
				C229.709,49.857,229.612,50.393,229.612,50.871z"/>
			<path fill="#A51E22" d="M241.105,48.088l-2.568-0.217c0.293-0.869,0.805-1.545,1.537-2.033c0.729-0.488,1.697-0.73,2.902-0.73
				c1.254,0,2.179,0.252,2.778,0.754c0.6,0.504,0.899,1.115,0.899,1.846c0,0.291-0.026,0.602-0.075,0.93
				c-0.055,0.33-0.234,1.197-0.547,2.598c-0.259,1.164-0.385,1.973-0.385,2.436c0,0.416,0.07,0.875,0.218,1.383h-2.558
				c-0.104-0.355-0.17-0.719-0.193-1.098c-0.386,0.424-0.83,0.754-1.33,0.982c-0.501,0.229-1.007,0.342-1.514,0.342
				c-0.807,0-1.472-0.262-1.999-0.789c-0.526-0.527-0.79-1.205-0.79-2.037c0-0.928,0.289-1.668,0.868-2.223
				c0.577-0.555,1.609-0.889,3.096-1.008c1.252-0.104,2.09-0.227,2.512-0.373c0.111-0.367,0.168-0.66,0.168-0.877
				c0-0.283-0.114-0.518-0.34-0.705c-0.227-0.189-0.564-0.285-1.01-0.285c-0.471,0-0.846,0.098-1.115,0.289
				C241.387,47.463,241.203,47.734,241.105,48.088z M243.611,50.523c-0.159,0.041-0.371,0.082-0.635,0.119
				c-1.32,0.158-2.185,0.391-2.586,0.693c-0.288,0.221-0.432,0.518-0.432,0.887c0,0.309,0.112,0.564,0.329,0.775
				c0.222,0.209,0.512,0.314,0.872,0.314c0.397,0,0.77-0.094,1.122-0.285c0.354-0.193,0.618-0.441,0.79-0.744
				c0.176-0.301,0.328-0.771,0.463-1.412L243.611,50.523z"/>
			<path fill="#A51E22" d="M250.074,45.336h2.477l-0.246,1.178c0.967-0.938,1.981-1.406,3.045-1.406
				c0.731,0,1.299,0.152,1.696,0.457s0.652,0.725,0.762,1.262c0.336-0.488,0.818-0.896,1.452-1.225
				c0.627-0.33,1.28-0.494,1.96-0.494c0.775,0,1.381,0.205,1.816,0.621s0.65,0.963,0.65,1.648c0,0.334-0.085,0.914-0.257,1.738
				l-1.246,5.938h-2.633l1.247-5.938c0.152-0.744,0.23-1.168,0.23-1.264c0-0.266-0.08-0.48-0.245-0.635
				c-0.162-0.158-0.405-0.234-0.729-0.234c-0.655,0-1.236,0.344-1.751,1.035c-0.376,0.494-0.691,1.367-0.954,2.625l-0.926,4.41
				h-2.633l1.227-5.877c0.142-0.676,0.212-1.115,0.212-1.314c0-0.258-0.087-0.467-0.262-0.633c-0.173-0.164-0.414-0.246-0.718-0.246
				c-0.29,0-0.585,0.086-0.892,0.254c-0.305,0.172-0.574,0.406-0.8,0.707c-0.231,0.301-0.431,0.684-0.593,1.152
				c-0.076,0.217-0.193,0.719-0.357,1.492l-0.937,4.465h-2.634L250.074,45.336z"/>
			<path fill="#A51E22" d="M269.665,55.053l2.818-13.412h2.757l-2.338,11.168h6.844l-0.468,2.244H269.665z"/>
			<path fill="#A51E22" d="M282.353,45.336h2.632l-2.037,9.717h-2.634L282.353,45.336z M283.121,41.641h2.633l-0.496,2.377h-2.63
				L283.121,41.641z"/>
			<path fill="#A51E22" d="M287.619,45.336h2.477l-0.245,1.178c0.964-0.938,1.98-1.406,3.045-1.406c0.733,0,1.298,0.152,1.695,0.457
				c0.399,0.305,0.653,0.725,0.76,1.262c0.337-0.488,0.821-0.896,1.452-1.225c0.631-0.33,1.283-0.494,1.964-0.494
				c0.775,0,1.38,0.205,1.816,0.621c0.434,0.416,0.651,0.963,0.651,1.648c0,0.334-0.086,0.914-0.26,1.738l-1.244,5.938h-2.634
				l1.246-5.938c0.154-0.744,0.229-1.168,0.229-1.264c0-0.266-0.079-0.48-0.244-0.635c-0.161-0.158-0.403-0.234-0.727-0.234
				c-0.656,0-1.239,0.344-1.755,1.035c-0.371,0.494-0.688,1.367-0.952,2.625l-0.926,4.41h-2.631l1.227-5.877
				c0.142-0.676,0.209-1.115,0.209-1.314c0-0.258-0.085-0.467-0.262-0.633c-0.172-0.164-0.411-0.246-0.717-0.246
				c-0.291,0-0.583,0.086-0.89,0.254c-0.308,0.172-0.575,0.406-0.803,0.707c-0.23,0.301-0.426,0.684-0.592,1.152
				c-0.073,0.217-0.191,0.719-0.357,1.492l-0.938,4.465h-2.633L287.619,45.336z"/>
			<path fill="#A51E22" d="M303.806,45.336h2.634l-2.039,9.717h-2.631L303.806,45.336z M304.576,41.641h2.631l-0.494,2.377h-2.632
				L304.576,41.641z"/>
			<path fill="#A51E22" d="M307.777,47.283l0.405-1.947h1.285l0.322-1.557l3.017-1.814l-0.706,3.371h1.605l-0.403,1.947h-1.617
				l-0.851,4.072c-0.154,0.736-0.23,1.158-0.23,1.262c0,0.201,0.063,0.359,0.191,0.471c0.128,0.117,0.361,0.17,0.697,0.17
				c0.114,0,0.407-0.02,0.873-0.063l-0.413,1.947c-0.452,0.092-0.919,0.137-1.396,0.137c-0.927,0-1.604-0.178-2.023-0.533
				c-0.426-0.359-0.637-0.854-0.637-1.488c0-0.299,0.114-0.99,0.341-2.068l0.815-3.906H307.777z"/>
			<path fill="#A51E22" d="M321.979,51.008h-6.605c-0.006,0.104-0.008,0.182-0.008,0.238c0,0.646,0.184,1.168,0.555,1.563
				c0.368,0.398,0.817,0.596,1.354,0.596c0.872,0,1.555-0.451,2.045-1.354l2.358,0.395c-0.461,0.945-1.072,1.656-1.843,2.125
				c-0.766,0.477-1.626,0.709-2.578,0.709c-1.312,0-2.375-0.412-3.195-1.24c-0.818-0.824-1.231-1.918-1.231-3.277
				c0-1.332,0.374-2.512,1.111-3.551c1.012-1.402,2.45-2.104,4.323-2.104c1.19,0,2.14,0.367,2.841,1.104
				c0.703,0.734,1.056,1.764,1.056,3.084C322.16,49.932,322.101,50.502,321.979,51.008z M319.756,49.406
				c0.006-0.115,0.012-0.201,0.012-0.266c0-0.719-0.164-1.26-0.486-1.619c-0.323-0.357-0.758-0.539-1.303-0.539
				c-0.543,0-1.033,0.203-1.465,0.611c-0.43,0.412-0.723,1.012-0.873,1.813H319.756z"/>
			<path fill="#A51E22" d="M332.22,55.053h-2.494L329.946,54c-0.48,0.457-0.948,0.785-1.412,0.984
				c-0.46,0.199-0.979,0.295-1.562,0.295c-1.009,0-1.826-0.342-2.454-1.027c-0.627-0.686-0.941-1.703-0.941-3.043
				c0-1.555,0.441-2.959,1.32-4.215c0.882-1.258,2.048-1.887,3.495-1.887c1.312,0,2.292,0.518,2.945,1.555l1.056-5.021h2.632
				L332.22,55.053z M326.139,51.098c0,0.695,0.175,1.238,0.527,1.631c0.351,0.391,0.78,0.584,1.299,0.584
				c0.474,0,0.921-0.162,1.334-0.49s0.74-0.826,0.988-1.496c0.249-0.67,0.372-1.311,0.372-1.93c0-0.699-0.192-1.27-0.567-1.701
				c-0.38-0.43-0.818-0.648-1.313-0.648c-0.771,0-1.401,0.426-1.898,1.279C326.387,49.18,326.139,50.105,326.139,51.098z"/>
		</g>
		<g>
			<path fill="#323130" d="M148.468,72.803h-0.771c-0.214-0.496-0.37-1.002-0.476-1.512c-0.102-0.512-0.153-0.982-0.153-1.408
				c0-0.533,0.084-1.066,0.259-1.604c0.168-0.539,0.432-1.086,0.787-1.645c0.221-0.354,0.58-0.807,1.069-1.365h0.862
				c-0.503,0.584-0.888,1.135-1.159,1.648c-0.271,0.516-0.476,1.074-0.608,1.684c-0.135,0.605-0.199,1.201-0.199,1.777
				c0,0.395,0.029,0.779,0.087,1.146C148.228,71.896,148.323,72.324,148.468,72.803z"/>
			<path fill="#323130" d="M153.323,69.846h-2.287l-0.688,1.27h-1.221l3.262-5.75h1.314l0.938,5.75h-1.127L153.323,69.846z
				 M153.176,68.889l-0.333-2.316l-1.391,2.316H153.176z"/>
			<path fill="#323130" d="M160.806,68.045h2.579l-0.517,2.467c-0.304,0.193-0.678,0.359-1.118,0.498
				c-0.439,0.135-0.891,0.203-1.35,0.203c-0.713,0-1.26-0.16-1.64-0.484c-0.52-0.438-0.777-1.072-0.777-1.908
				c0-0.561,0.109-1.096,0.33-1.607c0.27-0.615,0.649-1.092,1.143-1.436c0.495-0.338,1.069-0.508,1.734-0.508
				c0.669,0,1.204,0.152,1.607,0.461c0.398,0.311,0.666,0.758,0.798,1.352l-1.106,0.123c-0.095-0.322-0.252-0.57-0.468-0.732
				c-0.218-0.166-0.491-0.248-0.816-0.248c-0.382,0-0.733,0.1-1.057,0.299c-0.315,0.197-0.566,0.502-0.749,0.92
				c-0.181,0.418-0.27,0.871-0.27,1.361c0,0.486,0.108,0.842,0.33,1.072c0.22,0.232,0.543,0.348,0.966,0.348
				c0.254,0,0.516-0.037,0.781-0.107c0.268-0.072,0.501-0.158,0.692-0.258l0.178-0.854h-1.47L160.806,68.045z"/>
			<path fill="#323130" d="M165.806,69.387c0-0.773,0.22-1.387,0.656-1.846c0.432-0.459,1.009-0.688,1.717-0.688
				c0.617,0,1.1,0.168,1.442,0.508c0.346,0.338,0.521,0.791,0.521,1.365c0,0.674-0.218,1.26-0.65,1.75
				c-0.434,0.49-1.009,0.736-1.735,0.736c-0.396,0-0.742-0.078-1.044-0.236c-0.309-0.156-0.533-0.379-0.683-0.668
				C165.882,70.025,165.806,69.715,165.806,69.387z M169.019,68.58c0-0.264-0.074-0.479-0.23-0.639
				c-0.157-0.16-0.359-0.242-0.604-0.242c-0.245,0-0.459,0.078-0.646,0.225c-0.193,0.15-0.337,0.369-0.441,0.654
				c-0.105,0.289-0.159,0.551-0.159,0.791c0,0.299,0.08,0.535,0.247,0.711c0.16,0.174,0.366,0.266,0.611,0.266
				c0.31,0,0.567-0.135,0.776-0.4C168.871,69.574,169.019,69.117,169.019,68.58z"/>
			<path fill="#323130" d="M173.09,71.115h-0.973l-0.838-4.162h1.109l0.294,1.814c0.082,0.492,0.13,0.818,0.147,0.979
				c0.023-0.043,0.109-0.213,0.271-0.512c0.162-0.289,0.264-0.465,0.296-0.529l1.042-1.752h1.215L173.09,71.115z"/>
			<path fill="#323130" d="M180.428,69.383h-2.829c-0.004,0.041-0.004,0.078-0.004,0.102c0,0.275,0.08,0.502,0.235,0.668
				c0.162,0.17,0.354,0.256,0.581,0.256c0.377,0,0.671-0.191,0.88-0.58l1.011,0.17c-0.199,0.402-0.459,0.707-0.793,0.91
				c-0.327,0.205-0.694,0.305-1.105,0.305c-0.56,0-1.014-0.178-1.368-0.531c-0.35-0.355-0.523-0.824-0.523-1.406
				c0-0.57,0.157-1.076,0.475-1.523c0.435-0.598,1.049-0.898,1.852-0.898c0.51,0,0.917,0.156,1.219,0.473
				c0.301,0.314,0.447,0.756,0.447,1.32C180.504,68.92,180.479,69.166,180.428,69.383z M179.479,68.693
				c0-0.049,0.006-0.086,0.006-0.113c0-0.307-0.074-0.537-0.214-0.695c-0.14-0.152-0.321-0.229-0.559-0.229
				c-0.229,0-0.441,0.088-0.623,0.264c-0.185,0.174-0.311,0.434-0.376,0.773H179.479z"/>
			<path fill="#323130" d="M182.538,66.953h1.054l-0.171,0.805c0.394-0.602,0.821-0.904,1.277-0.904
				c0.166,0,0.336,0.037,0.523,0.121l-0.433,0.922c-0.101-0.039-0.211-0.057-0.326-0.057c-0.192,0-0.391,0.074-0.592,0.219
				c-0.2,0.148-0.356,0.344-0.468,0.588s-0.227,0.631-0.337,1.164l-0.275,1.305h-1.126L182.538,66.953z"/>
			<path fill="#323130" d="M185.306,66.953h1.07l-0.111,0.537c0.269-0.229,0.519-0.393,0.748-0.492
				c0.233-0.1,0.478-0.145,0.735-0.145c0.341,0,0.61,0.1,0.814,0.293c0.197,0.197,0.291,0.455,0.291,0.779
				c0,0.146-0.039,0.424-0.126,0.834l-0.495,2.355h-1.126l0.499-2.365c0.068-0.352,0.107-0.563,0.107-0.631
				c0-0.146-0.043-0.256-0.13-0.338c-0.083-0.084-0.203-0.125-0.354-0.125c-0.166,0-0.352,0.068-0.553,0.211
				c-0.2,0.137-0.357,0.32-0.475,0.547c-0.083,0.162-0.175,0.492-0.28,0.99l-0.357,1.711h-1.129L185.306,66.953z"/>
			<path fill="#323130" d="M190.617,66.953h1.059l-0.106,0.502c0.416-0.402,0.849-0.602,1.307-0.602
				c0.315,0,0.557,0.064,0.727,0.193c0.171,0.131,0.281,0.314,0.329,0.543c0.142-0.209,0.35-0.385,0.619-0.525
				c0.271-0.143,0.551-0.211,0.84-0.211c0.331,0,0.595,0.086,0.778,0.266c0.188,0.176,0.279,0.412,0.279,0.707
				c0,0.141-0.034,0.393-0.109,0.744l-0.534,2.545h-1.126l0.534-2.545c0.064-0.32,0.094-0.5,0.094-0.541
				c0-0.115-0.029-0.207-0.098-0.273c-0.071-0.064-0.177-0.1-0.316-0.1c-0.28,0-0.528,0.146-0.753,0.443
				c-0.156,0.213-0.292,0.586-0.405,1.125l-0.397,1.891h-1.128l0.526-2.518c0.059-0.291,0.09-0.479,0.09-0.564
				c0-0.109-0.04-0.201-0.112-0.271c-0.075-0.068-0.177-0.105-0.307-0.105c-0.124,0-0.25,0.037-0.382,0.111
				c-0.13,0.07-0.249,0.172-0.345,0.301c-0.1,0.129-0.183,0.291-0.254,0.492c-0.029,0.096-0.081,0.309-0.151,0.641l-0.403,1.914
				h-1.126L190.617,66.953z"/>
			<path fill="#323130" d="M201.887,69.383h-2.829c-0.006,0.041-0.006,0.078-0.006,0.102c0,0.275,0.08,0.502,0.239,0.668
				c0.16,0.17,0.354,0.256,0.579,0.256c0.377,0,0.671-0.191,0.88-0.58l1.009,0.17c-0.198,0.402-0.46,0.707-0.791,0.91
				c-0.327,0.205-0.694,0.305-1.105,0.305c-0.56,0-1.013-0.178-1.368-0.531c-0.349-0.355-0.526-0.824-0.526-1.406
				c0-0.57,0.16-1.076,0.479-1.523c0.434-0.598,1.047-0.898,1.849-0.898c0.512,0,0.917,0.156,1.219,0.473
				c0.304,0.314,0.45,0.756,0.45,1.32C201.964,68.92,201.938,69.166,201.887,69.383z M200.937,68.693
				c0-0.049,0.004-0.086,0.004-0.113c0-0.307-0.069-0.537-0.209-0.695c-0.14-0.152-0.322-0.229-0.562-0.229
				c-0.229,0-0.439,0.088-0.623,0.264c-0.183,0.174-0.308,0.434-0.376,0.773H200.937z"/>
			<path fill="#323130" d="M204.076,66.953h1.065l-0.109,0.537c0.266-0.229,0.517-0.393,0.752-0.492
				c0.232-0.1,0.476-0.145,0.728-0.145c0.349,0,0.62,0.1,0.814,0.293c0.198,0.197,0.299,0.455,0.299,0.779
				c0,0.146-0.044,0.424-0.132,0.834l-0.49,2.355h-1.125l0.493-2.365c0.074-0.352,0.108-0.563,0.108-0.631
				c0-0.146-0.042-0.256-0.128-0.338c-0.088-0.084-0.202-0.125-0.354-0.125c-0.166,0-0.348,0.068-0.551,0.211
				c-0.204,0.137-0.361,0.32-0.476,0.547c-0.084,0.162-0.178,0.492-0.285,0.99l-0.357,1.711h-1.126L204.076,66.953z"/>
			<path fill="#323130" d="M208.829,67.787l0.173-0.834h0.551l0.138-0.668l1.296-0.777l-0.306,1.445h0.689l-0.174,0.834h-0.689
				l-0.369,1.744c-0.064,0.318-0.097,0.496-0.097,0.543c0,0.082,0.026,0.15,0.083,0.199c0.055,0.047,0.153,0.074,0.298,0.074
				c0.049,0,0.174-0.012,0.373-0.031l-0.177,0.84c-0.192,0.035-0.393,0.057-0.6,0.057c-0.396,0-0.685-0.078-0.863-0.23
				c-0.185-0.15-0.277-0.361-0.277-0.635c0-0.131,0.055-0.424,0.149-0.887l0.351-1.674H208.829z"/>
			<path fill="#323130" d="M214.071,69.387c0-0.773,0.22-1.387,0.655-1.846c0.438-0.459,1.01-0.688,1.722-0.688
				c0.612,0,1.094,0.168,1.443,0.508c0.345,0.338,0.517,0.791,0.517,1.365c0,0.674-0.216,1.26-0.648,1.75
				c-0.432,0.49-1.013,0.736-1.738,0.736c-0.396,0-0.739-0.078-1.045-0.236c-0.303-0.156-0.527-0.379-0.677-0.668
				C214.147,70.025,214.071,69.715,214.071,69.387z M217.288,68.58c0-0.264-0.078-0.479-0.235-0.639
				c-0.151-0.16-0.353-0.242-0.604-0.242c-0.238,0-0.457,0.078-0.646,0.225c-0.188,0.15-0.338,0.369-0.442,0.654
				c-0.104,0.289-0.157,0.551-0.157,0.791c0,0.299,0.083,0.535,0.245,0.711c0.162,0.174,0.368,0.266,0.612,0.266
				c0.31,0,0.57-0.135,0.779-0.4C217.141,69.574,217.288,69.117,217.288,68.58z"/>
			<path fill="#323130" d="M222.181,66.953l-0.177,0.82h-0.8l-0.699,3.342h-1.128l0.7-3.342h-0.629l0.176-0.82h0.628l0.093-0.43
				c0.068-0.352,0.138-0.586,0.203-0.713c0.093-0.166,0.223-0.297,0.4-0.396c0.179-0.1,0.41-0.145,0.693-0.145
				c0.345,0,0.712,0.064,1.092,0.186l-0.217,0.807c-0.271-0.094-0.49-0.139-0.656-0.139c-0.13,0-0.227,0.043-0.288,0.123
				c-0.042,0.053-0.083,0.189-0.13,0.412l-0.063,0.295H222.181z"/>
			<path fill="#323130" d="M224.59,71.115l1.204-5.75h1.18l-1.201,5.75H224.59z"/>
			<path fill="#323130" d="M228.198,66.953h1.066l-0.108,0.537c0.266-0.229,0.514-0.393,0.75-0.492
				c0.232-0.1,0.477-0.145,0.732-0.145c0.345,0,0.615,0.1,0.813,0.293c0.197,0.197,0.295,0.455,0.295,0.779
				c0,0.146-0.043,0.424-0.131,0.834l-0.489,2.355h-1.127l0.494-2.365c0.073-0.352,0.109-0.563,0.109-0.631
				c0-0.146-0.044-0.256-0.128-0.338c-0.087-0.084-0.206-0.125-0.354-0.125c-0.164,0-0.348,0.068-0.549,0.211
				c-0.207,0.137-0.362,0.32-0.478,0.547c-0.083,0.162-0.179,0.492-0.284,0.99l-0.358,1.711h-1.129L228.198,66.953z"/>
			<path fill="#323130" d="M236.525,71.115h-1.066l0.091-0.449c-0.205,0.191-0.405,0.334-0.605,0.42
				c-0.193,0.082-0.418,0.127-0.666,0.127c-0.433,0-0.783-0.145-1.053-0.441c-0.27-0.295-0.405-0.729-0.405-1.303
				c0-0.67,0.191-1.27,0.569-1.811c0.377-0.535,0.876-0.805,1.495-0.805c0.564,0,0.983,0.221,1.265,0.664l0.449-2.152h1.133
				L236.525,71.115z M233.919,69.42c0,0.299,0.075,0.531,0.229,0.699c0.147,0.168,0.335,0.25,0.553,0.25
				c0.207,0,0.394-0.07,0.573-0.211c0.175-0.139,0.32-0.352,0.425-0.639c0.104-0.291,0.157-0.564,0.157-0.83
				c0-0.299-0.08-0.543-0.24-0.727c-0.167-0.184-0.35-0.279-0.564-0.279c-0.332,0-0.602,0.186-0.813,0.551
				C234.024,68.598,233.919,68.996,233.919,69.42z"/>
			<path fill="#323130" d="M238.902,66.953h1.127l-0.869,4.162h-1.128L238.902,66.953z M239.235,65.365h1.127l-0.216,1.021h-1.126
				L239.235,65.365z"/>
			<path fill="#323130" d="M242.303,68.133l-1.102-0.094c0.126-0.373,0.346-0.662,0.659-0.877c0.313-0.203,0.728-0.309,1.242-0.309
				c0.537,0,0.935,0.107,1.195,0.322c0.256,0.215,0.384,0.479,0.384,0.791c0,0.125-0.014,0.26-0.036,0.398
				c-0.021,0.141-0.1,0.514-0.231,1.115c-0.109,0.496-0.167,0.842-0.167,1.043c0,0.176,0.031,0.373,0.097,0.592h-1.098
				c-0.046-0.15-0.072-0.309-0.082-0.471c-0.168,0.184-0.357,0.324-0.572,0.424c-0.214,0.094-0.427,0.145-0.647,0.145
				c-0.346,0-0.635-0.113-0.857-0.34c-0.227-0.227-0.34-0.52-0.34-0.873c0-0.396,0.127-0.715,0.37-0.953
				c0.251-0.236,0.691-0.381,1.331-0.43c0.536-0.043,0.896-0.1,1.073-0.158c0.048-0.16,0.076-0.285,0.076-0.381
				c0-0.119-0.049-0.221-0.149-0.299c-0.097-0.082-0.24-0.123-0.433-0.123c-0.201,0-0.358,0.041-0.477,0.125
				C242.42,67.863,242.343,67.979,242.303,68.133z M243.374,69.176c-0.064,0.016-0.158,0.033-0.271,0.049
				c-0.563,0.068-0.936,0.17-1.106,0.299c-0.126,0.094-0.188,0.221-0.188,0.381c0,0.129,0.048,0.24,0.146,0.33
				c0.091,0.088,0.219,0.135,0.371,0.135c0.17,0,0.332-0.043,0.481-0.121c0.15-0.084,0.266-0.191,0.341-0.32
				c0.073-0.127,0.14-0.33,0.196-0.607L243.374,69.176z"/>
			<path fill="#323130" d="M248.76,71.115l1.205-5.75h4.271l-0.2,0.963h-3.086l-0.275,1.305h2.984l-0.201,0.961h-2.985l-0.358,1.559
				h3.354l-0.206,0.963H248.76z"/>
			<path fill="#323130" d="M255.009,66.953h1.072l-0.111,0.537c0.268-0.229,0.517-0.393,0.747-0.492
				c0.231-0.1,0.477-0.145,0.734-0.145c0.341,0,0.612,0.1,0.814,0.293c0.195,0.197,0.295,0.455,0.295,0.779
				c0,0.146-0.042,0.424-0.131,0.834l-0.493,2.355h-1.128l0.499-2.365c0.069-0.352,0.109-0.563,0.109-0.631
				c0-0.146-0.046-0.256-0.13-0.338c-0.084-0.084-0.201-0.125-0.355-0.125c-0.167,0-0.349,0.068-0.549,0.211
				c-0.204,0.137-0.36,0.32-0.479,0.547c-0.084,0.162-0.176,0.492-0.279,0.99l-0.356,1.711h-1.131L255.009,66.953z"/>
			<path fill="#323130" d="M259.763,67.787l0.176-0.834h0.551l0.136-0.668l1.295-0.777l-0.302,1.445h0.688l-0.173,0.834h-0.693
				l-0.362,1.744c-0.066,0.318-0.102,0.496-0.102,0.543c0,0.082,0.031,0.15,0.083,0.199c0.057,0.047,0.158,0.074,0.303,0.074
				c0.046,0,0.169-0.012,0.37-0.031l-0.178,0.84c-0.192,0.035-0.392,0.057-0.596,0.057c-0.399,0-0.689-0.078-0.872-0.23
				c-0.176-0.15-0.27-0.361-0.27-0.635c0-0.131,0.051-0.424,0.145-0.887l0.351-1.674H259.763z"/>
			<path fill="#323130" d="M266.229,69.383h-2.832c0,0.041,0,0.078,0,0.102c0,0.275,0.076,0.502,0.234,0.668
				c0.159,0.17,0.351,0.256,0.584,0.256c0.369,0,0.663-0.191,0.873-0.58l1.009,0.17c-0.196,0.402-0.46,0.707-0.786,0.91
				c-0.331,0.205-0.698,0.305-1.105,0.305c-0.563,0-1.021-0.178-1.368-0.531c-0.356-0.355-0.528-0.824-0.528-1.406
				c0-0.57,0.159-1.076,0.475-1.523c0.435-0.598,1.049-0.898,1.854-0.898c0.512,0,0.917,0.156,1.22,0.473
				c0.297,0.314,0.449,0.756,0.449,1.32C266.307,68.92,266.282,69.166,266.229,69.383z M265.277,68.693
				c0.002-0.049,0.002-0.086,0.002-0.113c0-0.307-0.069-0.537-0.205-0.695c-0.14-0.152-0.327-0.229-0.559-0.229
				c-0.237,0-0.439,0.088-0.629,0.264c-0.184,0.174-0.312,0.434-0.376,0.773H265.277z"/>
			<path fill="#323130" d="M268.334,66.953h1.056l-0.166,0.805c0.392-0.602,0.817-0.904,1.274-0.904
				c0.163,0,0.339,0.037,0.526,0.121l-0.433,0.922c-0.105-0.039-0.216-0.057-0.331-0.057c-0.19,0-0.391,0.074-0.588,0.219
				c-0.199,0.148-0.358,0.344-0.471,0.588c-0.114,0.244-0.224,0.631-0.333,1.164l-0.276,1.305h-1.126L268.334,66.953z"/>
			<path fill="#323130" d="M271.053,66.953h1.072l-0.092,0.426c0.228-0.189,0.44-0.326,0.643-0.404
				c0.195-0.084,0.411-0.121,0.638-0.121c0.437,0,0.793,0.15,1.059,0.449c0.268,0.303,0.397,0.752,0.397,1.344
				c0,0.754-0.228,1.387-0.686,1.906c-0.395,0.439-0.861,0.66-1.4,0.66c-0.551,0-0.97-0.223-1.253-0.67l-0.45,2.16h-1.13
				L271.053,66.953z M271.735,69.338c0,0.326,0.08,0.576,0.238,0.756c0.155,0.18,0.344,0.268,0.559,0.268
				c0.186,0,0.366-0.066,0.537-0.203c0.174-0.131,0.319-0.355,0.432-0.67c0.113-0.313,0.172-0.6,0.172-0.867
				c0-0.309-0.074-0.551-0.224-0.717c-0.149-0.164-0.342-0.248-0.572-0.248c-0.215,0-0.411,0.076-0.586,0.229
				c-0.18,0.154-0.313,0.377-0.411,0.676C271.782,68.855,271.735,69.117,271.735,69.338z"/>
			<path fill="#323130" d="M276.387,66.953h1.052l-0.164,0.805c0.392-0.602,0.815-0.904,1.277-0.904
				c0.159,0,0.336,0.037,0.523,0.121l-0.435,0.922c-0.104-0.039-0.213-0.057-0.326-0.057c-0.193,0-0.395,0.074-0.591,0.219
				c-0.199,0.148-0.357,0.344-0.469,0.588c-0.116,0.244-0.226,0.631-0.335,1.164l-0.274,1.305h-1.13L276.387,66.953z"/>
			<path fill="#323130" d="M279.141,66.953h1.129l-0.873,4.162h-1.127L279.141,66.953z M279.471,65.365h1.129l-0.214,1.021h-1.127
				L279.471,65.365z"/>
			<path fill="#323130" d="M280.803,69.949l1.091-0.174c0.096,0.232,0.22,0.395,0.363,0.49c0.146,0.094,0.338,0.143,0.589,0.143
				c0.258,0,0.464-0.057,0.617-0.172c0.108-0.08,0.162-0.174,0.162-0.287c0-0.076-0.024-0.143-0.084-0.203
				c-0.057-0.057-0.212-0.129-0.468-0.211c-0.681-0.223-1.1-0.402-1.268-0.535c-0.252-0.203-0.379-0.469-0.379-0.799
				s0.123-0.613,0.37-0.85c0.341-0.332,0.854-0.498,1.532-0.498c0.537,0,0.938,0.1,1.216,0.293c0.273,0.197,0.447,0.459,0.522,0.797
				l-1.04,0.178c-0.058-0.15-0.146-0.264-0.269-0.336c-0.166-0.104-0.37-0.156-0.607-0.156c-0.235,0-0.404,0.039-0.505,0.117
				c-0.106,0.08-0.158,0.17-0.158,0.271c0,0.104,0.052,0.189,0.158,0.258c0.065,0.043,0.275,0.115,0.633,0.221
				c0.551,0.158,0.916,0.314,1.104,0.467c0.263,0.221,0.395,0.482,0.395,0.787c0,0.395-0.17,0.736-0.501,1.029
				c-0.335,0.289-0.801,0.434-1.411,0.434c-0.602,0-1.063-0.109-1.392-0.332C281.143,70.66,280.919,70.352,280.803,69.949z"/>
			<path fill="#323130" d="M290.373,69.383h-2.826c-0.006,0.041-0.006,0.078-0.006,0.102c0,0.275,0.076,0.502,0.237,0.668
				c0.161,0.17,0.352,0.256,0.581,0.256c0.375,0,0.667-0.191,0.878-0.58l1.011,0.17c-0.198,0.402-0.459,0.707-0.793,0.91
				c-0.327,0.205-0.694,0.305-1.105,0.305c-0.562,0-1.014-0.178-1.368-0.531c-0.349-0.355-0.524-0.824-0.524-1.406
				c0-0.57,0.157-1.076,0.476-1.523c0.434-0.598,1.049-0.898,1.85-0.898c0.512,0,0.919,0.156,1.22,0.473
				c0.302,0.314,0.449,0.756,0.449,1.32C290.451,68.92,290.426,69.166,290.373,69.383z M289.427,68.693
				c0-0.049,0.003-0.086,0.003-0.113c0-0.307-0.07-0.537-0.21-0.695c-0.14-0.152-0.321-0.229-0.56-0.229
				c-0.23,0-0.442,0.088-0.625,0.264c-0.184,0.174-0.31,0.434-0.375,0.773H289.427z"/>
			<path fill="#323130" d="M291.527,69.949l1.092-0.174c0.094,0.232,0.221,0.395,0.363,0.49c0.144,0.094,0.34,0.143,0.59,0.143
				c0.259,0,0.464-0.057,0.617-0.172c0.108-0.08,0.16-0.174,0.16-0.287c0-0.076-0.024-0.143-0.081-0.203
				c-0.057-0.057-0.215-0.129-0.47-0.211c-0.683-0.223-1.101-0.402-1.267-0.535c-0.253-0.203-0.379-0.469-0.379-0.799
				s0.122-0.613,0.371-0.85c0.341-0.332,0.853-0.498,1.529-0.498c0.537,0,0.94,0.1,1.216,0.293c0.275,0.197,0.449,0.459,0.525,0.797
				l-1.042,0.178c-0.058-0.15-0.144-0.264-0.268-0.336c-0.17-0.104-0.37-0.156-0.607-0.156c-0.235,0-0.405,0.039-0.507,0.117
				c-0.105,0.08-0.155,0.17-0.155,0.271c0,0.104,0.05,0.189,0.155,0.258c0.067,0.043,0.277,0.115,0.634,0.221
				c0.553,0.158,0.916,0.314,1.105,0.467c0.264,0.221,0.393,0.482,0.393,0.787c0,0.395-0.169,0.736-0.499,1.029
				c-0.334,0.289-0.802,0.434-1.41,0.434c-0.604,0-1.065-0.109-1.394-0.332C291.868,70.66,291.646,70.352,291.527,69.949z"/>
			<path fill="#323130" d="M297.662,65.27h0.767c0.214,0.494,0.372,1,0.476,1.512c0.105,0.514,0.158,0.98,0.158,1.406
				c0,0.533-0.089,1.066-0.258,1.602c-0.172,0.537-0.438,1.086-0.79,1.646c-0.224,0.355-0.581,0.814-1.073,1.367h-0.854
				c0.498-0.584,0.882-1.135,1.153-1.643c0.27-0.516,0.472-1.076,0.609-1.684c0.128-0.607,0.197-1.203,0.197-1.783
				c0-0.398-0.03-0.779-0.087-1.148S297.804,65.75,297.662,65.27z"/>
		</g>
		<g>
			<path fill="#A51E22" d="M117.423,10.852h8.71l1.325,2.356h-2.391v4.563c0,0.629-0.196,1.229-0.589,1.797
				c-0.394,0.531-0.936,0.962-1.624,1.296l4.133,4.417l-1.477,0.881l-4.428-5.593c-0.589-0.745-0.994-1.315-1.211-1.707
				c-0.275-0.433-0.413-0.795-0.413-1.091c-0.02-0.332,0.099-0.608,0.355-0.824c0.236-0.236,0.512-0.353,0.826-0.353
				c0.196,0,0.432,0.07,0.708,0.207c0.274,0.137,0.531,0.315,0.769,0.529c0.076-0.119,0.156-0.274,0.235-0.47
				c0.039-0.275,0.058-0.511,0.058-0.708v-2.944h-3.659L117.423,10.852z"/>
			<path fill="#A51E22" d="M117.245,3.697c0.728,0,1.497,0.248,2.305,0.736c0.806,0.512,1.504,1.179,2.095,2.001
				c0.234,0.275,0.657,0.866,1.269,1.769c1.221,1.766,1.437,2.648,0.649,2.648l-2.804-3.68c-0.237-0.295-0.551-0.519-0.944-0.678
				c-0.375-0.177-0.787-0.265-1.242-0.265c-0.413,0-0.817,0.069-1.209,0.205l-1.181-2.502
				C116.458,3.815,116.813,3.736,117.245,3.697z"/>
			<path fill="#A51E22" d="M125.511,10.852h17.862l1.329,2.356h-2.068v12.367l-2.657-1.62v-5.889
				c-0.157-0.099-0.315-0.177-0.474-0.236c-0.139-0.059-0.274-0.077-0.414-0.059c-0.529,0-1.103,0.287-1.709,0.855
				c-0.591,0.551-1.102,1.296-1.535,2.238l-2.217-1.475c0.06-0.252,0.257-0.694,0.589-1.323c-0.196-0.253-0.431-0.442-0.707-0.559
				c-0.275-0.118-0.581-0.177-0.914-0.177c-0.65,0-1.192,0.216-1.627,0.649c-0.45,0.45-0.677,0.969-0.677,1.56
				c0,0.98,0.296,1.971,0.887,2.974c0.571,0.942,1.387,1.766,2.449,2.472l-0.738,0.882c-1.574-1.155-2.804-2.373-3.688-3.649
				c-0.886-1.256-1.33-2.493-1.33-3.71c0-1.04,0.343-1.904,1.035-2.59c0.688-0.728,1.523-1.089,2.507-1.089
				c0.452,0,0.993,0.187,1.624,0.558c0.572,0.375,1.162,0.923,1.771,1.651c0.415-0.573,0.856-1.001,1.328-1.296
				c0.455-0.315,0.944-0.473,1.478-0.473c0.434,0,0.856,0.091,1.268,0.266c0.393,0.176,0.756,0.432,1.094,0.767v-3.093H126.84
				L125.511,10.852z"/>
			<path fill="#A51E22" d="M149.658,10.852h3.836c-0.393-0.411-0.686-0.872-0.882-1.384c-0.236-0.548-0.337-1.068-0.297-1.56
				c0-0.922,0.374-1.726,1.123-2.415c0.747-0.686,1.651-1.01,2.715-0.97c0.928,0,1.957,0.422,3.098,1.265
				c1.222,0.922,2.354,2.12,3.397,3.592l-0.592,0.443c-0.809-0.922-1.664-1.639-2.569-2.151c-0.867-0.49-1.78-0.753-2.743-0.795
				c-0.727,0-1.317,0.247-1.771,0.737c-0.496,0.491-0.738,1.08-0.738,1.767c0,0.569,0.146,1.061,0.44,1.472h1.626l1.328,2.356
				h-2.067v12.367l-2.656-1.62V13.208h-1.92L149.658,10.852z"/>
			<path fill="#A51E22" d="M155.03,10.852h14.493l1.328,2.356h-2.063v12.367l-2.658-1.62v-2.501
				c-0.512,0.546-1.076,0.95-1.684,1.205c-0.612,0.276-1.231,0.414-1.86,0.414c-1.142,0-2.312-0.581-3.511-1.738
				c-1.2-1.138-1.799-2.277-1.799-3.415c0-0.962,0.399-1.768,1.205-2.416c0.791-0.667,1.761-0.989,2.924-0.972
				c0.748,0,1.566,0.237,2.452,0.709c0.844,0.469,1.604,1.118,2.272,1.942v-3.976h-9.773L155.03,10.852z M163.74,20.394
				c0.903-0.472,1.749-1.099,2.538-1.886c-0.476-0.549-0.986-0.981-1.537-1.296c-0.569-0.312-1.094-0.47-1.564-0.47
				c-0.985,0-1.896,0.275-2.746,0.825c-0.844,0.569-1.258,1.177-1.236,1.824c0,0.415,0.198,0.787,0.592,1.12
				c0.411,0.315,0.902,0.482,1.472,0.5C162.044,21.01,162.873,20.805,163.74,20.394z"/>
			<path fill="#A51E22" d="M168.461,10.852h18.629l1.329,2.356h-7.409v3.533c0.529-0.314,0.962-0.54,1.299-0.677
				c0.291-0.138,0.549-0.206,0.764-0.206c0.948,0,1.893,0.561,2.838,1.679c0.96,1.138,1.445,2.247,1.445,3.327
				c0,1.314-0.493,2.689-1.476,4.122l-2.361-1.621c0.53-0.646,0.974-1.332,1.328-2.06c0.293-0.687,0.442-1.325,0.442-1.916
				c0-0.331-0.11-0.606-0.324-0.823c-0.181-0.236-0.414-0.352-0.708-0.352c-0.534,0-1.093,0.157-1.683,0.469
				c-0.574,0.296-1.093,0.727-1.564,1.296v5.595l-2.657-1.62v-2.501c-0.592,0.488-1.102,0.842-1.534,1.059
				c-0.455,0.273-0.827,0.411-1.124,0.411c-1.101,0-2.215-0.56-3.334-1.678c-1.126-1.12-1.686-2.228-1.686-3.326
				c0-0.865,0.355-1.601,1.063-2.21c0.652-0.588,1.478-0.882,2.479-0.882c0.572,0,1.231,0.237,1.979,0.706
				c0.747,0.472,1.466,1.118,2.156,1.944v-4.27h-8.563L168.461,10.852z M176.371,20.067c0.708-0.332,1.423-0.803,2.131-1.412
				c-0.456-0.492-0.958-0.855-1.511-1.09c-0.566-0.256-1.1-0.382-1.594-0.382c-0.608,0-1.119,0.225-1.534,0.678
				c-0.436,0.393-0.659,0.902-0.678,1.528c0,0.335,0.125,0.61,0.384,0.828c0.236,0.233,0.55,0.352,0.944,0.352
				C175.043,20.568,175.663,20.402,176.371,20.067z"/>
			<path fill="#A51E22" d="M192.681,10.852l1.33,2.356h-2.063v12.367l-2.658-1.62V13.208h-14.038l-1.327-2.356H192.681z"/>
			<path fill="#A51E22" d="M191.415,10.852h15.79l1.33,2.356h-2.068v12.367l-2.656-1.62v-4.566c-0.396,0.355-0.807,0.62-1.238,0.796
				c-0.454,0.178-0.878,0.256-1.271,0.237c-0.472,0-0.961-0.127-1.472-0.383c-0.453-0.216-0.898-0.579-1.33-1.091
				c-0.039,0.453-0.234,0.875-0.589,1.269c-0.355,0.39-0.848,0.705-1.479,0.942l4.074,4.122l-1.063,0.881l-3.453-3.826
				c-0.75-0.804-1.381-1.629-1.892-2.474c-0.453-0.823-0.659-1.473-0.617-1.942c0-0.275,0.118-0.512,0.354-0.709
				c0.214-0.174,0.489-0.283,0.826-0.323c0.097,0,0.224,0.041,0.385,0.118l0.647,0.324c0.14,0,0.235-0.077,0.297-0.235
				c0.08-0.137,0.126-0.305,0.146-0.501v-3.386h-3.393L191.415,10.852z M202.244,17.655c0.494-0.255,1.015-0.658,1.566-1.208v-3.239
				h-5.02v4.27c0.199,0.198,0.485,0.343,0.858,0.442c0.298,0.098,0.699,0.146,1.211,0.146
				C201.275,18.066,201.735,17.928,202.244,17.655z"/>
			<path fill="#A51E22" d="M212.876,10.852h3.835c-0.392-0.411-0.688-0.872-0.885-1.384c-0.235-0.548-0.335-1.068-0.294-1.56
				c0-0.922,0.37-1.726,1.12-2.415c0.744-0.686,1.655-1.01,2.719-0.97c0.923,0,1.957,0.422,3.098,1.265
				c1.22,0.922,2.351,2.12,3.396,3.592l-0.593,0.443c-0.807-0.922-1.662-1.639-2.568-2.151c-0.865-0.49-1.781-0.753-2.743-0.795
				c-0.731,0-1.32,0.247-1.775,0.737c-0.489,0.491-0.734,1.08-0.734,1.767c0,0.569,0.144,1.061,0.441,1.472h1.623l1.329,2.356
				h-2.064v12.367l-2.658-1.62V13.208h-1.918L212.876,10.852z"/>
			<path fill="#A51E22" d="M218.247,10.852h12.544l1.328,2.356h-2.068v12.367l-2.65-1.62v-4.566h-3.25
				c-0.16,0-0.288,0.08-0.385,0.237c-0.14,0.138-0.209,0.306-0.209,0.5v1.033c0,0.176-0.064,0.314-0.204,0.41
				c-0.079,0.118-0.205,0.177-0.385,0.177c-0.53,0-1.112-0.411-1.74-1.237c-0.612-0.785-0.914-1.549-0.914-2.294
				c0-0.315,0.12-0.591,0.354-0.826c0.215-0.237,0.49-0.352,0.827-0.352h5.905v-3.83h-7.824L218.247,10.852z"/>
			<path fill="#A51E22" d="M228.988,10.852h13.613l1.328,2.356h-2.068v12.367l-2.656-1.62V13.208h-3.54v7.361
				c0,0.256-0.093,0.472-0.268,0.648c-0.156,0.158-0.362,0.238-0.62,0.238c-0.592,0-1.387-0.462-2.391-1.387
				c-0.967-0.922-1.446-1.687-1.446-2.297c0-0.194,0.068-0.363,0.204-0.5c0.12-0.155,0.298-0.233,0.533-0.233h1.33v-3.83h-2.689
				L228.988,10.852z"/>
			<path fill="#A51E22" d="M242.396,10.852h14.107l1.331,2.356h-2.069v12.367l-2.655-1.62v-3.387h-4.429v1.178
				c0,0.235-0.081,0.453-0.237,0.649c-0.117,0.157-0.282,0.233-0.498,0.233c-0.436,0-1.132-0.5-2.098-1.501
				c-1.004-1.001-1.487-1.726-1.445-2.179c0-0.194,0.067-0.362,0.203-0.5c0.118-0.155,0.298-0.233,0.533-0.233h0.888v-5.007h-2.303
				L242.396,10.852z M253.11,18.215v-5.007h-4.429v5.007H253.11z"/>
			<path fill="#A51E22" d="M263.855,10.852h3.839c-0.394-0.411-0.692-0.872-0.889-1.384c-0.235-0.548-0.331-1.068-0.292-1.56
				c0-0.922,0.372-1.726,1.118-2.415c0.748-0.686,1.657-1.01,2.719-0.97c0.923,0,1.959,0.422,3.1,1.265
				c1.22,0.922,2.351,2.12,3.396,3.592l-0.595,0.443c-0.805-0.922-1.66-1.639-2.565-2.151c-0.866-0.49-1.784-0.753-2.746-0.795
				c-0.729,0-1.318,0.247-1.772,0.737c-0.49,0.491-0.735,1.08-0.735,1.767c0,0.569,0.144,1.061,0.439,1.472h1.623l1.331,2.356
				h-2.064v12.367l-2.658-1.62V13.208h-1.918L263.855,10.852z"/>
			<path fill="#A51E22" d="M269.228,10.852h17.859l1.329,2.356h-2.067v12.367l-2.657-1.62v-5.889
				c-0.157-0.099-0.315-0.177-0.474-0.236c-0.135-0.059-0.273-0.077-0.409-0.059c-0.534,0-1.107,0.287-1.714,0.855
				c-0.59,0.551-1.1,1.296-1.533,2.238l-2.216-1.475c0.06-0.252,0.259-0.694,0.589-1.323c-0.197-0.253-0.434-0.442-0.709-0.559
				c-0.271-0.118-0.578-0.177-0.912-0.177c-0.652,0-1.194,0.216-1.627,0.649c-0.449,0.45-0.675,0.969-0.675,1.56
				c0,0.98,0.29,1.971,0.887,2.974c0.566,0.942,1.385,1.766,2.447,2.472l-0.742,0.882c-1.571-1.155-2.801-2.373-3.687-3.649
				c-0.887-1.256-1.328-2.493-1.328-3.71c0-1.04,0.345-1.904,1.031-2.59c0.69-0.728,1.525-1.089,2.513-1.089
				c0.452,0,0.993,0.187,1.62,0.558c0.573,0.375,1.164,0.923,1.772,1.651c0.415-0.573,0.857-1.001,1.33-1.296
				c0.453-0.315,0.941-0.473,1.475-0.473c0.433,0,0.857,0.091,1.266,0.266c0.396,0.176,0.765,0.432,1.096,0.767v-3.093h-13.135
				L269.228,10.852z"/>
			<path fill="#A51E22" d="M285.344,10.852h3.837c-0.394-0.411-0.687-0.872-0.882-1.384c-0.238-0.548-0.338-1.068-0.298-1.56
				c0-0.922,0.375-1.726,1.121-2.415c0.749-0.686,1.655-1.01,2.714-0.97c0.927,0,1.962,0.422,3.103,1.265
				c1.219,0.922,2.351,2.12,3.395,3.592l-0.591,0.443c-0.809-0.922-1.663-1.639-2.569-2.151c-0.864-0.49-1.78-0.753-2.745-0.795
				c-0.728,0-1.314,0.247-1.768,0.737c-0.495,0.491-0.741,1.08-0.741,1.767c0,0.569,0.148,1.061,0.443,1.472h1.626l1.327,2.356
				h-2.068v12.367l-2.655-1.62V13.208h-1.92L285.344,10.852z"/>
			<path fill="#A51E22" d="M290.716,10.852h14.113l1.329,2.356h-2.068v12.367l-2.659-1.62v-3.387h-4.425v1.178
				c0,0.235-0.08,0.453-0.237,0.649c-0.118,0.157-0.282,0.233-0.503,0.233c-0.432,0-1.133-0.5-2.097-1.501
				c-1.001-1.001-1.489-1.726-1.442-2.179c0-0.194,0.063-0.362,0.204-0.5c0.119-0.155,0.294-0.233,0.53-0.233h0.886v-5.007h-2.303
				L290.716,10.852z M301.431,18.215v-5.007h-4.425v5.007H301.431z"/>
			<path fill="#A51E22" d="M304.146,10.852h12.399l1.328,2.356h-2.893v2.502c0,0.572-0.179,1.06-0.535,1.474
				c-0.352,0.412-0.761,0.607-1.234,0.587c-1.376,0.158-2.461,0.58-3.249,1.268c-0.885,0.686-1.328,1.491-1.328,2.416
				c0.021,0.627,0.214,1.119,0.592,1.47c0.433,0.394,0.925,0.59,1.476,0.59c0.866,0,1.74-0.167,2.628-0.5
				c0.906-0.354,1.698-0.826,2.392-1.414l1.62,1.914c-0.825,0.666-1.603,1.178-2.328,1.53c-0.731,0.354-1.431,0.531-2.099,0.531
				c-1.676,0-3.178-0.57-4.516-1.709c-1.319-1.157-1.98-2.451-1.98-3.886c0-0.961,0.415-1.834,1.242-2.62
				c0.826-0.766,1.889-1.267,3.188-1.502c0.415-0.059,0.768-0.235,1.065-0.53c0.275-0.277,0.411-0.589,0.411-0.942v-1.178h-6.85
				L304.146,10.852z"/>
			<path fill="#A51E22" d="M306.631,3.697c0.729,0,1.493,0.248,2.304,0.736c0.803,0.512,1.502,1.179,2.093,2.001
				c0.236,0.275,0.66,0.866,1.271,1.769c1.22,1.766,1.433,2.648,0.646,2.648l-2.803-3.68c-0.235-0.295-0.551-0.519-0.942-0.678
				c-0.377-0.177-0.791-0.265-1.243-0.265c-0.415,0-0.818,0.069-1.209,0.205l-1.182-2.502
				C305.842,3.815,306.196,3.736,306.631,3.697z"/>
			<path fill="#A51E22" d="M314.896,10.852h13.722l1.332,2.356h-2.274v3.83h-5.31c-0.479,0-0.889,0.146-1.241,0.44
				c-0.354,0.293-0.534,0.639-0.534,1.03c0,0.176,0.078,0.315,0.235,0.413c0.182,0.118,0.394,0.176,0.651,0.176
				c0.409,0,1.016-0.097,1.801-0.293c0.828-0.198,1.455-0.295,1.891-0.295c0.746,0,1.563,0.511,2.45,1.532
				c0.904,1.039,1.368,1.954,1.386,2.738c-0.018,0.745-0.503,1.402-1.445,1.974c-0.946,0.549-2.086,0.824-3.424,0.824
				c-1.163,0-2.393-0.394-3.689-1.178c-1.281-0.745-2.512-1.824-3.691-3.238l0.737-0.736c0.825,0.941,1.704,1.659,2.624,2.15
				c0.908,0.489,1.853,0.753,2.839,0.792c1.041,0,1.906-0.186,2.597-0.558c0.707-0.372,1.071-0.825,1.09-1.353
				c0-0.177-0.066-0.316-0.202-0.414c-0.118-0.118-0.298-0.176-0.533-0.176c-0.377,0-0.937,0.098-1.684,0.295
				c-0.745,0.196-1.32,0.295-1.713,0.295c-0.727,0-1.543-0.571-2.448-1.709c-0.904-1.1-1.367-2.1-1.39-3.004
				c0-0.607,0.187-1.099,0.565-1.473c0.391-0.391,0.843-0.587,1.354-0.587h4.429v-1.473h-8.796L314.896,10.852z"/>
		</g>
		<g>
			<path fill="#323130" d="M184.318,31.044c0.366-0.733,0.862-1.241,1.493-1.521l0.212,0.172c-0.362,0.313-0.654,0.813-0.868,1.5
				c-0.208,0.683-0.309,1.491-0.309,2.418c0,0.937,0.101,1.745,0.309,2.43c0.208,0.693,0.498,1.191,0.868,1.5l-0.268,0.119
				c-0.606-0.301-1.09-0.815-1.448-1.544c-0.356-0.727-0.537-1.562-0.537-2.505C183.771,32.644,183.951,31.788,184.318,31.044z"/>
			<path fill="#323130" d="M186.153,30.809c0.202-0.187,0.441-0.275,0.719-0.267c0.338,0,0.673,0.166,1.011,0.502
				c0.329,0.329,0.494,0.661,0.494,0.997v1.552h1.503v-1.821h-1.072l-0.537-0.857h2.845l0.483,0.857h-0.753v4.499l-0.966-0.59V34.45
				h-1.503v0.322c0,0.12-0.029,0.22-0.085,0.298c-0.066,0.086-0.145,0.13-0.236,0.13c-0.224,0-0.505-0.163-0.84-0.484
				c-0.35-0.321-0.518-0.588-0.503-0.803c0.008-0.091,0.046-0.17,0.119-0.236c0.07-0.056,0.156-0.085,0.258-0.085h0.321v-0.591
				c-0.432-0.071-0.805-0.25-1.118-0.544c-0.293-0.279-0.438-0.597-0.438-0.952C185.855,31.243,185.956,31.01,186.153,30.809z
				 M187.411,31.558c0-0.129-0.023-0.226-0.065-0.298c-0.028-0.085-0.08-0.13-0.148-0.13c-0.102,0-0.188,0.057-0.259,0.17
				c-0.072,0.116-0.112,0.254-0.118,0.42c0,0.234,0.052,0.431,0.159,0.586c0.116,0.172,0.258,0.278,0.432,0.323V31.558z"/>
			<path fill="#323130" d="M193.024,30.916l0.483,0.857h-0.751v4.499l-0.967-0.59v-3.909h-0.697l-0.482-0.857H193.024z"/>
			<path fill="#323130" d="M191.972,30.916h4.488l0.484,0.857h-0.871v1.659c0,0.23-0.071,0.449-0.213,0.654
				c-0.146,0.191-0.343,0.349-0.592,0.472l1.501,1.606l-0.533,0.32l-1.612-2.034c-0.214-0.271-0.358-0.48-0.441-0.621
				c-0.098-0.157-0.148-0.292-0.148-0.398c-0.01-0.119,0.036-0.221,0.128-0.299c0.088-0.086,0.187-0.13,0.3-0.13
				c0.075,0,0.158,0.028,0.258,0.078c0.102,0.05,0.196,0.114,0.279,0.192c0.027-0.043,0.059-0.099,0.086-0.17
				c0.016-0.102,0.023-0.187,0.023-0.258v-1.071h-2.653L191.972,30.916z"/>
			<path fill="#323130" d="M195.986,30.916h4.724l0.482,0.857h-0.752v4.499l-0.967-0.59v-2.302h-0.966
				c-0.243,0-0.443,0.085-0.6,0.258c-0.173,0.155-0.259,0.355-0.259,0.599c0,0.314,0.072,0.63,0.214,0.953
				c0.151,0.305,0.366,0.597,0.645,0.868l-0.321,0.214c-0.436-0.457-0.766-0.915-0.986-1.371c-0.236-0.45-0.355-0.885-0.355-1.307
				c0-0.293,0.119-0.547,0.355-0.761c0.242-0.208,0.535-0.31,0.88-0.31h1.394v-0.75h-3.006L195.986,30.916z"/>
			<path fill="#323130" d="M204.035,30.916h5.745l0.484,0.857h-0.754v4.499l-0.964-0.59v-1.661c-0.146,0.13-0.294,0.226-0.451,0.289
				c-0.167,0.064-0.318,0.094-0.464,0.086c-0.171,0-0.349-0.047-0.535-0.139c-0.167-0.077-0.325-0.211-0.48-0.397
				c-0.018,0.166-0.09,0.32-0.22,0.46c-0.126,0.142-0.304,0.259-0.537,0.344l1.483,1.5l-0.386,0.32l-1.259-1.393
				c-0.271-0.292-0.496-0.591-0.686-0.9c-0.165-0.297-0.24-0.534-0.222-0.705c0-0.1,0.038-0.186,0.127-0.258
				c0.079-0.063,0.177-0.104,0.301-0.118c0.036,0,0.08,0.015,0.14,0.042l0.234,0.119c0.051,0,0.085-0.027,0.105-0.086
				c0.029-0.05,0.048-0.112,0.058-0.184v-1.23h-1.234L204.035,30.916z M207.979,33.39c0.174-0.094,0.366-0.24,0.567-0.438v-1.179
				h-1.825v1.552c0.07,0.072,0.174,0.126,0.31,0.162c0.107,0.035,0.254,0.051,0.441,0.051
				C207.622,33.538,207.789,33.49,207.979,33.39z"/>
			<path fill="#323130" d="M209.416,30.916h3.166l0.482,0.857h-0.867v1.659c0,0.23-0.074,0.449-0.216,0.654
				c-0.145,0.191-0.341,0.349-0.591,0.472l1.501,1.606l-0.535,0.32l-1.609-2.034c-0.215-0.271-0.36-0.48-0.439-0.621
				c-0.1-0.157-0.152-0.292-0.152-0.398c-0.007-0.119,0.036-0.221,0.131-0.299c0.086-0.086,0.186-0.13,0.299-0.13
				c0.073,0,0.156,0.028,0.257,0.078c0.102,0.05,0.195,0.114,0.279,0.192c0.029-0.043,0.06-0.099,0.086-0.17
				c0.016-0.102,0.021-0.187,0.021-0.258v-1.071H209.9L209.416,30.916z"/>
			<path fill="#323130" d="M212.11,30.916h6.771l0.484,0.857h-2.695v1.286c0.196-0.114,0.354-0.197,0.476-0.248
				c0.108-0.05,0.197-0.074,0.277-0.074c0.344,0,0.688,0.203,1.03,0.609c0.352,0.416,0.525,0.817,0.525,1.212
				c0,0.478-0.176,0.978-0.535,1.499l-0.858-0.59c0.191-0.234,0.351-0.485,0.483-0.75c0.105-0.25,0.163-0.48,0.163-0.696
				c0-0.122-0.042-0.22-0.12-0.297c-0.065-0.085-0.149-0.13-0.257-0.13c-0.195,0-0.399,0.057-0.612,0.17
				c-0.207,0.108-0.397,0.265-0.572,0.473v2.035l-0.963-0.59v-0.909c-0.218,0.178-0.401,0.306-0.56,0.385
				c-0.162,0.1-0.302,0.15-0.407,0.15c-0.4,0-0.806-0.203-1.213-0.609c-0.406-0.409-0.615-0.813-0.615-1.211
				c0-0.313,0.13-0.58,0.389-0.804c0.236-0.212,0.537-0.319,0.903-0.319c0.207,0,0.446,0.084,0.719,0.255
				c0.27,0.17,0.534,0.406,0.784,0.707v-1.552h-3.114L212.11,30.916z M214.987,34.268c0.256-0.122,0.514-0.292,0.771-0.516
				c-0.163-0.176-0.347-0.309-0.547-0.395c-0.209-0.091-0.401-0.139-0.581-0.139c-0.22,0-0.407,0.083-0.557,0.247
				c-0.156,0.144-0.24,0.329-0.246,0.556c0,0.122,0.044,0.221,0.14,0.3c0.086,0.086,0.199,0.13,0.343,0.13
				C214.505,34.45,214.728,34.389,214.987,34.268z"/>
			<path fill="#323130" d="M220.81,30.916l0.482,0.857h-0.75v4.499l-0.966-0.59v-3.909h-0.698l-0.482-0.857H220.81z"/>
			<path fill="#323130" d="M208.165,30.916h15.476l0.479,0.857h-0.868v1.659c0,0.23-0.072,0.449-0.216,0.654
				c-0.144,0.191-0.34,0.349-0.589,0.472l1.501,1.606l-0.535,0.32l-1.61-2.034c-0.215-0.271-0.359-0.48-0.439-0.621
				c-0.1-0.157-0.15-0.292-0.15-0.398c-0.01-0.119,0.035-0.221,0.128-0.299c0.085-0.086,0.188-0.13,0.3-0.13
				c0.072,0,0.157,0.028,0.258,0.078s0.196,0.114,0.281,0.192c0.027-0.043,0.057-0.099,0.083-0.17
				c0.018-0.102,0.022-0.187,0.022-0.258v-1.071h-13.637L208.165,30.916z"/>
			<path fill="#323130" d="M226.456,30.916h6.772l0.483,0.857h-2.693v1.286c0.194-0.114,0.352-0.197,0.474-0.248
				c0.105-0.05,0.199-0.074,0.277-0.074c0.344,0,0.689,0.203,1.032,0.609c0.349,0.416,0.523,0.817,0.523,1.212
				c0,0.478-0.177,0.978-0.535,1.499l-0.856-0.59c0.191-0.234,0.351-0.485,0.48-0.75c0.108-0.25,0.162-0.48,0.162-0.696
				c0-0.122-0.038-0.22-0.117-0.297c-0.066-0.085-0.152-0.13-0.258-0.13c-0.194,0-0.397,0.057-0.611,0.17
				c-0.208,0.108-0.399,0.265-0.571,0.473v2.035l-0.968-0.59v-0.909c-0.213,0.178-0.399,0.306-0.556,0.385
				c-0.164,0.1-0.302,0.15-0.409,0.15c-0.399,0-0.805-0.203-1.212-0.609c-0.407-0.409-0.613-0.813-0.613-1.211
				c0-0.313,0.128-0.58,0.389-0.804c0.235-0.212,0.537-0.319,0.901-0.319c0.207,0,0.447,0.084,0.721,0.255
				c0.27,0.17,0.531,0.406,0.779,0.707v-1.552h-3.109L226.456,30.916z M229.336,34.268c0.255-0.122,0.512-0.292,0.771-0.516
				c-0.165-0.176-0.347-0.309-0.549-0.395c-0.207-0.091-0.399-0.139-0.578-0.139c-0.223,0-0.409,0.083-0.559,0.247
				c-0.156,0.144-0.239,0.329-0.247,0.556c0,0.122,0.046,0.221,0.14,0.3c0.085,0.086,0.198,0.13,0.345,0.13
				C228.851,34.45,229.076,34.389,229.336,34.268z"/>
			<path fill="#323130" d="M235.291,30.916l0.482,0.857h-0.75v4.499l-0.968-0.59v-3.909h-2.823l-0.485-0.857H235.291z"/>
			<path fill="#323130" d="M238.241,30.916h4.379l0.483,0.857h-1.384c0.192,0.165,0.353,0.344,0.482,0.534
				c0.105,0.188,0.162,0.366,0.162,0.537c0,0.101-0.047,0.221-0.142,0.364c-0.1,0.121-0.231,0.232-0.396,0.33
				c0.284,0.157,0.513,0.356,0.676,0.591c0.157,0.219,0.236,0.452,0.236,0.694c0,0.331-0.124,0.604-0.366,0.827
				c-0.236,0.234-0.525,0.352-0.87,0.352c-0.449,0-0.903-0.175-1.361-0.524c-0.451-0.343-0.854-0.809-1.216-1.403l0.27-0.214
				c0.216,0.378,0.479,0.679,0.793,0.9c0.323,0.221,0.65,0.331,0.978,0.331c0.231,0,0.437-0.07,0.614-0.213
				c0.162-0.15,0.247-0.328,0.247-0.535c0-0.114-0.036-0.222-0.107-0.323c-0.085-0.106-0.194-0.195-0.324-0.269
				c-0.292,0.108-0.599,0.162-0.913,0.162l-0.48-0.804c0.365,0.03,0.72-0.02,1.063-0.149c0.307-0.129,0.455-0.293,0.438-0.491
				c0-0.151-0.033-0.282-0.107-0.397c-0.071-0.12-0.178-0.222-0.319-0.3h-2.352L238.241,30.916z"/>
			<path fill="#323130" d="M242.751,30.916h4.841l0.483,0.857h-0.751v4.499l-0.967-0.59v-1.124c-0.121,0.136-0.26,0.238-0.417,0.309
				c-0.178,0.081-0.363,0.118-0.549,0.118c-0.327,0-0.675-0.157-1.04-0.473c-0.352-0.312-0.577-0.653-0.677-1.026v-1.714h-0.439
				L242.751,30.916z M245.778,33.937c0.243-0.152,0.438-0.361,0.579-0.632v-1.532h-1.717v2.035c0,0.107,0.032,0.192,0.096,0.258
				c0.06,0.07,0.134,0.108,0.228,0.116C245.256,34.182,245.529,34.101,245.778,33.937z"/>
			<path fill="#323130" d="M247.717,30.916h6.773l0.482,0.857h-2.694v1.286c0.193-0.114,0.35-0.197,0.475-0.248
				c0.106-0.05,0.197-0.074,0.276-0.074c0.344,0,0.688,0.203,1.032,0.609c0.349,0.416,0.523,0.817,0.523,1.212
				c0,0.478-0.177,0.978-0.535,1.499l-0.857-0.59c0.193-0.234,0.354-0.485,0.483-0.75c0.104-0.25,0.161-0.48,0.161-0.696
				c0-0.122-0.039-0.22-0.119-0.297c-0.065-0.085-0.15-0.13-0.258-0.13c-0.193,0-0.396,0.057-0.611,0.17
				c-0.207,0.108-0.396,0.265-0.57,0.473v2.035l-0.965-0.59v-0.909c-0.215,0.178-0.401,0.306-0.56,0.385
				c-0.163,0.1-0.303,0.15-0.407,0.15c-0.398,0-0.804-0.203-1.213-0.609c-0.405-0.409-0.613-0.813-0.613-1.211
				c0-0.313,0.13-0.58,0.388-0.804c0.237-0.212,0.539-0.319,0.904-0.319c0.206,0,0.445,0.084,0.719,0.255
				c0.271,0.17,0.531,0.406,0.782,0.707v-1.552h-3.114L247.717,30.916z M250.593,34.268c0.258-0.122,0.516-0.292,0.773-0.516
				c-0.162-0.176-0.348-0.309-0.548-0.395c-0.208-0.091-0.399-0.139-0.579-0.139c-0.221,0-0.409,0.083-0.557,0.247
				c-0.158,0.144-0.241,0.329-0.247,0.556c0,0.122,0.044,0.221,0.14,0.3c0.085,0.086,0.197,0.13,0.342,0.13
				C250.11,34.45,250.335,34.389,250.593,34.268z"/>
			<path fill="#323130" d="M251.629,33.593v0.964l-2.469,2.3l-0.535-0.535L251.629,33.593z"/>
			<path fill="#323130" d="M239.308,30.916h20.316l0.481,0.857h-0.751v4.499l-0.966-0.59V34.45h-1.611v0.428
				c0,0.085-0.026,0.164-0.086,0.235c-0.042,0.057-0.104,0.087-0.184,0.087c-0.154,0-0.409-0.183-0.76-0.548
				c-0.364-0.365-0.541-0.627-0.527-0.793c0-0.07,0.025-0.131,0.075-0.182c0.045-0.056,0.107-0.085,0.194-0.085h0.322v-1.821
				h-16.023L239.308,30.916z M258.389,33.593v-1.821h-1.611v1.821H258.389z"/>
			<path fill="#323130" d="M260.977,35.99c0.207-0.683,0.311-1.489,0.311-2.418c0-0.936-0.104-1.745-0.311-2.431
				c-0.21-0.692-0.498-1.19-0.871-1.498l0.27-0.119c0.602,0.265,1.084,0.766,1.451,1.5c0.354,0.736,0.534,1.583,0.534,2.548
				c0,0.957-0.182,1.798-0.549,2.525c-0.371,0.745-0.867,1.265-1.49,1.566l-0.216-0.173C260.471,37.178,260.76,36.677,260.977,35.99
				z"/>
		</g>
	</g>
</g>
</svg>
